  0
SECTION
  2
HEADER
  9
$ANGBASE
  50
0.0
  9
$ANGDIR
  70
1
  9
$MEASUREMENT
  70
1
  0
ENDSEC
  0
SECTION
  2
TABLES
  0
TABLE
  2
LTYPE
  70
4
  0
LTYPE
  5
40F
  2
CONTINUOUS
  70
0
  3
Solid line
  72
65
  73
0
  40
0.0
  0
LTYPE
  5
410
  2
DASHDOT
 70
0
  3
Dash Dot ____ _ ____ _
 72
65
 73
4
 40
2.0
 49
1.25
 49
-0.25
 49
0.25
 49
-0.25
  0
LTYPE
  5
411
  2
DASHED
 70
0
  3
Dashed __ __ __ __ __
 72
65
 73
2
 40
0.75
 49
0.5
 49
-0.25
  0
LTYPE
  5
43B
  2
DOTTED
 70
0
  3
Dotted .  .  .  .
 72
65
 73
2
 40
0.2
 49
0.0
 49
-0.2
  0
ENDTAB
  0
TABLE
  2
STYLE
  70
4
  0
STYLE
  2
KICAD
  70
0
  40
0
  41
1
  42
1
  50
0
  71
0
  3
isocp.shx
  0
STYLE
  2
KICADB
  70
0
  40
0
  41
1
  42
1
  50
0
  71
0
  3
isocp.shx
  0
STYLE
  2
KICADI
  70
0
  40
0
  41
1
  42
1
  50
15
  71
0
  3
isocp.shx
  0
STYLE
  2
KICADBI
  70
0
  40
0
  41
1
  42
1
  50
15
  71
0
  3
isocp.shx
  0
ENDTAB
  0
TABLE
  2
LAYER
  70
1
  0
LAYER
  2
BLACK
  70
0
  62
7
  6
CONTINUOUS
  0
ENDTAB
  0
ENDSEC
  0
SECTION
  2
ENTITIES
0
LINE
8
BLACK
6
CONTINUOUS
10
142.9846619999999859
20
-91.6922749999999951
11
143.028458999999998
21
-91.7215399999999903
0
LINE
8
BLACK
6
CONTINUOUS
10
143.028458999999998
20
-91.7215399999999903
11
143.0577240000000074
21
-91.7653370000000024
0
LINE
8
BLACK
6
CONTINUOUS
10
143.0577240000000074
20
-91.7653370000000024
11
143.0679999999999836
21
-91.8169989999999956
0
LINE
8
BLACK
6
CONTINUOUS
10
143.0679999999999836
20
-91.8169989999999956
11
143.0679999999999836
21
-92.0869989999999916
0
LINE
8
BLACK
6
CONTINUOUS
10
143.0679999999999836
20
-92.0869989999999916
11
143.0577240000000074
21
-92.138660999999999
0
LINE
8
BLACK
6
CONTINUOUS
10
143.0577240000000074
20
-92.138660999999999
11
143.028458999999998
21
-92.1824579999999969
0
LINE
8
BLACK
6
CONTINUOUS
10
143.028458999999998
20
-92.1824579999999969
11
142.9846619999999859
21
-92.2117229999999921
0
LINE
8
BLACK
6
CONTINUOUS
10
142.9846619999999859
20
-92.2117229999999921
11
142.9329999999999927
21
-92.2219989999999967
0
LINE
8
BLACK
6
CONTINUOUS
10
142.9329999999999927
20
-92.2219989999999967
11
142.5629999999999882
21
-92.2219989999999967
0
LINE
8
BLACK
6
CONTINUOUS
10
142.5629999999999882
20
-92.2219989999999967
11
142.511337999999995
21
-92.2117229999999921
0
LINE
8
BLACK
6
CONTINUOUS
10
142.511337999999995
20
-92.2117229999999921
11
142.4675409999999829
21
-92.1824579999999969
0
LINE
8
BLACK
6
CONTINUOUS
10
142.4675409999999829
20
-92.1824579999999969
11
142.4382760000000019
21
-92.138660999999999
0
LINE
8
BLACK
6
CONTINUOUS
10
142.4382760000000019
20
-92.138660999999999
11
142.4279999999999973
21
-92.0869989999999916
0
LINE
8
BLACK
6
CONTINUOUS
10
142.4279999999999973
20
-92.0869989999999916
11
142.4279999999999973
21
-91.8169989999999956
0
LINE
8
BLACK
6
CONTINUOUS
10
142.4279999999999973
20
-91.8169989999999956
11
142.4382760000000019
21
-91.7653370000000024
0
LINE
8
BLACK
6
CONTINUOUS
10
142.4382760000000019
20
-91.7653370000000024
11
142.4675409999999829
21
-91.7215399999999903
0
LINE
8
BLACK
6
CONTINUOUS
10
142.4675409999999829
20
-91.7215399999999903
11
142.511337999999995
21
-91.6922749999999951
0
LINE
8
BLACK
6
CONTINUOUS
10
142.511337999999995
20
-91.6922749999999951
11
142.5629999999999882
21
-91.6819989999999905
0
LINE
8
BLACK
6
CONTINUOUS
10
142.5629999999999882
20
-91.6819989999999905
11
142.9329999999999927
21
-91.6819989999999905
0
LINE
8
BLACK
6
CONTINUOUS
10
142.9329999999999927
20
-91.6819989999999905
11
142.9846619999999859
21
-91.6922749999999951
0
LINE
8
BLACK
6
CONTINUOUS
10
142.9846619999999859
20
-90.6722749999999991
11
143.028458999999998
21
-90.7015399999999943
0
LINE
8
BLACK
6
CONTINUOUS
10
143.028458999999998
20
-90.7015399999999943
11
143.0577240000000074
21
-90.7453369999999921
0
LINE
8
BLACK
6
CONTINUOUS
10
143.0577240000000074
20
-90.7453369999999921
11
143.0679999999999836
21
-90.7969989999999996
0
LINE
8
BLACK
6
CONTINUOUS
10
143.0679999999999836
20
-90.7969989999999996
11
143.0679999999999836
21
-91.0669989999999956
0
LINE
8
BLACK
6
CONTINUOUS
10
143.0679999999999836
20
-91.0669989999999956
11
143.0577240000000074
21
-91.1186609999999888
0
LINE
8
BLACK
6
CONTINUOUS
10
143.0577240000000074
20
-91.1186609999999888
11
143.028458999999998
21
-91.1624580000000009
0
LINE
8
BLACK
6
CONTINUOUS
10
143.028458999999998
20
-91.1624580000000009
11
142.9846619999999859
21
-91.1917229999999961
0
LINE
8
BLACK
6
CONTINUOUS
10
142.9846619999999859
20
-91.1917229999999961
11
142.9329999999999927
21
-91.2019990000000007
0
LINE
8
BLACK
6
CONTINUOUS
10
142.9329999999999927
20
-91.2019990000000007
11
142.5629999999999882
21
-91.2019990000000007
0
LINE
8
BLACK
6
CONTINUOUS
10
142.5629999999999882
20
-91.2019990000000007
11
142.511337999999995
21
-91.1917229999999961
0
LINE
8
BLACK
6
CONTINUOUS
10
142.511337999999995
20
-91.1917229999999961
11
142.4675409999999829
21
-91.1624580000000009
0
LINE
8
BLACK
6
CONTINUOUS
10
142.4675409999999829
20
-91.1624580000000009
11
142.4382760000000019
21
-91.1186609999999888
0
LINE
8
BLACK
6
CONTINUOUS
10
142.4382760000000019
20
-91.1186609999999888
11
142.4279999999999973
21
-91.0669989999999956
0
LINE
8
BLACK
6
CONTINUOUS
10
142.4279999999999973
20
-91.0669989999999956
11
142.4279999999999973
21
-90.7969989999999996
0
LINE
8
BLACK
6
CONTINUOUS
10
142.4279999999999973
20
-90.7969989999999996
11
142.4382760000000019
21
-90.7453369999999921
0
LINE
8
BLACK
6
CONTINUOUS
10
142.4382760000000019
20
-90.7453369999999921
11
142.4675409999999829
21
-90.7015399999999943
0
LINE
8
BLACK
6
CONTINUOUS
10
142.4675409999999829
20
-90.7015399999999943
11
142.511337999999995
21
-90.6722749999999991
0
LINE
8
BLACK
6
CONTINUOUS
10
142.511337999999995
20
-90.6722749999999991
11
142.5629999999999882
21
-90.6619989999999945
0
LINE
8
BLACK
6
CONTINUOUS
10
142.5629999999999882
20
-90.6619989999999945
11
142.9329999999999927
21
-90.6619989999999945
0
LINE
8
BLACK
6
CONTINUOUS
10
142.9329999999999927
20
-90.6619989999999945
11
142.9846619999999859
21
-90.6722749999999991
0
LINE
8
BLACK
6
CONTINUOUS
10
143.0879620000000045
20
-86.2186509999999942
11
143.158929999999998
21
-86.2660699999999991
0
LINE
8
BLACK
6
CONTINUOUS
10
143.158929999999998
20
-86.2660699999999991
11
143.2063489999999888
21
-86.3370379999999926
0
LINE
8
BLACK
6
CONTINUOUS
10
143.2063489999999888
20
-86.3370379999999926
11
143.2229999999999848
21
-86.4207499999999982
0
LINE
8
BLACK
6
CONTINUOUS
10
143.2229999999999848
20
-86.4207499999999982
11
143.2229999999999848
21
-86.8582499999999982
0
LINE
8
BLACK
6
CONTINUOUS
10
143.2229999999999848
20
-86.8582499999999982
11
143.2063489999999888
21
-86.9419619999999895
0
LINE
8
BLACK
6
CONTINUOUS
10
143.2063489999999888
20
-86.9419619999999895
11
143.158929999999998
21
-87.0129299999999972
0
LINE
8
BLACK
6
CONTINUOUS
10
143.158929999999998
20
-87.0129299999999972
11
143.0879620000000045
21
-87.0603490000000022
0
LINE
8
BLACK
6
CONTINUOUS
10
143.0879620000000045
20
-87.0603490000000022
11
143.0042499999999848
21
-87.0769999999999982
0
LINE
8
BLACK
6
CONTINUOUS
10
143.0042499999999848
20
-87.0769999999999982
11
142.4917499999999961
21
-87.0769999999999982
0
LINE
8
BLACK
6
CONTINUOUS
10
142.4917499999999961
20
-87.0769999999999982
11
142.4080380000000048
21
-87.0603490000000022
0
LINE
8
BLACK
6
CONTINUOUS
10
142.4080380000000048
20
-87.0603490000000022
11
142.3370699999999829
21
-87.0129299999999972
0
LINE
8
BLACK
6
CONTINUOUS
10
142.3370699999999829
20
-87.0129299999999972
11
142.2896509999999921
21
-86.9419619999999895
0
LINE
8
BLACK
6
CONTINUOUS
10
142.2896509999999921
20
-86.9419619999999895
11
142.2729999999999961
21
-86.8582499999999982
0
LINE
8
BLACK
6
CONTINUOUS
10
142.2729999999999961
20
-86.8582499999999982
11
142.2729999999999961
21
-86.4207499999999982
0
LINE
8
BLACK
6
CONTINUOUS
10
142.2729999999999961
20
-86.4207499999999982
11
142.2896509999999921
21
-86.3370379999999926
0
LINE
8
BLACK
6
CONTINUOUS
10
142.2896509999999921
20
-86.3370379999999926
11
142.3370699999999829
21
-86.2660699999999991
0
LINE
8
BLACK
6
CONTINUOUS
10
142.3370699999999829
20
-86.2660699999999991
11
142.4080380000000048
21
-86.2186509999999942
0
LINE
8
BLACK
6
CONTINUOUS
10
142.4080380000000048
20
-86.2186509999999942
11
142.4917499999999961
21
-86.2019999999999982
0
LINE
8
BLACK
6
CONTINUOUS
10
142.4917499999999961
20
-86.2019999999999982
11
143.0042499999999848
21
-86.2019999999999982
0
LINE
8
BLACK
6
CONTINUOUS
10
143.0042499999999848
20
-86.2019999999999982
11
143.0879620000000045
21
-86.2186509999999942
0
LINE
8
BLACK
6
CONTINUOUS
10
143.0879620000000045
20
-84.6436509999999913
11
143.158929999999998
21
-84.6910699999999963
0
LINE
8
BLACK
6
CONTINUOUS
10
143.158929999999998
20
-84.6910699999999963
11
143.2063489999999888
21
-84.7620379999999898
0
LINE
8
BLACK
6
CONTINUOUS
10
143.2063489999999888
20
-84.7620379999999898
11
143.2229999999999848
21
-84.8457499999999953
0
LINE
8
BLACK
6
CONTINUOUS
10
143.2229999999999848
20
-84.8457499999999953
11
143.2229999999999848
21
-85.2832499999999953
0
LINE
8
BLACK
6
CONTINUOUS
10
143.2229999999999848
20
-85.2832499999999953
11
143.2063489999999888
21
-85.3669620000000009
0
LINE
8
BLACK
6
CONTINUOUS
10
143.2063489999999888
20
-85.3669620000000009
11
143.158929999999998
21
-85.4379299999999944
0
LINE
8
BLACK
6
CONTINUOUS
10
143.158929999999998
20
-85.4379299999999944
11
143.0879620000000045
21
-85.4853489999999994
0
LINE
8
BLACK
6
CONTINUOUS
10
143.0879620000000045
20
-85.4853489999999994
11
143.0042499999999848
21
-85.5019999999999953
0
LINE
8
BLACK
6
CONTINUOUS
10
143.0042499999999848
20
-85.5019999999999953
11
142.4917499999999961
21
-85.5019999999999953
0
LINE
8
BLACK
6
CONTINUOUS
10
142.4917499999999961
20
-85.5019999999999953
11
142.4080380000000048
21
-85.4853489999999994
0
LINE
8
BLACK
6
CONTINUOUS
10
142.4080380000000048
20
-85.4853489999999994
11
142.3370699999999829
21
-85.4379299999999944
0
LINE
8
BLACK
6
CONTINUOUS
10
142.3370699999999829
20
-85.4379299999999944
11
142.2896509999999921
21
-85.3669620000000009
0
LINE
8
BLACK
6
CONTINUOUS
10
142.2896509999999921
20
-85.3669620000000009
11
142.2729999999999961
21
-85.2832499999999953
0
LINE
8
BLACK
6
CONTINUOUS
10
142.2729999999999961
20
-85.2832499999999953
11
142.2729999999999961
21
-84.8457499999999953
0
LINE
8
BLACK
6
CONTINUOUS
10
142.2729999999999961
20
-84.8457499999999953
11
142.2896509999999921
21
-84.7620379999999898
0
LINE
8
BLACK
6
CONTINUOUS
10
142.2896509999999921
20
-84.7620379999999898
11
142.3370699999999829
21
-84.6910699999999963
0
LINE
8
BLACK
6
CONTINUOUS
10
142.3370699999999829
20
-84.6910699999999963
11
142.4080380000000048
21
-84.6436509999999913
0
LINE
8
BLACK
6
CONTINUOUS
10
142.4080380000000048
20
-84.6436509999999913
11
142.4917499999999961
21
-84.6269999999999953
0
LINE
8
BLACK
6
CONTINUOUS
10
142.4917499999999961
20
-84.6269999999999953
11
143.0042499999999848
21
-84.6269999999999953
0
LINE
8
BLACK
6
CONTINUOUS
10
143.0042499999999848
20
-84.6269999999999953
11
143.0879620000000045
21
-84.6436509999999913
  0
ENDSEC
  0
EOF
