G04 #@! TF.GenerationSoftware,KiCad,Pcbnew,7.0.9-7.0.9~ubuntu23.04.1*
G04 #@! TF.CreationDate,2024-01-10T16:35:43+00:00*
G04 #@! TF.ProjectId,test_project,74657374-5f70-4726-9f6a-6563742e6b69,rev?*
G04 #@! TF.SameCoordinates,Original*
G04 #@! TF.FileFunction,Copper,L1,Top*
G04 #@! TF.FilePolarity,Positive*
%FSLAX46Y46*%
G04 Gerber Fmt 4.6, Leading zero omitted, Abs format (unit mm)*
G04 Created by KiCad (PCBNEW 7.0.9-7.0.9~ubuntu23.04.1) date 2024-01-10 16:35:43*
%MOMM*%
%LPD*%
G01*
G04 APERTURE LIST*
G04 #@! TA.AperFunction,ComponentPad*
%ADD10O,1.750000X1.200000*%
G04 #@! TD*
G04 #@! TA.AperFunction,Conductor*
%ADD11C,0.250000*%
G04 #@! TD*
G04 APERTURE END LIST*
G04 #@! TA.AperFunction,SMDPad,CuDef*
G36*
G01*
X143004250Y-87077000D02*
X142491750Y-87077000D01*
G75*
G02*
X142273000Y-86858250I0J218750D01*
G01*
X142273000Y-86420750D01*
G75*
G02*
X142491750Y-86202000I218750J0D01*
G01*
X143004250Y-86202000D01*
G75*
G02*
X143223000Y-86420750I0J-218750D01*
G01*
X143223000Y-86858250D01*
G75*
G02*
X143004250Y-87077000I-218750J0D01*
G01*
G37*
G04 #@! TD.AperFunction*
G04 #@! TA.AperFunction,SMDPad,CuDef*
G36*
G01*
X143004250Y-85502000D02*
X142491750Y-85502000D01*
G75*
G02*
X142273000Y-85283250I0J218750D01*
G01*
X142273000Y-84845750D01*
G75*
G02*
X142491750Y-84627000I218750J0D01*
G01*
X143004250Y-84627000D01*
G75*
G02*
X143223000Y-84845750I0J-218750D01*
G01*
X143223000Y-85283250D01*
G75*
G02*
X143004250Y-85502000I-218750J0D01*
G01*
G37*
G04 #@! TD.AperFunction*
G04 #@! TA.AperFunction,SMDPad,CuDef*
G36*
G01*
X142563000Y-90661999D02*
X142933000Y-90661999D01*
G75*
G02*
X143068000Y-90796999I0J-135000D01*
G01*
X143068000Y-91066999D01*
G75*
G02*
X142933000Y-91201999I-135000J0D01*
G01*
X142563000Y-91201999D01*
G75*
G02*
X142428000Y-91066999I0J135000D01*
G01*
X142428000Y-90796999D01*
G75*
G02*
X142563000Y-90661999I135000J0D01*
G01*
G37*
G04 #@! TD.AperFunction*
G04 #@! TA.AperFunction,SMDPad,CuDef*
G36*
G01*
X142563000Y-91681999D02*
X142933000Y-91681999D01*
G75*
G02*
X143068000Y-91816999I0J-135000D01*
G01*
X143068000Y-92086999D01*
G75*
G02*
X142933000Y-92221999I-135000J0D01*
G01*
X142563000Y-92221999D01*
G75*
G02*
X142428000Y-92086999I0J135000D01*
G01*
X142428000Y-91816999D01*
G75*
G02*
X142563000Y-91681999I135000J0D01*
G01*
G37*
G04 #@! TD.AperFunction*
G04 #@! TA.AperFunction,ComponentPad*
G36*
G01*
X136261000Y-89992000D02*
X135011000Y-89992000D01*
G75*
G02*
X134761000Y-89742000I0J250000D01*
G01*
X134761000Y-89042000D01*
G75*
G02*
X135011000Y-88792000I250000J0D01*
G01*
X136261000Y-88792000D01*
G75*
G02*
X136511000Y-89042000I0J-250000D01*
G01*
X136511000Y-89742000D01*
G75*
G02*
X136261000Y-89992000I-250000J0D01*
G01*
G37*
G04 #@! TD.AperFunction*
D10*
X135636000Y-87392000D03*
D11*
X142748000Y-90931999D02*
X142748000Y-86639500D01*
X137963500Y-85064500D02*
X135636000Y-87392000D01*
X142748000Y-85064500D02*
X137963500Y-85064500D01*
G04 #@! TA.AperFunction,Conductor*
G36*
X151942539Y-76620185D02*
G01*
X151988294Y-76672989D01*
X151999500Y-76724500D01*
X151999500Y-101075500D01*
X151979815Y-101142539D01*
X151927011Y-101188294D01*
X151875500Y-101199500D01*
X127524500Y-101199500D01*
X127457461Y-101179815D01*
X127411706Y-101127011D01*
X127400500Y-101075500D01*
X127400500Y-92201999D01*
X141935156Y-92201999D01*
X141975595Y-92341193D01*
X142057261Y-92479284D01*
X142057268Y-92479293D01*
X142170705Y-92592730D01*
X142170714Y-92592737D01*
X142308808Y-92674405D01*
X142308811Y-92674406D01*
X142462871Y-92719165D01*
X142462877Y-92719166D01*
X142498000Y-92721930D01*
X142498000Y-92201999D01*
X142998000Y-92201999D01*
X142998000Y-92721929D01*
X143033122Y-92719166D01*
X143033128Y-92719165D01*
X143187188Y-92674406D01*
X143187191Y-92674405D01*
X143325285Y-92592737D01*
X143325294Y-92592730D01*
X143438731Y-92479293D01*
X143438738Y-92479284D01*
X143520404Y-92341193D01*
X143560844Y-92201999D01*
X142998000Y-92201999D01*
X142498000Y-92201999D01*
X141935156Y-92201999D01*
X127400500Y-92201999D01*
X127400500Y-87339401D01*
X134256746Y-87339401D01*
X134266745Y-87549327D01*
X134316296Y-87753578D01*
X134316298Y-87753582D01*
X134403598Y-87944743D01*
X134403601Y-87944748D01*
X134403602Y-87944750D01*
X134403604Y-87944753D01*
X134466627Y-88033256D01*
X134525515Y-88115953D01*
X134628456Y-88214107D01*
X134663391Y-88274616D01*
X134660066Y-88344406D01*
X134619538Y-88401321D01*
X134607983Y-88409388D01*
X134542659Y-88449680D01*
X134542655Y-88449683D01*
X134418684Y-88573654D01*
X134326643Y-88722875D01*
X134326641Y-88722880D01*
X134271494Y-88889302D01*
X134271493Y-88889309D01*
X134261000Y-88992013D01*
X134261000Y-89142000D01*
X135356440Y-89142000D01*
X135317722Y-89184059D01*
X135267449Y-89298670D01*
X135257114Y-89423395D01*
X135287837Y-89544719D01*
X135351394Y-89642000D01*
X134261001Y-89642000D01*
X134261001Y-89791986D01*
X134271494Y-89894697D01*
X134326641Y-90061119D01*
X134326643Y-90061124D01*
X134418684Y-90210345D01*
X134542654Y-90334315D01*
X134691875Y-90426356D01*
X134691880Y-90426358D01*
X134858302Y-90481505D01*
X134858309Y-90481506D01*
X134961019Y-90491999D01*
X135385999Y-90491999D01*
X135386000Y-90491998D01*
X135386000Y-89672617D01*
X135455052Y-89726363D01*
X135573424Y-89767000D01*
X135667073Y-89767000D01*
X135759446Y-89751586D01*
X135869514Y-89692019D01*
X135886000Y-89674110D01*
X135886000Y-90491999D01*
X136310972Y-90491999D01*
X136310986Y-90491998D01*
X136413697Y-90481505D01*
X136580119Y-90426358D01*
X136580124Y-90426356D01*
X136729345Y-90334315D01*
X136853315Y-90210345D01*
X136945356Y-90061124D01*
X136945358Y-90061119D01*
X137000505Y-89894697D01*
X137000506Y-89894690D01*
X137010999Y-89791986D01*
X137011000Y-89791973D01*
X137011000Y-89642000D01*
X135915560Y-89642000D01*
X135954278Y-89599941D01*
X136004551Y-89485330D01*
X136014886Y-89360605D01*
X135984163Y-89239281D01*
X135920606Y-89142000D01*
X137010999Y-89142000D01*
X137010999Y-88992028D01*
X137010998Y-88992013D01*
X137000505Y-88889302D01*
X136945358Y-88722880D01*
X136945356Y-88722875D01*
X136853315Y-88573654D01*
X136729344Y-88449683D01*
X136729340Y-88449680D01*
X136665841Y-88410513D01*
X136619116Y-88358565D01*
X136607895Y-88289603D01*
X136635738Y-88225521D01*
X136654289Y-88207503D01*
X136673882Y-88192095D01*
X136673881Y-88192095D01*
X136673886Y-88192092D01*
X136811519Y-88033256D01*
X136916604Y-87851244D01*
X136985344Y-87652633D01*
X137015254Y-87444602D01*
X137005254Y-87234670D01*
X136957764Y-87038915D01*
X136961089Y-86969126D01*
X136990586Y-86922003D01*
X138186272Y-85726319D01*
X138247595Y-85692834D01*
X138273953Y-85690000D01*
X141830168Y-85690000D01*
X141897207Y-85709685D01*
X141917664Y-85728231D01*
X141918612Y-85727284D01*
X141955647Y-85764319D01*
X141989132Y-85825642D01*
X141984148Y-85895334D01*
X141955647Y-85939681D01*
X141923719Y-85971608D01*
X141923716Y-85971612D01*
X141835455Y-86114704D01*
X141835451Y-86114713D01*
X141782564Y-86274315D01*
X141782564Y-86274316D01*
X141782563Y-86274316D01*
X141772500Y-86372818D01*
X141772500Y-86906181D01*
X141782563Y-87004683D01*
X141835450Y-87164284D01*
X141835455Y-87164295D01*
X141923716Y-87307387D01*
X141923719Y-87307391D01*
X142042609Y-87426281D01*
X142063597Y-87439227D01*
X142110321Y-87491174D01*
X142122500Y-87544765D01*
X142122500Y-90287403D01*
X142102815Y-90354442D01*
X142086181Y-90375084D01*
X142056869Y-90404395D01*
X142056863Y-90404403D01*
X141975131Y-90542605D01*
X141975129Y-90542610D01*
X141930335Y-90696790D01*
X141930334Y-90696796D01*
X141927500Y-90732816D01*
X141927501Y-91131180D01*
X141930335Y-91167204D01*
X141975129Y-91321387D01*
X141975130Y-91321390D01*
X142009419Y-91379370D01*
X142026601Y-91447094D01*
X142009419Y-91505610D01*
X141975594Y-91562805D01*
X141935156Y-91701999D01*
X142490026Y-91701999D01*
X142494891Y-91702190D01*
X142498816Y-91702499D01*
X142498817Y-91702499D01*
X142498818Y-91702498D01*
X142498819Y-91702499D01*
X142997180Y-91702498D01*
X143001096Y-91702189D01*
X143005959Y-91701999D01*
X143560844Y-91701999D01*
X143520404Y-91562804D01*
X143486581Y-91505611D01*
X143469398Y-91437887D01*
X143486582Y-91379368D01*
X143520867Y-91321395D01*
X143520869Y-91321392D01*
X143565665Y-91167203D01*
X143568500Y-91131180D01*
X143568499Y-90732819D01*
X143565665Y-90696795D01*
X143520869Y-90542606D01*
X143439135Y-90404401D01*
X143439133Y-90404399D01*
X143439130Y-90404395D01*
X143409819Y-90375084D01*
X143376334Y-90313761D01*
X143373500Y-90287403D01*
X143373500Y-87544765D01*
X143393185Y-87477726D01*
X143432401Y-87439227D01*
X143453391Y-87426281D01*
X143572281Y-87307391D01*
X143660549Y-87164287D01*
X143713436Y-87004685D01*
X143723500Y-86906174D01*
X143723500Y-86372826D01*
X143713436Y-86274315D01*
X143660549Y-86114713D01*
X143660545Y-86114707D01*
X143660544Y-86114704D01*
X143572283Y-85971612D01*
X143572280Y-85971608D01*
X143540353Y-85939681D01*
X143506868Y-85878358D01*
X143511852Y-85808666D01*
X143540353Y-85764319D01*
X143572281Y-85732391D01*
X143660549Y-85589287D01*
X143713436Y-85429685D01*
X143723500Y-85331174D01*
X143723500Y-84797826D01*
X143713436Y-84699315D01*
X143660549Y-84539713D01*
X143660545Y-84539707D01*
X143660544Y-84539704D01*
X143572283Y-84396612D01*
X143572280Y-84396608D01*
X143453391Y-84277719D01*
X143453387Y-84277716D01*
X143310295Y-84189455D01*
X143310289Y-84189452D01*
X143310287Y-84189451D01*
X143150685Y-84136564D01*
X143150683Y-84136563D01*
X143052181Y-84126500D01*
X143052174Y-84126500D01*
X142443826Y-84126500D01*
X142443818Y-84126500D01*
X142345316Y-84136563D01*
X142345315Y-84136564D01*
X142266219Y-84162773D01*
X142185715Y-84189450D01*
X142185704Y-84189455D01*
X142042612Y-84277716D01*
X142042608Y-84277719D01*
X141918612Y-84401716D01*
X141916528Y-84399632D01*
X141870416Y-84432286D01*
X141830168Y-84439000D01*
X138046238Y-84439000D01*
X138030621Y-84437276D01*
X138030594Y-84437562D01*
X138022832Y-84436827D01*
X137953704Y-84439000D01*
X137924150Y-84439000D01*
X137923429Y-84439090D01*
X137917257Y-84439869D01*
X137911445Y-84440326D01*
X137864873Y-84441790D01*
X137864872Y-84441790D01*
X137845629Y-84447381D01*
X137826579Y-84451325D01*
X137806711Y-84453834D01*
X137763384Y-84470988D01*
X137757858Y-84472879D01*
X137713114Y-84485879D01*
X137713110Y-84485881D01*
X137695866Y-84496079D01*
X137678405Y-84504633D01*
X137659774Y-84512010D01*
X137659762Y-84512017D01*
X137622070Y-84539402D01*
X137617187Y-84542609D01*
X137577080Y-84566329D01*
X137562914Y-84580495D01*
X137548124Y-84593127D01*
X137531914Y-84604904D01*
X137531911Y-84604907D01*
X137502210Y-84640809D01*
X137498277Y-84645131D01*
X135888228Y-86255181D01*
X135826905Y-86288666D01*
X135800547Y-86291500D01*
X135308575Y-86291500D01*
X135151782Y-86306472D01*
X135151778Y-86306473D01*
X134950127Y-86365683D01*
X134763313Y-86461991D01*
X134598116Y-86591905D01*
X134598112Y-86591909D01*
X134460478Y-86750746D01*
X134355398Y-86932750D01*
X134286656Y-87131365D01*
X134286656Y-87131367D01*
X134261349Y-87307387D01*
X134256746Y-87339401D01*
X127400500Y-87339401D01*
X127400500Y-76724500D01*
X127420185Y-76657461D01*
X127472989Y-76611706D01*
X127524500Y-76600500D01*
X151875500Y-76600500D01*
X151942539Y-76620185D01*
G37*
G04 #@! TD.AperFunction*
M02*
