G04 #@! TF.GenerationSoftware,KiCad,Pcbnew,7.0.9-7.0.9~ubuntu23.04.1*
G04 #@! TF.CreationDate,2024-01-10T16:35:43+00:00*
G04 #@! TF.ProjectId,test_project,74657374-5f70-4726-9f6a-6563742e6b69,rev?*
G04 #@! TF.SameCoordinates,Original*
G04 #@! TF.FileFunction,Soldermask,Top*
G04 #@! TF.FilePolarity,Negative*
%FSLAX46Y46*%
G04 Gerber Fmt 4.6, Leading zero omitted, Abs format (unit mm)*
G04 Created by KiCad (PCBNEW 7.0.9-7.0.9~ubuntu23.04.1) date 2024-01-10 16:35:43*
%MOMM*%
%LPD*%
G01*
G04 APERTURE LIST*
%ADD10O,1.750000X1.200000*%
G04 APERTURE END LIST*
G36*
G01*
X143004250Y-87077000D02*
X142491750Y-87077000D01*
G75*
G02*
X142273000Y-86858250I0J218750D01*
G01*
X142273000Y-86420750D01*
G75*
G02*
X142491750Y-86202000I218750J0D01*
G01*
X143004250Y-86202000D01*
G75*
G02*
X143223000Y-86420750I0J-218750D01*
G01*
X143223000Y-86858250D01*
G75*
G02*
X143004250Y-87077000I-218750J0D01*
G01*
G37*
G36*
G01*
X143004250Y-85502000D02*
X142491750Y-85502000D01*
G75*
G02*
X142273000Y-85283250I0J218750D01*
G01*
X142273000Y-84845750D01*
G75*
G02*
X142491750Y-84627000I218750J0D01*
G01*
X143004250Y-84627000D01*
G75*
G02*
X143223000Y-84845750I0J-218750D01*
G01*
X143223000Y-85283250D01*
G75*
G02*
X143004250Y-85502000I-218750J0D01*
G01*
G37*
G36*
G01*
X142563000Y-90661999D02*
X142933000Y-90661999D01*
G75*
G02*
X143068000Y-90796999I0J-135000D01*
G01*
X143068000Y-91066999D01*
G75*
G02*
X142933000Y-91201999I-135000J0D01*
G01*
X142563000Y-91201999D01*
G75*
G02*
X142428000Y-91066999I0J135000D01*
G01*
X142428000Y-90796999D01*
G75*
G02*
X142563000Y-90661999I135000J0D01*
G01*
G37*
G36*
G01*
X142563000Y-91681999D02*
X142933000Y-91681999D01*
G75*
G02*
X143068000Y-91816999I0J-135000D01*
G01*
X143068000Y-92086999D01*
G75*
G02*
X142933000Y-92221999I-135000J0D01*
G01*
X142563000Y-92221999D01*
G75*
G02*
X142428000Y-92086999I0J135000D01*
G01*
X142428000Y-91816999D01*
G75*
G02*
X142563000Y-91681999I135000J0D01*
G01*
G37*
G36*
G01*
X136261000Y-89992000D02*
X135011000Y-89992000D01*
G75*
G02*
X134761000Y-89742000I0J250000D01*
G01*
X134761000Y-89042000D01*
G75*
G02*
X135011000Y-88792000I250000J0D01*
G01*
X136261000Y-88792000D01*
G75*
G02*
X136511000Y-89042000I0J-250000D01*
G01*
X136511000Y-89742000D01*
G75*
G02*
X136261000Y-89992000I-250000J0D01*
G01*
G37*
D10*
X135636000Y-87392000D03*
M02*
