  0
SECTION
  2
HEADER
  9
$ANGBASE
  50
0.0
  9
$ANGDIR
  70
1
  9
$MEASUREMENT
  70
0
  0
ENDSEC
  0
SECTION
  2
TABLES
  0
TABLE
  2
LTYPE
  70
4
  0
LTYPE
  5
40F
  2
CONTINUOUS
  70
0
  3
Solid line
  72
65
  73
0
  40
0.0
  0
LTYPE
  5
410
  2
DASHDOT
 70
0
  3
Dash Dot ____ _ ____ _
 72
65
 73
4
 40
2.0
 49
1.25
 49
-0.25
 49
0.25
 49
-0.25
  0
LTYPE
  5
411
  2
DASHED
 70
0
  3
Dashed __ __ __ __ __
 72
65
 73
2
 40
0.75
 49
0.5
 49
-0.25
  0
LTYPE
  5
43B
  2
DOTTED
 70
0
  3
Dotted .  .  .  .
 72
65
 73
2
 40
0.2
 49
0.0
 49
-0.2
  0
ENDTAB
  0
TABLE
  2
STYLE
  70
4
  0
STYLE
  2
KICAD
  70
0
  40
0
  41
1
  42
1
  50
0
  71
0
  3
isocp.shx
  0
STYLE
  2
KICADB
  70
0
  40
0
  41
1
  42
1
  50
0
  71
0
  3
isocp.shx
  0
STYLE
  2
KICADI
  70
0
  40
0
  41
1
  42
1
  50
15
  71
0
  3
isocp.shx
  0
STYLE
  2
KICADBI
  70
0
  40
0
  41
1
  42
1
  50
15
  71
0
  3
isocp.shx
  0
ENDTAB
  0
TABLE
  2
LAYER
  70
1
  0
LAYER
  2
BLACK
  70
0
  62
7
  6
CONTINUOUS
  0
ENDTAB
  0
ENDSEC
  0
SECTION
  2
ENTITIES
0
LINE
8
BLACK
6
CONTINUOUS
10
5.4881344488188972
20
-3.6674892125984253
11
5.4881988188976374
21
-3.6674874803149606
0
LINE
8
BLACK
6
CONTINUOUS
10
5.4881988188976374
20
-3.6674874803149606
11
5.4938231102362201
21
-3.6693622440944882
0
LINE
8
BLACK
6
CONTINUOUS
10
5.4938231102362201
20
-3.6693622440944882
11
5.4947248818897636
21
-3.6698505118110236
0
LINE
8
BLACK
6
CONTINUOUS
10
5.4947248818897636
20
-3.6698505118110236
11
5.4948172834645668
21
-3.6700009448818895
0
LINE
8
BLACK
6
CONTINUOUS
10
5.4948172834645668
20
-3.6700009448818895
11
5.4949772834645669
21
-3.6700755511811023
0
LINE
8
BLACK
6
CONTINUOUS
10
5.4949772834645669
20
-3.6700755511811023
11
5.5124338188976374
21
-3.6875320472440944
0
LINE
8
BLACK
6
CONTINUOUS
10
5.5124338188976374
20
-3.6875320472440944
11
5.5124338188976374
21
-3.6702887007874017
0
LINE
8
BLACK
6
CONTINUOUS
10
5.5124338188976374
20
-3.6702887007874017
11
5.5126118897637797
21
-3.6692787795275588
0
LINE
8
BLACK
6
CONTINUOUS
10
5.5126118897637797
20
-3.6692787795275588
11
5.5139101968503939
21
-3.6677315354330706
0
LINE
8
BLACK
6
CONTINUOUS
10
5.5139101968503939
20
-3.6677315354330706
11
5.5158993307086615
21
-3.6673807874015747
0
LINE
8
BLACK
6
CONTINUOUS
10
5.5158993307086615
20
-3.6673807874015747
11
5.517648503937008
21
-3.6683907086614171
0
LINE
8
BLACK
6
CONTINUOUS
10
5.517648503937008
20
-3.6683907086614171
11
5.5183393307086614
21
-3.6702887007874017
0
LINE
8
BLACK
6
CONTINUOUS
10
5.5183393307086614
20
-3.6702887007874017
11
5.5183393307086614
21
-3.6946606299212599
0
LINE
8
BLACK
6
CONTINUOUS
10
5.5183393307086614
20
-3.6946606299212599
11
5.5182274015748032
21
-3.6952953543307085
0
LINE
8
BLACK
6
CONTINUOUS
10
5.5182274015748032
20
-3.6952953543307085
11
5.5182387401574804
21
-3.6954248425196852
0
LINE
8
BLACK
6
CONTINUOUS
10
5.5182387401574804
20
-3.6954248425196852
11
5.5181930708661415
21
-3.6954900393700787
0
LINE
8
BLACK
6
CONTINUOUS
10
5.5181930708661415
20
-3.6954900393700787
11
5.5181612598425192
21
-3.6956705511811023
0
LINE
8
BLACK
6
CONTINUOUS
10
5.5181612598425192
20
-3.6956705511811023
11
5.5175899606299215
21
-3.6963513779527557
0
LINE
8
BLACK
6
CONTINUOUS
10
5.5175899606299215
20
-3.6963513779527557
11
5.5170801968503937
21
-3.6970794094488189
0
LINE
8
BLACK
6
CONTINUOUS
10
5.5170801968503937
20
-3.6970794094488189
11
5.5169497244094483
21
-3.6971143307086614
0
LINE
8
BLACK
6
CONTINUOUS
10
5.5169497244094483
20
-3.6971143307086614
11
5.516862952755905
21
-3.6972177952755905
0
LINE
8
BLACK
6
CONTINUOUS
10
5.516862952755905
20
-3.6972177952755905
11
5.5159875984251965
21
-3.697372125984252
0
LINE
8
BLACK
6
CONTINUOUS
10
5.5159875984251965
20
-3.697372125984252
11
5.5151292519685038
21
-3.6976021259842518
0
LINE
8
BLACK
6
CONTINUOUS
10
5.5151292519685038
20
-3.6976021259842518
11
5.5150068897637796
21
-3.6975450393700786
0
LINE
8
BLACK
6
CONTINUOUS
10
5.5150068897637796
20
-3.6975450393700786
11
5.5148738188976374
21
-3.6975685433070864
0
LINE
8
BLACK
6
CONTINUOUS
10
5.5148738188976374
20
-3.6975685433070864
11
5.5141038976377947
21
-3.6971240157480314
0
LINE
8
BLACK
6
CONTINUOUS
10
5.5141038976377947
20
-3.6971240157480314
11
5.5132986614173225
21
-3.6967485433070864
0
LINE
8
BLACK
6
CONTINUOUS
10
5.5132986614173225
20
-3.6967485433070864
11
5.4912943307086612
21
-3.6747442519685038
0
LINE
8
BLACK
6
CONTINUOUS
10
5.4912943307086612
20
-3.6747442519685038
11
5.4867859448818894
21
-3.6732414566929132
0
LINE
8
BLACK
6
CONTINUOUS
10
5.4867859448818894
20
-3.6732414566929132
11
5.4842125984251968
21
-3.6732414566929132
0
LINE
8
BLACK
6
CONTINUOUS
10
5.4842125984251968
20
-3.6732414566929132
11
5.4815151181102362
21
-3.6745901968503936
0
LINE
8
BLACK
6
CONTINUOUS
10
5.4815151181102362
20
-3.6745901968503936
11
5.4803179921259844
21
-3.6757873228346454
0
LINE
8
BLACK
6
CONTINUOUS
10
5.4803179921259844
20
-3.6757873228346454
11
5.478969251968504
21
-3.678484803149606
0
LINE
8
BLACK
6
CONTINUOUS
10
5.478969251968504
20
-3.678484803149606
11
5.478969251968504
21
-3.6864645275590551
0
LINE
8
BLACK
6
CONTINUOUS
10
5.478969251968504
20
-3.6864645275590551
11
5.4803179921259844
21
-3.6891620078740157
0
LINE
8
BLACK
6
CONTINUOUS
10
5.4803179921259844
20
-3.6891620078740157
11
5.481853937007874
21
-3.6906979527559054
0
LINE
8
BLACK
6
CONTINUOUS
10
5.481853937007874
20
-3.6906979527559054
11
5.4824421259842522
21
-3.6915379921259843
0
LINE
8
BLACK
6
CONTINUOUS
10
5.4824421259842522
20
-3.6915379921259843
11
5.4826181496062993
21
-3.6935500787401576
0
LINE
8
BLACK
6
CONTINUOUS
10
5.4826181496062993
20
-3.6935500787401576
11
5.4814596456692914
21
-3.6952046456692913
0
LINE
8
BLACK
6
CONTINUOUS
10
5.4814596456692914
20
-3.6952046456692913
11
5.4795086614173227
21
-3.6957273622047242
0
LINE
8
BLACK
6
CONTINUOUS
10
5.4795086614173227
20
-3.6957273622047242
11
5.4776781102362202
21
-3.6948737795275588
0
LINE
8
BLACK
6
CONTINUOUS
10
5.4776781102362202
20
-3.6948737795275588
11
5.4758033464566926
21
-3.6929990157480312
0
LINE
8
BLACK
6
CONTINUOUS
10
5.4758033464566926
20
-3.6929990157480312
11
5.4752970472440943
21
-3.6922759055118108
0
LINE
8
BLACK
6
CONTINUOUS
10
5.4752970472440943
20
-3.6922759055118108
11
5.4752502362204725
21
-3.6922316141732283
0
LINE
8
BLACK
6
CONTINUOUS
10
5.4752502362204725
20
-3.6922316141732283
11
5.4733754724409449
21
-3.6884820866141732
0
LINE
8
BLACK
6
CONTINUOUS
10
5.4733754724409449
20
-3.6884820866141732
11
5.4730831102362201
21
-3.6874991338582674
0
LINE
8
BLACK
6
CONTINUOUS
10
5.4730831102362201
20
-3.6874991338582674
11
5.4731240944881892
21
-3.6873274409448817
0
LINE
8
BLACK
6
CONTINUOUS
10
5.4731240944881892
20
-3.6873274409448817
11
5.47306374015748
21
-3.6871615748031497
0
LINE
8
BLACK
6
CONTINUOUS
10
5.47306374015748
20
-3.6871615748031497
11
5.47306374015748
21
-3.6777877559055119
0
LINE
8
BLACK
6
CONTINUOUS
10
5.47306374015748
20
-3.6777877559055119
11
5.4732418110236223
21
-3.6767778346456694
0
LINE
8
BLACK
6
CONTINUOUS
10
5.4732418110236223
20
-3.6767778346456694
11
5.473355275590551
21
-3.6766425590551179
0
LINE
8
BLACK
6
CONTINUOUS
10
5.473355275590551
20
-3.6766425590551179
11
5.4733754724409449
21
-3.6764672440944879
0
LINE
8
BLACK
6
CONTINUOUS
10
5.4733754724409449
20
-3.6764672440944879
11
5.4752502362204725
21
-3.6727177165354328
0
LINE
8
BLACK
6
CONTINUOUS
10
5.4752502362204725
20
-3.6727177165354328
11
5.4757761417322834
21
-3.6720086220472439
0
LINE
8
BLACK
6
CONTINUOUS
10
5.4757761417322834
20
-3.6720086220472439
11
5.4758033464566926
21
-3.6719503149606298
0
LINE
8
BLACK
6
CONTINUOUS
10
5.4758033464566926
20
-3.6719503149606298
11
5.4776781102362202
21
-3.6700755511811023
0
LINE
8
BLACK
6
CONTINUOUS
10
5.4776781102362202
20
-3.6700755511811023
11
5.4784011811023623
21
-3.6695692519685039
0
LINE
8
BLACK
6
CONTINUOUS
10
5.4784011811023623
20
-3.6695692519685039
11
5.4784455118110236
21
-3.6695224409448817
0
LINE
8
BLACK
6
CONTINUOUS
10
5.4784455118110236
20
-3.6695224409448817
11
5.4821950393700787
21
-3.6676476771653541
0
LINE
8
BLACK
6
CONTINUOUS
10
5.4821950393700787
20
-3.6676476771653541
11
5.4831779527559057
21
-3.6673553149606297
0
LINE
8
BLACK
6
CONTINUOUS
10
5.4831779527559057
20
-3.6673553149606297
11
5.483349645669291
21
-3.6673962992125984
0
LINE
8
BLACK
6
CONTINUOUS
10
5.483349645669291
20
-3.6673962992125984
11
5.4835155511811022
21
-3.6673359448818896
0
LINE
8
BLACK
6
CONTINUOUS
10
5.4835155511811022
20
-3.6673359448818896
11
5.4872650787401573
21
-3.6673359448818896
0
LINE
8
BLACK
6
CONTINUOUS
10
5.4872650787401573
20
-3.6673359448818896
11
5.4881344488188972
21
-3.6674892125984253
0
LINE
8
BLACK
6
CONTINUOUS
10
5.4901497637795273
20
-3.6281439370078741
11
5.4902850000000001
21
-3.6282574015748033
0
LINE
8
BLACK
6
CONTINUOUS
10
5.4902850000000001
20
-3.6282574015748033
11
5.4904603543307084
21
-3.6282775984251967
0
LINE
8
BLACK
6
CONTINUOUS
10
5.4904603543307084
20
-3.6282775984251967
11
5.4942098818897636
21
-3.6301523622047243
0
LINE
8
BLACK
6
CONTINUOUS
10
5.4942098818897636
20
-3.6301523622047243
11
5.4949189370078741
21
-3.6306782677165352
0
LINE
8
BLACK
6
CONTINUOUS
10
5.4949189370078741
20
-3.6306782677165352
11
5.4949772834645669
21
-3.6307054724409449
0
LINE
8
BLACK
6
CONTINUOUS
10
5.4949772834645669
20
-3.6307054724409449
11
5.4968520472440945
21
-3.6325802362204724
0
LINE
8
BLACK
6
CONTINUOUS
10
5.4968520472440945
20
-3.6325802362204724
11
5.4973583070866141
21
-3.6333033070866141
0
LINE
8
BLACK
6
CONTINUOUS
10
5.4973583070866141
20
-3.6333033070866141
11
5.4974051574803147
21
-3.6333476377952754
0
LINE
8
BLACK
6
CONTINUOUS
10
5.4974051574803147
20
-3.6333476377952754
11
5.4992799212598422
21
-3.6370971653543305
0
LINE
8
BLACK
6
CONTINUOUS
10
5.4992799212598422
20
-3.6370971653543305
11
5.4995722834645671
21
-3.6380800787401575
0
LINE
8
BLACK
6
CONTINUOUS
10
5.4995722834645671
20
-3.6380800787401575
11
5.4995312598425192
21
-3.6382517716535432
0
LINE
8
BLACK
6
CONTINUOUS
10
5.4995312598425192
20
-3.6382517716535432
11
5.4995916535433071
21
-3.6384176771653545
0
LINE
8
BLACK
6
CONTINUOUS
10
5.4995916535433071
20
-3.6384176771653545
11
5.4995916535433071
21
-3.6504630314960629
0
LINE
8
BLACK
6
CONTINUOUS
10
5.4995916535433071
20
-3.6504630314960629
11
5.5153865748031494
21
-3.6504630314960629
0
LINE
8
BLACK
6
CONTINUOUS
10
5.5153865748031494
20
-3.6504630314960629
11
5.5163964960629919
21
-3.6506411023622047
0
LINE
8
BLACK
6
CONTINUOUS
10
5.5163964960629919
20
-3.6506411023622047
11
5.51794374015748
21
-3.6519394094488189
0
LINE
8
BLACK
6
CONTINUOUS
10
5.51794374015748
20
-3.6519394094488189
11
5.5182944881889764
21
-3.6539285433070865
0
LINE
8
BLACK
6
CONTINUOUS
10
5.5182944881889764
20
-3.6539285433070865
11
5.5172845669291339
21
-3.6556777165354331
0
LINE
8
BLACK
6
CONTINUOUS
10
5.5172845669291339
20
-3.6556777165354331
11
5.5153865748031494
21
-3.6563685433070865
0
LINE
8
BLACK
6
CONTINUOUS
10
5.5153865748031494
20
-3.6563685433070865
11
5.476016496062992
21
-3.6563685433070865
0
LINE
8
BLACK
6
CONTINUOUS
10
5.476016496062992
20
-3.6563685433070865
11
5.4756329527559053
21
-3.6563009055118108
0
LINE
8
BLACK
6
CONTINUOUS
10
5.4756329527559053
20
-3.6563009055118108
11
5.47550374015748
21
-3.6563237007874014
0
LINE
8
BLACK
6
CONTINUOUS
10
5.47550374015748
20
-3.6563237007874014
11
5.4753901181102362
21
-3.6562580708661416
0
LINE
8
BLACK
6
CONTINUOUS
10
5.4753901181102362
20
-3.6562580708661416
11
5.4750065748031496
21
-3.6561904724409446
0
LINE
8
BLACK
6
CONTINUOUS
10
5.4750065748031496
20
-3.6561904724409446
11
5.4744188582677165
21
-3.6556973228346457
0
LINE
8
BLACK
6
CONTINUOUS
10
5.4744188582677165
20
-3.6556973228346457
11
5.4737545669291334
21
-3.655313779527559
0
LINE
8
BLACK
6
CONTINUOUS
10
5.4737545669291334
20
-3.655313779527559
11
5.4736634251968503
21
-3.6550634251968503
0
LINE
8
BLACK
6
CONTINUOUS
10
5.4736634251968503
20
-3.6550634251968503
11
5.4734593307086614
21
-3.6548921653543305
0
LINE
8
BLACK
6
CONTINUOUS
10
5.4734593307086614
20
-3.6548921653543305
11
5.4733260629921254
21
-3.6541365748031494
0
LINE
8
BLACK
6
CONTINUOUS
10
5.4733260629921254
20
-3.6541365748031494
11
5.47306374015748
21
-3.6534157874015749
0
LINE
8
BLACK
6
CONTINUOUS
10
5.47306374015748
20
-3.6534157874015749
11
5.47306374015748
21
-3.6384176771653545
0
LINE
8
BLACK
6
CONTINUOUS
10
5.47306374015748
20
-3.6384176771653545
11
5.4732418110236223
21
-3.6374077559055116
0
LINE
8
BLACK
6
CONTINUOUS
10
5.4732418110236223
20
-3.6374077559055116
11
5.473355275590551
21
-3.6372724803149605
0
LINE
8
BLACK
6
CONTINUOUS
10
5.473355275590551
20
-3.6372724803149605
11
5.4733754724409449
21
-3.6370971653543305
0
LINE
8
BLACK
6
CONTINUOUS
10
5.4733754724409449
20
-3.6370971653543305
11
5.4752502362204725
21
-3.6333476377952754
0
LINE
8
BLACK
6
CONTINUOUS
10
5.4752502362204725
20
-3.6333476377952754
11
5.4757761417322834
21
-3.6326385433070865
0
LINE
8
BLACK
6
CONTINUOUS
10
5.4757761417322834
20
-3.6326385433070865
11
5.4758033464566926
21
-3.6325802362204724
0
LINE
8
BLACK
6
CONTINUOUS
10
5.4758033464566926
20
-3.6325802362204724
11
5.4776781102362202
21
-3.6307054724409449
0
LINE
8
BLACK
6
CONTINUOUS
10
5.4776781102362202
20
-3.6307054724409449
11
5.4784011811023623
21
-3.6301991732283465
0
LINE
8
BLACK
6
CONTINUOUS
10
5.4784011811023623
20
-3.6301991732283465
11
5.4784455118110236
21
-3.6301523622047243
0
LINE
8
BLACK
6
CONTINUOUS
10
5.4784455118110236
20
-3.6301523622047243
11
5.4821950393700787
21
-3.6282775984251967
0
LINE
8
BLACK
6
CONTINUOUS
10
5.4821950393700787
20
-3.6282775984251967
11
5.4831779527559057
21
-3.6279852362204723
0
LINE
8
BLACK
6
CONTINUOUS
10
5.4831779527559057
20
-3.6279852362204723
11
5.483349645669291
21
-3.6280262204724409
0
LINE
8
BLACK
6
CONTINUOUS
10
5.483349645669291
20
-3.6280262204724409
11
5.4835155511811022
21
-3.6279658661417322
0
LINE
8
BLACK
6
CONTINUOUS
10
5.4835155511811022
20
-3.6279658661417322
11
5.4891398425196849
21
-3.6279658661417322
0
LINE
8
BLACK
6
CONTINUOUS
10
5.4891398425196849
20
-3.6279658661417322
11
5.4901497637795273
21
-3.6281439370078741
0
LINE
8
BLACK
6
CONTINUOUS
10
5.4815151181102362
20
-3.6352201181102362
11
5.4803179921259844
21
-3.636417244094488
0
LINE
8
BLACK
6
CONTINUOUS
10
5.4803179921259844
20
-3.636417244094488
11
5.478969251968504
21
-3.6391147244094486
0
LINE
8
BLACK
6
CONTINUOUS
10
5.478969251968504
20
-3.6391147244094486
11
5.478969251968504
21
-3.6504630314960629
0
LINE
8
BLACK
6
CONTINUOUS
10
5.478969251968504
20
-3.6504630314960629
11
5.4936861417322831
21
-3.6504630314960629
0
LINE
8
BLACK
6
CONTINUOUS
10
5.4936861417322831
20
-3.6504630314960629
11
5.4936861417322831
21
-3.6391147244094486
0
LINE
8
BLACK
6
CONTINUOUS
10
5.4936861417322831
20
-3.6391147244094486
11
5.4923374015748028
21
-3.636417244094488
0
LINE
8
BLACK
6
CONTINUOUS
10
5.4923374015748028
20
-3.636417244094488
11
5.491140275590551
21
-3.6352201181102362
0
LINE
8
BLACK
6
CONTINUOUS
10
5.491140275590551
20
-3.6352201181102362
11
5.4884427952755903
21
-3.6338713779527558
0
LINE
8
BLACK
6
CONTINUOUS
10
5.4884427952755903
20
-3.6338713779527558
11
5.4842125984251968
21
-3.6338713779527558
0
LINE
8
BLACK
6
CONTINUOUS
10
5.4842125984251968
20
-3.6338713779527558
11
5.4815151181102362
21
-3.6352201181102362
0
LINE
8
BLACK
6
CONTINUOUS
10
5.5941051968503936
20
-3.6216152755905511
11
5.5947960236220471
21
-3.6235132677165351
0
LINE
8
BLACK
6
CONTINUOUS
10
5.5947960236220471
20
-3.6235132677165351
11
5.5947960236220471
21
-3.6460104330708663
0
LINE
8
BLACK
6
CONTINUOUS
10
5.5947960236220471
20
-3.6460104330708663
11
5.5946179527559057
21
-3.6470203543307087
0
LINE
8
BLACK
6
CONTINUOUS
10
5.5946179527559057
20
-3.6470203543307087
11
5.5933196456692915
21
-3.6485675984251968
0
LINE
8
BLACK
6
CONTINUOUS
10
5.5933196456692915
20
-3.6485675984251968
11
5.5913305118110239
21
-3.6489183464566928
0
LINE
8
BLACK
6
CONTINUOUS
10
5.5913305118110239
20
-3.6489183464566928
11
5.5895813385826774
21
-3.6479084251968503
0
LINE
8
BLACK
6
CONTINUOUS
10
5.5895813385826774
20
-3.6479084251968503
11
5.5888905118110239
21
-3.6460104330708663
0
LINE
8
BLACK
6
CONTINUOUS
10
5.5888905118110239
20
-3.6460104330708663
11
5.5888905118110239
21
-3.6377146062992125
0
LINE
8
BLACK
6
CONTINUOUS
10
5.5888905118110239
20
-3.6377146062992125
11
5.5614765354330711
21
-3.6377146062992125
0
LINE
8
BLACK
6
CONTINUOUS
10
5.5614765354330711
20
-3.6377146062992125
11
5.5639349212598423
21
-3.6401729921259842
0
LINE
8
BLACK
6
CONTINUOUS
10
5.5639349212598423
20
-3.6401729921259842
11
5.5644412992125982
21
-3.6408961417322834
0
LINE
8
BLACK
6
CONTINUOUS
10
5.5644412992125982
20
-3.6408961417322834
11
5.5644880314960625
21
-3.6409403937007871
0
LINE
8
BLACK
6
CONTINUOUS
10
5.5644880314960625
20
-3.6409403937007871
11
5.5663627952755901
21
-3.6446899212598423
0
LINE
8
BLACK
6
CONTINUOUS
10
5.5663627952755901
20
-3.6446899212598423
11
5.5666551574803149
21
-3.6456728346456693
0
LINE
8
BLACK
6
CONTINUOUS
10
5.5666551574803149
20
-3.6456728346456693
11
5.5661858661417325
21
-3.6476373622047245
0
LINE
8
BLACK
6
CONTINUOUS
10
5.5661858661417325
20
-3.6476373622047245
11
5.5645635826771649
21
-3.6488406692913387
0
LINE
8
BLACK
6
CONTINUOUS
10
5.5645635826771649
20
-3.6488406692913387
11
5.5625474409448818
21
-3.6487196062992124
0
LINE
8
BLACK
6
CONTINUOUS
10
5.5625474409448818
20
-3.6487196062992124
11
5.5610807480314959
21
-3.6473309448818898
0
LINE
8
BLACK
6
CONTINUOUS
10
5.5610807480314959
20
-3.6473309448818898
11
5.5594202755905506
21
-3.6440099999999997
0
LINE
8
BLACK
6
CONTINUOUS
10
5.5594202755905506
20
-3.6440099999999997
11
5.5562162992125987
21
-3.640806023622047
0
LINE
8
BLACK
6
CONTINUOUS
10
5.5562162992125987
20
-3.640806023622047
11
5.5508352755905515
21
-3.6372187007874013
0
LINE
8
BLACK
6
CONTINUOUS
10
5.5508352755905515
20
-3.6372187007874013
11
5.5500937795275593
21
-3.6365103149606299
0
LINE
8
BLACK
6
CONTINUOUS
10
5.5500937795275593
20
-3.6365103149606299
11
5.5500460629921262
21
-3.6363473622047242
0
LINE
8
BLACK
6
CONTINUOUS
10
5.5500460629921262
20
-3.6363473622047242
11
5.5499160236220471
21
-3.6362382283464565
0
LINE
8
BLACK
6
CONTINUOUS
10
5.5499160236220471
20
-3.6362382283464565
11
5.5497672047244091
21
-3.6353942913385824
0
LINE
8
BLACK
6
CONTINUOUS
10
5.5497672047244091
20
-3.6353942913385824
11
5.5495265354330705
21
-3.6345718110236218
0
LINE
8
BLACK
6
CONTINUOUS
10
5.5495265354330705
20
-3.6345718110236218
11
5.5495947244094488
21
-3.6344162992125981
0
LINE
8
BLACK
6
CONTINUOUS
10
5.5495947244094488
20
-3.6344162992125981
11
5.5495652755905507
21
-3.6342490944881889
0
LINE
8
BLACK
6
CONTINUOUS
10
5.5495652755905507
20
-3.6342490944881889
11
5.5499937007874012
21
-3.6335070078740155
0
LINE
8
BLACK
6
CONTINUOUS
10
5.5499937007874012
20
-3.6335070078740155
11
5.5503380708661414
21
-3.6327222047244092
0
LINE
8
BLACK
6
CONTINUOUS
10
5.5503380708661414
20
-3.6327222047244092
11
5.5504903149606299
21
-3.6326469291338581
0
LINE
8
BLACK
6
CONTINUOUS
10
5.5504903149606299
20
-3.6326469291338581
11
5.5505751968503931
21
-3.6324999212598423
0
LINE
8
BLACK
6
CONTINUOUS
10
5.5505751968503931
20
-3.6324999212598423
11
5.5513804330708663
21
-3.6322068110236221
0
LINE
8
BLACK
6
CONTINUOUS
10
5.5513804330708663
20
-3.6322068110236221
11
5.5521486614173226
21
-3.6318270078740156
0
LINE
8
BLACK
6
CONTINUOUS
10
5.5521486614173226
20
-3.6318270078740156
11
5.552313582677165
21
-3.6318671653543304
0
LINE
8
BLACK
6
CONTINUOUS
10
5.552313582677165
20
-3.6318671653543304
11
5.5524731889763776
21
-3.6318090944881889
0
LINE
8
BLACK
6
CONTINUOUS
10
5.5524731889763776
20
-3.6318090944881889
11
5.5888905118110239
21
-3.6318090944881889
0
LINE
8
BLACK
6
CONTINUOUS
10
5.5888905118110239
20
-3.6318090944881889
11
5.5888905118110239
21
-3.6235132677165351
0
LINE
8
BLACK
6
CONTINUOUS
10
5.5888905118110239
20
-3.6235132677165351
11
5.5890685826771653
21
-3.6225033464566927
0
LINE
8
BLACK
6
CONTINUOUS
10
5.5890685826771653
20
-3.6225033464566927
11
5.5903668897637795
21
-3.6209561023622046
0
LINE
8
BLACK
6
CONTINUOUS
10
5.5903668897637795
20
-3.6209561023622046
11
5.5923560236220471
21
-3.6206053543307086
0
LINE
8
BLACK
6
CONTINUOUS
10
5.5923560236220471
20
-3.6206053543307086
11
5.5941051968503936
21
-3.6216152755905511
0
LINE
8
BLACK
6
CONTINUOUS
10
5.61793311023622
20
-3.6059898425196848
11
5.618039133858268
21
-3.6059779527559055
0
LINE
8
BLACK
6
CONTINUOUS
10
5.618039133858268
20
-3.6059779527559055
11
5.6190140157480313
21
-3.6062591732283464
0
LINE
8
BLACK
6
CONTINUOUS
10
5.6190140157480313
20
-3.6062591732283464
11
5.6190864173228343
21
-3.6063169291338584
0
LINE
8
BLACK
6
CONTINUOUS
10
5.6190864173228343
20
-3.6063169291338584
11
5.6191783070866137
21
-3.6063290157480314
0
LINE
8
BLACK
6
CONTINUOUS
10
5.6191783070866137
20
-3.6063290157480314
11
5.6196657480314958
21
-3.6066102362204724
0
LINE
8
BLACK
6
CONTINUOUS
10
5.6196657480314958
20
-3.6066102362204724
11
5.6197422834645669
21
-3.6067099212598426
0
LINE
8
BLACK
6
CONTINUOUS
10
5.6197422834645669
20
-3.6067099212598426
11
5.6198546850393702
21
-3.6067661811023619
0
LINE
8
BLACK
6
CONTINUOUS
10
5.6198546850393702
20
-3.6067661811023619
11
5.6203421259842514
21
-3.6073285826771651
0
LINE
8
BLACK
6
CONTINUOUS
10
5.6203421259842514
20
-3.6073285826771651
11
5.6204236220472437
21
-3.6075734645669288
0
LINE
8
BLACK
6
CONTINUOUS
10
5.6204236220472437
20
-3.6075734645669288
11
5.6204335433070867
21
-3.6075973622047242
0
LINE
8
BLACK
6
CONTINUOUS
10
5.6204335433070867
20
-3.6075973622047242
11
5.6243822440944884
21
-3.6060027165354329
0
LINE
8
BLACK
6
CONTINUOUS
10
5.6243822440944884
20
-3.6060027165354329
11
5.6249472047244096
21
-3.6060077559055119
0
LINE
8
BLACK
6
CONTINUOUS
10
5.6249472047244096
20
-3.6060077559055119
11
5.6253431496062989
21
-3.6064107874015745
0
LINE
8
BLACK
6
CONTINUOUS
10
5.6253431496062989
20
-3.6064107874015745
11
5.6253381102362203
21
-3.6069757480314961
0
LINE
8
BLACK
6
CONTINUOUS
10
5.6253381102362203
20
-3.6069757480314961
11
5.6249350787401573
21
-3.6073716929133859
0
LINE
8
BLACK
6
CONTINUOUS
10
5.6249350787401573
20
-3.6073716929133859
11
5.6205224803149605
21
-3.6091537007874015
0
LINE
8
BLACK
6
CONTINUOUS
10
5.6205224803149605
20
-3.6091537007874015
11
5.6205224803149605
21
-3.6093235826771655
0
LINE
8
BLACK
6
CONTINUOUS
10
5.6205224803149605
20
-3.6093235826771655
11
5.6246586614173228
21
-3.6093235826771655
0
LINE
8
BLACK
6
CONTINUOUS
10
5.6246586614173228
20
-3.6093235826771655
11
5.6251806299212594
21
-3.6095398031496062
0
LINE
8
BLACK
6
CONTINUOUS
10
5.6251806299212594
20
-3.6095398031496062
11
5.6253968503937006
21
-3.6100617716535432
0
LINE
8
BLACK
6
CONTINUOUS
10
5.6253968503937006
20
-3.6100617716535432
11
5.6251806299212594
21
-3.6105837401574803
0
LINE
8
BLACK
6
CONTINUOUS
10
5.6251806299212594
20
-3.6105837401574803
11
5.6246586614173228
21
-3.610799960629921
0
LINE
8
BLACK
6
CONTINUOUS
10
5.6246586614173228
20
-3.610799960629921
11
5.6197842913385827
21
-3.610799960629921
0
LINE
8
BLACK
6
CONTINUOUS
10
5.6197842913385827
20
-3.610799960629921
11
5.6144224409448817
21
-3.610799960629921
0
LINE
8
BLACK
6
CONTINUOUS
10
5.6144224409448817
20
-3.610799960629921
11
5.6139004724409451
21
-3.6105837401574803
0
LINE
8
BLACK
6
CONTINUOUS
10
5.6139004724409451
20
-3.6105837401574803
11
5.613684251968504
21
-3.6100617716535432
0
LINE
8
BLACK
6
CONTINUOUS
10
5.613684251968504
20
-3.6100617716535432
11
5.613684251968504
21
-3.6078120472440944
0
LINE
8
BLACK
6
CONTINUOUS
10
5.613684251968504
20
-3.6078120472440944
11
5.6137830314960633
21
-3.6075735433070864
0
LINE
8
BLACK
6
CONTINUOUS
10
5.6137830314960633
20
-3.6075735433070864
11
5.6138646062992121
21
-3.6073285826771651
0
LINE
8
BLACK
6
CONTINUOUS
10
5.6138646062992121
20
-3.6073285826771651
11
5.6143520472440942
21
-3.6067661417322836
0
LINE
8
BLACK
6
CONTINUOUS
10
5.6143520472440942
20
-3.6067661417322836
11
5.6144644488188975
21
-3.6067098818897638
0
LINE
8
BLACK
6
CONTINUOUS
10
5.6144644488188975
20
-3.6067098818897638
11
5.6145409842519687
21
-3.6066102362204724
0
LINE
8
BLACK
6
CONTINUOUS
10
5.6145409842519687
20
-3.6066102362204724
11
5.6150284251968499
21
-3.6063290157480314
0
LINE
8
BLACK
6
CONTINUOUS
10
5.6150284251968499
20
-3.6063290157480314
11
5.6151203149606301
21
-3.6063169291338584
0
LINE
8
BLACK
6
CONTINUOUS
10
5.6151203149606301
20
-3.6063169291338584
11
5.6151927165354332
21
-3.6062591732283464
0
LINE
8
BLACK
6
CONTINUOUS
10
5.6151927165354332
20
-3.6062591732283464
11
5.6161675984251964
21
-3.6059779133858267
0
LINE
8
BLACK
6
CONTINUOUS
10
5.6161675984251964
20
-3.6059779133858267
11
5.6162736614173223
21
-3.605989803149606
0
LINE
8
BLACK
6
CONTINUOUS
10
5.6162736614173223
20
-3.605989803149606
11
5.6163722047244091
21
-3.6059490157480316
0
LINE
8
BLACK
6
CONTINUOUS
10
5.6163722047244091
20
-3.6059490157480316
11
5.6178345275590553
21
-3.6059490157480316
0
LINE
8
BLACK
6
CONTINUOUS
10
5.6178345275590553
20
-3.6059490157480316
11
5.61793311023622
21
-3.6059898425196848
0
LINE
8
BLACK
6
CONTINUOUS
10
5.6156883858267719
20
-3.6076527165354331
11
5.6153863385826774
21
-3.6078269685039368
0
LINE
8
BLACK
6
CONTINUOUS
10
5.6153863385826774
20
-3.6078269685039368
11
5.6151606299212595
21
-3.608087401574803
0
LINE
8
BLACK
6
CONTINUOUS
10
5.6151606299212595
20
-3.608087401574803
11
5.6151606299212595
21
-3.6093235826771655
0
LINE
8
BLACK
6
CONTINUOUS
10
5.6151606299212595
20
-3.6093235826771655
11
5.6190461023622049
21
-3.6093235826771655
0
LINE
8
BLACK
6
CONTINUOUS
10
5.6190461023622049
20
-3.6093235826771655
11
5.6190461023622049
21
-3.6080874409448818
0
LINE
8
BLACK
6
CONTINUOUS
10
5.6190461023622049
20
-3.6080874409448818
11
5.6188203543307083
21
-3.6078269685039368
0
LINE
8
BLACK
6
CONTINUOUS
10
5.6188203543307083
20
-3.6078269685039368
11
5.6185184251968501
21
-3.6076527952755906
0
LINE
8
BLACK
6
CONTINUOUS
10
5.6185184251968501
20
-3.6076527952755906
11
5.6177302362204724
21
-3.6074253937007872
0
LINE
8
BLACK
6
CONTINUOUS
10
5.6177302362204724
20
-3.6074253937007872
11
5.616476496062992
21
-3.6074253937007872
0
LINE
8
BLACK
6
CONTINUOUS
10
5.616476496062992
20
-3.6074253937007872
11
5.6156883858267719
21
-3.6076527165354331
0
LINE
8
BLACK
6
CONTINUOUS
10
5.6251806299212594
20
-3.6005409448818897
11
5.6253968503937006
21
-3.6010629133858267
0
LINE
8
BLACK
6
CONTINUOUS
10
5.6253968503937006
20
-3.6010629133858267
11
5.6253968503937006
21
-3.6044374803149606
0
LINE
8
BLACK
6
CONTINUOUS
10
5.6253968503937006
20
-3.6044374803149606
11
5.6251806299212594
21
-3.6049594488188976
0
LINE
8
BLACK
6
CONTINUOUS
10
5.6251806299212594
20
-3.6049594488188976
11
5.6246586614173228
21
-3.6051756692913384
0
LINE
8
BLACK
6
CONTINUOUS
10
5.6246586614173228
20
-3.6051756692913384
11
5.6241366929133854
21
-3.6049594488188976
0
LINE
8
BLACK
6
CONTINUOUS
10
5.6241366929133854
20
-3.6049594488188976
11
5.6239204724409451
21
-3.6044374803149606
0
LINE
8
BLACK
6
CONTINUOUS
10
5.6239204724409451
20
-3.6044374803149606
11
5.6239204724409451
21
-3.6034883858267714
0
LINE
8
BLACK
6
CONTINUOUS
10
5.6239204724409451
20
-3.6034883858267714
11
5.6175013779527561
21
-3.6034883858267714
0
LINE
8
BLACK
6
CONTINUOUS
10
5.6175013779527561
20
-3.6034883858267714
11
5.617904921259842
21
-3.6039540157480312
0
LINE
8
BLACK
6
CONTINUOUS
10
5.617904921259842
20
-3.6039540157480312
11
5.6180833858267718
21
-3.6044900787401573
0
LINE
8
BLACK
6
CONTINUOUS
10
5.6180833858267718
20
-3.6044900787401573
11
5.6178305511811022
21
-3.6049953149606297
0
LINE
8
BLACK
6
CONTINUOUS
10
5.6178305511811022
20
-3.6049953149606297
11
5.6172944881889766
21
-3.6051737795275591
0
LINE
8
BLACK
6
CONTINUOUS
10
5.6172944881889766
20
-3.6051737795275591
11
5.6167892125984249
21
-3.6049209055118108
0
LINE
8
BLACK
6
CONTINUOUS
10
5.6167892125984249
20
-3.6049209055118108
11
5.6163831102362201
21
-3.6044523228346455
0
LINE
8
BLACK
6
CONTINUOUS
10
5.6163831102362201
20
-3.6044523228346455
11
5.6155659055118106
21
-3.6039809055118108
0
LINE
8
BLACK
6
CONTINUOUS
10
5.6155659055118106
20
-3.6039809055118108
11
5.614157440944882
21
-3.6034391732283462
0
LINE
8
BLACK
6
CONTINUOUS
10
5.614157440944882
20
-3.6034391732283462
11
5.6140444094488187
21
-3.6033317716535431
0
LINE
8
BLACK
6
CONTINUOUS
10
5.6140444094488187
20
-3.6033317716535431
11
5.6139004724409451
21
-3.6032721653543307
0
LINE
8
BLACK
6
CONTINUOUS
10
5.6139004724409451
20
-3.6032721653543307
11
5.6138477559055113
21
-3.6031448818897638
0
LINE
8
BLACK
6
CONTINUOUS
10
5.6138477559055113
20
-3.6031448818897638
11
5.6137478740157478
21
-3.6030500000000001
0
LINE
8
BLACK
6
CONTINUOUS
10
5.6137478740157478
20
-3.6030500000000001
11
5.6137438976377956
21
-3.6028941732283464
0
LINE
8
BLACK
6
CONTINUOUS
10
5.6137438976377956
20
-3.6028941732283464
11
5.613684251968504
21
-3.6027501968503937
0
LINE
8
BLACK
6
CONTINUOUS
10
5.613684251968504
20
-3.6027501968503937
11
5.6137369685039369
21
-3.602622874015748
0
LINE
8
BLACK
6
CONTINUOUS
10
5.6137369685039369
20
-3.602622874015748
11
5.6137334645669288
21
-3.6024851968503935
0
LINE
8
BLACK
6
CONTINUOUS
10
5.6137334645669288
20
-3.6024851968503935
11
5.6138408267716535
21
-3.6023721653543306
0
LINE
8
BLACK
6
CONTINUOUS
10
5.6138408267716535
20
-3.6023721653543306
11
5.6139004724409451
21
-3.6022282283464566
0
LINE
8
BLACK
6
CONTINUOUS
10
5.6139004724409451
20
-3.6022282283464566
11
5.6140277165354329
21
-3.6021755118110237
0
LINE
8
BLACK
6
CONTINUOUS
10
5.6140277165354329
20
-3.6021755118110237
11
5.6141226377952753
21
-3.6020756299212597
0
LINE
8
BLACK
6
CONTINUOUS
10
5.6141226377952753
20
-3.6020756299212597
11
5.6142784251968498
21
-3.6020716535433071
0
LINE
8
BLACK
6
CONTINUOUS
10
5.6142784251968498
20
-3.6020716535433071
11
5.6144224409448817
21
-3.6020120078740159
0
LINE
8
BLACK
6
CONTINUOUS
10
5.6144224409448817
20
-3.6020120078740159
11
5.6239204724409451
21
-3.6020120078740159
0
LINE
8
BLACK
6
CONTINUOUS
10
5.6239204724409451
20
-3.6020120078740159
11
5.6239204724409451
21
-3.6010629133858267
0
LINE
8
BLACK
6
CONTINUOUS
10
5.6239204724409451
20
-3.6010629133858267
11
5.6241366929133854
21
-3.6005409448818897
0
LINE
8
BLACK
6
CONTINUOUS
10
5.6241366929133854
20
-3.6005409448818897
11
5.6246586614173228
21
-3.600324724409449
0
LINE
8
BLACK
6
CONTINUOUS
10
5.6246586614173228
20
-3.600324724409449
11
5.6251806299212594
21
-3.6005409448818897
0
LINE
8
BLACK
6
CONTINUOUS
10
5.6208105905511809
20
-3.5947217322834644
11
5.6208645669291339
21
-3.5947079921259841
0
LINE
8
BLACK
6
CONTINUOUS
10
5.6208645669291339
20
-3.5947079921259841
11
5.6228142913385826
21
-3.5949892125984251
0
LINE
8
BLACK
6
CONTINUOUS
10
5.6228142913385826
20
-3.5949892125984251
11
5.6228603149606302
21
-3.595016535433071
0
LINE
8
BLACK
6
CONTINUOUS
10
5.6228603149606302
20
-3.595016535433071
11
5.6229135433070869
21
-3.5950105905511811
0
LINE
8
BLACK
6
CONTINUOUS
10
5.6229135433070869
20
-3.5950105905511811
11
5.6238884251968502
21
-3.5952918110236221
0
LINE
8
BLACK
6
CONTINUOUS
10
5.6238884251968502
20
-3.5952918110236221
11
5.6239608267716532
21
-3.595349566929134
0
LINE
8
BLACK
6
CONTINUOUS
10
5.6239608267716532
20
-3.595349566929134
11
5.6240526771653538
21
-3.5953616535433071
0
LINE
8
BLACK
6
CONTINUOUS
10
5.6240526771653538
20
-3.5953616535433071
11
5.6245401181102359
21
-3.5956427952755905
0
LINE
8
BLACK
6
CONTINUOUS
10
5.6245401181102359
20
-3.5956427952755905
11
5.6246166929133858
21
-3.5957425196850394
0
LINE
8
BLACK
6
CONTINUOUS
10
5.6246166929133858
20
-3.5957425196850394
11
5.6247291338582679
21
-3.5957988188976375
0
LINE
8
BLACK
6
CONTINUOUS
10
5.6247291338582679
20
-3.5957988188976375
11
5.6252165354330703
21
-3.5963612598425194
0
LINE
8
BLACK
6
CONTINUOUS
10
5.6252165354330703
20
-3.5963612598425194
11
5.6252980314960626
21
-3.5966062204724407
0
LINE
8
BLACK
6
CONTINUOUS
10
5.6252980314960626
20
-3.5966062204724407
11
5.6253968503937006
21
-3.59684468503937
0
LINE
8
BLACK
6
CONTINUOUS
10
5.6253968503937006
20
-3.59684468503937
11
5.6253968503937006
21
-3.5974071259842519
0
LINE
8
BLACK
6
CONTINUOUS
10
5.6253968503937006
20
-3.5974071259842519
11
5.6252980314960626
21
-3.5976455511811021
0
LINE
8
BLACK
6
CONTINUOUS
10
5.6252980314960626
20
-3.5976455511811021
11
5.6252165354330703
21
-3.5978905511811021
0
LINE
8
BLACK
6
CONTINUOUS
10
5.6252165354330703
20
-3.5978905511811021
11
5.6247291338582679
21
-3.598452992125984
0
LINE
8
BLACK
6
CONTINUOUS
10
5.6247291338582679
20
-3.598452992125984
11
5.6246166929133858
21
-3.5985092519685038
0
LINE
8
BLACK
6
CONTINUOUS
10
5.6246166929133858
20
-3.5985092519685038
11
5.6245401181102359
21
-3.5986090157480315
0
LINE
8
BLACK
6
CONTINUOUS
10
5.6245401181102359
20
-3.5986090157480315
11
5.6240526771653538
21
-3.5988901574803149
0
LINE
8
BLACK
6
CONTINUOUS
10
5.6240526771653538
20
-3.5988901574803149
11
5.6239608267716532
21
-3.5989022047244092
0
LINE
8
BLACK
6
CONTINUOUS
10
5.6239608267716532
20
-3.5989022047244092
11
5.6238884251968502
21
-3.5989599999999999
0
LINE
8
BLACK
6
CONTINUOUS
10
5.6238884251968502
20
-3.5989599999999999
11
5.6229135433070869
21
-3.5992412204724409
0
LINE
8
BLACK
6
CONTINUOUS
10
5.6229135433070869
20
-3.5992412204724409
11
5.6228603149606302
21
-3.5992352362204723
0
LINE
8
BLACK
6
CONTINUOUS
10
5.6228603149606302
20
-3.5992352362204723
11
5.6228142913385826
21
-3.5992625984251969
0
LINE
8
BLACK
6
CONTINUOUS
10
5.6228142913385826
20
-3.5992625984251969
11
5.6208645669291339
21
-3.5995438188976379
0
LINE
8
BLACK
6
CONTINUOUS
10
5.6208645669291339
20
-3.5995438188976379
11
5.6208105905511809
21
-3.5995300393700789
0
LINE
8
BLACK
6
CONTINUOUS
10
5.6208105905511809
20
-3.5995300393700789
11
5.620759173228346
21
-3.5995513779527557
0
LINE
8
BLACK
6
CONTINUOUS
10
5.620759173228346
20
-3.5995513779527557
11
5.6183219685039365
21
-3.5995513779527557
0
LINE
8
BLACK
6
CONTINUOUS
10
5.6183219685039365
20
-3.5995513779527557
11
5.6182705118110237
21
-3.5995300393700789
0
LINE
8
BLACK
6
CONTINUOUS
10
5.6182705118110237
20
-3.5995300393700789
11
5.6182165748031494
21
-3.5995438188976379
0
LINE
8
BLACK
6
CONTINUOUS
10
5.6182165748031494
20
-3.5995438188976379
11
5.616266811023622
21
-3.5992625984251969
0
LINE
8
BLACK
6
CONTINUOUS
10
5.616266811023622
20
-3.5992625984251969
11
5.6162207874015744
21
-3.599235275590551
0
LINE
8
BLACK
6
CONTINUOUS
10
5.6162207874015744
20
-3.599235275590551
11
5.6161675984251964
21
-3.5992412598425196
0
LINE
8
BLACK
6
CONTINUOUS
10
5.6161675984251964
20
-3.5992412598425196
11
5.6151927165354332
21
-3.5989599999999999
0
LINE
8
BLACK
6
CONTINUOUS
10
5.6151927165354332
20
-3.5989599999999999
11
5.6151202755905514
21
-3.5989022047244092
0
LINE
8
BLACK
6
CONTINUOUS
10
5.6151202755905514
20
-3.5989022047244092
11
5.6150284645669286
21
-3.5988901574803149
0
LINE
8
BLACK
6
CONTINUOUS
10
5.6150284645669286
20
-3.5988901574803149
11
5.6145410236220474
21
-3.5986089763779527
0
LINE
8
BLACK
6
CONTINUOUS
10
5.6145410236220474
20
-3.5986089763779527
11
5.6144644488188975
21
-3.5985092519685038
0
LINE
8
BLACK
6
CONTINUOUS
10
5.6144644488188975
20
-3.5985092519685038
11
5.6143520078740154
21
-3.598452992125984
0
LINE
8
BLACK
6
CONTINUOUS
10
5.6143520078740154
20
-3.598452992125984
11
5.6138646062992121
21
-3.5978905905511809
0
LINE
8
BLACK
6
CONTINUOUS
10
5.6138646062992121
20
-3.5978905905511809
11
5.613783070866142
21
-3.5976456692913383
0
LINE
8
BLACK
6
CONTINUOUS
10
5.613783070866142
20
-3.5976456692913383
11
5.613684251968504
21
-3.5974071259842519
0
LINE
8
BLACK
6
CONTINUOUS
10
5.613684251968504
20
-3.5974071259842519
11
5.613684251968504
21
-3.59684468503937
0
LINE
8
BLACK
6
CONTINUOUS
10
5.613684251968504
20
-3.59684468503937
11
5.613783070866142
21
-3.5966061023622045
0
LINE
8
BLACK
6
CONTINUOUS
10
5.613783070866142
20
-3.5966061023622045
11
5.6138646062992121
21
-3.5963612204724407
0
LINE
8
BLACK
6
CONTINUOUS
10
5.6138646062992121
20
-3.5963612204724407
11
5.6143520078740154
21
-3.5957988188976375
0
LINE
8
BLACK
6
CONTINUOUS
10
5.6143520078740154
20
-3.5957988188976375
11
5.6144644488188975
21
-3.5957425196850394
0
LINE
8
BLACK
6
CONTINUOUS
10
5.6144644488188975
20
-3.5957425196850394
11
5.6145410236220474
21
-3.5956428346456693
0
LINE
8
BLACK
6
CONTINUOUS
10
5.6145410236220474
20
-3.5956428346456693
11
5.6150284645669286
21
-3.5953616535433071
0
LINE
8
BLACK
6
CONTINUOUS
10
5.6150284645669286
20
-3.5953616535433071
11
5.6151202755905514
21
-3.595349566929134
0
LINE
8
BLACK
6
CONTINUOUS
10
5.6151202755905514
20
-3.595349566929134
11
5.6151927165354332
21
-3.5952918110236221
0
LINE
8
BLACK
6
CONTINUOUS
10
5.6151927165354332
20
-3.5952918110236221
11
5.6161675984251964
21
-3.5950105511811024
0
LINE
8
BLACK
6
CONTINUOUS
10
5.6161675984251964
20
-3.5950105511811024
11
5.6162207874015744
21
-3.5950164960629922
0
LINE
8
BLACK
6
CONTINUOUS
10
5.6162207874015744
20
-3.5950164960629922
11
5.616266811023622
21
-3.5949892125984251
0
LINE
8
BLACK
6
CONTINUOUS
10
5.616266811023622
20
-3.5949892125984251
11
5.6182165748031494
21
-3.5947079921259841
0
LINE
8
BLACK
6
CONTINUOUS
10
5.6182165748031494
20
-3.5947079921259841
11
5.6182705118110237
21
-3.5947217322834644
0
LINE
8
BLACK
6
CONTINUOUS
10
5.6182705118110237
20
-3.5947217322834644
11
5.6183219685039365
21
-3.5947004330708658
0
LINE
8
BLACK
6
CONTINUOUS
10
5.6183219685039365
20
-3.5947004330708658
11
5.620759173228346
21
-3.5947004330708658
0
LINE
8
BLACK
6
CONTINUOUS
10
5.620759173228346
20
-3.5947004330708658
11
5.6208105905511809
21
-3.5947217322834644
0
LINE
8
BLACK
6
CONTINUOUS
10
5.6165277952755908
20
-3.5964432283464567
11
5.6156883858267719
21
-3.5966853543307087
0
LINE
8
BLACK
6
CONTINUOUS
10
5.6156883858267719
20
-3.5966853543307087
11
5.6153863385826774
21
-3.5968595669291337
0
LINE
8
BLACK
6
CONTINUOUS
10
5.6153863385826774
20
-3.5968595669291337
11
5.6151606299212595
21
-3.5971200393700786
0
LINE
8
BLACK
6
CONTINUOUS
10
5.6151606299212595
20
-3.5971200393700786
11
5.6151606299212595
21
-3.5971317322834646
0
LINE
8
BLACK
6
CONTINUOUS
10
5.6151606299212595
20
-3.5971317322834646
11
5.6153863385826774
21
-3.5973922047244096
0
LINE
8
BLACK
6
CONTINUOUS
10
5.6153863385826774
20
-3.5973922047244096
11
5.6156883858267719
21
-3.5975664173228346
0
LINE
8
BLACK
6
CONTINUOUS
10
5.6156883858267719
20
-3.5975664173228346
11
5.6165277952755908
21
-3.5978085433070865
0
LINE
8
BLACK
6
CONTINUOUS
10
5.6165277952755908
20
-3.5978085433070865
11
5.6183749212598428
21
-3.5980750000000001
0
LINE
8
BLACK
6
CONTINUOUS
10
5.6183749212598428
20
-3.5980750000000001
11
5.6207061811023618
21
-3.5980750000000001
0
LINE
8
BLACK
6
CONTINUOUS
10
5.6207061811023618
20
-3.5980750000000001
11
5.6225533070866138
21
-3.5978085433070865
0
LINE
8
BLACK
6
CONTINUOUS
10
5.6225533070866138
20
-3.5978085433070865
11
5.6233929527559052
21
-3.5975662992125983
0
LINE
8
BLACK
6
CONTINUOUS
10
5.6233929527559052
20
-3.5975662992125983
11
5.6236947244094484
21
-3.5973922440944883
0
LINE
8
BLACK
6
CONTINUOUS
10
5.6236947244094484
20
-3.5973922440944883
11
5.6239204724409451
21
-3.5971317716535434
0
LINE
8
BLACK
6
CONTINUOUS
10
5.6239204724409451
20
-3.5971317716535434
11
5.6239204724409451
21
-3.5971199999999999
0
LINE
8
BLACK
6
CONTINUOUS
10
5.6239204724409451
20
-3.5971199999999999
11
5.6236947244094484
21
-3.5968595275590549
0
LINE
8
BLACK
6
CONTINUOUS
10
5.6236947244094484
20
-3.5968595275590549
11
5.6233929527559052
21
-3.5966854724409449
0
LINE
8
BLACK
6
CONTINUOUS
10
5.6233929527559052
20
-3.5966854724409449
11
5.6225533070866138
21
-3.5964432283464567
0
LINE
8
BLACK
6
CONTINUOUS
10
5.6225533070866138
20
-3.5964432283464567
11
5.6207061811023618
21
-3.5961768110236219
0
LINE
8
BLACK
6
CONTINUOUS
10
5.6207061811023618
20
-3.5961768110236219
11
5.6183749212598428
21
-3.5961768110236219
0
LINE
8
BLACK
6
CONTINUOUS
10
5.6183749212598428
20
-3.5961768110236219
11
5.6165277952755908
21
-3.5964432283464567
0
LINE
8
BLACK
6
CONTINUOUS
10
5.6251806299212594
20
-3.5892923622047244
11
5.6253968503937006
21
-3.5898143307086614
0
LINE
8
BLACK
6
CONTINUOUS
10
5.6253968503937006
20
-3.5898143307086614
11
5.6253968503937006
21
-3.5931888976377953
0
LINE
8
BLACK
6
CONTINUOUS
10
5.6253968503937006
20
-3.5931888976377953
11
5.6251806299212594
21
-3.5937108661417323
0
LINE
8
BLACK
6
CONTINUOUS
10
5.6251806299212594
20
-3.5937108661417323
11
5.6246586614173228
21
-3.593927086614173
0
LINE
8
BLACK
6
CONTINUOUS
10
5.6246586614173228
20
-3.593927086614173
11
5.6241366929133854
21
-3.5937108661417323
0
LINE
8
BLACK
6
CONTINUOUS
10
5.6241366929133854
20
-3.5937108661417323
11
5.6239204724409451
21
-3.5931888976377953
0
LINE
8
BLACK
6
CONTINUOUS
10
5.6239204724409451
20
-3.5931888976377953
11
5.6239204724409451
21
-3.5922398031496061
0
LINE
8
BLACK
6
CONTINUOUS
10
5.6239204724409451
20
-3.5922398031496061
11
5.6175013779527561
21
-3.5922398031496061
0
LINE
8
BLACK
6
CONTINUOUS
10
5.6175013779527561
20
-3.5922398031496061
11
5.617904921259842
21
-3.5927054330708659
0
LINE
8
BLACK
6
CONTINUOUS
10
5.617904921259842
20
-3.5927054330708659
11
5.6180833858267718
21
-3.5932414960629919
0
LINE
8
BLACK
6
CONTINUOUS
10
5.6180833858267718
20
-3.5932414960629919
11
5.6178305511811022
21
-3.5937467322834644
0
LINE
8
BLACK
6
CONTINUOUS
10
5.6178305511811022
20
-3.5937467322834644
11
5.6172944881889766
21
-3.5939251968503938
0
LINE
8
BLACK
6
CONTINUOUS
10
5.6172944881889766
20
-3.5939251968503938
11
5.6167892125984249
21
-3.5936723228346454
0
LINE
8
BLACK
6
CONTINUOUS
10
5.6167892125984249
20
-3.5936723228346454
11
5.6163831102362201
21
-3.5932037401574801
0
LINE
8
BLACK
6
CONTINUOUS
10
5.6163831102362201
20
-3.5932037401574801
11
5.6155659055118106
21
-3.5927323228346455
0
LINE
8
BLACK
6
CONTINUOUS
10
5.6155659055118106
20
-3.5927323228346455
11
5.614157440944882
21
-3.5921905905511808
0
LINE
8
BLACK
6
CONTINUOUS
10
5.614157440944882
20
-3.5921905905511808
11
5.6140444094488187
21
-3.5920831889763778
0
LINE
8
BLACK
6
CONTINUOUS
10
5.6140444094488187
20
-3.5920831889763778
11
5.6139004724409451
21
-3.5920235826771654
0
LINE
8
BLACK
6
CONTINUOUS
10
5.6139004724409451
20
-3.5920235826771654
11
5.6138477559055113
21
-3.5918962992125985
0
LINE
8
BLACK
6
CONTINUOUS
10
5.6138477559055113
20
-3.5918962992125985
11
5.6137478740157478
21
-3.5918014173228348
0
LINE
8
BLACK
6
CONTINUOUS
10
5.6137478740157478
20
-3.5918014173228348
11
5.6137438976377956
21
-3.591645590551181
0
LINE
8
BLACK
6
CONTINUOUS
10
5.6137438976377956
20
-3.591645590551181
11
5.613684251968504
21
-3.5915016141732283
0
LINE
8
BLACK
6
CONTINUOUS
10
5.613684251968504
20
-3.5915016141732283
11
5.6137369685039369
21
-3.5913742913385827
0
LINE
8
BLACK
6
CONTINUOUS
10
5.6137369685039369
20
-3.5913742913385827
11
5.6137334645669288
21
-3.5912366141732281
0
LINE
8
BLACK
6
CONTINUOUS
10
5.6137334645669288
20
-3.5912366141732281
11
5.6138408267716535
21
-3.5911235826771652
0
LINE
8
BLACK
6
CONTINUOUS
10
5.6138408267716535
20
-3.5911235826771652
11
5.6139004724409451
21
-3.5909796456692913
0
LINE
8
BLACK
6
CONTINUOUS
10
5.6139004724409451
20
-3.5909796456692913
11
5.6140277165354329
21
-3.5909269291338584
0
LINE
8
BLACK
6
CONTINUOUS
10
5.6140277165354329
20
-3.5909269291338584
11
5.6141226377952753
21
-3.5908270472440944
0
LINE
8
BLACK
6
CONTINUOUS
10
5.6141226377952753
20
-3.5908270472440944
11
5.6142784251968498
21
-3.5908230708661417
0
LINE
8
BLACK
6
CONTINUOUS
10
5.6142784251968498
20
-3.5908230708661417
11
5.6144224409448817
21
-3.5907634251968501
0
LINE
8
BLACK
6
CONTINUOUS
10
5.6144224409448817
20
-3.5907634251968501
11
5.6239204724409451
21
-3.5907634251968501
0
LINE
8
BLACK
6
CONTINUOUS
10
5.6239204724409451
20
-3.5907634251968501
11
5.6239204724409451
21
-3.5898143307086614
0
LINE
8
BLACK
6
CONTINUOUS
10
5.6239204724409451
20
-3.5898143307086614
11
5.6241366929133854
21
-3.5892923622047244
0
LINE
8
BLACK
6
CONTINUOUS
10
5.6241366929133854
20
-3.5892923622047244
11
5.6246586614173228
21
-3.5890761417322832
0
LINE
8
BLACK
6
CONTINUOUS
10
5.6246586614173228
20
-3.5890761417322832
11
5.6251806299212594
21
-3.5892923622047244
0
LINE
8
BLACK
6
CONTINUOUS
10
5.6306299212598425
20
-3.577440905511811
11
5.6320218503937003
21
-3.5780174803149607
0
LINE
8
BLACK
6
CONTINUOUS
10
5.6320218503937003
20
-3.5780174803149607
11
5.6325984251968499
21
-3.5794094094488189
0
LINE
8
BLACK
6
CONTINUOUS
10
5.6325984251968499
20
-3.5794094094488189
11
5.6325984251968499
21
-3.6207479921259842
0
LINE
8
BLACK
6
CONTINUOUS
10
5.6325984251968499
20
-3.6207479921259842
11
5.6320218503937003
21
-3.6221399212598424
0
LINE
8
BLACK
6
CONTINUOUS
10
5.6320218503937003
20
-3.6221399212598424
11
5.6306299212598425
21
-3.6227164960629921
0
LINE
8
BLACK
6
CONTINUOUS
10
5.6306299212598425
20
-3.6227164960629921
11
5.6093700787401577
21
-3.6227164960629921
0
LINE
8
BLACK
6
CONTINUOUS
10
5.6093700787401577
20
-3.6227164960629921
11
5.607978149606299
21
-3.6221399212598424
0
LINE
8
BLACK
6
CONTINUOUS
10
5.607978149606299
20
-3.6221399212598424
11
5.6074015748031494
21
-3.6207479921259842
0
LINE
8
BLACK
6
CONTINUOUS
10
5.6074015748031494
20
-3.6207479921259842
11
5.6074015748031494
21
-3.5794094094488189
0
LINE
8
BLACK
6
CONTINUOUS
10
5.6074015748031494
20
-3.5794094094488189
11
5.607978149606299
21
-3.5780174803149607
0
LINE
8
BLACK
6
CONTINUOUS
10
5.607978149606299
20
-3.5780174803149607
11
5.6093700787401577
21
-3.577440905511811
0
LINE
8
BLACK
6
CONTINUOUS
10
5.6093700787401577
20
-3.577440905511811
11
5.6306299212598425
21
-3.577440905511811
0
LINE
8
BLACK
6
CONTINUOUS
10
5.6113385826771651
20
-3.5813779133858268
11
5.6113385826771651
21
-3.6187794881889763
0
LINE
8
BLACK
6
CONTINUOUS
10
5.6113385826771651
20
-3.6187794881889763
11
5.6286614173228342
21
-3.6187794881889763
0
LINE
8
BLACK
6
CONTINUOUS
10
5.6286614173228342
20
-3.6187794881889763
11
5.6286614173228342
21
-3.5813779133858268
0
LINE
8
BLACK
6
CONTINUOUS
10
5.6286614173228342
20
-3.5813779133858268
11
5.6113385826771651
21
-3.5813779133858268
0
LINE
8
BLACK
6
CONTINUOUS
10
5.5026503543307088
20
-3.5821514960629921
11
5.5033411811023623
21
-3.5840494881889762
0
LINE
8
BLACK
6
CONTINUOUS
10
5.5033411811023623
20
-3.5840494881889762
11
5.5033411811023623
21
-3.6140457086614171
0
LINE
8
BLACK
6
CONTINUOUS
10
5.5033411811023623
20
-3.6140457086614171
11
5.50316311023622
21
-3.6150556299212599
0
LINE
8
BLACK
6
CONTINUOUS
10
5.50316311023622
20
-3.6150556299212599
11
5.5018648031496058
21
-3.6166028740157481
0
LINE
8
BLACK
6
CONTINUOUS
10
5.5018648031496058
20
-3.6166028740157481
11
5.4998756692913382
21
-3.616953622047244
0
LINE
8
BLACK
6
CONTINUOUS
10
5.4998756692913382
20
-3.616953622047244
11
5.4981264960629916
21
-3.6159437007874016
0
LINE
8
BLACK
6
CONTINUOUS
10
5.4981264960629916
20
-3.6159437007874016
11
5.4974356692913382
21
-3.6140457086614171
0
LINE
8
BLACK
6
CONTINUOUS
10
5.4974356692913382
20
-3.6140457086614171
11
5.4974356692913382
21
-3.5840494881889762
0
LINE
8
BLACK
6
CONTINUOUS
10
5.4974356692913382
20
-3.5840494881889762
11
5.4976137401574805
21
-3.5830395669291337
0
LINE
8
BLACK
6
CONTINUOUS
10
5.4976137401574805
20
-3.5830395669291337
11
5.4989120472440947
21
-3.5814923228346456
0
LINE
8
BLACK
6
CONTINUOUS
10
5.4989120472440947
20
-3.5814923228346456
11
5.5009011811023623
21
-3.5811415748031497
0
LINE
8
BLACK
6
CONTINUOUS
10
5.5009011811023623
20
-3.5811415748031497
11
5.5026503543307088
21
-3.5821514960629921
0
LINE
8
BLACK
6
CONTINUOUS
10
5.2583210629921258
20
-3.5616789370078741
11
5.2588976377952754
21
-3.5630708661417323
0
LINE
8
BLACK
6
CONTINUOUS
10
5.2588976377952754
20
-3.5630708661417323
11
5.2588976377952754
21
-3.6103149606299212
0
LINE
8
BLACK
6
CONTINUOUS
10
5.2588976377952754
20
-3.6103149606299212
11
5.3061417322834643
21
-3.6103149606299212
0
LINE
8
BLACK
6
CONTINUOUS
10
5.3061417322834643
20
-3.6103149606299212
11
5.307533661417323
21
-3.6108915354330708
0
LINE
8
BLACK
6
CONTINUOUS
10
5.307533661417323
20
-3.6108915354330708
11
5.3081102362204726
21
-3.6122834645669291
0
LINE
8
BLACK
6
CONTINUOUS
10
5.3081102362204726
20
-3.6122834645669291
11
5.307533661417323
21
-3.6136753937007873
0
LINE
8
BLACK
6
CONTINUOUS
10
5.307533661417323
20
-3.6136753937007873
11
5.3061417322834643
21
-3.6142519685039369
0
LINE
8
BLACK
6
CONTINUOUS
10
5.3061417322834643
20
-3.6142519685039369
11
5.256929133858268
21
-3.6142519685039369
0
LINE
8
BLACK
6
CONTINUOUS
10
5.256929133858268
20
-3.6142519685039369
11
5.2555372047244093
21
-3.6136753937007873
0
LINE
8
BLACK
6
CONTINUOUS
10
5.2555372047244093
20
-3.6136753937007873
11
5.2549606299212597
21
-3.6122834645669291
0
LINE
8
BLACK
6
CONTINUOUS
10
5.2549606299212597
20
-3.6122834645669291
11
5.2549606299212597
21
-3.5630708661417323
0
LINE
8
BLACK
6
CONTINUOUS
10
5.2549606299212597
20
-3.5630708661417323
11
5.2555372047244093
21
-3.5616789370078741
0
LINE
8
BLACK
6
CONTINUOUS
10
5.2555372047244093
20
-3.5616789370078741
11
5.256929133858268
21
-3.5611023622047244
0
LINE
8
BLACK
6
CONTINUOUS
10
5.256929133858268
20
-3.5611023622047244
11
5.2583210629921258
21
-3.5616789370078741
0
LINE
8
BLACK
6
CONTINUOUS
10
5.5774254724409449
20
-3.5831675196850394
11
5.5775612598425193
21
-3.5831533464566929
0
LINE
8
BLACK
6
CONTINUOUS
10
5.5775612598425193
20
-3.5831533464566929
11
5.5850603149606295
21
-3.5850281102362205
0
LINE
8
BLACK
6
CONTINUOUS
10
5.5850603149606295
20
-3.5850281102362205
11
5.5855257480314959
21
-3.5852356692913383
0
LINE
8
BLACK
6
CONTINUOUS
10
5.5855257480314959
20
-3.5852356692913383
11
5.5856646850393696
21
-3.5852516929133857
0
LINE
8
BLACK
6
CONTINUOUS
10
5.5856646850393696
20
-3.5852516929133857
11
5.5894142125984247
21
-3.5871264566929133
0
LINE
8
BLACK
6
CONTINUOUS
10
5.5894142125984247
20
-3.5871264566929133
11
5.5901231889763778
21
-3.5876522834645668
0
LINE
8
BLACK
6
CONTINUOUS
10
5.5901231889763778
20
-3.5876522834645668
11
5.5901815748031494
21
-3.5876795275590552
0
LINE
8
BLACK
6
CONTINUOUS
10
5.5901815748031494
20
-3.5876795275590552
11
5.5920563779527557
21
-3.5895542913385827
0
LINE
8
BLACK
6
CONTINUOUS
10
5.5920563779527557
20
-3.5895542913385827
11
5.5925627559055116
21
-3.5902774409448819
0
LINE
8
BLACK
6
CONTINUOUS
10
5.5925627559055116
20
-3.5902774409448819
11
5.5926095275590546
21
-3.5903217322834644
0
LINE
8
BLACK
6
CONTINUOUS
10
5.5926095275590546
20
-3.5903217322834644
11
5.5944842913385822
21
-3.5940712598425195
0
LINE
8
BLACK
6
CONTINUOUS
10
5.5944842913385822
20
-3.5940712598425195
11
5.594776653543307
21
-3.5950541732283465
0
LINE
8
BLACK
6
CONTINUOUS
10
5.594776653543307
20
-3.5950541732283465
11
5.5947356299212601
21
-3.5952258661417322
0
LINE
8
BLACK
6
CONTINUOUS
10
5.5947356299212601
20
-3.5952258661417322
11
5.5947960236220471
21
-3.5953917716535431
0
LINE
8
BLACK
6
CONTINUOUS
10
5.5947960236220471
20
-3.5953917716535431
11
5.5947960236220471
21
-3.5991412992125982
0
LINE
8
BLACK
6
CONTINUOUS
10
5.5947960236220471
20
-3.5991412992125982
11
5.5946179527559057
21
-3.6001512204724411
0
LINE
8
BLACK
6
CONTINUOUS
10
5.5946179527559057
20
-3.6001512204724411
11
5.5945044488188973
21
-3.6002864566929134
0
LINE
8
BLACK
6
CONTINUOUS
10
5.5945044488188973
20
-3.6002864566929134
11
5.5944842913385822
21
-3.6004618110236222
0
LINE
8
BLACK
6
CONTINUOUS
10
5.5944842913385822
20
-3.6004618110236222
11
5.5926095275590546
21
-3.6042113385826773
0
LINE
8
BLACK
6
CONTINUOUS
10
5.5926095275590546
20
-3.6042113385826773
11
5.5920835433070861
21
-3.6049204330708662
0
LINE
8
BLACK
6
CONTINUOUS
10
5.5920835433070861
20
-3.6049204330708662
11
5.5920563779527557
21
-3.604978779527559
0
LINE
8
BLACK
6
CONTINUOUS
10
5.5920563779527557
20
-3.604978779527559
11
5.5901815748031494
21
-3.6068535433070865
0
LINE
8
BLACK
6
CONTINUOUS
10
5.5901815748031494
20
-3.6068535433070865
11
5.5894585039370082
21
-3.6073598031496061
0
LINE
8
BLACK
6
CONTINUOUS
10
5.5894585039370082
20
-3.6073598031496061
11
5.5894142125984247
21
-3.6074066141732284
0
LINE
8
BLACK
6
CONTINUOUS
10
5.5894142125984247
20
-3.6074066141732284
11
5.5856646850393696
21
-3.6092813779527559
0
LINE
8
BLACK
6
CONTINUOUS
10
5.5856646850393696
20
-3.6092813779527559
11
5.5851762204724409
21
-3.6094266535433071
0
LINE
8
BLACK
6
CONTINUOUS
10
5.5851762204724409
20
-3.6094266535433071
11
5.5850603149606295
21
-3.6095049606299212
0
LINE
8
BLACK
6
CONTINUOUS
10
5.5850603149606295
20
-3.6095049606299212
11
5.5775612598425193
21
-3.6113797244094488
0
LINE
8
BLACK
6
CONTINUOUS
10
5.5775612598425193
20
-3.6113797244094488
11
5.5769733464566924
21
-3.611421181102362
0
LINE
8
BLACK
6
CONTINUOUS
10
5.5769733464566924
20
-3.611421181102362
11
5.5768451181102359
21
-3.611467874015748
0
LINE
8
BLACK
6
CONTINUOUS
10
5.5768451181102359
20
-3.611467874015748
11
5.5674712992125981
21
-3.611467874015748
0
LINE
8
BLACK
6
CONTINUOUS
10
5.5674712992125981
20
-3.611467874015748
11
5.5668909055118112
21
-3.6113655118110235
0
LINE
8
BLACK
6
CONTINUOUS
10
5.5668909055118112
20
-3.6113655118110235
11
5.5667551574803147
21
-3.6113797244094488
0
LINE
8
BLACK
6
CONTINUOUS
10
5.5667551574803147
20
-3.6113797244094488
11
5.5592561023622045
21
-3.6095049606299212
0
LINE
8
BLACK
6
CONTINUOUS
10
5.5592561023622045
20
-3.6095049606299212
11
5.5587906299212593
21
-3.6092973622047242
0
LINE
8
BLACK
6
CONTINUOUS
10
5.5587906299212593
20
-3.6092973622047242
11
5.5586517322834643
21
-3.6092813779527559
0
LINE
8
BLACK
6
CONTINUOUS
10
5.5586517322834643
20
-3.6092813779527559
11
5.5549022047244092
21
-3.6074066141732284
0
LINE
8
BLACK
6
CONTINUOUS
10
5.5549022047244092
20
-3.6074066141732284
11
5.5541931102362208
21
-3.6068807086614174
0
LINE
8
BLACK
6
CONTINUOUS
10
5.5541931102362208
20
-3.6068807086614174
11
5.5541348031496058
21
-3.6068535039370078
0
LINE
8
BLACK
6
CONTINUOUS
10
5.5541348031496058
20
-3.6068535039370078
11
5.5522600393700783
21
-3.6049787401574802
0
LINE
8
BLACK
6
CONTINUOUS
10
5.5522600393700783
20
-3.6049787401574802
11
5.5517537401574799
21
-3.6042556299212598
0
LINE
8
BLACK
6
CONTINUOUS
10
5.5517537401574799
20
-3.6042556299212598
11
5.5517069291338581
21
-3.6042113385826773
0
LINE
8
BLACK
6
CONTINUOUS
10
5.5517069291338581
20
-3.6042113385826773
11
5.5498321653543305
21
-3.6004618110236222
0
LINE
8
BLACK
6
CONTINUOUS
10
5.5498321653543305
20
-3.6004618110236222
11
5.5495398031496066
21
-3.5994788582677164
0
LINE
8
BLACK
6
CONTINUOUS
10
5.5495398031496066
20
-3.5994788582677164
11
5.5495807874015748
21
-3.5993071653543307
0
LINE
8
BLACK
6
CONTINUOUS
10
5.5495807874015748
20
-3.5993071653543307
11
5.5495204330708656
21
-3.5991412992125982
0
LINE
8
BLACK
6
CONTINUOUS
10
5.5495204330708656
20
-3.5991412992125982
11
5.5495204330708656
21
-3.5953917716535431
0
LINE
8
BLACK
6
CONTINUOUS
10
5.5495204330708656
20
-3.5953917716535431
11
5.5496985039370079
21
-3.5943818503937006
0
LINE
8
BLACK
6
CONTINUOUS
10
5.5496985039370079
20
-3.5943818503937006
11
5.5498119685039367
21
-3.5942465748031496
0
LINE
8
BLACK
6
CONTINUOUS
10
5.5498119685039367
20
-3.5942465748031496
11
5.5498321653543305
21
-3.5940712598425195
0
LINE
8
BLACK
6
CONTINUOUS
10
5.5498321653543305
20
-3.5940712598425195
11
5.5517069291338581
21
-3.5903217322834644
0
LINE
8
BLACK
6
CONTINUOUS
10
5.5517069291338581
20
-3.5903217322834644
11
5.5522328346456691
21
-3.5896126377952755
0
LINE
8
BLACK
6
CONTINUOUS
10
5.5522328346456691
20
-3.5896126377952755
11
5.5522600393700783
21
-3.5895543307086615
0
LINE
8
BLACK
6
CONTINUOUS
10
5.5522600393700783
20
-3.5895543307086615
11
5.5541348031496058
21
-3.5876795669291339
0
LINE
8
BLACK
6
CONTINUOUS
10
5.5541348031496058
20
-3.5876795669291339
11
5.5548578740157479
21
-3.5871732677165356
0
LINE
8
BLACK
6
CONTINUOUS
10
5.5548578740157479
20
-3.5871732677165356
11
5.5549022047244092
21
-3.5871264566929133
0
LINE
8
BLACK
6
CONTINUOUS
10
5.5549022047244092
20
-3.5871264566929133
11
5.5586517322834643
21
-3.5852516929133857
0
LINE
8
BLACK
6
CONTINUOUS
10
5.5586517322834643
20
-3.5852516929133857
11
5.5591401574803152
21
-3.5851063779527559
0
LINE
8
BLACK
6
CONTINUOUS
10
5.5591401574803152
20
-3.5851063779527559
11
5.5592561023622045
21
-3.5850281102362205
0
LINE
8
BLACK
6
CONTINUOUS
10
5.5592561023622045
20
-3.5850281102362205
11
5.5667551574803147
21
-3.5831533464566929
0
LINE
8
BLACK
6
CONTINUOUS
10
5.5667551574803147
20
-3.5831533464566929
11
5.5673430314960628
21
-3.5831118503937005
0
LINE
8
BLACK
6
CONTINUOUS
10
5.5673430314960628
20
-3.5831118503937005
11
5.5674712992125981
21
-3.5830651968503937
0
LINE
8
BLACK
6
CONTINUOUS
10
5.5674712992125981
20
-3.5830651968503937
11
5.5768451181102359
21
-3.5830651968503937
0
LINE
8
BLACK
6
CONTINUOUS
10
5.5768451181102359
20
-3.5830651968503937
11
5.5774254724409449
21
-3.5831675196850394
0
LINE
8
BLACK
6
CONTINUOUS
10
5.5610027952755905
20
-3.5906787007874015
11
5.5579718110236218
21
-3.5921942125984252
0
LINE
8
BLACK
6
CONTINUOUS
10
5.5579718110236218
20
-3.5921942125984252
11
5.55677468503937
21
-3.593391338582677
0
LINE
8
BLACK
6
CONTINUOUS
10
5.55677468503937
20
-3.593391338582677
11
5.5554259448818897
21
-3.5960888188976377
0
LINE
8
BLACK
6
CONTINUOUS
10
5.5554259448818897
20
-3.5960888188976377
11
5.5554259448818897
21
-3.598444251968504
0
LINE
8
BLACK
6
CONTINUOUS
10
5.5554259448818897
20
-3.598444251968504
11
5.55677468503937
21
-3.6011417322834647
0
LINE
8
BLACK
6
CONTINUOUS
10
5.55677468503937
20
-3.6011417322834647
11
5.5579718110236218
21
-3.6023388582677165
0
LINE
8
BLACK
6
CONTINUOUS
10
5.5579718110236218
20
-3.6023388582677165
11
5.5610027952755905
21
-3.6038543307086615
0
LINE
8
BLACK
6
CONTINUOUS
10
5.5610027952755905
20
-3.6038543307086615
11
5.5678348425196846
21
-3.6055623622047244
0
LINE
8
BLACK
6
CONTINUOUS
10
5.5678348425196846
20
-3.6055623622047244
11
5.5764815748031493
21
-3.6055623622047244
0
LINE
8
BLACK
6
CONTINUOUS
10
5.5764815748031493
20
-3.6055623622047244
11
5.5833136220472444
21
-3.6038543307086615
0
LINE
8
BLACK
6
CONTINUOUS
10
5.5833136220472444
20
-3.6038543307086615
11
5.5863446062992121
21
-3.6023388188976377
0
LINE
8
BLACK
6
CONTINUOUS
10
5.5863446062992121
20
-3.6023388188976377
11
5.5875417716535436
21
-3.6011416929133859
0
LINE
8
BLACK
6
CONTINUOUS
10
5.5875417716535436
20
-3.6011416929133859
11
5.5888905118110239
21
-3.598444251968504
0
LINE
8
BLACK
6
CONTINUOUS
10
5.5888905118110239
20
-3.598444251968504
11
5.5888905118110239
21
-3.5960888188976377
0
LINE
8
BLACK
6
CONTINUOUS
10
5.5888905118110239
20
-3.5960888188976377
11
5.5875417716535436
21
-3.593391338582677
0
LINE
8
BLACK
6
CONTINUOUS
10
5.5875417716535436
20
-3.593391338582677
11
5.5863446062992121
21
-3.5921942125984252
0
LINE
8
BLACK
6
CONTINUOUS
10
5.5863446062992121
20
-3.5921942125984252
11
5.5833136220472444
21
-3.5906787007874015
0
LINE
8
BLACK
6
CONTINUOUS
10
5.5833136220472444
20
-3.5906787007874015
11
5.5764815748031493
21
-3.5889707086614173
0
LINE
8
BLACK
6
CONTINUOUS
10
5.5764815748031493
20
-3.5889707086614173
11
5.5678348425196846
21
-3.5889707086614173
0
LINE
8
BLACK
6
CONTINUOUS
10
5.5678348425196846
20
-3.5889707086614173
11
5.5610027952755905
21
-3.5906787007874015
0
LINE
8
BLACK
6
CONTINUOUS
10
5.3672120472440943
20
-3.5278191732283464
11
5.3672764173228344
21
-3.5278174409448817
0
LINE
8
BLACK
6
CONTINUOUS
10
5.3672764173228344
20
-3.5278174409448817
11
5.3729007086614171
21
-3.5296922047244093
0
LINE
8
BLACK
6
CONTINUOUS
10
5.3729007086614171
20
-3.5296922047244093
11
5.3738024803149607
21
-3.5301804724409447
0
LINE
8
BLACK
6
CONTINUOUS
10
5.3738024803149607
20
-3.5301804724409447
11
5.3738948818897638
21
-3.5303309055118111
0
LINE
8
BLACK
6
CONTINUOUS
10
5.3738948818897638
20
-3.5303309055118111
11
5.374054881889764
21
-3.5304055118110234
0
LINE
8
BLACK
6
CONTINUOUS
10
5.374054881889764
20
-3.5304055118110234
11
5.3778044488188979
21
-3.5341550393700785
0
LINE
8
BLACK
6
CONTINUOUS
10
5.3778044488188979
20
-3.5341550393700785
11
5.3783926771653539
21
-3.5349950787401574
0
LINE
8
BLACK
6
CONTINUOUS
10
5.3783926771653539
20
-3.5349950787401574
11
5.3784080314960629
21
-3.5351709842519683
0
LINE
8
BLACK
6
CONTINUOUS
10
5.3784080314960629
20
-3.5351709842519683
11
5.378517755905512
21
-3.5353092125984249
0
LINE
8
BLACK
6
CONTINUOUS
10
5.378517755905512
20
-3.5353092125984249
11
5.3803925196850395
21
-3.5409334645669293
0
LINE
8
BLACK
6
CONTINUOUS
10
5.3803925196850395
20
-3.5409334645669293
11
5.3805220078740152
21
-3.5418066929133856
0
LINE
8
BLACK
6
CONTINUOUS
10
5.3805220078740152
20
-3.5418066929133856
11
5.3805440551181105
21
-3.5418672440944881
0
LINE
8
BLACK
6
CONTINUOUS
10
5.3805440551181105
20
-3.5418672440944881
11
5.3805440551181105
21
-3.5456167716535432
0
LINE
8
BLACK
6
CONTINUOUS
10
5.3805440551181105
20
-3.5456167716535432
11
5.3803659842519682
21
-3.5466266929133856
0
LINE
8
BLACK
6
CONTINUOUS
10
5.3803659842519682
20
-3.5466266929133856
11
5.3790676771653541
21
-3.5481739370078738
0
LINE
8
BLACK
6
CONTINUOUS
10
5.3790676771653541
20
-3.5481739370078738
11
5.3770785433070865
21
-3.5485246850393701
0
LINE
8
BLACK
6
CONTINUOUS
10
5.3770785433070865
20
-3.5485246850393701
11
5.3753293700787399
21
-3.5475147637795277
0
LINE
8
BLACK
6
CONTINUOUS
10
5.3753293700787399
20
-3.5475147637795277
11
5.3746385433070865
21
-3.5456167716535432
0
LINE
8
BLACK
6
CONTINUOUS
10
5.3746385433070865
20
-3.5456167716535432
11
5.3746385433070865
21
-3.542346377952756
0
LINE
8
BLACK
6
CONTINUOUS
10
5.3746385433070865
20
-3.542346377952756
11
5.3731357480314959
21
-3.5378379921259842
0
LINE
8
BLACK
6
CONTINUOUS
10
5.3731357480314959
20
-3.5378379921259842
11
5.3703719291338583
21
-3.5350742125984249
0
LINE
8
BLACK
6
CONTINUOUS
10
5.3703719291338583
20
-3.5350742125984249
11
5.3658635433070865
21
-3.5335714173228348
0
LINE
8
BLACK
6
CONTINUOUS
10
5.3658635433070865
20
-3.5335714173228348
11
5.3382212204724411
21
-3.5335714173228348
0
LINE
8
BLACK
6
CONTINUOUS
10
5.3382212204724411
20
-3.5335714173228348
11
5.3372112992125986
21
-3.5333933464566929
0
LINE
8
BLACK
6
CONTINUOUS
10
5.3372112992125986
20
-3.5333933464566929
11
5.3356640551181105
21
-3.5320950393700787
0
LINE
8
BLACK
6
CONTINUOUS
10
5.3356640551181105
20
-3.5320950393700787
11
5.3353133070866141
21
-3.5301059055118111
0
LINE
8
BLACK
6
CONTINUOUS
10
5.3353133070866141
20
-3.5301059055118111
11
5.3363232283464566
21
-3.5283567322834646
0
LINE
8
BLACK
6
CONTINUOUS
10
5.3363232283464566
20
-3.5283567322834646
11
5.3382212204724411
21
-3.5276659055118111
0
LINE
8
BLACK
6
CONTINUOUS
10
5.3382212204724411
20
-3.5276659055118111
11
5.3663426771653544
21
-3.5276659055118111
0
LINE
8
BLACK
6
CONTINUOUS
10
5.3663426771653544
20
-3.5276659055118111
11
5.3672120472440943
21
-3.5278191732283464
0
LINE
8
BLACK
6
CONTINUOUS
10
5.3798532283464562
20
-3.4893505905511812
11
5.3805440551181105
21
-3.4912485826771653
0
LINE
8
BLACK
6
CONTINUOUS
10
5.3805440551181105
20
-3.4912485826771653
11
5.3805440551181105
21
-3.513745748031496
0
LINE
8
BLACK
6
CONTINUOUS
10
5.3805440551181105
20
-3.513745748031496
11
5.3803659842519682
21
-3.5147556692913384
0
LINE
8
BLACK
6
CONTINUOUS
10
5.3803659842519682
20
-3.5147556692913384
11
5.3790676771653541
21
-3.5163029133858266
0
LINE
8
BLACK
6
CONTINUOUS
10
5.3790676771653541
20
-3.5163029133858266
11
5.3770785433070865
21
-3.5166536614173229
0
LINE
8
BLACK
6
CONTINUOUS
10
5.3770785433070865
20
-3.5166536614173229
11
5.3753293700787399
21
-3.51564374015748
0
LINE
8
BLACK
6
CONTINUOUS
10
5.3753293700787399
20
-3.51564374015748
11
5.3746385433070865
21
-3.513745748031496
0
LINE
8
BLACK
6
CONTINUOUS
10
5.3746385433070865
20
-3.513745748031496
11
5.3746385433070865
21
-3.5054499212598422
0
LINE
8
BLACK
6
CONTINUOUS
10
5.3746385433070865
20
-3.5054499212598422
11
5.3472245669291336
21
-3.5054499212598422
0
LINE
8
BLACK
6
CONTINUOUS
10
5.3472245669291336
20
-3.5054499212598422
11
5.3496829527559058
21
-3.5079083070866139
0
LINE
8
BLACK
6
CONTINUOUS
10
5.3496829527559058
20
-3.5079083070866139
11
5.3501893307086617
21
-3.5086314566929131
0
LINE
8
BLACK
6
CONTINUOUS
10
5.3501893307086617
20
-3.5086314566929131
11
5.350236062992126
21
-3.5086757086614173
0
LINE
8
BLACK
6
CONTINUOUS
10
5.350236062992126
20
-3.5086757086614173
11
5.3521108267716535
21
-3.5124252362204724
0
LINE
8
BLACK
6
CONTINUOUS
10
5.3521108267716535
20
-3.5124252362204724
11
5.3524031889763775
21
-3.513408149606299
0
LINE
8
BLACK
6
CONTINUOUS
10
5.3524031889763775
20
-3.513408149606299
11
5.351933897637795
21
-3.5153726771653542
0
LINE
8
BLACK
6
CONTINUOUS
10
5.351933897637795
20
-3.5153726771653542
11
5.3503116141732283
21
-3.5165759842519684
0
LINE
8
BLACK
6
CONTINUOUS
10
5.3503116141732283
20
-3.5165759842519684
11
5.3482954724409444
21
-3.5164549212598426
0
LINE
8
BLACK
6
CONTINUOUS
10
5.3482954724409444
20
-3.5164549212598426
11
5.3468287795275593
21
-3.5150662598425195
0
LINE
8
BLACK
6
CONTINUOUS
10
5.3468287795275593
20
-3.5150662598425195
11
5.3451683070866141
21
-3.5117453149606299
0
LINE
8
BLACK
6
CONTINUOUS
10
5.3451683070866141
20
-3.5117453149606299
11
5.3419643307086613
21
-3.5085413385826771
0
LINE
8
BLACK
6
CONTINUOUS
10
5.3419643307086613
20
-3.5085413385826771
11
5.336583307086614
21
-3.5049540157480314
0
LINE
8
BLACK
6
CONTINUOUS
10
5.336583307086614
20
-3.5049540157480314
11
5.3358418110236219
21
-3.5042456299212597
0
LINE
8
BLACK
6
CONTINUOUS
10
5.3358418110236219
20
-3.5042456299212597
11
5.3357940944881888
21
-3.5040826771653544
0
LINE
8
BLACK
6
CONTINUOUS
10
5.3357940944881888
20
-3.5040826771653544
11
5.3356640551181105
21
-3.5039735433070867
0
LINE
8
BLACK
6
CONTINUOUS
10
5.3356640551181105
20
-3.5039735433070867
11
5.3355152362204725
21
-3.5031296062992126
0
LINE
8
BLACK
6
CONTINUOUS
10
5.3355152362204725
20
-3.5031296062992126
11
5.3352745669291339
21
-3.502307125984252
0
LINE
8
BLACK
6
CONTINUOUS
10
5.3352745669291339
20
-3.502307125984252
11
5.3353427559055113
21
-3.5021516141732283
0
LINE
8
BLACK
6
CONTINUOUS
10
5.3353427559055113
20
-3.5021516141732283
11
5.3353133070866141
21
-3.5019844094488186
0
LINE
8
BLACK
6
CONTINUOUS
10
5.3353133070866141
20
-3.5019844094488186
11
5.3357417322834646
21
-3.5012423228346456
0
LINE
8
BLACK
6
CONTINUOUS
10
5.3357417322834646
20
-3.5012423228346456
11
5.3360861023622048
21
-3.5004575196850394
0
LINE
8
BLACK
6
CONTINUOUS
10
5.3360861023622048
20
-3.5004575196850394
11
5.3362383464566925
21
-3.5003822440944883
0
LINE
8
BLACK
6
CONTINUOUS
10
5.3362383464566925
20
-3.5003822440944883
11
5.3363232283464566
21
-3.5002352362204725
0
LINE
8
BLACK
6
CONTINUOUS
10
5.3363232283464566
20
-3.5002352362204725
11
5.3371284645669288
21
-3.4999421259842518
0
LINE
8
BLACK
6
CONTINUOUS
10
5.3371284645669288
20
-3.4999421259842518
11
5.337896692913386
21
-3.4995623228346457
0
LINE
8
BLACK
6
CONTINUOUS
10
5.337896692913386
20
-3.4995623228346457
11
5.3380616141732284
21
-3.4996024803149606
0
LINE
8
BLACK
6
CONTINUOUS
10
5.3380616141732284
20
-3.4996024803149606
11
5.3382212204724411
21
-3.4995444094488186
0
LINE
8
BLACK
6
CONTINUOUS
10
5.3382212204724411
20
-3.4995444094488186
11
5.3746385433070865
21
-3.4995444094488186
0
LINE
8
BLACK
6
CONTINUOUS
10
5.3746385433070865
20
-3.4995444094488186
11
5.3746385433070865
21
-3.4912485826771653
0
LINE
8
BLACK
6
CONTINUOUS
10
5.3746385433070865
20
-3.4912485826771653
11
5.3748166141732279
21
-3.4902386614173229
0
LINE
8
BLACK
6
CONTINUOUS
10
5.3748166141732279
20
-3.4902386614173229
11
5.376114921259842
21
-3.4886914173228347
0
LINE
8
BLACK
6
CONTINUOUS
10
5.376114921259842
20
-3.4886914173228347
11
5.3781040551181105
21
-3.4883406692913383
0
LINE
8
BLACK
6
CONTINUOUS
10
5.3781040551181105
20
-3.4883406692913383
11
5.3798532283464562
21
-3.4893505905511812
0
LINE
8
BLACK
6
CONTINUOUS
10
5.3631735039370074
20
-3.4509028346456692
11
5.3633092913385827
21
-3.4508886614173226
0
LINE
8
BLACK
6
CONTINUOUS
10
5.3633092913385827
20
-3.4508886614173226
11
5.3708083464566929
21
-3.4527634251968502
0
LINE
8
BLACK
6
CONTINUOUS
10
5.3708083464566929
20
-3.4527634251968502
11
5.3712737795275594
21
-3.4529709842519685
0
LINE
8
BLACK
6
CONTINUOUS
10
5.3712737795275594
20
-3.4529709842519685
11
5.3714127165354331
21
-3.4529870078740155
0
LINE
8
BLACK
6
CONTINUOUS
10
5.3714127165354331
20
-3.4529870078740155
11
5.3751622440944882
21
-3.454861771653543
0
LINE
8
BLACK
6
CONTINUOUS
10
5.3751622440944882
20
-3.454861771653543
11
5.3758712204724413
21
-3.4553875984251969
0
LINE
8
BLACK
6
CONTINUOUS
10
5.3758712204724413
20
-3.4553875984251969
11
5.3759296062992128
21
-3.4554148425196849
0
LINE
8
BLACK
6
CONTINUOUS
10
5.3759296062992128
20
-3.4554148425196849
11
5.3778044094488191
21
-3.4572896062992124
0
LINE
8
BLACK
6
CONTINUOUS
10
5.3778044094488191
20
-3.4572896062992124
11
5.378310787401575
21
-3.4580127559055116
0
LINE
8
BLACK
6
CONTINUOUS
10
5.378310787401575
20
-3.4580127559055116
11
5.378357559055118
21
-3.4580570472440946
0
LINE
8
BLACK
6
CONTINUOUS
10
5.378357559055118
20
-3.4580570472440946
11
5.3802323228346456
21
-3.4618065748031497
0
LINE
8
BLACK
6
CONTINUOUS
10
5.3802323228346456
20
-3.4618065748031497
11
5.3805246850393695
21
-3.4627894881889763
0
LINE
8
BLACK
6
CONTINUOUS
10
5.3805246850393695
20
-3.4627894881889763
11
5.3804836614173226
21
-3.462961181102362
0
LINE
8
BLACK
6
CONTINUOUS
10
5.3804836614173226
20
-3.462961181102362
11
5.3805440551181105
21
-3.4631270866141732
0
LINE
8
BLACK
6
CONTINUOUS
10
5.3805440551181105
20
-3.4631270866141732
11
5.3805440551181105
21
-3.4668766141732283
0
LINE
8
BLACK
6
CONTINUOUS
10
5.3805440551181105
20
-3.4668766141732283
11
5.3803659842519682
21
-3.4678865354330708
0
LINE
8
BLACK
6
CONTINUOUS
10
5.3803659842519682
20
-3.4678865354330708
11
5.3802524803149607
21
-3.4680217716535431
0
LINE
8
BLACK
6
CONTINUOUS
10
5.3802524803149607
20
-3.4680217716535431
11
5.3802323228346456
21
-3.4681971259842519
0
LINE
8
BLACK
6
CONTINUOUS
10
5.3802323228346456
20
-3.4681971259842519
11
5.378357559055118
21
-3.471946653543307
0
LINE
8
BLACK
6
CONTINUOUS
10
5.378357559055118
20
-3.471946653543307
11
5.3778315748031496
21
-3.4726557480314959
0
LINE
8
BLACK
6
CONTINUOUS
10
5.3778315748031496
20
-3.4726557480314959
11
5.3778044094488191
21
-3.4727140944881887
0
LINE
8
BLACK
6
CONTINUOUS
10
5.3778044094488191
20
-3.4727140944881887
11
5.3759296062992128
21
-3.4745888582677162
0
LINE
8
BLACK
6
CONTINUOUS
10
5.3759296062992128
20
-3.4745888582677162
11
5.3752065354330707
21
-3.4750951181102363
0
LINE
8
BLACK
6
CONTINUOUS
10
5.3752065354330707
20
-3.4750951181102363
11
5.3751622440944882
21
-3.4751419291338581
0
LINE
8
BLACK
6
CONTINUOUS
10
5.3751622440944882
20
-3.4751419291338581
11
5.3714127165354331
21
-3.4770166929133857
0
LINE
8
BLACK
6
CONTINUOUS
10
5.3714127165354331
20
-3.4770166929133857
11
5.3709242519685034
21
-3.4771619685039368
0
LINE
8
BLACK
6
CONTINUOUS
10
5.3709242519685034
20
-3.4771619685039368
11
5.3708083464566929
21
-3.4772402755905509
0
LINE
8
BLACK
6
CONTINUOUS
10
5.3708083464566929
20
-3.4772402755905509
11
5.3633092913385827
21
-3.4791150393700785
0
LINE
8
BLACK
6
CONTINUOUS
10
5.3633092913385827
20
-3.4791150393700785
11
5.3627213779527558
21
-3.4791564960629922
0
LINE
8
BLACK
6
CONTINUOUS
10
5.3627213779527558
20
-3.4791564960629922
11
5.3625931496062993
21
-3.4792031889763777
0
LINE
8
BLACK
6
CONTINUOUS
10
5.3625931496062993
20
-3.4792031889763777
11
5.3532193307086615
21
-3.4792031889763777
0
LINE
8
BLACK
6
CONTINUOUS
10
5.3532193307086615
20
-3.4792031889763777
11
5.3526389370078737
21
-3.4791008267716537
0
LINE
8
BLACK
6
CONTINUOUS
10
5.3526389370078737
20
-3.4791008267716537
11
5.3525031889763781
21
-3.4791150393700785
0
LINE
8
BLACK
6
CONTINUOUS
10
5.3525031889763781
20
-3.4791150393700785
11
5.3450041338582679
21
-3.4772402755905509
0
LINE
8
BLACK
6
CONTINUOUS
10
5.3450041338582679
20
-3.4772402755905509
11
5.3445386614173227
21
-3.4770326771653544
0
LINE
8
BLACK
6
CONTINUOUS
10
5.3445386614173227
20
-3.4770326771653544
11
5.3443997637795277
21
-3.4770166929133857
0
LINE
8
BLACK
6
CONTINUOUS
10
5.3443997637795277
20
-3.4770166929133857
11
5.3406502362204726
21
-3.4751419291338581
0
LINE
8
BLACK
6
CONTINUOUS
10
5.3406502362204726
20
-3.4751419291338581
11
5.3399411417322833
21
-3.4746160236220471
0
LINE
8
BLACK
6
CONTINUOUS
10
5.3399411417322833
20
-3.4746160236220471
11
5.3398828346456693
21
-3.4745888188976379
0
LINE
8
BLACK
6
CONTINUOUS
10
5.3398828346456693
20
-3.4745888188976379
11
5.3380080708661417
21
-3.4727140551181104
0
LINE
8
BLACK
6
CONTINUOUS
10
5.3380080708661417
20
-3.4727140551181104
11
5.3375017716535433
21
-3.4719909448818895
0
LINE
8
BLACK
6
CONTINUOUS
10
5.3375017716535433
20
-3.4719909448818895
11
5.3374549606299215
21
-3.471946653543307
0
LINE
8
BLACK
6
CONTINUOUS
10
5.3374549606299215
20
-3.471946653543307
11
5.335580196850394
21
-3.4681971259842519
0
LINE
8
BLACK
6
CONTINUOUS
10
5.335580196850394
20
-3.4681971259842519
11
5.3352878346456691
21
-3.4672141732283466
0
LINE
8
BLACK
6
CONTINUOUS
10
5.3352878346456691
20
-3.4672141732283466
11
5.3353288188976373
21
-3.4670424803149604
0
LINE
8
BLACK
6
CONTINUOUS
10
5.3353288188976373
20
-3.4670424803149604
11
5.335268464566929
21
-3.4668766141732283
0
LINE
8
BLACK
6
CONTINUOUS
10
5.335268464566929
20
-3.4668766141732283
11
5.335268464566929
21
-3.4631270866141732
0
LINE
8
BLACK
6
CONTINUOUS
10
5.335268464566929
20
-3.4631270866141732
11
5.3354465354330705
21
-3.4621171653543308
0
LINE
8
BLACK
6
CONTINUOUS
10
5.3354465354330705
20
-3.4621171653543308
11
5.3355600000000001
21
-3.4619818897637793
0
LINE
8
BLACK
6
CONTINUOUS
10
5.3355600000000001
20
-3.4619818897637793
11
5.335580196850394
21
-3.4618065748031497
0
LINE
8
BLACK
6
CONTINUOUS
10
5.335580196850394
20
-3.4618065748031497
11
5.3374549606299215
21
-3.4580570472440946
0
LINE
8
BLACK
6
CONTINUOUS
10
5.3374549606299215
20
-3.4580570472440946
11
5.3379808661417325
21
-3.4573479527559052
0
LINE
8
BLACK
6
CONTINUOUS
10
5.3379808661417325
20
-3.4573479527559052
11
5.3380080708661417
21
-3.4572896456692912
0
LINE
8
BLACK
6
CONTINUOUS
10
5.3380080708661417
20
-3.4572896456692912
11
5.3398828346456693
21
-3.4554148818897636
0
LINE
8
BLACK
6
CONTINUOUS
10
5.3398828346456693
20
-3.4554148818897636
11
5.3406059055118105
21
-3.4549085826771653
0
LINE
8
BLACK
6
CONTINUOUS
10
5.3406059055118105
20
-3.4549085826771653
11
5.3406502362204726
21
-3.454861771653543
0
LINE
8
BLACK
6
CONTINUOUS
10
5.3406502362204726
20
-3.454861771653543
11
5.3443997637795277
21
-3.4529870078740155
0
LINE
8
BLACK
6
CONTINUOUS
10
5.3443997637795277
20
-3.4529870078740155
11
5.3448881889763777
21
-3.4528416929133856
0
LINE
8
BLACK
6
CONTINUOUS
10
5.3448881889763777
20
-3.4528416929133856
11
5.3450041338582679
21
-3.4527634251968502
0
LINE
8
BLACK
6
CONTINUOUS
10
5.3450041338582679
20
-3.4527634251968502
11
5.3525031889763781
21
-3.4508886614173226
0
LINE
8
BLACK
6
CONTINUOUS
10
5.3525031889763781
20
-3.4508886614173226
11
5.3530910629921262
21
-3.4508471653543307
0
LINE
8
BLACK
6
CONTINUOUS
10
5.3530910629921262
20
-3.4508471653543307
11
5.3532193307086615
21
-3.4508005118110234
0
LINE
8
BLACK
6
CONTINUOUS
10
5.3532193307086615
20
-3.4508005118110234
11
5.3625931496062993
21
-3.4508005118110234
0
LINE
8
BLACK
6
CONTINUOUS
10
5.3625931496062993
20
-3.4508005118110234
11
5.3631735039370074
21
-3.4509028346456692
0
LINE
8
BLACK
6
CONTINUOUS
10
5.346750826771653
20
-3.4584140157480312
11
5.3437198425196852
21
-3.4599295275590549
0
LINE
8
BLACK
6
CONTINUOUS
10
5.3437198425196852
20
-3.4599295275590549
11
5.3425227165354325
21
-3.4611266535433072
0
LINE
8
BLACK
6
CONTINUOUS
10
5.3425227165354325
20
-3.4611266535433072
11
5.3411739763779522
21
-3.4638241338582678
0
LINE
8
BLACK
6
CONTINUOUS
10
5.3411739763779522
20
-3.4638241338582678
11
5.3411739763779522
21
-3.4661795669291338
0
LINE
8
BLACK
6
CONTINUOUS
10
5.3411739763779522
20
-3.4661795669291338
11
5.3425227165354325
21
-3.4688770472440944
0
LINE
8
BLACK
6
CONTINUOUS
10
5.3425227165354325
20
-3.4688770472440944
11
5.3437198425196852
21
-3.4700741732283462
0
LINE
8
BLACK
6
CONTINUOUS
10
5.3437198425196852
20
-3.4700741732283462
11
5.346750826771653
21
-3.4715896456692912
0
LINE
8
BLACK
6
CONTINUOUS
10
5.346750826771653
20
-3.4715896456692912
11
5.3535828740157481
21
-3.4732976771653541
0
LINE
8
BLACK
6
CONTINUOUS
10
5.3535828740157481
20
-3.4732976771653541
11
5.3622296062992127
21
-3.4732976771653541
0
LINE
8
BLACK
6
CONTINUOUS
10
5.3622296062992127
20
-3.4732976771653541
11
5.3690616535433069
21
-3.4715896456692912
0
LINE
8
BLACK
6
CONTINUOUS
10
5.3690616535433069
20
-3.4715896456692912
11
5.3720926377952756
21
-3.4700741338582675
0
LINE
8
BLACK
6
CONTINUOUS
10
5.3720926377952756
20
-3.4700741338582675
11
5.3732898031496061
21
-3.4688770078740156
0
LINE
8
BLACK
6
CONTINUOUS
10
5.3732898031496061
20
-3.4688770078740156
11
5.3746385433070865
21
-3.4661795669291338
0
LINE
8
BLACK
6
CONTINUOUS
10
5.3746385433070865
20
-3.4661795669291338
11
5.3746385433070865
21
-3.4638241338582678
0
LINE
8
BLACK
6
CONTINUOUS
10
5.3746385433070865
20
-3.4638241338582678
11
5.3732898031496061
21
-3.4611266535433072
0
LINE
8
BLACK
6
CONTINUOUS
10
5.3732898031496061
20
-3.4611266535433072
11
5.3720926377952756
21
-3.4599295275590549
0
LINE
8
BLACK
6
CONTINUOUS
10
5.3720926377952756
20
-3.4599295275590549
11
5.3690616535433069
21
-3.4584140157480312
0
LINE
8
BLACK
6
CONTINUOUS
10
5.3690616535433069
20
-3.4584140157480312
11
5.3622296062992127
21
-3.456706023622047
0
LINE
8
BLACK
6
CONTINUOUS
10
5.3622296062992127
20
-3.456706023622047
11
5.3535828740157481
21
-3.456706023622047
0
LINE
8
BLACK
6
CONTINUOUS
10
5.3535828740157481
20
-3.456706023622047
11
5.346750826771653
21
-3.4584140157480312
0
LINE
8
BLACK
6
CONTINUOUS
10
5.3798532283464562
20
-3.4143599606299211
11
5.3805440551181105
21
-3.4162579527559056
0
LINE
8
BLACK
6
CONTINUOUS
10
5.3805440551181105
20
-3.4162579527559056
11
5.3805440551181105
21
-3.4387551181102363
0
LINE
8
BLACK
6
CONTINUOUS
10
5.3805440551181105
20
-3.4387551181102363
11
5.3803659842519682
21
-3.4397650393700787
0
LINE
8
BLACK
6
CONTINUOUS
10
5.3803659842519682
20
-3.4397650393700787
11
5.3790676771653541
21
-3.4413122834645669
0
LINE
8
BLACK
6
CONTINUOUS
10
5.3790676771653541
20
-3.4413122834645669
11
5.3770785433070865
21
-3.4416630314960628
0
LINE
8
BLACK
6
CONTINUOUS
10
5.3770785433070865
20
-3.4416630314960628
11
5.3753293700787399
21
-3.4406531102362203
0
LINE
8
BLACK
6
CONTINUOUS
10
5.3753293700787399
20
-3.4406531102362203
11
5.3746385433070865
21
-3.4387551181102363
0
LINE
8
BLACK
6
CONTINUOUS
10
5.3746385433070865
20
-3.4387551181102363
11
5.3746385433070865
21
-3.4304592913385825
0
LINE
8
BLACK
6
CONTINUOUS
10
5.3746385433070865
20
-3.4304592913385825
11
5.3472245669291336
21
-3.4304592913385825
0
LINE
8
BLACK
6
CONTINUOUS
10
5.3472245669291336
20
-3.4304592913385825
11
5.3496829527559058
21
-3.4329176771653542
0
LINE
8
BLACK
6
CONTINUOUS
10
5.3496829527559058
20
-3.4329176771653542
11
5.3501893307086617
21
-3.4336408267716534
0
LINE
8
BLACK
6
CONTINUOUS
10
5.3501893307086617
20
-3.4336408267716534
11
5.350236062992126
21
-3.4336850787401576
0
LINE
8
BLACK
6
CONTINUOUS
10
5.350236062992126
20
-3.4336850787401576
11
5.3521108267716535
21
-3.4374346062992127
0
LINE
8
BLACK
6
CONTINUOUS
10
5.3521108267716535
20
-3.4374346062992127
11
5.3524031889763775
21
-3.4384175196850393
0
LINE
8
BLACK
6
CONTINUOUS
10
5.3524031889763775
20
-3.4384175196850393
11
5.351933897637795
21
-3.4403820472440945
0
LINE
8
BLACK
6
CONTINUOUS
10
5.351933897637795
20
-3.4403820472440945
11
5.3503116141732283
21
-3.4415853543307087
0
LINE
8
BLACK
6
CONTINUOUS
10
5.3503116141732283
20
-3.4415853543307087
11
5.3482954724409444
21
-3.4414642913385824
0
LINE
8
BLACK
6
CONTINUOUS
10
5.3482954724409444
20
-3.4414642913385824
11
5.3468287795275593
21
-3.4400756299212598
0
LINE
8
BLACK
6
CONTINUOUS
10
5.3468287795275593
20
-3.4400756299212598
11
5.3451683070866141
21
-3.4367546850393702
0
LINE
8
BLACK
6
CONTINUOUS
10
5.3451683070866141
20
-3.4367546850393702
11
5.3419643307086613
21
-3.4335507086614174
0
LINE
8
BLACK
6
CONTINUOUS
10
5.3419643307086613
20
-3.4335507086614174
11
5.336583307086614
21
-3.4299633858267717
0
LINE
8
BLACK
6
CONTINUOUS
10
5.336583307086614
20
-3.4299633858267717
11
5.3358418110236219
21
-3.4292549999999999
0
LINE
8
BLACK
6
CONTINUOUS
10
5.3358418110236219
20
-3.4292549999999999
11
5.3357940944881888
21
-3.4290920472440942
0
LINE
8
BLACK
6
CONTINUOUS
10
5.3357940944881888
20
-3.4290920472440942
11
5.3356640551181105
21
-3.4289829133858265
0
LINE
8
BLACK
6
CONTINUOUS
10
5.3356640551181105
20
-3.4289829133858265
11
5.3355152362204725
21
-3.4281389763779528
0
LINE
8
BLACK
6
CONTINUOUS
10
5.3355152362204725
20
-3.4281389763779528
11
5.3352745669291339
21
-3.4273164960629923
0
LINE
8
BLACK
6
CONTINUOUS
10
5.3352745669291339
20
-3.4273164960629923
11
5.3353427559055113
21
-3.4271609842519686
0
LINE
8
BLACK
6
CONTINUOUS
10
5.3353427559055113
20
-3.4271609842519686
11
5.3353133070866141
21
-3.4269937795275589
0
LINE
8
BLACK
6
CONTINUOUS
10
5.3353133070866141
20
-3.4269937795275589
11
5.3357417322834646
21
-3.4262516929133859
0
LINE
8
BLACK
6
CONTINUOUS
10
5.3357417322834646
20
-3.4262516929133859
11
5.3360861023622048
21
-3.4254668897637797
0
LINE
8
BLACK
6
CONTINUOUS
10
5.3360861023622048
20
-3.4254668897637797
11
5.3362383464566925
21
-3.4253916141732281
0
LINE
8
BLACK
6
CONTINUOUS
10
5.3362383464566925
20
-3.4253916141732281
11
5.3363232283464566
21
-3.4252446062992123
0
LINE
8
BLACK
6
CONTINUOUS
10
5.3363232283464566
20
-3.4252446062992123
11
5.3371284645669288
21
-3.4249514960629921
0
LINE
8
BLACK
6
CONTINUOUS
10
5.3371284645669288
20
-3.4249514960629921
11
5.337896692913386
21
-3.4245716929133856
0
LINE
8
BLACK
6
CONTINUOUS
10
5.337896692913386
20
-3.4245716929133856
11
5.3380616141732284
21
-3.4246118503937009
0
LINE
8
BLACK
6
CONTINUOUS
10
5.3380616141732284
20
-3.4246118503937009
11
5.3382212204724411
21
-3.4245537795275589
0
LINE
8
BLACK
6
CONTINUOUS
10
5.3382212204724411
20
-3.4245537795275589
11
5.3746385433070865
21
-3.4245537795275589
0
LINE
8
BLACK
6
CONTINUOUS
10
5.3746385433070865
20
-3.4245537795275589
11
5.3746385433070865
21
-3.4162579527559056
0
LINE
8
BLACK
6
CONTINUOUS
10
5.3746385433070865
20
-3.4162579527559056
11
5.3748166141732279
21
-3.4152480314960627
0
LINE
8
BLACK
6
CONTINUOUS
10
5.3748166141732279
20
-3.4152480314960627
11
5.376114921259842
21
-3.4137007874015746
0
LINE
8
BLACK
6
CONTINUOUS
10
5.376114921259842
20
-3.4137007874015746
11
5.3781040551181105
21
-3.4133500393700786
0
LINE
8
BLACK
6
CONTINUOUS
10
5.3781040551181105
20
-3.4133500393700786
11
5.3798532283464562
21
-3.4143599606299211
0
LINE
8
BLACK
6
CONTINUOUS
10
5.4502362204724406
20
-3.3618897637795273
11
5.4516281496062993
21
-3.362466338582677
0
LINE
8
BLACK
6
CONTINUOUS
10
5.4516281496062993
20
-3.362466338582677
11
5.4522047244094489
21
-3.3638582677165352
0
LINE
8
BLACK
6
CONTINUOUS
10
5.4522047244094489
20
-3.3638582677165352
11
5.4522047244094489
21
-3.5961417322834643
0
LINE
8
BLACK
6
CONTINUOUS
10
5.4522047244094489
20
-3.5961417322834643
11
5.4516281496062993
21
-3.5975336614173226
0
LINE
8
BLACK
6
CONTINUOUS
10
5.4516281496062993
20
-3.5975336614173226
11
5.4502362204724406
21
-3.5981102362204722
0
LINE
8
BLACK
6
CONTINUOUS
10
5.4502362204724406
20
-3.5981102362204722
11
5.2730708661417323
21
-3.5981102362204722
0
LINE
8
BLACK
6
CONTINUOUS
10
5.2730708661417323
20
-3.5981102362204722
11
5.2716789370078736
21
-3.5975336614173226
0
LINE
8
BLACK
6
CONTINUOUS
10
5.2716789370078736
20
-3.5975336614173226
11
5.2711023622047239
21
-3.5961417322834643
0
LINE
8
BLACK
6
CONTINUOUS
10
5.2711023622047239
20
-3.5961417322834643
11
5.2711023622047239
21
-3.3638582677165352
0
LINE
8
BLACK
6
CONTINUOUS
10
5.2711023622047239
20
-3.3638582677165352
11
5.2716789370078736
21
-3.362466338582677
0
LINE
8
BLACK
6
CONTINUOUS
10
5.2716789370078736
20
-3.362466338582677
11
5.2730708661417323
21
-3.3618897637795273
0
LINE
8
BLACK
6
CONTINUOUS
10
5.2730708661417323
20
-3.3618897637795273
11
5.4502362204724406
21
-3.3618897637795273
0
LINE
8
BLACK
6
CONTINUOUS
10
5.2750393700787397
20
-3.365826771653543
11
5.2750393700787397
21
-3.5941732283464565
0
LINE
8
BLACK
6
CONTINUOUS
10
5.2750393700787397
20
-3.5941732283464565
11
5.4482677165354332
21
-3.5941732283464565
0
LINE
8
BLACK
6
CONTINUOUS
10
5.4482677165354332
20
-3.5941732283464565
11
5.4482677165354332
21
-3.365826771653543
0
LINE
8
BLACK
6
CONTINUOUS
10
5.4482677165354332
20
-3.365826771653543
11
5.2750393700787397
21
-3.365826771653543
0
LINE
8
BLACK
6
CONTINUOUS
10
5.5676844488188975
20
-3.5520590157480316
11
5.5771221653543304
21
-3.5614967322834645
0
LINE
8
BLACK
6
CONTINUOUS
10
5.5771221653543304
20
-3.5614967322834645
11
5.5900716141732278
21
-3.5517847244094489
0
LINE
8
BLACK
6
CONTINUOUS
10
5.5900716141732278
20
-3.5517847244094489
11
5.5909864173228341
21
-3.5513212204724409
0
LINE
8
BLACK
6
CONTINUOUS
10
5.5909864173228341
20
-3.5513212204724409
11
5.593003188976378
21
-3.5514315354330708
0
LINE
8
BLACK
6
CONTINUOUS
10
5.593003188976378
20
-3.5514315354330708
11
5.5944772440944881
21
-3.552812401574803
0
LINE
8
BLACK
6
CONTINUOUS
10
5.5944772440944881
20
-3.552812401574803
11
5.594718818897638
21
-3.5548176771653544
0
LINE
8
BLACK
6
CONTINUOUS
10
5.594718818897638
20
-3.5548176771653544
11
5.5936149212598423
21
-3.5565091338582677
0
LINE
8
BLACK
6
CONTINUOUS
10
5.5936149212598423
20
-3.5565091338582677
11
5.5813403937007875
21
-3.5657149606299212
0
LINE
8
BLACK
6
CONTINUOUS
10
5.5813403937007875
20
-3.5657149606299212
11
5.5818177165354328
21
-3.566192283464567
0
LINE
8
BLACK
6
CONTINUOUS
10
5.5818177165354328
20
-3.566192283464567
11
5.5918432677165351
21
-3.566192283464567
0
LINE
8
BLACK
6
CONTINUOUS
10
5.5918432677165351
20
-3.566192283464567
11
5.5928531889763775
21
-3.5663703543307084
0
LINE
8
BLACK
6
CONTINUOUS
10
5.5928531889763775
20
-3.5663703543307084
11
5.5944004330708657
21
-3.567668661417323
0
LINE
8
BLACK
6
CONTINUOUS
10
5.5944004330708657
20
-3.567668661417323
11
5.594751181102362
21
-3.5696577952755906
0
LINE
8
BLACK
6
CONTINUOUS
10
5.594751181102362
20
-3.5696577952755906
11
5.5937412598425196
21
-3.5714069685039371
0
LINE
8
BLACK
6
CONTINUOUS
10
5.5937412598425196
20
-3.5714069685039371
11
5.5918432677165351
21
-3.5720977952755906
0
LINE
8
BLACK
6
CONTINUOUS
10
5.5918432677165351
20
-3.5720977952755906
11
5.5524731889763776
21
-3.5720977952755906
0
LINE
8
BLACK
6
CONTINUOUS
10
5.5524731889763776
20
-3.5720977952755906
11
5.5514632677165352
21
-3.5719197244094487
0
LINE
8
BLACK
6
CONTINUOUS
10
5.5514632677165352
20
-3.5719197244094487
11
5.5499160236220471
21
-3.5706214173228346
0
LINE
8
BLACK
6
CONTINUOUS
10
5.5499160236220471
20
-3.5706214173228346
11
5.5495652755905507
21
-3.568632283464567
0
LINE
8
BLACK
6
CONTINUOUS
10
5.5495652755905507
20
-3.568632283464567
11
5.5505751968503931
21
-3.5668831102362204
0
LINE
8
BLACK
6
CONTINUOUS
10
5.5505751968503931
20
-3.5668831102362204
11
5.5524731889763776
21
-3.566192283464567
0
LINE
8
BLACK
6
CONTINUOUS
10
5.5524731889763776
20
-3.566192283464567
11
5.573466062992126
21
-3.566192283464567
0
LINE
8
BLACK
6
CONTINUOUS
10
5.573466062992126
20
-3.566192283464567
11
5.5635086220472436
21
-3.556234842519685
0
LINE
8
BLACK
6
CONTINUOUS
10
5.5635086220472436
20
-3.556234842519685
11
5.5629204330708664
21
-3.5553948031496061
0
LINE
8
BLACK
6
CONTINUOUS
10
5.5629204330708664
20
-3.5553948031496061
11
5.5627443700787405
21
-3.5533827165354328
0
LINE
8
BLACK
6
CONTINUOUS
10
5.5627443700787405
20
-3.5533827165354328
11
5.5639029133858262
21
-3.5517281496062991
0
LINE
8
BLACK
6
CONTINUOUS
10
5.5639029133858262
20
-3.5517281496062991
11
5.5658538582677162
21
-3.5512054330708662
0
LINE
8
BLACK
6
CONTINUOUS
10
5.5658538582677162
20
-3.5512054330708662
11
5.5676844488188975
21
-3.5520590157480316
0
LINE
8
BLACK
6
CONTINUOUS
10
5.4881344488188972
20
-3.5418799212598424
11
5.4881988188976374
21
-3.5418781889763777
0
LINE
8
BLACK
6
CONTINUOUS
10
5.4881988188976374
20
-3.5418781889763777
11
5.4938231102362201
21
-3.5437529527559053
0
LINE
8
BLACK
6
CONTINUOUS
10
5.4938231102362201
20
-3.5437529527559053
11
5.4947248818897636
21
-3.5442412204724407
0
LINE
8
BLACK
6
CONTINUOUS
10
5.4947248818897636
20
-3.5442412204724407
11
5.4948172834645668
21
-3.5443916535433071
0
LINE
8
BLACK
6
CONTINUOUS
10
5.4948172834645668
20
-3.5443916535433071
11
5.4949772834645669
21
-3.5444662598425194
0
LINE
8
BLACK
6
CONTINUOUS
10
5.4949772834645669
20
-3.5444662598425194
11
5.5124338188976374
21
-3.5619227559055116
0
LINE
8
BLACK
6
CONTINUOUS
10
5.5124338188976374
20
-3.5619227559055116
11
5.5124338188976374
21
-3.5446794094488188
0
LINE
8
BLACK
6
CONTINUOUS
10
5.5124338188976374
20
-3.5446794094488188
11
5.5126118897637797
21
-3.5436694881889763
0
LINE
8
BLACK
6
CONTINUOUS
10
5.5126118897637797
20
-3.5436694881889763
11
5.5139101968503939
21
-3.5421222440944882
0
LINE
8
BLACK
6
CONTINUOUS
10
5.5139101968503939
20
-3.5421222440944882
11
5.5158993307086615
21
-3.5417714960629922
0
LINE
8
BLACK
6
CONTINUOUS
10
5.5158993307086615
20
-3.5417714960629922
11
5.517648503937008
21
-3.5427814173228347
0
LINE
8
BLACK
6
CONTINUOUS
10
5.517648503937008
20
-3.5427814173228347
11
5.5183393307086614
21
-3.5446794094488188
0
LINE
8
BLACK
6
CONTINUOUS
10
5.5183393307086614
20
-3.5446794094488188
11
5.5183393307086614
21
-3.569051338582677
0
LINE
8
BLACK
6
CONTINUOUS
10
5.5183393307086614
20
-3.569051338582677
11
5.5182274015748032
21
-3.5696860629921261
0
LINE
8
BLACK
6
CONTINUOUS
10
5.5182274015748032
20
-3.5696860629921261
11
5.5182387401574804
21
-3.5698155511811023
0
LINE
8
BLACK
6
CONTINUOUS
10
5.5182387401574804
20
-3.5698155511811023
11
5.5181930708661415
21
-3.5698807480314958
0
LINE
8
BLACK
6
CONTINUOUS
10
5.5181930708661415
20
-3.5698807480314958
11
5.5181612598425192
21
-3.5700612598425194
0
LINE
8
BLACK
6
CONTINUOUS
10
5.5181612598425192
20
-3.5700612598425194
11
5.5175899606299215
21
-3.5707420866141732
0
LINE
8
BLACK
6
CONTINUOUS
10
5.5175899606299215
20
-3.5707420866141732
11
5.5170801968503937
21
-3.571470118110236
0
LINE
8
BLACK
6
CONTINUOUS
10
5.5170801968503937
20
-3.571470118110236
11
5.5169497244094483
21
-3.5715050393700785
0
LINE
8
BLACK
6
CONTINUOUS
10
5.5169497244094483
20
-3.5715050393700785
11
5.516862952755905
21
-3.5716085039370076
0
LINE
8
BLACK
6
CONTINUOUS
10
5.516862952755905
20
-3.5716085039370076
11
5.5159875984251965
21
-3.5717628346456691
0
LINE
8
BLACK
6
CONTINUOUS
10
5.5159875984251965
20
-3.5717628346456691
11
5.5151292519685038
21
-3.5719928346456693
0
LINE
8
BLACK
6
CONTINUOUS
10
5.5151292519685038
20
-3.5719928346456693
11
5.5150068897637796
21
-3.5719357480314962
0
LINE
8
BLACK
6
CONTINUOUS
10
5.5150068897637796
20
-3.5719357480314962
11
5.5148738188976374
21
-3.5719592519685039
0
LINE
8
BLACK
6
CONTINUOUS
10
5.5148738188976374
20
-3.5719592519685039
11
5.5141038976377947
21
-3.5715147244094489
0
LINE
8
BLACK
6
CONTINUOUS
10
5.5141038976377947
20
-3.5715147244094489
11
5.5132986614173225
21
-3.5711392519685039
0
LINE
8
BLACK
6
CONTINUOUS
10
5.5132986614173225
20
-3.5711392519685039
11
5.4912943307086612
21
-3.5491349606299214
0
LINE
8
BLACK
6
CONTINUOUS
10
5.4912943307086612
20
-3.5491349606299214
11
5.4867859448818894
21
-3.5476321653543308
0
LINE
8
BLACK
6
CONTINUOUS
10
5.4867859448818894
20
-3.5476321653543308
11
5.4842125984251968
21
-3.5476321653543308
0
LINE
8
BLACK
6
CONTINUOUS
10
5.4842125984251968
20
-3.5476321653543308
11
5.4815151181102362
21
-3.5489809055118111
0
LINE
8
BLACK
6
CONTINUOUS
10
5.4815151181102362
20
-3.5489809055118111
11
5.4803179921259844
21
-3.5501780314960629
0
LINE
8
BLACK
6
CONTINUOUS
10
5.4803179921259844
20
-3.5501780314960629
11
5.478969251968504
21
-3.5528755118110236
0
LINE
8
BLACK
6
CONTINUOUS
10
5.478969251968504
20
-3.5528755118110236
11
5.478969251968504
21
-3.5608552362204722
0
LINE
8
BLACK
6
CONTINUOUS
10
5.478969251968504
20
-3.5608552362204722
11
5.4803179921259844
21
-3.5635527165354328
0
LINE
8
BLACK
6
CONTINUOUS
10
5.4803179921259844
20
-3.5635527165354328
11
5.481853937007874
21
-3.5650886614173229
0
LINE
8
BLACK
6
CONTINUOUS
10
5.481853937007874
20
-3.5650886614173229
11
5.4824421259842522
21
-3.5659287007874014
0
LINE
8
BLACK
6
CONTINUOUS
10
5.4824421259842522
20
-3.5659287007874014
11
5.4826181496062993
21
-3.5679407874015747
0
LINE
8
BLACK
6
CONTINUOUS
10
5.4826181496062993
20
-3.5679407874015747
11
5.4814596456692914
21
-3.5695953543307084
0
LINE
8
BLACK
6
CONTINUOUS
10
5.4814596456692914
20
-3.5695953543307084
11
5.4795086614173227
21
-3.5701180708661417
0
LINE
8
BLACK
6
CONTINUOUS
10
5.4795086614173227
20
-3.5701180708661417
11
5.4776781102362202
21
-3.5692644881889763
0
LINE
8
BLACK
6
CONTINUOUS
10
5.4776781102362202
20
-3.5692644881889763
11
5.4758033464566926
21
-3.5673897244094488
0
LINE
8
BLACK
6
CONTINUOUS
10
5.4758033464566926
20
-3.5673897244094488
11
5.4752970472440943
21
-3.5666666141732284
0
LINE
8
BLACK
6
CONTINUOUS
10
5.4752970472440943
20
-3.5666666141732284
11
5.4752502362204725
21
-3.5666223228346454
0
LINE
8
BLACK
6
CONTINUOUS
10
5.4752502362204725
20
-3.5666223228346454
11
5.4733754724409449
21
-3.5628727952755903
0
LINE
8
BLACK
6
CONTINUOUS
10
5.4733754724409449
20
-3.5628727952755903
11
5.4730831102362201
21
-3.561889842519685
0
LINE
8
BLACK
6
CONTINUOUS
10
5.4730831102362201
20
-3.561889842519685
11
5.4731240944881892
21
-3.5617181496062993
0
LINE
8
BLACK
6
CONTINUOUS
10
5.4731240944881892
20
-3.5617181496062993
11
5.47306374015748
21
-3.5615522834645668
0
LINE
8
BLACK
6
CONTINUOUS
10
5.47306374015748
20
-3.5615522834645668
11
5.47306374015748
21
-3.552178464566929
0
LINE
8
BLACK
6
CONTINUOUS
10
5.47306374015748
20
-3.552178464566929
11
5.4732418110236223
21
-3.5511685433070865
0
LINE
8
BLACK
6
CONTINUOUS
10
5.4732418110236223
20
-3.5511685433070865
11
5.473355275590551
21
-3.5510332677165355
0
LINE
8
BLACK
6
CONTINUOUS
10
5.473355275590551
20
-3.5510332677165355
11
5.4733754724409449
21
-3.5508579527559054
0
LINE
8
BLACK
6
CONTINUOUS
10
5.4733754724409449
20
-3.5508579527559054
11
5.4752502362204725
21
-3.5471084251968503
0
LINE
8
BLACK
6
CONTINUOUS
10
5.4752502362204725
20
-3.5471084251968503
11
5.4757761417322834
21
-3.5463993307086614
0
LINE
8
BLACK
6
CONTINUOUS
10
5.4757761417322834
20
-3.5463993307086614
11
5.4758033464566926
21
-3.546341023622047
0
LINE
8
BLACK
6
CONTINUOUS
10
5.4758033464566926
20
-3.546341023622047
11
5.4776781102362202
21
-3.5444662598425194
0
LINE
8
BLACK
6
CONTINUOUS
10
5.4776781102362202
20
-3.5444662598425194
11
5.4784011811023623
21
-3.543959960629921
0
LINE
8
BLACK
6
CONTINUOUS
10
5.4784011811023623
20
-3.543959960629921
11
5.4784455118110236
21
-3.5439131496062992
0
LINE
8
BLACK
6
CONTINUOUS
10
5.4784455118110236
20
-3.5439131496062992
11
5.4821950393700787
21
-3.5420383858267717
0
LINE
8
BLACK
6
CONTINUOUS
10
5.4821950393700787
20
-3.5420383858267717
11
5.4831779527559057
21
-3.5417460236220473
0
LINE
8
BLACK
6
CONTINUOUS
10
5.4831779527559057
20
-3.5417460236220473
11
5.483349645669291
21
-3.5417870078740155
0
LINE
8
BLACK
6
CONTINUOUS
10
5.483349645669291
20
-3.5417870078740155
11
5.4835155511811022
21
-3.5417266535433072
0
LINE
8
BLACK
6
CONTINUOUS
10
5.4835155511811022
20
-3.5417266535433072
11
5.4872650787401573
21
-3.5417266535433072
0
LINE
8
BLACK
6
CONTINUOUS
10
5.4872650787401573
20
-3.5417266535433072
11
5.4881344488188972
21
-3.5418799212598424
0
LINE
8
BLACK
6
CONTINUOUS
10
5.5163964960629919
20
-3.4987851181102361
11
5.51794374015748
21
-3.5000834251968502
0
LINE
8
BLACK
6
CONTINUOUS
10
5.51794374015748
20
-3.5000834251968502
11
5.5182944881889764
21
-3.5020725590551178
0
LINE
8
BLACK
6
CONTINUOUS
10
5.5182944881889764
20
-3.5020725590551178
11
5.5172845669291339
21
-3.5038217322834644
0
LINE
8
BLACK
6
CONTINUOUS
10
5.5172845669291339
20
-3.5038217322834644
11
5.5153865748031494
21
-3.5045125590551178
0
LINE
8
BLACK
6
CONTINUOUS
10
5.5153865748031494
20
-3.5045125590551178
11
5.4893262598425192
21
-3.5045125590551178
0
LINE
8
BLACK
6
CONTINUOUS
10
5.4893262598425192
20
-3.5045125590551178
11
5.5053866535433071
21
-3.5120074015748033
0
LINE
8
BLACK
6
CONTINUOUS
10
5.5053866535433071
20
-3.5120074015748033
11
5.5057044094488186
21
-3.5122300393700785
0
LINE
8
BLACK
6
CONTINUOUS
10
5.5057044094488186
20
-3.5122300393700785
11
5.5058308661417321
21
-3.5122638976377951
0
LINE
8
BLACK
6
CONTINUOUS
10
5.5058308661417321
20
-3.5122638976377951
11
5.5059062204724407
21
-3.5123714566929132
0
LINE
8
BLACK
6
CONTINUOUS
10
5.5059062204724407
20
-3.5123714566929132
11
5.5062264960629923
21
-3.5125958661417322
0
LINE
8
BLACK
6
CONTINUOUS
10
5.5062264960629923
20
-3.5125958661417322
11
5.5065500787401573
21
-3.5132903543307088
0
LINE
8
BLACK
6
CONTINUOUS
10
5.5065500787401573
20
-3.5132903543307088
11
5.5069899212598425
21
-3.5139180708661417
0
LINE
8
BLACK
6
CONTINUOUS
10
5.5069899212598425
20
-3.5139180708661417
11
5.5069666535433068
21
-3.5141844094488186
0
LINE
8
BLACK
6
CONTINUOUS
10
5.5069666535433068
20
-3.5141844094488186
11
5.5070795669291339
21
-3.5144266929133856
0
LINE
8
BLACK
6
CONTINUOUS
10
5.5070795669291339
20
-3.5144266929133856
11
5.5068809842519686
21
-3.5151668897637793
0
LINE
8
BLACK
6
CONTINUOUS
10
5.5068809842519686
20
-3.5151668897637793
11
5.5068144094488192
21
-3.5159302362204725
0
LINE
8
BLACK
6
CONTINUOUS
10
5.5068144094488192
20
-3.5159302362204725
11
5.5066254724409447
21
-3.5161192519685041
0
LINE
8
BLACK
6
CONTINUOUS
10
5.5066254724409447
20
-3.5161192519685041
11
5.506556220472441
21
-3.5163775196850393
0
LINE
8
BLACK
6
CONTINUOUS
10
5.506556220472441
20
-3.5163775196850393
11
5.5059283070866138
21
-3.5168168897637795
0
LINE
8
BLACK
6
CONTINUOUS
10
5.5059283070866138
20
-3.5168168897637795
11
5.5053866535433071
21
-3.5173588976377954
0
LINE
8
BLACK
6
CONTINUOUS
10
5.5053866535433071
20
-3.5173588976377954
11
5.4893262598425192
21
-3.5248537401574804
0
LINE
8
BLACK
6
CONTINUOUS
10
5.4893262598425192
20
-3.5248537401574804
11
5.5153865748031494
21
-3.5248537401574804
0
LINE
8
BLACK
6
CONTINUOUS
10
5.5153865748031494
20
-3.5248537401574804
11
5.5163964960629919
21
-3.5250318110236218
0
LINE
8
BLACK
6
CONTINUOUS
10
5.5163964960629919
20
-3.5250318110236218
11
5.51794374015748
21
-3.526330118110236
0
LINE
8
BLACK
6
CONTINUOUS
10
5.51794374015748
20
-3.526330118110236
11
5.5182944881889764
21
-3.528319251968504
0
LINE
8
BLACK
6
CONTINUOUS
10
5.5182944881889764
20
-3.528319251968504
11
5.5172845669291339
21
-3.5300684251968502
0
LINE
8
BLACK
6
CONTINUOUS
10
5.5172845669291339
20
-3.5300684251968502
11
5.5153865748031494
21
-3.530759251968504
0
LINE
8
BLACK
6
CONTINUOUS
10
5.5153865748031494
20
-3.530759251968504
11
5.476016496062992
21
-3.530759251968504
0
LINE
8
BLACK
6
CONTINUOUS
10
5.476016496062992
20
-3.530759251968504
11
5.4750065748031496
21
-3.5305811811023622
0
LINE
8
BLACK
6
CONTINUOUS
10
5.4750065748031496
20
-3.5305811811023622
11
5.4747044488188976
21
-3.5303276771653542
0
LINE
8
BLACK
6
CONTINUOUS
10
5.4747044488188976
20
-3.5303276771653542
11
5.4743235826771652
21
-3.530225748031496
0
LINE
8
BLACK
6
CONTINUOUS
10
5.4743235826771652
20
-3.530225748031496
11
5.47395342519685
21
-3.5296974803149603
0
LINE
8
BLACK
6
CONTINUOUS
10
5.47395342519685
20
-3.5296974803149603
11
5.4734593307086614
21
-3.529282874015748
0
LINE
8
BLACK
6
CONTINUOUS
10
5.4734593307086614
20
-3.529282874015748
11
5.4733908267716531
21
-3.5288945275590549
0
LINE
8
BLACK
6
CONTINUOUS
10
5.4733908267716531
20
-3.5288945275590549
11
5.4731645669291336
21
-3.5285715748031494
0
LINE
8
BLACK
6
CONTINUOUS
10
5.4731645669291336
20
-3.5285715748031494
11
5.4732205905511808
21
-3.5279289763779529
0
LINE
8
BLACK
6
CONTINUOUS
10
5.4732205905511808
20
-3.5279289763779529
11
5.473108582677165
21
-3.5272937401574804
0
LINE
8
BLACK
6
CONTINUOUS
10
5.473108582677165
20
-3.5272937401574804
11
5.4733057480314962
21
-3.5269521653543308
0
LINE
8
BLACK
6
CONTINUOUS
10
5.4733057480314962
20
-3.5269521653543308
11
5.4733400393700782
21
-3.5265594094488186
0
LINE
8
BLACK
6
CONTINUOUS
10
5.4733400393700782
20
-3.5265594094488186
11
5.47379594488189
21
-3.5261031889763781
0
LINE
8
BLACK
6
CONTINUOUS
10
5.47379594488189
20
-3.5261031889763781
11
5.4741185039370075
21
-3.5255445669291339
0
LINE
8
BLACK
6
CONTINUOUS
10
5.4741185039370075
20
-3.5255445669291339
11
5.4744890551181102
21
-3.5254096850393699
0
LINE
8
BLACK
6
CONTINUOUS
10
5.4744890551181102
20
-3.5254096850393699
11
5.474767834645669
21
-3.5251307480314962
0
LINE
8
BLACK
6
CONTINUOUS
10
5.474767834645669
20
-3.5251307480314962
11
5.4971555118110231
21
-3.5146831496062991
0
LINE
8
BLACK
6
CONTINUOUS
10
5.4971555118110231
20
-3.5146831496062991
11
5.474767834645669
21
-3.5042355511811021
0
LINE
8
BLACK
6
CONTINUOUS
10
5.474767834645669
20
-3.5042355511811021
11
5.473927952755905
21
-3.5036470866141731
0
LINE
8
BLACK
6
CONTINUOUS
10
5.473927952755905
20
-3.5036470866141731
11
5.4737613779527559
21
-3.5032896456692915
0
LINE
8
BLACK
6
CONTINUOUS
10
5.4737613779527559
20
-3.5032896456692915
11
5.4734593307086614
21
-3.5030361811023623
0
LINE
8
BLACK
6
CONTINUOUS
10
5.4734593307086614
20
-3.5030361811023623
11
5.4733473228346456
21
-3.5024009842519686
0
LINE
8
BLACK
6
CONTINUOUS
10
5.4733473228346456
20
-3.5024009842519686
11
5.4730748818897634
21
-3.5018162992125985
0
LINE
8
BLACK
6
CONTINUOUS
10
5.4730748818897634
20
-3.5018162992125985
11
5.4731770472440946
21
-3.5014353937007874
0
LINE
8
BLACK
6
CONTINUOUS
10
5.4731770472440946
20
-3.5014353937007874
11
5.473108582677165
21
-3.5010470472440942
0
LINE
8
BLACK
6
CONTINUOUS
10
5.473108582677165
20
-3.5010470472440942
11
5.4734310629921259
21
-3.5004884645669292
0
LINE
8
BLACK
6
CONTINUOUS
10
5.4734310629921259
20
-3.5004884645669292
11
5.4735982283464564
21
-3.4998654330708661
0
LINE
8
BLACK
6
CONTINUOUS
10
5.4735982283464564
20
-3.4998654330708661
11
5.4739213385826773
21
-3.4996392913385828
0
LINE
8
BLACK
6
CONTINUOUS
10
5.4739213385826773
20
-3.4996392913385828
11
5.4741185039370075
21
-3.4992978740157481
0
LINE
8
BLACK
6
CONTINUOUS
10
5.4741185039370075
20
-3.4992978740157481
11
5.474724566929134
21
-3.4990772440944879
0
LINE
8
BLACK
6
CONTINUOUS
10
5.474724566929134
20
-3.4990772440944879
11
5.4752531102362205
21
-3.498707440944882
0
LINE
8
BLACK
6
CONTINUOUS
10
5.4752531102362205
20
-3.498707440944882
11
5.4756459055118105
21
-3.4987418897637794
0
LINE
8
BLACK
6
CONTINUOUS
10
5.4756459055118105
20
-3.4987418897637794
11
5.476016496062992
21
-3.4986070472440942
0
LINE
8
BLACK
6
CONTINUOUS
10
5.476016496062992
20
-3.4986070472440942
11
5.5153865748031494
21
-3.4986070472440942
0
LINE
8
BLACK
6
CONTINUOUS
10
5.5153865748031494
20
-3.4986070472440942
11
5.5163964960629919
21
-3.4987851181102361
0
LINE
8
BLACK
6
CONTINUOUS
10
5.6964674015748029
20
-3.4802767322834645
11
5.6971582283464564
21
-3.4821747244094485
0
LINE
8
BLACK
6
CONTINUOUS
10
5.6971582283464564
20
-3.4821747244094485
11
5.6971582283464564
21
-3.5009223622047245
0
LINE
8
BLACK
6
CONTINUOUS
10
5.6971582283464564
20
-3.5009223622047245
11
5.6970905905511806
21
-3.501305866141732
0
LINE
8
BLACK
6
CONTINUOUS
10
5.6970905905511806
20
-3.501305866141732
11
5.6971133858267713
21
-3.5014351181102361
0
LINE
8
BLACK
6
CONTINUOUS
10
5.6971133858267713
20
-3.5014351181102361
11
5.6970477559055119
21
-3.5015487007874015
0
LINE
8
BLACK
6
CONTINUOUS
10
5.6970477559055119
20
-3.5015487007874015
11
5.6969801574803149
21
-3.501932283464567
0
LINE
8
BLACK
6
CONTINUOUS
10
5.6969801574803149
20
-3.501932283464567
11
5.6964870078740155
21
-3.5025199606299213
0
LINE
8
BLACK
6
CONTINUOUS
10
5.6964870078740155
20
-3.5025199606299213
11
5.6961034645669288
21
-3.5031842913385827
0
LINE
8
BLACK
6
CONTINUOUS
10
5.6961034645669288
20
-3.5031842913385827
11
5.6958531102362207
21
-3.5032753937007874
0
LINE
8
BLACK
6
CONTINUOUS
10
5.6958531102362207
20
-3.5032753937007874
11
5.6956818503937008
21
-3.5034795275590551
0
LINE
8
BLACK
6
CONTINUOUS
10
5.6956818503937008
20
-3.5034795275590551
11
5.6949262598425197
21
-3.5036127559055119
0
LINE
8
BLACK
6
CONTINUOUS
10
5.6949262598425197
20
-3.5036127559055119
11
5.6942054724409443
21
-3.5038751181102361
0
LINE
8
BLACK
6
CONTINUOUS
10
5.6942054724409443
20
-3.5038751181102361
11
5.6548353937007869
21
-3.5038751181102361
0
LINE
8
BLACK
6
CONTINUOUS
10
5.6548353937007869
20
-3.5038751181102361
11
5.6544518503937002
21
-3.5038074803149604
0
LINE
8
BLACK
6
CONTINUOUS
10
5.6544518503937002
20
-3.5038074803149604
11
5.6543226377952758
21
-3.503830275590551
0
LINE
8
BLACK
6
CONTINUOUS
10
5.6543226377952758
20
-3.503830275590551
11
5.6542090157480311
21
-3.5037646456692912
0
LINE
8
BLACK
6
CONTINUOUS
10
5.6542090157480311
20
-3.5037646456692912
11
5.6538254724409445
21
-3.5036970472440943
0
LINE
8
BLACK
6
CONTINUOUS
10
5.6538254724409445
20
-3.5036970472440943
11
5.6532377559055114
21
-3.5032038976377953
0
LINE
8
BLACK
6
CONTINUOUS
10
5.6532377559055114
20
-3.5032038976377953
11
5.6525734645669292
21
-3.5028203543307086
0
LINE
8
BLACK
6
CONTINUOUS
10
5.6525734645669292
20
-3.5028203543307086
11
5.6524823228346452
21
-3.50257
0
LINE
8
BLACK
6
CONTINUOUS
10
5.6524823228346452
20
-3.50257
11
5.6522782283464563
21
-3.5023987401574801
0
LINE
8
BLACK
6
CONTINUOUS
10
5.6522782283464563
20
-3.5023987401574801
11
5.6521449606299212
21
-3.501643149606299
0
LINE
8
BLACK
6
CONTINUOUS
10
5.6521449606299212
20
-3.501643149606299
11
5.6518826377952758
21
-3.5009223622047245
0
LINE
8
BLACK
6
CONTINUOUS
10
5.6518826377952758
20
-3.5009223622047245
11
5.6518826377952758
21
-3.4821747244094485
0
LINE
8
BLACK
6
CONTINUOUS
10
5.6518826377952758
20
-3.4821747244094485
11
5.6520607086614172
21
-3.4811648031496061
0
LINE
8
BLACK
6
CONTINUOUS
10
5.6520607086614172
20
-3.4811648031496061
11
5.6533590157480313
21
-3.4796175590551179
0
LINE
8
BLACK
6
CONTINUOUS
10
5.6533590157480313
20
-3.4796175590551179
11
5.6553481496062989
21
-3.479266811023622
0
LINE
8
BLACK
6
CONTINUOUS
10
5.6553481496062989
20
-3.479266811023622
11
5.6570973228346455
21
-3.4802767322834645
0
LINE
8
BLACK
6
CONTINUOUS
10
5.6570973228346455
20
-3.4802767322834645
11
5.6577881496062989
21
-3.4821747244094485
0
LINE
8
BLACK
6
CONTINUOUS
10
5.6577881496062989
20
-3.4821747244094485
11
5.6577881496062989
21
-3.4979696062992125
0
LINE
8
BLACK
6
CONTINUOUS
10
5.6577881496062989
20
-3.4979696062992125
11
5.6706302755905513
21
-3.4979696062992125
0
LINE
8
BLACK
6
CONTINUOUS
10
5.6706302755905513
20
-3.4979696062992125
11
5.6706302755905513
21
-3.4877990157480312
0
LINE
8
BLACK
6
CONTINUOUS
10
5.6706302755905513
20
-3.4877990157480312
11
5.6708083464566927
21
-3.4867890944881887
0
LINE
8
BLACK
6
CONTINUOUS
10
5.6708083464566927
20
-3.4867890944881887
11
5.6721066535433069
21
-3.4852418503937006
0
LINE
8
BLACK
6
CONTINUOUS
10
5.6721066535433069
20
-3.4852418503937006
11
5.6740957874015745
21
-3.4848911023622047
0
LINE
8
BLACK
6
CONTINUOUS
10
5.6740957874015745
20
-3.4848911023622047
11
5.6758449606299211
21
-3.4859010236220471
0
LINE
8
BLACK
6
CONTINUOUS
10
5.6758449606299211
20
-3.4859010236220471
11
5.6765357874015745
21
-3.4877990157480312
0
LINE
8
BLACK
6
CONTINUOUS
10
5.6765357874015745
20
-3.4877990157480312
11
5.6765357874015745
21
-3.4979696062992125
0
LINE
8
BLACK
6
CONTINUOUS
10
5.6765357874015745
20
-3.4979696062992125
11
5.6912527165354332
21
-3.4979696062992125
0
LINE
8
BLACK
6
CONTINUOUS
10
5.6912527165354332
20
-3.4979696062992125
11
5.6912527165354332
21
-3.4821747244094485
0
LINE
8
BLACK
6
CONTINUOUS
10
5.6912527165354332
20
-3.4821747244094485
11
5.6914307874015746
21
-3.4811648031496061
0
LINE
8
BLACK
6
CONTINUOUS
10
5.6914307874015746
20
-3.4811648031496061
11
5.6927290944881888
21
-3.4796175590551179
0
LINE
8
BLACK
6
CONTINUOUS
10
5.6927290944881888
20
-3.4796175590551179
11
5.6947182283464564
21
-3.479266811023622
0
LINE
8
BLACK
6
CONTINUOUS
10
5.6947182283464564
20
-3.479266811023622
11
5.6964674015748029
21
-3.4802767322834645
0
LINE
8
BLACK
6
CONTINUOUS
10
5.5163964960629919
20
-3.453790748031496
11
5.51794374015748
21
-3.4550890551181102
0
LINE
8
BLACK
6
CONTINUOUS
10
5.51794374015748
20
-3.4550890551181102
11
5.5182944881889764
21
-3.4570781889763778
0
LINE
8
BLACK
6
CONTINUOUS
10
5.5182944881889764
20
-3.4570781889763778
11
5.5172845669291339
21
-3.4588273622047243
0
LINE
8
BLACK
6
CONTINUOUS
10
5.5172845669291339
20
-3.4588273622047243
11
5.5153865748031494
21
-3.4595181889763778
0
LINE
8
BLACK
6
CONTINUOUS
10
5.5153865748031494
20
-3.4595181889763778
11
5.4893262598425192
21
-3.4595181889763778
0
LINE
8
BLACK
6
CONTINUOUS
10
5.4893262598425192
20
-3.4595181889763778
11
5.5053866535433071
21
-3.4670130314960628
0
LINE
8
BLACK
6
CONTINUOUS
10
5.5053866535433071
20
-3.4670130314960628
11
5.5057044094488186
21
-3.4672356692913384
0
LINE
8
BLACK
6
CONTINUOUS
10
5.5057044094488186
20
-3.4672356692913384
11
5.5058308661417321
21
-3.467269527559055
0
LINE
8
BLACK
6
CONTINUOUS
10
5.5058308661417321
20
-3.467269527559055
11
5.5059062204724407
21
-3.4673770866141731
0
LINE
8
BLACK
6
CONTINUOUS
10
5.5059062204724407
20
-3.4673770866141731
11
5.5062264960629923
21
-3.4676014960629922
0
LINE
8
BLACK
6
CONTINUOUS
10
5.5062264960629923
20
-3.4676014960629922
11
5.5065500787401573
21
-3.4682959842519683
0
LINE
8
BLACK
6
CONTINUOUS
10
5.5065500787401573
20
-3.4682959842519683
11
5.5069899212598425
21
-3.4689237007874016
0
LINE
8
BLACK
6
CONTINUOUS
10
5.5069899212598425
20
-3.4689237007874016
11
5.5069666535433068
21
-3.4691900393700785
0
LINE
8
BLACK
6
CONTINUOUS
10
5.5069666535433068
20
-3.4691900393700785
11
5.5070795669291339
21
-3.4694323228346455
0
LINE
8
BLACK
6
CONTINUOUS
10
5.5070795669291339
20
-3.4694323228346455
11
5.5068809842519686
21
-3.4701725196850393
0
LINE
8
BLACK
6
CONTINUOUS
10
5.5068809842519686
20
-3.4701725196850393
11
5.5068144094488192
21
-3.470935866141732
0
LINE
8
BLACK
6
CONTINUOUS
10
5.5068144094488192
20
-3.470935866141732
11
5.5066254724409447
21
-3.4711248818897635
0
LINE
8
BLACK
6
CONTINUOUS
10
5.5066254724409447
20
-3.4711248818897635
11
5.506556220472441
21
-3.4713831496062992
0
LINE
8
BLACK
6
CONTINUOUS
10
5.506556220472441
20
-3.4713831496062992
11
5.5059283070866138
21
-3.4718225196850394
0
LINE
8
BLACK
6
CONTINUOUS
10
5.5059283070866138
20
-3.4718225196850394
11
5.5053866535433071
21
-3.4723645275590549
0
LINE
8
BLACK
6
CONTINUOUS
10
5.5053866535433071
20
-3.4723645275590549
11
5.4893262598425192
21
-3.4798593700787399
0
LINE
8
BLACK
6
CONTINUOUS
10
5.4893262598425192
20
-3.4798593700787399
11
5.5153865748031494
21
-3.4798593700787399
0
LINE
8
BLACK
6
CONTINUOUS
10
5.5153865748031494
20
-3.4798593700787399
11
5.5163964960629919
21
-3.4800374409448818
0
LINE
8
BLACK
6
CONTINUOUS
10
5.5163964960629919
20
-3.4800374409448818
11
5.51794374015748
21
-3.4813357480314959
0
LINE
8
BLACK
6
CONTINUOUS
10
5.51794374015748
20
-3.4813357480314959
11
5.5182944881889764
21
-3.4833248818897635
0
LINE
8
BLACK
6
CONTINUOUS
10
5.5182944881889764
20
-3.4833248818897635
11
5.5172845669291339
21
-3.4850740551181101
0
LINE
8
BLACK
6
CONTINUOUS
10
5.5172845669291339
20
-3.4850740551181101
11
5.5153865748031494
21
-3.4857648818897635
0
LINE
8
BLACK
6
CONTINUOUS
10
5.5153865748031494
20
-3.4857648818897635
11
5.476016496062992
21
-3.4857648818897635
0
LINE
8
BLACK
6
CONTINUOUS
10
5.476016496062992
20
-3.4857648818897635
11
5.4750065748031496
21
-3.4855868110236221
0
LINE
8
BLACK
6
CONTINUOUS
10
5.4750065748031496
20
-3.4855868110236221
11
5.4747044488188976
21
-3.4853333070866142
0
LINE
8
BLACK
6
CONTINUOUS
10
5.4747044488188976
20
-3.4853333070866142
11
5.4743235826771652
21
-3.4852313779527559
0
LINE
8
BLACK
6
CONTINUOUS
10
5.4743235826771652
20
-3.4852313779527559
11
5.47395342519685
21
-3.4847031102362203
0
LINE
8
BLACK
6
CONTINUOUS
10
5.47395342519685
20
-3.4847031102362203
11
5.4734593307086614
21
-3.484288503937008
0
LINE
8
BLACK
6
CONTINUOUS
10
5.4734593307086614
20
-3.484288503937008
11
5.4733908267716531
21
-3.4839001574803148
0
LINE
8
BLACK
6
CONTINUOUS
10
5.4733908267716531
20
-3.4839001574803148
11
5.4731645669291336
21
-3.4835772047244093
0
LINE
8
BLACK
6
CONTINUOUS
10
5.4731645669291336
20
-3.4835772047244093
11
5.4732205905511808
21
-3.4829346062992124
0
LINE
8
BLACK
6
CONTINUOUS
10
5.4732205905511808
20
-3.4829346062992124
11
5.473108582677165
21
-3.4822993700787399
0
LINE
8
BLACK
6
CONTINUOUS
10
5.473108582677165
20
-3.4822993700787399
11
5.4733057480314962
21
-3.4819577952755907
0
LINE
8
BLACK
6
CONTINUOUS
10
5.4733057480314962
20
-3.4819577952755907
11
5.4733400393700782
21
-3.4815650393700786
0
LINE
8
BLACK
6
CONTINUOUS
10
5.4733400393700782
20
-3.4815650393700786
11
5.47379594488189
21
-3.4811088188976376
0
LINE
8
BLACK
6
CONTINUOUS
10
5.47379594488189
20
-3.4811088188976376
11
5.4741185039370075
21
-3.4805501968503938
0
LINE
8
BLACK
6
CONTINUOUS
10
5.4741185039370075
20
-3.4805501968503938
11
5.4744890551181102
21
-3.4804153149606298
0
LINE
8
BLACK
6
CONTINUOUS
10
5.4744890551181102
20
-3.4804153149606298
11
5.474767834645669
21
-3.4801363779527557
0
LINE
8
BLACK
6
CONTINUOUS
10
5.474767834645669
20
-3.4801363779527557
11
5.4971555118110231
21
-3.4696887795275591
0
LINE
8
BLACK
6
CONTINUOUS
10
5.4971555118110231
20
-3.4696887795275591
11
5.474767834645669
21
-3.459241181102362
0
LINE
8
BLACK
6
CONTINUOUS
10
5.474767834645669
20
-3.459241181102362
11
5.473927952755905
21
-3.458652716535433
0
LINE
8
BLACK
6
CONTINUOUS
10
5.473927952755905
20
-3.458652716535433
11
5.4737613779527559
21
-3.4582952755905509
0
LINE
8
BLACK
6
CONTINUOUS
10
5.4737613779527559
20
-3.4582952755905509
11
5.4734593307086614
21
-3.4580418110236222
0
LINE
8
BLACK
6
CONTINUOUS
10
5.4734593307086614
20
-3.4580418110236222
11
5.4733473228346456
21
-3.4574066141732285
0
LINE
8
BLACK
6
CONTINUOUS
10
5.4733473228346456
20
-3.4574066141732285
11
5.4730748818897634
21
-3.456821929133858
0
LINE
8
BLACK
6
CONTINUOUS
10
5.4730748818897634
20
-3.456821929133858
11
5.4731770472440946
21
-3.4564410236220473
0
LINE
8
BLACK
6
CONTINUOUS
10
5.4731770472440946
20
-3.4564410236220473
11
5.473108582677165
21
-3.4560526771653541
0
LINE
8
BLACK
6
CONTINUOUS
10
5.473108582677165
20
-3.4560526771653541
11
5.4734310629921259
21
-3.4554940944881891
0
LINE
8
BLACK
6
CONTINUOUS
10
5.4734310629921259
20
-3.4554940944881891
11
5.4735982283464564
21
-3.454871062992126
0
LINE
8
BLACK
6
CONTINUOUS
10
5.4735982283464564
20
-3.454871062992126
11
5.4739213385826773
21
-3.4546449212598422
0
LINE
8
BLACK
6
CONTINUOUS
10
5.4739213385826773
20
-3.4546449212598422
11
5.4741185039370075
21
-3.4543035039370076
0
LINE
8
BLACK
6
CONTINUOUS
10
5.4741185039370075
20
-3.4543035039370076
11
5.474724566929134
21
-3.4540828740157479
0
LINE
8
BLACK
6
CONTINUOUS
10
5.474724566929134
20
-3.4540828740157479
11
5.4752531102362205
21
-3.4537130708661414
0
LINE
8
BLACK
6
CONTINUOUS
10
5.4752531102362205
20
-3.4537130708661414
11
5.4756459055118105
21
-3.4537475196850393
0
LINE
8
BLACK
6
CONTINUOUS
10
5.4756459055118105
20
-3.4537475196850393
11
5.476016496062992
21
-3.4536126771653541
0
LINE
8
BLACK
6
CONTINUOUS
10
5.476016496062992
20
-3.4536126771653541
11
5.5153865748031494
21
-3.4536126771653541
0
LINE
8
BLACK
6
CONTINUOUS
10
5.5153865748031494
20
-3.4536126771653541
11
5.5163964960629919
21
-3.453790748031496
0
LINE
8
BLACK
6
CONTINUOUS
10
5.6952153937007877
20
-3.4362804330708663
11
5.6967626377952758
21
-3.4375787401574804
0
LINE
8
BLACK
6
CONTINUOUS
10
5.6967626377952758
20
-3.4375787401574804
11
5.6971133858267713
21
-3.439567874015748
0
LINE
8
BLACK
6
CONTINUOUS
10
5.6971133858267713
20
-3.439567874015748
11
5.6961034645669288
21
-3.4413170472440946
0
LINE
8
BLACK
6
CONTINUOUS
10
5.6961034645669288
20
-3.4413170472440946
11
5.6942054724409443
21
-3.442007874015748
0
LINE
8
BLACK
6
CONTINUOUS
10
5.6942054724409443
20
-3.442007874015748
11
5.668145157480315
21
-3.442007874015748
0
LINE
8
BLACK
6
CONTINUOUS
10
5.668145157480315
20
-3.442007874015748
11
5.684205551181102
21
-3.4495027165354331
0
LINE
8
BLACK
6
CONTINUOUS
10
5.684205551181102
20
-3.4495027165354331
11
5.6845233070866144
21
-3.4497253543307087
0
LINE
8
BLACK
6
CONTINUOUS
10
5.6845233070866144
20
-3.4497253543307087
11
5.684649763779527
21
-3.4497592125984253
0
LINE
8
BLACK
6
CONTINUOUS
10
5.684649763779527
20
-3.4497592125984253
11
5.6847251181102365
21
-3.4498667716535434
0
LINE
8
BLACK
6
CONTINUOUS
10
5.6847251181102365
20
-3.4498667716535434
11
5.6850453937007872
21
-3.450091181102362
0
LINE
8
BLACK
6
CONTINUOUS
10
5.6850453937007872
20
-3.450091181102362
11
5.6853689763779522
21
-3.4507856692913386
0
LINE
8
BLACK
6
CONTINUOUS
10
5.6853689763779522
20
-3.4507856692913386
11
5.6858088188976375
21
-3.4514133858267715
0
LINE
8
BLACK
6
CONTINUOUS
10
5.6858088188976375
20
-3.4514133858267715
11
5.6857855511811026
21
-3.4516797244094488
0
LINE
8
BLACK
6
CONTINUOUS
10
5.6857855511811026
20
-3.4516797244094488
11
5.6858984645669288
21
-3.4519220078740158
0
LINE
8
BLACK
6
CONTINUOUS
10
5.6858984645669288
20
-3.4519220078740158
11
5.6856998818897635
21
-3.4526622047244095
0
LINE
8
BLACK
6
CONTINUOUS
10
5.6856998818897635
20
-3.4526622047244095
11
5.6856333070866141
21
-3.4534255511811023
0
LINE
8
BLACK
6
CONTINUOUS
10
5.6856333070866141
20
-3.4534255511811023
11
5.6854443700787396
21
-3.4536145669291338
0
LINE
8
BLACK
6
CONTINUOUS
10
5.6854443700787396
20
-3.4536145669291338
11
5.6853751181102359
21
-3.4538728346456691
0
LINE
8
BLACK
6
CONTINUOUS
10
5.6853751181102359
20
-3.4538728346456691
11
5.6847472047244096
21
-3.4543122047244093
0
LINE
8
BLACK
6
CONTINUOUS
10
5.6847472047244096
20
-3.4543122047244093
11
5.684205551181102
21
-3.4548542125984252
0
LINE
8
BLACK
6
CONTINUOUS
10
5.684205551181102
20
-3.4548542125984252
11
5.668145157480315
21
-3.4623490551181102
0
LINE
8
BLACK
6
CONTINUOUS
10
5.668145157480315
20
-3.4623490551181102
11
5.6942054724409443
21
-3.4623490551181102
0
LINE
8
BLACK
6
CONTINUOUS
10
5.6942054724409443
20
-3.4623490551181102
11
5.6952153937007877
21
-3.4625271259842521
0
LINE
8
BLACK
6
CONTINUOUS
10
5.6952153937007877
20
-3.4625271259842521
11
5.6967626377952758
21
-3.4638254330708662
0
LINE
8
BLACK
6
CONTINUOUS
10
5.6967626377952758
20
-3.4638254330708662
11
5.6971133858267713
21
-3.4658145669291338
0
LINE
8
BLACK
6
CONTINUOUS
10
5.6971133858267713
20
-3.4658145669291338
11
5.6961034645669288
21
-3.4675637401574804
0
LINE
8
BLACK
6
CONTINUOUS
10
5.6961034645669288
20
-3.4675637401574804
11
5.6942054724409443
21
-3.4682545669291338
0
LINE
8
BLACK
6
CONTINUOUS
10
5.6942054724409443
20
-3.4682545669291338
11
5.6548353937007869
21
-3.4682545669291338
0
LINE
8
BLACK
6
CONTINUOUS
10
5.6548353937007869
20
-3.4682545669291338
11
5.6538254724409445
21
-3.468076496062992
0
LINE
8
BLACK
6
CONTINUOUS
10
5.6538254724409445
20
-3.468076496062992
11
5.6535233464566925
21
-3.467822992125984
0
LINE
8
BLACK
6
CONTINUOUS
10
5.6535233464566925
20
-3.467822992125984
11
5.6531424803149601
21
-3.4677210629921258
0
LINE
8
BLACK
6
CONTINUOUS
10
5.6531424803149601
20
-3.4677210629921258
11
5.6527723228346458
21
-3.4671927952755905
0
LINE
8
BLACK
6
CONTINUOUS
10
5.6527723228346458
20
-3.4671927952755905
11
5.6522782283464563
21
-3.4667781889763778
0
LINE
8
BLACK
6
CONTINUOUS
10
5.6522782283464563
20
-3.4667781889763778
11
5.6522097244094489
21
-3.4663898425196851
0
LINE
8
BLACK
6
CONTINUOUS
10
5.6522097244094489
20
-3.4663898425196851
11
5.6519834645669293
21
-3.4660668897637796
0
LINE
8
BLACK
6
CONTINUOUS
10
5.6519834645669293
20
-3.4660668897637796
11
5.6520394881889766
21
-3.4654242913385827
0
LINE
8
BLACK
6
CONTINUOUS
10
5.6520394881889766
20
-3.4654242913385827
11
5.6519274803149608
21
-3.4647890551181102
0
LINE
8
BLACK
6
CONTINUOUS
10
5.6519274803149608
20
-3.4647890551181102
11
5.6521246456692911
21
-3.4644474803149605
0
LINE
8
BLACK
6
CONTINUOUS
10
5.6521246456692911
20
-3.4644474803149605
11
5.652158937007874
21
-3.4640547244094488
0
LINE
8
BLACK
6
CONTINUOUS
10
5.652158937007874
20
-3.4640547244094488
11
5.6526148425196849
21
-3.4635985039370079
0
LINE
8
BLACK
6
CONTINUOUS
10
5.6526148425196849
20
-3.4635985039370079
11
5.6529374015748033
21
-3.4630398818897636
0
LINE
8
BLACK
6
CONTINUOUS
10
5.6529374015748033
20
-3.4630398818897636
11
5.6533079527559051
21
-3.4629050000000001
0
LINE
8
BLACK
6
CONTINUOUS
10
5.6533079527559051
20
-3.4629050000000001
11
5.6535867322834648
21
-3.4626260629921259
0
LINE
8
BLACK
6
CONTINUOUS
10
5.6535867322834648
20
-3.4626260629921259
11
5.6759744094488189
21
-3.4521784645669289
0
LINE
8
BLACK
6
CONTINUOUS
10
5.6759744094488189
20
-3.4521784645669289
11
5.6535867322834648
21
-3.4417308661417323
0
LINE
8
BLACK
6
CONTINUOUS
10
5.6535867322834648
20
-3.4417308661417323
11
5.6527468503937008
21
-3.4411424015748029
0
LINE
8
BLACK
6
CONTINUOUS
10
5.6527468503937008
20
-3.4411424015748029
11
5.6525802755905508
21
-3.4407849606299212
0
LINE
8
BLACK
6
CONTINUOUS
10
5.6525802755905508
20
-3.4407849606299212
11
5.6522782283464563
21
-3.440531496062992
0
LINE
8
BLACK
6
CONTINUOUS
10
5.6522782283464563
20
-3.440531496062992
11
5.6521662204724405
21
-3.4398962992125983
0
LINE
8
BLACK
6
CONTINUOUS
10
5.6521662204724405
20
-3.4398962992125983
11
5.6518937795275592
21
-3.4393116141732283
0
LINE
8
BLACK
6
CONTINUOUS
10
5.6518937795275592
20
-3.4393116141732283
11
5.6519959448818895
21
-3.4389307086614171
0
LINE
8
BLACK
6
CONTINUOUS
10
5.6519959448818895
20
-3.4389307086614171
11
5.6519274803149608
21
-3.4385423622047244
0
LINE
8
BLACK
6
CONTINUOUS
10
5.6519274803149608
20
-3.4385423622047244
11
5.6522499606299208
21
-3.437983779527559
0
LINE
8
BLACK
6
CONTINUOUS
10
5.6522499606299208
20
-3.437983779527559
11
5.6524171259842522
21
-3.4373607480314958
0
LINE
8
BLACK
6
CONTINUOUS
10
5.6524171259842522
20
-3.4373607480314958
11
5.6527402362204722
21
-3.4371346062992125
0
LINE
8
BLACK
6
CONTINUOUS
10
5.6527402362204722
20
-3.4371346062992125
11
5.6529374015748033
21
-3.4367931889763779
0
LINE
8
BLACK
6
CONTINUOUS
10
5.6529374015748033
20
-3.4367931889763779
11
5.6535434645669289
21
-3.4365725590551182
0
LINE
8
BLACK
6
CONTINUOUS
10
5.6535434645669289
20
-3.4365725590551182
11
5.6540720078740154
21
-3.4362027559055117
0
LINE
8
BLACK
6
CONTINUOUS
10
5.6540720078740154
20
-3.4362027559055117
11
5.6544648031496063
21
-3.4362372047244092
0
LINE
8
BLACK
6
CONTINUOUS
10
5.6544648031496063
20
-3.4362372047244092
11
5.6548353937007869
21
-3.4361023622047244
0
LINE
8
BLACK
6
CONTINUOUS
10
5.6548353937007869
20
-3.4361023622047244
11
5.6942054724409443
21
-3.4361023622047244
0
LINE
8
BLACK
6
CONTINUOUS
10
5.6942054724409443
20
-3.4361023622047244
11
5.6952153937007877
21
-3.4362804330708663
0
LINE
8
BLACK
6
CONTINUOUS
10
5.5026503543307088
20
-3.4059235433070865
11
5.5033411811023623
21
-3.407821535433071
0
LINE
8
BLACK
6
CONTINUOUS
10
5.5033411811023623
20
-3.407821535433071
11
5.5033411811023623
21
-3.4378177559055119
0
LINE
8
BLACK
6
CONTINUOUS
10
5.5033411811023623
20
-3.4378177559055119
11
5.50316311023622
21
-3.4388276771653543
0
LINE
8
BLACK
6
CONTINUOUS
10
5.50316311023622
20
-3.4388276771653543
11
5.5018648031496058
21
-3.4403749212598425
0
LINE
8
BLACK
6
CONTINUOUS
10
5.5018648031496058
20
-3.4403749212598425
11
5.4998756692913382
21
-3.4407256692913384
0
LINE
8
BLACK
6
CONTINUOUS
10
5.4998756692913382
20
-3.4407256692913384
11
5.4981264960629916
21
-3.4397157480314959
0
LINE
8
BLACK
6
CONTINUOUS
10
5.4981264960629916
20
-3.4397157480314959
11
5.4974356692913382
21
-3.4378177559055119
0
LINE
8
BLACK
6
CONTINUOUS
10
5.4974356692913382
20
-3.4378177559055119
11
5.4974356692913382
21
-3.407821535433071
0
LINE
8
BLACK
6
CONTINUOUS
10
5.4974356692913382
20
-3.407821535433071
11
5.4976137401574805
21
-3.4068116141732281
0
LINE
8
BLACK
6
CONTINUOUS
10
5.4976137401574805
20
-3.4068116141732281
11
5.4989120472440947
21
-3.4052643700787399
0
LINE
8
BLACK
6
CONTINUOUS
10
5.4989120472440947
20
-3.4052643700787399
11
5.5009011811023623
21
-3.404913622047244
0
LINE
8
BLACK
6
CONTINUOUS
10
5.5009011811023623
20
-3.404913622047244
11
5.5026503543307088
21
-3.4059235433070865
0
LINE
8
BLACK
6
CONTINUOUS
10
5.6964674015748029
20
-3.3996618110236221
11
5.6971582283464564
21
-3.4015598031496062
0
LINE
8
BLACK
6
CONTINUOUS
10
5.6971582283464564
20
-3.4015598031496062
11
5.6971582283464564
21
-3.4203074409448817
0
LINE
8
BLACK
6
CONTINUOUS
10
5.6971582283464564
20
-3.4203074409448817
11
5.6970905905511806
21
-3.4206909448818896
0
LINE
8
BLACK
6
CONTINUOUS
10
5.6970905905511806
20
-3.4206909448818896
11
5.6971133858267713
21
-3.4208201968503937
0
LINE
8
BLACK
6
CONTINUOUS
10
5.6971133858267713
20
-3.4208201968503937
11
5.6970477559055119
21
-3.4209337795275592
0
LINE
8
BLACK
6
CONTINUOUS
10
5.6970477559055119
20
-3.4209337795275592
11
5.6969801574803149
21
-3.4213173622047242
0
LINE
8
BLACK
6
CONTINUOUS
10
5.6969801574803149
20
-3.4213173622047242
11
5.6964870078740155
21
-3.4219050393700785
0
LINE
8
BLACK
6
CONTINUOUS
10
5.6964870078740155
20
-3.4219050393700785
11
5.6961034645669288
21
-3.4225693700787403
0
LINE
8
BLACK
6
CONTINUOUS
10
5.6961034645669288
20
-3.4225693700787403
11
5.6958531102362207
21
-3.4226604724409446
0
LINE
8
BLACK
6
CONTINUOUS
10
5.6958531102362207
20
-3.4226604724409446
11
5.6956818503937008
21
-3.4228646062992127
0
LINE
8
BLACK
6
CONTINUOUS
10
5.6956818503937008
20
-3.4228646062992127
11
5.6949262598425197
21
-3.4229978346456691
0
LINE
8
BLACK
6
CONTINUOUS
10
5.6949262598425197
20
-3.4229978346456691
11
5.6942054724409443
21
-3.4232601968503937
0
LINE
8
BLACK
6
CONTINUOUS
10
5.6942054724409443
20
-3.4232601968503937
11
5.6548353937007869
21
-3.4232601968503937
0
LINE
8
BLACK
6
CONTINUOUS
10
5.6548353937007869
20
-3.4232601968503937
11
5.6544518503937002
21
-3.423192559055118
0
LINE
8
BLACK
6
CONTINUOUS
10
5.6544518503937002
20
-3.423192559055118
11
5.6543226377952758
21
-3.4232153543307087
0
LINE
8
BLACK
6
CONTINUOUS
10
5.6543226377952758
20
-3.4232153543307087
11
5.6542090157480311
21
-3.4231497244094489
0
LINE
8
BLACK
6
CONTINUOUS
10
5.6542090157480311
20
-3.4231497244094489
11
5.6538254724409445
21
-3.4230821259842519
0
LINE
8
BLACK
6
CONTINUOUS
10
5.6538254724409445
20
-3.4230821259842519
11
5.6532377559055114
21
-3.4225889763779529
0
LINE
8
BLACK
6
CONTINUOUS
10
5.6532377559055114
20
-3.4225889763779529
11
5.6525734645669292
21
-3.4222054330708662
0
LINE
8
BLACK
6
CONTINUOUS
10
5.6525734645669292
20
-3.4222054330708662
11
5.6524823228346452
21
-3.4219550787401576
0
LINE
8
BLACK
6
CONTINUOUS
10
5.6524823228346452
20
-3.4219550787401576
11
5.6522782283464563
21
-3.4217838188976377
0
LINE
8
BLACK
6
CONTINUOUS
10
5.6522782283464563
20
-3.4217838188976377
11
5.6521449606299212
21
-3.4210282283464566
0
LINE
8
BLACK
6
CONTINUOUS
10
5.6521449606299212
20
-3.4210282283464566
11
5.6518826377952758
21
-3.4203074409448817
0
LINE
8
BLACK
6
CONTINUOUS
10
5.6518826377952758
20
-3.4203074409448817
11
5.6518826377952758
21
-3.4015598031496062
0
LINE
8
BLACK
6
CONTINUOUS
10
5.6518826377952758
20
-3.4015598031496062
11
5.6520607086614172
21
-3.4005498818897637
0
LINE
8
BLACK
6
CONTINUOUS
10
5.6520607086614172
20
-3.4005498818897637
11
5.6533590157480313
21
-3.3990026377952756
0
LINE
8
BLACK
6
CONTINUOUS
10
5.6533590157480313
20
-3.3990026377952756
11
5.6553481496062989
21
-3.3986518897637796
0
LINE
8
BLACK
6
CONTINUOUS
10
5.6553481496062989
20
-3.3986518897637796
11
5.6570973228346455
21
-3.3996618110236221
0
LINE
8
BLACK
6
CONTINUOUS
10
5.6570973228346455
20
-3.3996618110236221
11
5.6577881496062989
21
-3.4015598031496062
0
LINE
8
BLACK
6
CONTINUOUS
10
5.6577881496062989
20
-3.4015598031496062
11
5.6577881496062989
21
-3.4173546850393701
0
LINE
8
BLACK
6
CONTINUOUS
10
5.6577881496062989
20
-3.4173546850393701
11
5.6706302755905513
21
-3.4173546850393701
0
LINE
8
BLACK
6
CONTINUOUS
10
5.6706302755905513
20
-3.4173546850393701
11
5.6706302755905513
21
-3.4071840944881888
0
LINE
8
BLACK
6
CONTINUOUS
10
5.6706302755905513
20
-3.4071840944881888
11
5.6708083464566927
21
-3.4061741732283464
0
LINE
8
BLACK
6
CONTINUOUS
10
5.6708083464566927
20
-3.4061741732283464
11
5.6721066535433069
21
-3.4046269291338582
0
LINE
8
BLACK
6
CONTINUOUS
10
5.6721066535433069
20
-3.4046269291338582
11
5.6740957874015745
21
-3.4042761811023623
0
LINE
8
BLACK
6
CONTINUOUS
10
5.6740957874015745
20
-3.4042761811023623
11
5.6758449606299211
21
-3.4052861023622047
0
LINE
8
BLACK
6
CONTINUOUS
10
5.6758449606299211
20
-3.4052861023622047
11
5.6765357874015745
21
-3.4071840944881888
0
LINE
8
BLACK
6
CONTINUOUS
10
5.6765357874015745
20
-3.4071840944881888
11
5.6765357874015745
21
-3.4173546850393701
0
LINE
8
BLACK
6
CONTINUOUS
10
5.6765357874015745
20
-3.4173546850393701
11
5.6912527165354332
21
-3.4173546850393701
0
LINE
8
BLACK
6
CONTINUOUS
10
5.6912527165354332
20
-3.4173546850393701
11
5.6912527165354332
21
-3.4015598031496062
0
LINE
8
BLACK
6
CONTINUOUS
10
5.6912527165354332
20
-3.4015598031496062
11
5.6914307874015746
21
-3.4005498818897637
0
LINE
8
BLACK
6
CONTINUOUS
10
5.6914307874015746
20
-3.4005498818897637
11
5.6927290944881888
21
-3.3990026377952756
0
LINE
8
BLACK
6
CONTINUOUS
10
5.6927290944881888
20
-3.3990026377952756
11
5.6947182283464564
21
-3.3986518897637796
0
LINE
8
BLACK
6
CONTINUOUS
10
5.6947182283464564
20
-3.3986518897637796
11
5.6964674015748029
21
-3.3996618110236221
0
LINE
8
BLACK
6
CONTINUOUS
10
5.6205022047244091
20
-3.3898699212598427
11
5.6205956692913386
21
-3.389847283464567
0
LINE
8
BLACK
6
CONTINUOUS
10
5.6205956692913386
20
-3.389847283464567
11
5.6235952755905512
21
-3.3903159448818898
0
LINE
8
BLACK
6
CONTINUOUS
10
5.6235952755905512
20
-3.3903159448818898
11
5.6236737007874016
21
-3.3903637795275592
0
LINE
8
BLACK
6
CONTINUOUS
10
5.6236737007874016
20
-3.3903637795275592
11
5.6237652362204722
21
-3.3903555511811021
0
LINE
8
BLACK
6
CONTINUOUS
10
5.6237652362204722
20
-3.3903555511811021
11
5.6252650787401572
21
-3.3908242519685037
0
LINE
8
BLACK
6
CONTINUOUS
10
5.6252650787401572
20
-3.3908242519685037
11
5.6253848425196846
21
-3.3909242125984251
0
LINE
8
BLACK
6
CONTINUOUS
10
5.6253848425196846
20
-3.3909242125984251
11
5.6255387401574799
21
-3.3909500000000001
0
LINE
8
BLACK
6
CONTINUOUS
10
5.6255387401574799
20
-3.3909500000000001
11
5.6270385826771649
21
-3.3918874015748033
0
LINE
8
BLACK
6
CONTINUOUS
10
5.6270385826771649
20
-3.3918874015748033
11
5.6272171653543301
21
-3.3921378346456694
0
LINE
8
BLACK
6
CONTINUOUS
10
5.6272171653543301
20
-3.3921378346456694
11
5.6274547637795278
21
-3.3923331889763779
0
LINE
8
BLACK
6
CONTINUOUS
10
5.6274547637795278
20
-3.3923331889763779
11
5.6282046456692916
21
-3.3937392519685039
0
LINE
8
BLACK
6
CONTINUOUS
10
5.6282046456692916
20
-3.3937392519685039
11
5.6282327559055121
21
-3.3940274803149606
0
LINE
8
BLACK
6
CONTINUOUS
10
5.6282327559055121
20
-3.3940274803149606
11
5.6283435826771653
21
-3.3942950393700788
0
LINE
8
BLACK
6
CONTINUOUS
10
5.6283435826771653
20
-3.3942950393700788
11
5.6283435826771653
21
-3.3966385039370079
0
LINE
8
BLACK
6
CONTINUOUS
10
5.6283435826771653
20
-3.3966385039370079
11
5.6279976377952758
21
-3.3974736614173229
0
LINE
8
BLACK
6
CONTINUOUS
10
5.6279976377952758
20
-3.3974736614173229
11
5.6271624803149605
21
-3.3978196062992123
0
LINE
8
BLACK
6
CONTINUOUS
10
5.6271624803149605
20
-3.3978196062992123
11
5.6114144488188975
21
-3.3978196062992123
0
LINE
8
BLACK
6
CONTINUOUS
10
5.6114144488188975
20
-3.3978196062992123
11
5.6105792913385821
21
-3.3974736614173229
0
LINE
8
BLACK
6
CONTINUOUS
10
5.6105792913385821
20
-3.3974736614173229
11
5.6102333464566927
21
-3.3966385039370079
0
LINE
8
BLACK
6
CONTINUOUS
10
5.6102333464566927
20
-3.3966385039370079
11
5.6102333464566927
21
-3.3942950393700788
0
LINE
8
BLACK
6
CONTINUOUS
10
5.6102333464566927
20
-3.3942950393700788
11
5.6103441732283459
21
-3.3940274015748031
0
LINE
8
BLACK
6
CONTINUOUS
10
5.6103441732283459
20
-3.3940274015748031
11
5.6103723228346452
21
-3.3937392125984251
0
LINE
8
BLACK
6
CONTINUOUS
10
5.6103723228346452
20
-3.3937392125984251
11
5.6111222440944877
21
-3.3923331496062992
0
LINE
8
BLACK
6
CONTINUOUS
10
5.6111222440944877
20
-3.3923331496062992
11
5.6113597637795278
21
-3.3921378346456694
0
LINE
8
BLACK
6
CONTINUOUS
10
5.6113597637795278
20
-3.3921378346456694
11
5.6115383858267718
21
-3.3918874015748033
0
LINE
8
BLACK
6
CONTINUOUS
10
5.6115383858267718
20
-3.3918874015748033
11
5.6130381889763781
21
-3.3909500000000001
0
LINE
8
BLACK
6
CONTINUOUS
10
5.6130381889763781
20
-3.3909500000000001
11
5.6131921259842521
21
-3.3909242125984251
0
LINE
8
BLACK
6
CONTINUOUS
10
5.6131921259842521
20
-3.3909242125984251
11
5.6133118897637795
21
-3.3908242519685037
0
LINE
8
BLACK
6
CONTINUOUS
10
5.6133118897637795
20
-3.3908242519685037
11
5.6148116929133858
21
-3.3903555511811021
0
LINE
8
BLACK
6
CONTINUOUS
10
5.6148116929133858
20
-3.3903555511811021
11
5.6149031889763776
21
-3.3903637795275592
0
LINE
8
BLACK
6
CONTINUOUS
10
5.6149031889763776
20
-3.3903637795275592
11
5.6149816535433068
21
-3.3903159448818898
0
LINE
8
BLACK
6
CONTINUOUS
10
5.6149816535433068
20
-3.3903159448818898
11
5.6179812992125981
21
-3.389847283464567
0
LINE
8
BLACK
6
CONTINUOUS
10
5.6179812992125981
20
-3.389847283464567
11
5.6180747244094489
21
-3.3898699212598427
0
LINE
8
BLACK
6
CONTINUOUS
10
5.6180747244094489
20
-3.3898699212598427
11
5.618163622047244
21
-3.3898331102362205
0
LINE
8
BLACK
6
CONTINUOUS
10
5.618163622047244
20
-3.3898331102362205
11
5.6204133464566928
21
-3.3898331102362205
0
LINE
8
BLACK
6
CONTINUOUS
10
5.6204133464566928
20
-3.3898331102362205
11
5.6205022047244091
21
-3.3898699212598427
0
LINE
8
BLACK
6
CONTINUOUS
10
5.6154327952755905
20
-3.3926362598425195
11
5.614161456692913
21
-3.3930335433070864
0
LINE
8
BLACK
6
CONTINUOUS
10
5.614161456692913
20
-3.3930335433070864
11
5.6130579527559057
21
-3.3937232677165352
0
LINE
8
BLACK
6
CONTINUOUS
10
5.6130579527559057
20
-3.3937232677165352
11
5.6125955511811023
21
-3.3945902755905513
0
LINE
8
BLACK
6
CONTINUOUS
10
5.6125955511811023
20
-3.3945902755905513
11
5.6125955511811023
21
-3.3954574015748031
0
LINE
8
BLACK
6
CONTINUOUS
10
5.6125955511811023
20
-3.3954574015748031
11
5.6259813779527557
21
-3.3954574015748031
0
LINE
8
BLACK
6
CONTINUOUS
10
5.6259813779527557
20
-3.3954574015748031
11
5.6259813779527557
21
-3.39459031496063
0
LINE
8
BLACK
6
CONTINUOUS
10
5.6259813779527557
20
-3.39459031496063
11
5.6255189370078735
21
-3.3937232677165352
0
LINE
8
BLACK
6
CONTINUOUS
10
5.6255189370078735
20
-3.3937232677165352
11
5.6244154330708662
21
-3.3930335433070864
0
LINE
8
BLACK
6
CONTINUOUS
10
5.6244154330708662
20
-3.3930335433070864
11
5.6231441732283463
21
-3.3926362598425195
0
LINE
8
BLACK
6
CONTINUOUS
10
5.6231441732283463
20
-3.3926362598425195
11
5.6203217322834647
21
-3.3921953149606296
0
LINE
8
BLACK
6
CONTINUOUS
10
5.6203217322834647
20
-3.3921953149606296
11
5.6182552362204721
21
-3.3921953149606296
0
LINE
8
BLACK
6
CONTINUOUS
10
5.6182552362204721
20
-3.3921953149606296
11
5.6154327952755905
21
-3.3926362598425195
0
LINE
8
BLACK
6
CONTINUOUS
10
5.6279976377952758
20
-3.3808051968503938
11
5.6283435826771653
21
-3.3816403543307088
0
LINE
8
BLACK
6
CONTINUOUS
10
5.6283435826771653
20
-3.3816403543307088
11
5.6283435826771653
21
-3.3872646456692914
0
LINE
8
BLACK
6
CONTINUOUS
10
5.6283435826771653
20
-3.3872646456692914
11
5.6279976377952758
21
-3.3880998031496063
0
LINE
8
BLACK
6
CONTINUOUS
10
5.6279976377952758
20
-3.3880998031496063
11
5.6271624803149605
21
-3.3884457480314958
0
LINE
8
BLACK
6
CONTINUOUS
10
5.6271624803149605
20
-3.3884457480314958
11
5.626327322834646
21
-3.3880998031496063
0
LINE
8
BLACK
6
CONTINUOUS
10
5.626327322834646
20
-3.3880998031496063
11
5.6259813779527557
21
-3.3872646456692914
0
LINE
8
BLACK
6
CONTINUOUS
10
5.6259813779527557
20
-3.3872646456692914
11
5.6259813779527557
21
-3.3856336220472438
0
LINE
8
BLACK
6
CONTINUOUS
10
5.6259813779527557
20
-3.3856336220472438
11
5.6161216141732284
21
-3.3856336220472438
0
LINE
8
BLACK
6
CONTINUOUS
10
5.6161216141732284
20
-3.3856336220472438
11
5.6168361811023617
21
-3.386526811023622
0
LINE
8
BLACK
6
CONTINUOUS
10
5.6168361811023617
20
-3.386526811023622
11
5.6170877559055121
21
-3.3873950393700785
0
LINE
8
BLACK
6
CONTINUOUS
10
5.6170877559055121
20
-3.3873950393700785
11
5.6166517322834641
21
-3.388186929133858
0
LINE
8
BLACK
6
CONTINUOUS
10
5.6166517322834641
20
-3.388186929133858
11
5.6157835039370081
21
-3.388438503937008
0
LINE
8
BLACK
6
CONTINUOUS
10
5.6157835039370081
20
-3.388438503937008
11
5.6149916141732286
21
-3.3880024803149604
0
LINE
8
BLACK
6
CONTINUOUS
10
5.6149916141732286
20
-3.3880024803149604
11
5.6143673622047245
21
-3.3872222047244094
0
LINE
8
BLACK
6
CONTINUOUS
10
5.6143673622047245
20
-3.3872222047244094
11
5.6131204724409445
21
-3.386442874015748
0
LINE
8
BLACK
6
CONTINUOUS
10
5.6131204724409445
20
-3.386442874015748
11
5.6109601968503933
21
-3.3855427559055116
0
LINE
8
BLACK
6
CONTINUOUS
10
5.6109601968503933
20
-3.3855427559055116
11
5.610795236220472
21
-3.385377125984252
0
LINE
8
BLACK
6
CONTINUOUS
10
5.610795236220472
20
-3.385377125984252
11
5.6105792913385821
21
-3.3852876771653544
0
LINE
8
BLACK
6
CONTINUOUS
10
5.6105792913385821
20
-3.3852876771653544
11
5.6104888976377953
21
-3.3850695275590552
0
LINE
8
BLACK
6
CONTINUOUS
10
5.6104888976377953
20
-3.3850695275590552
11
5.6103223228346453
21
-3.384902244094488
0
LINE
8
BLACK
6
CONTINUOUS
10
5.6103223228346453
20
-3.384902244094488
11
5.6103227952755903
21
-3.3846684645669289
0
LINE
8
BLACK
6
CONTINUOUS
10
5.6103227952755903
20
-3.3846684645669289
11
5.6102333464566927
21
-3.3844525196850395
0
LINE
8
BLACK
6
CONTINUOUS
10
5.6102333464566927
20
-3.3844525196850395
11
5.6103237007874016
21
-3.3842343307086615
0
LINE
8
BLACK
6
CONTINUOUS
10
5.6103237007874016
20
-3.3842343307086615
11
5.6103242125984254
21
-3.3839982677165352
0
LINE
8
BLACK
6
CONTINUOUS
10
5.6103242125984254
20
-3.3839982677165352
11
5.6104898031496058
21
-3.383833307086614
0
LINE
8
BLACK
6
CONTINUOUS
10
5.6104898031496058
20
-3.383833307086614
11
5.6105792913385821
21
-3.3836173622047245
0
LINE
8
BLACK
6
CONTINUOUS
10
5.6105792913385821
20
-3.3836173622047245
11
5.6107974015748034
21
-3.3835269685039369
0
LINE
8
BLACK
6
CONTINUOUS
10
5.6107974015748034
20
-3.3835269685039369
11
5.6109647244094489
21
-3.3833603937007872
0
LINE
8
BLACK
6
CONTINUOUS
10
5.6109647244094489
20
-3.3833603937007872
11
5.6111984645669288
21
-3.3833608661417323
0
LINE
8
BLACK
6
CONTINUOUS
10
5.6111984645669288
20
-3.3833608661417323
11
5.6114144488188975
21
-3.3832714173228347
0
LINE
8
BLACK
6
CONTINUOUS
10
5.6114144488188975
20
-3.3832714173228347
11
5.6259813779527557
21
-3.3832714173228347
0
LINE
8
BLACK
6
CONTINUOUS
10
5.6259813779527557
20
-3.3832714173228347
11
5.6259813779527557
21
-3.3816403543307088
0
LINE
8
BLACK
6
CONTINUOUS
10
5.6259813779527557
20
-3.3816403543307088
11
5.626327322834646
21
-3.3808051968503938
0
LINE
8
BLACK
6
CONTINUOUS
10
5.626327322834646
20
-3.3808051968503938
11
5.6271624803149605
21
-3.3804592519685039
0
LINE
8
BLACK
6
CONTINUOUS
10
5.6271624803149605
20
-3.3804592519685039
11
5.6279976377952758
21
-3.3808051968503938
0
LINE
8
BLACK
6
CONTINUOUS
10
5.6212520866141729
20
-3.3711222440944879
11
5.6213455511811024
21
-3.3710996062992127
0
LINE
8
BLACK
6
CONTINUOUS
10
5.6213455511811024
20
-3.3710996062992127
11
5.6243451968503937
21
-3.3715683070866143
0
LINE
8
BLACK
6
CONTINUOUS
10
5.6243451968503937
20
-3.3715683070866143
11
5.6244236220472441
21
-3.3716161417322832
0
LINE
8
BLACK
6
CONTINUOUS
10
5.6244236220472441
20
-3.3716161417322832
11
5.6245151574803147
21
-3.3716079133858265
0
LINE
8
BLACK
6
CONTINUOUS
10
5.6245151574803147
20
-3.3716079133858265
11
5.6260149999999998
21
-3.3720766141732281
0
LINE
8
BLACK
6
CONTINUOUS
10
5.6260149999999998
20
-3.3720766141732281
11
5.6261347637795271
21
-3.3721765748031496
0
LINE
8
BLACK
6
CONTINUOUS
10
5.6261347637795271
20
-3.3721765748031496
11
5.6262886614173224
21
-3.3722023622047241
0
LINE
8
BLACK
6
CONTINUOUS
10
5.6262886614173224
20
-3.3722023622047241
11
5.6270385826771649
21
-3.3726710629921257
0
LINE
8
BLACK
6
CONTINUOUS
10
5.6270385826771649
20
-3.3726710629921257
11
5.6271566535433069
21
-3.372836653543307
0
LINE
8
BLACK
6
CONTINUOUS
10
5.6271566535433069
20
-3.372836653543307
11
5.6273348818897633
21
-3.3729348031496063
0
LINE
8
BLACK
6
CONTINUOUS
10
5.6273348818897633
20
-3.3729348031496063
11
5.628084763779527
21
-3.3738721653543307
0
LINE
8
BLACK
6
CONTINUOUS
10
5.628084763779527
20
-3.3738721653543307
11
5.6281937007874019
21
-3.3742481889763778
0
LINE
8
BLACK
6
CONTINUOUS
10
5.6281937007874019
20
-3.3742481889763778
11
5.6283435826771653
21
-3.3746100000000001
0
LINE
8
BLACK
6
CONTINUOUS
10
5.6283435826771653
20
-3.3746100000000001
11
5.6283435826771653
21
-3.3755474015748033
0
LINE
8
BLACK
6
CONTINUOUS
10
5.6283435826771653
20
-3.3755474015748033
11
5.6281937007874019
21
-3.3759091732283464
0
LINE
8
BLACK
6
CONTINUOUS
10
5.6281937007874019
20
-3.3759091732283464
11
5.628084763779527
21
-3.3762852362204723
0
LINE
8
BLACK
6
CONTINUOUS
10
5.628084763779527
20
-3.3762852362204723
11
5.6273348818897633
21
-3.3772225984251967
0
LINE
8
BLACK
6
CONTINUOUS
10
5.6273348818897633
20
-3.3772225984251967
11
5.6271566535433069
21
-3.3773207086614172
0
LINE
8
BLACK
6
CONTINUOUS
10
5.6271566535433069
20
-3.3773207086614172
11
5.6270385826771649
21
-3.3774863385826772
0
LINE
8
BLACK
6
CONTINUOUS
10
5.6270385826771649
20
-3.3774863385826772
11
5.6262886614173224
21
-3.3779550393700788
0
LINE
8
BLACK
6
CONTINUOUS
10
5.6262886614173224
20
-3.3779550393700788
11
5.6261347637795271
21
-3.3779807874015746
0
LINE
8
BLACK
6
CONTINUOUS
10
5.6261347637795271
20
-3.3779807874015746
11
5.6260149999999998
21
-3.3780807874015748
0
LINE
8
BLACK
6
CONTINUOUS
10
5.6260149999999998
20
-3.3780807874015748
11
5.6245151574803147
21
-3.3785494881889764
0
LINE
8
BLACK
6
CONTINUOUS
10
5.6245151574803147
20
-3.3785494881889764
11
5.6244236220472441
21
-3.378541220472441
0
LINE
8
BLACK
6
CONTINUOUS
10
5.6244236220472441
20
-3.378541220472441
11
5.6243451968503937
21
-3.3785890944881891
0
LINE
8
BLACK
6
CONTINUOUS
10
5.6243451968503937
20
-3.3785890944881891
11
5.6213455511811024
21
-3.3790577559055119
0
LINE
8
BLACK
6
CONTINUOUS
10
5.6213455511811024
20
-3.3790577559055119
11
5.6212520866141729
21
-3.3790350787401575
0
LINE
8
BLACK
6
CONTINUOUS
10
5.6212520866141729
20
-3.3790350787401575
11
5.6211632283464565
21
-3.379071929133858
0
LINE
8
BLACK
6
CONTINUOUS
10
5.6211632283464565
20
-3.379071929133858
11
5.6174137007874014
21
-3.379071929133858
0
LINE
8
BLACK
6
CONTINUOUS
10
5.6174137007874014
20
-3.379071929133858
11
5.6173248031496064
21
-3.3790350787401575
0
LINE
8
BLACK
6
CONTINUOUS
10
5.6173248031496064
20
-3.3790350787401575
11
5.6172313779527556
21
-3.3790577559055119
0
LINE
8
BLACK
6
CONTINUOUS
10
5.6172313779527556
20
-3.3790577559055119
11
5.614231771653543
21
-3.3785890944881891
0
LINE
8
BLACK
6
CONTINUOUS
10
5.614231771653543
20
-3.3785890944881891
11
5.6141533070866139
21
-3.378541220472441
0
LINE
8
BLACK
6
CONTINUOUS
10
5.6141533070866139
20
-3.378541220472441
11
5.614061811023622
21
-3.3785494881889764
0
LINE
8
BLACK
6
CONTINUOUS
10
5.614061811023622
20
-3.3785494881889764
11
5.612561968503937
21
-3.3780807874015748
0
LINE
8
BLACK
6
CONTINUOUS
10
5.612561968503937
20
-3.3780807874015748
11
5.6124421259842521
21
-3.3779807480314958
0
LINE
8
BLACK
6
CONTINUOUS
10
5.6124421259842521
20
-3.3779807480314958
11
5.6122882283464568
21
-3.377955
0
LINE
8
BLACK
6
CONTINUOUS
10
5.6122882283464568
20
-3.377955
11
5.611538346456693
21
-3.3774863385826772
0
LINE
8
BLACK
6
CONTINUOUS
10
5.611538346456693
20
-3.3774863385826772
11
5.6114201968503936
21
-3.3773206692913385
0
LINE
8
BLACK
6
CONTINUOUS
10
5.6114201968503936
20
-3.3773206692913385
11
5.6112420866141735
21
-3.3772225984251967
0
LINE
8
BLACK
6
CONTINUOUS
10
5.6112420866141735
20
-3.3772225984251967
11
5.6104921653543309
21
-3.3762852362204723
0
LINE
8
BLACK
6
CONTINUOUS
10
5.6104921653543309
20
-3.3762852362204723
11
5.6103831889763782
21
-3.3759091338582676
0
LINE
8
BLACK
6
CONTINUOUS
10
5.6103831889763782
20
-3.3759091338582676
11
5.6102333464566927
21
-3.3755474015748033
0
LINE
8
BLACK
6
CONTINUOUS
10
5.6102333464566927
20
-3.3755474015748033
11
5.6102333464566927
21
-3.3746100000000001
0
LINE
8
BLACK
6
CONTINUOUS
10
5.6102333464566927
20
-3.3746100000000001
11
5.6103831889763782
21
-3.3742482283464565
0
LINE
8
BLACK
6
CONTINUOUS
10
5.6103831889763782
20
-3.3742482283464565
11
5.6104921653543309
21
-3.3738721653543307
0
LINE
8
BLACK
6
CONTINUOUS
10
5.6104921653543309
20
-3.3738721653543307
11
5.6112420866141735
21
-3.3729348031496063
0
LINE
8
BLACK
6
CONTINUOUS
10
5.6112420866141735
20
-3.3729348031496063
11
5.6114201968503936
21
-3.3728366929133857
0
LINE
8
BLACK
6
CONTINUOUS
10
5.6114201968503936
20
-3.3728366929133857
11
5.611538346456693
21
-3.3726710629921257
0
LINE
8
BLACK
6
CONTINUOUS
10
5.611538346456693
20
-3.3726710629921257
11
5.6122882283464568
21
-3.3722024015748029
0
LINE
8
BLACK
6
CONTINUOUS
10
5.6122882283464568
20
-3.3722024015748029
11
5.6124421259842521
21
-3.3721766141732283
0
LINE
8
BLACK
6
CONTINUOUS
10
5.6124421259842521
20
-3.3721766141732283
11
5.612561968503937
21
-3.3720766141732281
0
LINE
8
BLACK
6
CONTINUOUS
10
5.612561968503937
20
-3.3720766141732281
11
5.614061811023622
21
-3.3716079133858265
0
LINE
8
BLACK
6
CONTINUOUS
10
5.614061811023622
20
-3.3716079133858265
11
5.6141533070866139
21
-3.3716161417322832
0
LINE
8
BLACK
6
CONTINUOUS
10
5.6141533070866139
20
-3.3716161417322832
11
5.614231771653543
21
-3.3715683070866143
0
LINE
8
BLACK
6
CONTINUOUS
10
5.614231771653543
20
-3.3715683070866143
11
5.6172313385826769
21
-3.3710996062992127
0
LINE
8
BLACK
6
CONTINUOUS
10
5.6172313385826769
20
-3.3710996062992127
11
5.6173248031496064
21
-3.3711222440944879
0
LINE
8
BLACK
6
CONTINUOUS
10
5.6173248031496064
20
-3.3711222440944879
11
5.6174137007874014
21
-3.3710854330708662
0
LINE
8
BLACK
6
CONTINUOUS
10
5.6174137007874014
20
-3.3710854330708662
11
5.6211632283464565
21
-3.3710854330708662
0
LINE
8
BLACK
6
CONTINUOUS
10
5.6211632283464565
20
-3.3710854330708662
11
5.6212520866141729
21
-3.3711222440944879
0
LINE
8
BLACK
6
CONTINUOUS
10
5.6146828346456692
20
-3.3738886220472439
11
5.6134115354330705
21
-3.3742859055118108
0
LINE
8
BLACK
6
CONTINUOUS
10
5.6134115354330705
20
-3.3742859055118108
11
5.6129609055118106
21
-3.3745675984251968
0
LINE
8
BLACK
6
CONTINUOUS
10
5.6129609055118106
20
-3.3745675984251968
11
5.6125955511811023
21
-3.3750242913385824
0
LINE
8
BLACK
6
CONTINUOUS
10
5.6125955511811023
20
-3.3750242913385824
11
5.6125955511811023
21
-3.3751330708661418
0
LINE
8
BLACK
6
CONTINUOUS
10
5.6125955511811023
20
-3.3751330708661418
11
5.6129609055118106
21
-3.3755897637795274
0
LINE
8
BLACK
6
CONTINUOUS
10
5.6129609055118106
20
-3.3755897637795274
11
5.6134115354330705
21
-3.3758714566929133
0
LINE
8
BLACK
6
CONTINUOUS
10
5.6134115354330705
20
-3.3758714566929133
11
5.6146828346456692
21
-3.3762687401574802
0
LINE
8
BLACK
6
CONTINUOUS
10
5.6146828346456692
20
-3.3762687401574802
11
5.6175053149606295
21
-3.3767097244094488
0
LINE
8
BLACK
6
CONTINUOUS
10
5.6175053149606295
20
-3.3767097244094488
11
5.6210716141732284
21
-3.3767097244094488
0
LINE
8
BLACK
6
CONTINUOUS
10
5.6210716141732284
20
-3.3767097244094488
11
5.6238940944881888
21
-3.3762687401574802
0
LINE
8
BLACK
6
CONTINUOUS
10
5.6238940944881888
20
-3.3762687401574802
11
5.6251653543307087
21
-3.3758714566929133
0
LINE
8
BLACK
6
CONTINUOUS
10
5.6251653543307087
20
-3.3758714566929133
11
5.6256159842519686
21
-3.3755898031496061
0
LINE
8
BLACK
6
CONTINUOUS
10
5.6256159842519686
20
-3.3755898031496061
11
5.6259813779527557
21
-3.3751330708661418
0
LINE
8
BLACK
6
CONTINUOUS
10
5.6259813779527557
20
-3.3751330708661418
11
5.6259813779527557
21
-3.3750242913385824
0
LINE
8
BLACK
6
CONTINUOUS
10
5.6259813779527557
20
-3.3750242913385824
11
5.6256159842519686
21
-3.3745675590551181
0
LINE
8
BLACK
6
CONTINUOUS
10
5.6256159842519686
20
-3.3745675590551181
11
5.6251653543307087
21
-3.3742859055118108
0
LINE
8
BLACK
6
CONTINUOUS
10
5.6251653543307087
20
-3.3742859055118108
11
5.6238941338582675
21
-3.3738886614173227
0
LINE
8
BLACK
6
CONTINUOUS
10
5.6238941338582675
20
-3.3738886614173227
11
5.6210716141732284
21
-3.3734476377952753
0
LINE
8
BLACK
6
CONTINUOUS
10
5.6210716141732284
20
-3.3734476377952753
11
5.6175053149606295
21
-3.3734476377952753
0
LINE
8
BLACK
6
CONTINUOUS
10
5.6175053149606295
20
-3.3734476377952753
11
5.6146828346456692
21
-3.3738886220472439
0
LINE
8
BLACK
6
CONTINUOUS
10
5.6279976377952758
20
-3.3620575590551178
11
5.6283435826771653
21
-3.3628927165354332
0
LINE
8
BLACK
6
CONTINUOUS
10
5.6283435826771653
20
-3.3628927165354332
11
5.6283435826771653
21
-3.3685170078740159
0
LINE
8
BLACK
6
CONTINUOUS
10
5.6283435826771653
20
-3.3685170078740159
11
5.6279976377952758
21
-3.3693521653543308
0
LINE
8
BLACK
6
CONTINUOUS
10
5.6279976377952758
20
-3.3693521653543308
11
5.6271624803149605
21
-3.3696981102362202
0
LINE
8
BLACK
6
CONTINUOUS
10
5.6271624803149605
20
-3.3696981102362202
11
5.626327322834646
21
-3.3693521653543308
0
LINE
8
BLACK
6
CONTINUOUS
10
5.626327322834646
20
-3.3693521653543308
11
5.6259813779527557
21
-3.3685170078740159
0
LINE
8
BLACK
6
CONTINUOUS
10
5.6259813779527557
20
-3.3685170078740159
11
5.6259813779527557
21
-3.3668859842519683
0
LINE
8
BLACK
6
CONTINUOUS
10
5.6259813779527557
20
-3.3668859842519683
11
5.6161216141732284
21
-3.3668859842519683
0
LINE
8
BLACK
6
CONTINUOUS
10
5.6161216141732284
20
-3.3668859842519683
11
5.6168361811023617
21
-3.3677791732283464
0
LINE
8
BLACK
6
CONTINUOUS
10
5.6168361811023617
20
-3.3677791732283464
11
5.6170877559055121
21
-3.3686474015748029
0
LINE
8
BLACK
6
CONTINUOUS
10
5.6170877559055121
20
-3.3686474015748029
11
5.6166517322834641
21
-3.3694392913385824
0
LINE
8
BLACK
6
CONTINUOUS
10
5.6166517322834641
20
-3.3694392913385824
11
5.6157835039370081
21
-3.3696908661417324
0
LINE
8
BLACK
6
CONTINUOUS
10
5.6157835039370081
20
-3.3696908661417324
11
5.6149916141732286
21
-3.3692548425196849
0
LINE
8
BLACK
6
CONTINUOUS
10
5.6149916141732286
20
-3.3692548425196849
11
5.6143673622047245
21
-3.3684745669291338
0
LINE
8
BLACK
6
CONTINUOUS
10
5.6143673622047245
20
-3.3684745669291338
11
5.6131204724409445
21
-3.3676952362204724
0
LINE
8
BLACK
6
CONTINUOUS
10
5.6131204724409445
20
-3.3676952362204724
11
5.6109601968503933
21
-3.366795118110236
0
LINE
8
BLACK
6
CONTINUOUS
10
5.6109601968503933
20
-3.366795118110236
11
5.610795236220472
21
-3.3666294881889764
0
LINE
8
BLACK
6
CONTINUOUS
10
5.610795236220472
20
-3.3666294881889764
11
5.6105792913385821
21
-3.3665400393700788
0
LINE
8
BLACK
6
CONTINUOUS
10
5.6105792913385821
20
-3.3665400393700788
11
5.6104888976377953
21
-3.3663218897637797
0
LINE
8
BLACK
6
CONTINUOUS
10
5.6104888976377953
20
-3.3663218897637797
11
5.6103223228346453
21
-3.3661546062992125
0
LINE
8
BLACK
6
CONTINUOUS
10
5.6103223228346453
20
-3.3661546062992125
11
5.6103227952755903
21
-3.3659208267716534
0
LINE
8
BLACK
6
CONTINUOUS
10
5.6103227952755903
20
-3.3659208267716534
11
5.6102333464566927
21
-3.3657048818897639
0
LINE
8
BLACK
6
CONTINUOUS
10
5.6102333464566927
20
-3.3657048818897639
11
5.6103237007874016
21
-3.3654866929133855
0
LINE
8
BLACK
6
CONTINUOUS
10
5.6103237007874016
20
-3.3654866929133855
11
5.6103242125984254
21
-3.3652506299212597
0
LINE
8
BLACK
6
CONTINUOUS
10
5.6103242125984254
20
-3.3652506299212597
11
5.6104898031496058
21
-3.3650856692913385
0
LINE
8
BLACK
6
CONTINUOUS
10
5.6104898031496058
20
-3.3650856692913385
11
5.6105792913385821
21
-3.3648697244094485
0
LINE
8
BLACK
6
CONTINUOUS
10
5.6105792913385821
20
-3.3648697244094485
11
5.6107974015748034
21
-3.3647793307086613
0
LINE
8
BLACK
6
CONTINUOUS
10
5.6107974015748034
20
-3.3647793307086613
11
5.6109647244094489
21
-3.3646127559055117
0
LINE
8
BLACK
6
CONTINUOUS
10
5.6109647244094489
20
-3.3646127559055117
11
5.6111984645669288
21
-3.3646132283464567
0
LINE
8
BLACK
6
CONTINUOUS
10
5.6111984645669288
20
-3.3646132283464567
11
5.6114144488188975
21
-3.3645237795275591
0
LINE
8
BLACK
6
CONTINUOUS
10
5.6114144488188975
20
-3.3645237795275591
11
5.6259813779527557
21
-3.3645237795275591
0
LINE
8
BLACK
6
CONTINUOUS
10
5.6259813779527557
20
-3.3645237795275591
11
5.6259813779527557
21
-3.3628927165354332
0
LINE
8
BLACK
6
CONTINUOUS
10
5.6259813779527557
20
-3.3628927165354332
11
5.626327322834646
21
-3.3620575590551178
0
LINE
8
BLACK
6
CONTINUOUS
10
5.626327322834646
20
-3.3620575590551178
11
5.6271624803149605
21
-3.3617116141732284
0
LINE
8
BLACK
6
CONTINUOUS
10
5.6271624803149605
20
-3.3617116141732284
11
5.6279976377952758
21
-3.3620575590551178
0
LINE
8
BLACK
6
CONTINUOUS
10
5.6357480314960631
20
-3.3465354330708661
11
5.6371399606299208
21
-3.3471120078740157
0
LINE
8
BLACK
6
CONTINUOUS
10
5.6371399606299208
20
-3.3471120078740157
11
5.6377165354330705
21
-3.348503937007874
0
LINE
8
BLACK
6
CONTINUOUS
10
5.6377165354330705
20
-3.348503937007874
11
5.6377165354330705
21
-3.4114960629921258
0
LINE
8
BLACK
6
CONTINUOUS
10
5.6377165354330705
20
-3.4114960629921258
11
5.6371399606299208
21
-3.412887992125984
0
LINE
8
BLACK
6
CONTINUOUS
10
5.6371399606299208
20
-3.412887992125984
11
5.6357480314960631
21
-3.4134645669291337
0
LINE
8
BLACK
6
CONTINUOUS
10
5.6357480314960631
20
-3.4134645669291337
11
5.6160629921259844
21
-3.4134645669291337
0
LINE
8
BLACK
6
CONTINUOUS
10
5.6160629921259844
20
-3.4134645669291337
11
5.6146710629921257
21
-3.412887992125984
0
LINE
8
BLACK
6
CONTINUOUS
10
5.6146710629921257
20
-3.412887992125984
11
5.6028600393700785
21
-3.4010769685039368
0
LINE
8
BLACK
6
CONTINUOUS
10
5.6028600393700785
20
-3.4010769685039368
11
5.6022834645669288
21
-3.3996850393700786
0
LINE
8
BLACK
6
CONTINUOUS
10
5.6022834645669288
20
-3.3996850393700786
11
5.6022834645669288
21
-3.348503937007874
0
LINE
8
BLACK
6
CONTINUOUS
10
5.6022834645669288
20
-3.348503937007874
11
5.6028600393700785
21
-3.3471120078740157
0
LINE
8
BLACK
6
CONTINUOUS
10
5.6028600393700785
20
-3.3471120078740157
11
5.6042519685039371
21
-3.3465354330708661
0
LINE
8
BLACK
6
CONTINUOUS
10
5.6042519685039371
20
-3.3465354330708661
11
5.6357480314960631
21
-3.3465354330708661
0
LINE
8
BLACK
6
CONTINUOUS
10
5.6062204724409446
20
-3.3504724409448818
11
5.6062204724409446
21
-3.39886968503937
0
LINE
8
BLACK
6
CONTINUOUS
10
5.6062204724409446
20
-3.39886968503937
11
5.6168783464566925
21
-3.409527559055118
0
LINE
8
BLACK
6
CONTINUOUS
10
5.6168783464566925
20
-3.409527559055118
11
5.6337795275590548
21
-3.409527559055118
0
LINE
8
BLACK
6
CONTINUOUS
10
5.6337795275590548
20
-3.409527559055118
11
5.6337795275590548
21
-3.3504724409448818
0
LINE
8
BLACK
6
CONTINUOUS
10
5.6337795275590548
20
-3.3504724409448818
11
5.6062204724409446
21
-3.3504724409448818
0
LINE
8
BLACK
6
CONTINUOUS
10
5.5163203149606295
20
-3.3787735826771654
11
5.517222086614173
21
-3.3792618503937009
0
LINE
8
BLACK
6
CONTINUOUS
10
5.517222086614173
20
-3.3792618503937009
11
5.5172665748031493
21
-3.3793342913385827
0
LINE
8
BLACK
6
CONTINUOUS
10
5.5172665748031493
20
-3.3793342913385827
11
5.5173456299212598
21
-3.3793655511811025
0
LINE
8
BLACK
6
CONTINUOUS
10
5.5173456299212598
20
-3.3793655511811025
11
5.5177903543307085
21
-3.3801868503937009
0
LINE
8
BLACK
6
CONTINUOUS
10
5.5177903543307085
20
-3.3801868503937009
11
5.5182793700787398
21
-3.3809828346456694
0
LINE
8
BLACK
6
CONTINUOUS
10
5.5182793700787398
20
-3.3809828346456694
11
5.5182668897637797
21
-3.3810668897637797
0
LINE
8
BLACK
6
CONTINUOUS
10
5.5182668897637797
20
-3.3810668897637797
11
5.5183074015748028
21
-3.3811416929133857
0
LINE
8
BLACK
6
CONTINUOUS
10
5.5183074015748028
20
-3.3811416929133857
11
5.5181200787401572
21
-3.382056811023622
0
LINE
8
BLACK
6
CONTINUOUS
10
5.5181200787401572
20
-3.382056811023622
11
5.5179831102362202
21
-3.3829807874015749
0
LINE
8
BLACK
6
CONTINUOUS
10
5.5179831102362202
20
-3.3829807874015749
11
5.5179194488188976
21
-3.3830372047244093
0
LINE
8
BLACK
6
CONTINUOUS
10
5.5179194488188976
20
-3.3830372047244093
11
5.5179024409448818
21
-3.3831204724409449
0
LINE
8
BLACK
6
CONTINUOUS
10
5.5179024409448818
20
-3.3831204724409449
11
5.5171707480314955
21
-3.3837011023622048
0
LINE
8
BLACK
6
CONTINUOUS
10
5.5171707480314955
20
-3.3837011023622048
11
5.5164718503937005
21
-3.3843208661417323
0
LINE
8
BLACK
6
CONTINUOUS
10
5.5164718503937005
20
-3.3843208661417323
11
5.5163868897637798
21
-3.3843231496062991
0
LINE
8
BLACK
6
CONTINUOUS
10
5.5163868897637798
20
-3.3843231496062991
11
5.5163203149606295
21
-3.384376023622047
0
LINE
8
BLACK
6
CONTINUOUS
10
5.5163203149606295
20
-3.384376023622047
11
5.4769502362204721
21
-3.3974993700787399
0
LINE
8
BLACK
6
CONTINUOUS
10
5.4769502362204721
20
-3.3974993700787399
11
5.4759358267716536
21
-3.3976498031496063
0
LINE
8
BLACK
6
CONTINUOUS
10
5.4759358267716536
20
-3.3976498031496063
11
5.4740574409448817
21
-3.3969074015748029
0
LINE
8
BLACK
6
CONTINUOUS
10
5.4740574409448817
20
-3.3969074015748029
11
5.4730956692913386
21
-3.3951312598425196
0
LINE
8
BLACK
6
CONTINUOUS
10
5.4730956692913386
20
-3.3951312598425196
11
5.4735006299212596
21
-3.3931524803149604
0
LINE
8
BLACK
6
CONTINUOUS
10
5.4735006299212596
20
-3.3931524803149604
11
5.475082755905512
21
-3.3918969291338583
0
LINE
8
BLACK
6
CONTINUOUS
10
5.475082755905512
20
-3.3918969291338583
11
5.5060491338582676
21
-3.381574803149606
0
LINE
8
BLACK
6
CONTINUOUS
10
5.5060491338582676
20
-3.381574803149606
11
5.475082755905512
21
-3.3712526771653542
0
LINE
8
BLACK
6
CONTINUOUS
10
5.475082755905512
20
-3.3712526771653542
11
5.4741809842519684
21
-3.37076437007874
0
LINE
8
BLACK
6
CONTINUOUS
10
5.4741809842519684
20
-3.37076437007874
11
5.4731237007874016
21
-3.3690434251968502
0
LINE
8
BLACK
6
CONTINUOUS
10
5.4731237007874016
20
-3.3690434251968502
11
5.4734199606299212
21
-3.3670454330708659
0
LINE
8
BLACK
6
CONTINUOUS
10
5.4734199606299212
20
-3.3670454330708659
11
5.4749311811023622
21
-3.3657053937007873
0
LINE
8
BLACK
6
CONTINUOUS
10
5.4749311811023622
20
-3.3657053937007873
11
5.4769502362204721
21
-3.3656502362204725
0
LINE
8
BLACK
6
CONTINUOUS
10
5.4769502362204721
20
-3.3656502362204725
11
5.5163203149606295
21
-3.3787735826771654
0
LINE
8
BLACK
6
CONTINUOUS
10
5.6689686614173231
20
-3.3594150393700786
11
5.669103897637795
21
-3.3595285039370077
0
LINE
8
BLACK
6
CONTINUOUS
10
5.669103897637795
20
-3.3595285039370077
11
5.6692792519685042
21
-3.3595487007874016
0
LINE
8
BLACK
6
CONTINUOUS
10
5.6692792519685042
20
-3.3595487007874016
11
5.6730287795275594
21
-3.3614234645669292
0
LINE
8
BLACK
6
CONTINUOUS
10
5.6730287795275594
20
-3.3614234645669292
11
5.6737378346456691
21
-3.3619493700787402
0
LINE
8
BLACK
6
CONTINUOUS
10
5.6737378346456691
20
-3.3619493700787402
11
5.6737961811023618
21
-3.3619765748031494
0
LINE
8
BLACK
6
CONTINUOUS
10
5.6737961811023618
20
-3.3619765748031494
11
5.6756709448818894
21
-3.3638513385826769
0
LINE
8
BLACK
6
CONTINUOUS
10
5.6756709448818894
20
-3.3638513385826769
11
5.676177204724409
21
-3.364574409448819
0
LINE
8
BLACK
6
CONTINUOUS
10
5.676177204724409
20
-3.364574409448819
11
5.6762240551181105
21
-3.3646187401574803
0
LINE
8
BLACK
6
CONTINUOUS
10
5.6762240551181105
20
-3.3646187401574803
11
5.678098818897638
21
-3.3683682677165354
0
LINE
8
BLACK
6
CONTINUOUS
10
5.678098818897638
20
-3.3683682677165354
11
5.678391181102362
21
-3.369351181102362
0
LINE
8
BLACK
6
CONTINUOUS
10
5.678391181102362
20
-3.369351181102362
11
5.678350157480315
21
-3.3695228740157481
0
LINE
8
BLACK
6
CONTINUOUS
10
5.678350157480315
20
-3.3695228740157481
11
5.6783969291338581
21
-3.3696513779527559
0
LINE
8
BLACK
6
CONTINUOUS
10
5.6783969291338581
20
-3.3696513779527559
11
5.6925122047244097
21
-3.3597707086614172
0
LINE
8
BLACK
6
CONTINUOUS
10
5.6925122047244097
20
-3.3597707086614172
11
5.6934416535433066
21
-3.359337440944882
0
LINE
8
BLACK
6
CONTINUOUS
10
5.6934416535433066
20
-3.359337440944882
11
5.6954537401574798
21
-3.3595137795275591
0
LINE
8
BLACK
6
CONTINUOUS
10
5.6954537401574798
20
-3.3595137795275591
11
5.6968817716535431
21
-3.3609422047244095
0
LINE
8
BLACK
6
CONTINUOUS
10
5.6968817716535431
20
-3.3609422047244095
11
5.697057519685039
21
-3.3629543307086611
0
LINE
8
BLACK
6
CONTINUOUS
10
5.697057519685039
20
-3.3629543307086611
11
5.6958987795275586
21
-3.3646087007874015
0
LINE
8
BLACK
6
CONTINUOUS
10
5.6958987795275586
20
-3.3646087007874015
11
5.6784105511811021
21
-3.376850433070866
0
LINE
8
BLACK
6
CONTINUOUS
10
5.6784105511811021
20
-3.376850433070866
11
5.6784105511811021
21
-3.3817341338582678
0
LINE
8
BLACK
6
CONTINUOUS
10
5.6784105511811021
20
-3.3817341338582678
11
5.6942054724409443
21
-3.3817341338582678
0
LINE
8
BLACK
6
CONTINUOUS
10
5.6942054724409443
20
-3.3817341338582678
11
5.6952153937007877
21
-3.3819122047244092
0
LINE
8
BLACK
6
CONTINUOUS
10
5.6952153937007877
20
-3.3819122047244092
11
5.6967626377952758
21
-3.3832105118110234
0
LINE
8
BLACK
6
CONTINUOUS
10
5.6967626377952758
20
-3.3832105118110234
11
5.6971133858267713
21
-3.3851996456692914
0
LINE
8
BLACK
6
CONTINUOUS
10
5.6971133858267713
20
-3.3851996456692914
11
5.6961034645669288
21
-3.3869488188976375
0
LINE
8
BLACK
6
CONTINUOUS
10
5.6961034645669288
20
-3.3869488188976375
11
5.6942054724409443
21
-3.3876396456692914
0
LINE
8
BLACK
6
CONTINUOUS
10
5.6942054724409443
20
-3.3876396456692914
11
5.6548353937007869
21
-3.3876396456692914
0
LINE
8
BLACK
6
CONTINUOUS
10
5.6548353937007869
20
-3.3876396456692914
11
5.6544518503937002
21
-3.3875720078740157
0
LINE
8
BLACK
6
CONTINUOUS
10
5.6544518503937002
20
-3.3875720078740157
11
5.6543226377952758
21
-3.3875948031496064
0
LINE
8
BLACK
6
CONTINUOUS
10
5.6543226377952758
20
-3.3875948031496064
11
5.6542090157480311
21
-3.3875291732283466
0
LINE
8
BLACK
6
CONTINUOUS
10
5.6542090157480311
20
-3.3875291732283466
11
5.6538254724409445
21
-3.3874615748031496
0
LINE
8
BLACK
6
CONTINUOUS
10
5.6538254724409445
20
-3.3874615748031496
11
5.6532377559055114
21
-3.3869684251968502
0
LINE
8
BLACK
6
CONTINUOUS
10
5.6532377559055114
20
-3.3869684251968502
11
5.6525734645669292
21
-3.3865848818897639
0
LINE
8
BLACK
6
CONTINUOUS
10
5.6525734645669292
20
-3.3865848818897639
11
5.6524823228346452
21
-3.3863345275590548
0
LINE
8
BLACK
6
CONTINUOUS
10
5.6524823228346452
20
-3.3863345275590548
11
5.6522782283464563
21
-3.3861632677165354
0
LINE
8
BLACK
6
CONTINUOUS
10
5.6522782283464563
20
-3.3861632677165354
11
5.6521449606299212
21
-3.3854076771653543
0
LINE
8
BLACK
6
CONTINUOUS
10
5.6521449606299212
20
-3.3854076771653543
11
5.6518826377952758
21
-3.3846868897637794
0
LINE
8
BLACK
6
CONTINUOUS
10
5.6518826377952758
20
-3.3846868897637794
11
5.6518826377952758
21
-3.369688779527559
0
LINE
8
BLACK
6
CONTINUOUS
10
5.6518826377952758
20
-3.369688779527559
11
5.6520607086614172
21
-3.3686788582677165
0
LINE
8
BLACK
6
CONTINUOUS
10
5.6520607086614172
20
-3.3686788582677165
11
5.6521741732283459
21
-3.3685435826771655
0
LINE
8
BLACK
6
CONTINUOUS
10
5.6521741732283459
20
-3.3685435826771655
11
5.6521943700787398
21
-3.3683682677165354
0
LINE
8
BLACK
6
CONTINUOUS
10
5.6521943700787398
20
-3.3683682677165354
11
5.6540691338582674
21
-3.3646187401574803
0
LINE
8
BLACK
6
CONTINUOUS
10
5.6540691338582674
20
-3.3646187401574803
11
5.6545950393700783
21
-3.3639096456692914
0
LINE
8
BLACK
6
CONTINUOUS
10
5.6545950393700783
20
-3.3639096456692914
11
5.6546222440944884
21
-3.3638513385826769
0
LINE
8
BLACK
6
CONTINUOUS
10
5.6546222440944884
20
-3.3638513385826769
11
5.656497007874016
21
-3.3619765748031494
0
LINE
8
BLACK
6
CONTINUOUS
10
5.656497007874016
20
-3.3619765748031494
11
5.6572200787401572
21
-3.361470275590551
0
LINE
8
BLACK
6
CONTINUOUS
10
5.6572200787401572
20
-3.361470275590551
11
5.6572644094488185
21
-3.3614234645669292
0
LINE
8
BLACK
6
CONTINUOUS
10
5.6572644094488185
20
-3.3614234645669292
11
5.6610139370078736
21
-3.3595487007874016
0
LINE
8
BLACK
6
CONTINUOUS
10
5.6610139370078736
20
-3.3595487007874016
11
5.6619968503937006
21
-3.3592563385826772
0
LINE
8
BLACK
6
CONTINUOUS
10
5.6619968503937006
20
-3.3592563385826772
11
5.6621685433070867
21
-3.3592973228346454
0
LINE
8
BLACK
6
CONTINUOUS
10
5.6621685433070867
20
-3.3592973228346454
11
5.6623344488188971
21
-3.3592369685039367
0
LINE
8
BLACK
6
CONTINUOUS
10
5.6623344488188971
20
-3.3592369685039367
11
5.6679587401574798
21
-3.3592369685039367
0
LINE
8
BLACK
6
CONTINUOUS
10
5.6679587401574798
20
-3.3592369685039367
11
5.6689686614173231
21
-3.3594150393700786
0
LINE
8
BLACK
6
CONTINUOUS
10
5.6603340157480311
20
-3.3664912204724406
11
5.6591368897637793
21
-3.3676883464566929
0
LINE
8
BLACK
6
CONTINUOUS
10
5.6591368897637793
20
-3.3676883464566929
11
5.6577881496062989
21
-3.3703858267716535
0
LINE
8
BLACK
6
CONTINUOUS
10
5.6577881496062989
20
-3.3703858267716535
11
5.6577881496062989
21
-3.3817341338582678
0
LINE
8
BLACK
6
CONTINUOUS
10
5.6577881496062989
20
-3.3817341338582678
11
5.6725050393700789
21
-3.3817341338582678
0
LINE
8
BLACK
6
CONTINUOUS
10
5.6725050393700789
20
-3.3817341338582678
11
5.6725050393700789
21
-3.3703858267716535
0
LINE
8
BLACK
6
CONTINUOUS
10
5.6725050393700789
20
-3.3703858267716535
11
5.6711562992125986
21
-3.3676883464566929
0
LINE
8
BLACK
6
CONTINUOUS
10
5.6711562992125986
20
-3.3676883464566929
11
5.6699591732283467
21
-3.3664912204724406
0
LINE
8
BLACK
6
CONTINUOUS
10
5.6699591732283467
20
-3.3664912204724406
11
5.6672616929133861
21
-3.3651424803149608
0
LINE
8
BLACK
6
CONTINUOUS
10
5.6672616929133861
20
-3.3651424803149608
11
5.6630314960629917
21
-3.3651424803149608
0
LINE
8
BLACK
6
CONTINUOUS
10
5.6630314960629917
20
-3.3651424803149608
11
5.6603340157480311
21
-3.3664912204724406
0
LINE
8
BLACK
6
CONTINUOUS
10
5.517648503937008
20
-3.3346824409448819
11
5.5183393307086614
21
-3.3365804330708659
0
LINE
8
BLACK
6
CONTINUOUS
10
5.5183393307086614
20
-3.3365804330708659
11
5.5183393307086614
21
-3.3553280708661415
0
LINE
8
BLACK
6
CONTINUOUS
10
5.5183393307086614
20
-3.3553280708661415
11
5.5182716929133857
21
-3.3557115748031494
0
LINE
8
BLACK
6
CONTINUOUS
10
5.5182716929133857
20
-3.3557115748031494
11
5.5182944881889764
21
-3.3558408267716535
0
LINE
8
BLACK
6
CONTINUOUS
10
5.5182944881889764
20
-3.3558408267716535
11
5.5182288582677161
21
-3.355954409448819
0
LINE
8
BLACK
6
CONTINUOUS
10
5.5182288582677161
20
-3.355954409448819
11
5.5181612598425192
21
-3.3563379921259844
0
LINE
8
BLACK
6
CONTINUOUS
10
5.5181612598425192
20
-3.3563379921259844
11
5.5176681102362206
21
-3.3569256692913383
0
LINE
8
BLACK
6
CONTINUOUS
10
5.5176681102362206
20
-3.3569256692913383
11
5.5172845669291339
21
-3.3575900000000001
0
LINE
8
BLACK
6
CONTINUOUS
10
5.5172845669291339
20
-3.3575900000000001
11
5.5170342125984249
21
-3.3576811023622049
0
LINE
8
BLACK
6
CONTINUOUS
10
5.5170342125984249
20
-3.3576811023622049
11
5.516862952755905
21
-3.3578852362204725
0
LINE
8
BLACK
6
CONTINUOUS
10
5.516862952755905
20
-3.3578852362204725
11
5.5161073622047239
21
-3.3580184645669289
0
LINE
8
BLACK
6
CONTINUOUS
10
5.5161073622047239
20
-3.3580184645669289
11
5.5153865748031494
21
-3.3582808267716535
0
LINE
8
BLACK
6
CONTINUOUS
10
5.5153865748031494
20
-3.3582808267716535
11
5.476016496062992
21
-3.3582808267716535
0
LINE
8
BLACK
6
CONTINUOUS
10
5.476016496062992
20
-3.3582808267716535
11
5.4756329527559053
21
-3.3582131889763778
0
LINE
8
BLACK
6
CONTINUOUS
10
5.4756329527559053
20
-3.3582131889763778
11
5.47550374015748
21
-3.3582359842519685
0
LINE
8
BLACK
6
CONTINUOUS
10
5.47550374015748
20
-3.3582359842519685
11
5.4753901181102362
21
-3.3581703543307087
0
LINE
8
BLACK
6
CONTINUOUS
10
5.4753901181102362
20
-3.3581703543307087
11
5.4750065748031496
21
-3.3581027559055117
0
LINE
8
BLACK
6
CONTINUOUS
10
5.4750065748031496
20
-3.3581027559055117
11
5.4744188582677165
21
-3.3576096062992127
0
LINE
8
BLACK
6
CONTINUOUS
10
5.4744188582677165
20
-3.3576096062992127
11
5.4737545669291334
21
-3.357226062992126
0
LINE
8
BLACK
6
CONTINUOUS
10
5.4737545669291334
20
-3.357226062992126
11
5.4736634251968503
21
-3.3569757086614174
0
LINE
8
BLACK
6
CONTINUOUS
10
5.4736634251968503
20
-3.3569757086614174
11
5.4734593307086614
21
-3.3568044488188975
0
LINE
8
BLACK
6
CONTINUOUS
10
5.4734593307086614
20
-3.3568044488188975
11
5.4733260629921254
21
-3.3560488582677164
0
LINE
8
BLACK
6
CONTINUOUS
10
5.4733260629921254
20
-3.3560488582677164
11
5.47306374015748
21
-3.3553280708661415
0
LINE
8
BLACK
6
CONTINUOUS
10
5.47306374015748
20
-3.3553280708661415
11
5.47306374015748
21
-3.3365804330708659
0
LINE
8
BLACK
6
CONTINUOUS
10
5.47306374015748
20
-3.3365804330708659
11
5.4732418110236223
21
-3.3355705118110235
0
LINE
8
BLACK
6
CONTINUOUS
10
5.4732418110236223
20
-3.3355705118110235
11
5.4745401181102364
21
-3.3340232677165353
0
LINE
8
BLACK
6
CONTINUOUS
10
5.4745401181102364
20
-3.3340232677165353
11
5.476529251968504
21
-3.3336725196850394
0
LINE
8
BLACK
6
CONTINUOUS
10
5.476529251968504
20
-3.3336725196850394
11
5.4782784251968506
21
-3.3346824409448819
0
LINE
8
BLACK
6
CONTINUOUS
10
5.4782784251968506
20
-3.3346824409448819
11
5.478969251968504
21
-3.3365804330708659
0
LINE
8
BLACK
6
CONTINUOUS
10
5.478969251968504
20
-3.3365804330708659
11
5.478969251968504
21
-3.3523753149606299
0
LINE
8
BLACK
6
CONTINUOUS
10
5.478969251968504
20
-3.3523753149606299
11
5.4918113779527555
21
-3.3523753149606299
0
LINE
8
BLACK
6
CONTINUOUS
10
5.4918113779527555
20
-3.3523753149606299
11
5.4918113779527555
21
-3.3422047244094486
0
LINE
8
BLACK
6
CONTINUOUS
10
5.4918113779527555
20
-3.3422047244094486
11
5.4919894488188978
21
-3.3411948031496062
0
LINE
8
BLACK
6
CONTINUOUS
10
5.4919894488188978
20
-3.3411948031496062
11
5.493287755905512
21
-3.339647559055118
0
LINE
8
BLACK
6
CONTINUOUS
10
5.493287755905512
20
-3.339647559055118
11
5.4952768897637796
21
-3.3392968110236221
0
LINE
8
BLACK
6
CONTINUOUS
10
5.4952768897637796
20
-3.3392968110236221
11
5.4970260629921261
21
-3.3403067322834645
0
LINE
8
BLACK
6
CONTINUOUS
10
5.4970260629921261
20
-3.3403067322834645
11
5.4977168897637796
21
-3.3422047244094486
0
LINE
8
BLACK
6
CONTINUOUS
10
5.4977168897637796
20
-3.3422047244094486
11
5.4977168897637796
21
-3.3523753149606299
0
LINE
8
BLACK
6
CONTINUOUS
10
5.4977168897637796
20
-3.3523753149606299
11
5.5124338188976374
21
-3.3523753149606299
0
LINE
8
BLACK
6
CONTINUOUS
10
5.5124338188976374
20
-3.3523753149606299
11
5.5124338188976374
21
-3.3365804330708659
0
LINE
8
BLACK
6
CONTINUOUS
10
5.5124338188976374
20
-3.3365804330708659
11
5.5126118897637797
21
-3.3355705118110235
0
LINE
8
BLACK
6
CONTINUOUS
10
5.5126118897637797
20
-3.3355705118110235
11
5.5139101968503939
21
-3.3340232677165353
0
LINE
8
BLACK
6
CONTINUOUS
10
5.5139101968503939
20
-3.3340232677165353
11
5.5158993307086615
21
-3.3336725196850394
0
LINE
8
BLACK
6
CONTINUOUS
10
5.5158993307086615
20
-3.3336725196850394
11
5.517648503937008
21
-3.3346824409448819
0
LINE
8
BLACK
6
CONTINUOUS
10
5.6961645275590547
20
-3.3224851574803149
11
5.6971262992125986
21
-3.3242612992125982
0
LINE
8
BLACK
6
CONTINUOUS
10
5.6971262992125986
20
-3.3242612992125982
11
5.6967213385826767
21
-3.3262400787401574
0
LINE
8
BLACK
6
CONTINUOUS
10
5.6967213385826767
20
-3.3262400787401574
11
5.6951392125984253
21
-3.3274956299212599
0
LINE
8
BLACK
6
CONTINUOUS
10
5.6951392125984253
20
-3.3274956299212599
11
5.6859096062992123
21
-3.330572125984252
0
LINE
8
BLACK
6
CONTINUOUS
10
5.6859096062992123
20
-3.330572125984252
11
5.6859096062992123
21
-3.3450633464566928
0
LINE
8
BLACK
6
CONTINUOUS
10
5.6859096062992123
20
-3.3450633464566928
11
5.6951392125984253
21
-3.3481398818897636
0
LINE
8
BLACK
6
CONTINUOUS
10
5.6951392125984253
20
-3.3481398818897636
11
5.6960409842519688
21
-3.3486281496062991
0
LINE
8
BLACK
6
CONTINUOUS
10
5.6960409842519688
20
-3.3486281496062991
11
5.6970982677165356
21
-3.3503491338582676
0
LINE
8
BLACK
6
CONTINUOUS
10
5.6970982677165356
20
-3.3503491338582676
11
5.696802007874016
21
-3.3523470866141731
0
LINE
8
BLACK
6
CONTINUOUS
10
5.696802007874016
20
-3.3523470866141731
11
5.6952907480314963
21
-3.3536871653543305
0
LINE
8
BLACK
6
CONTINUOUS
10
5.6952907480314963
20
-3.3536871653543305
11
5.6932717322834643
21
-3.3537423228346457
0
LINE
8
BLACK
6
CONTINUOUS
10
5.6932717322834643
20
-3.3537423228346457
11
5.6539016535433069
21
-3.3406189763779528
0
LINE
8
BLACK
6
CONTINUOUS
10
5.6539016535433069
20
-3.3406189763779528
11
5.6529998818897633
21
-3.3401306692913386
0
LINE
8
BLACK
6
CONTINUOUS
10
5.6529998818897633
20
-3.3401306692913386
11
5.6529553543307083
21
-3.3400582283464568
0
LINE
8
BLACK
6
CONTINUOUS
10
5.6529553543307083
20
-3.3400582283464568
11
5.6528763385826775
21
-3.3400270078740157
0
LINE
8
BLACK
6
CONTINUOUS
10
5.6528763385826775
20
-3.3400270078740157
11
5.6524314960629916
21
-3.3392055118110235
0
LINE
8
BLACK
6
CONTINUOUS
10
5.6524314960629916
20
-3.3392055118110235
11
5.6519425984251965
21
-3.3384097244094488
0
LINE
8
BLACK
6
CONTINUOUS
10
5.6519425984251965
20
-3.3384097244094488
11
5.6519550393700788
21
-3.3383256299212598
0
LINE
8
BLACK
6
CONTINUOUS
10
5.6519550393700788
20
-3.3383256299212598
11
5.6519145669291335
21
-3.3382508661417321
0
LINE
8
BLACK
6
CONTINUOUS
10
5.6519145669291335
20
-3.3382508661417321
11
5.6521018110236216
21
-3.3373357480314958
0
LINE
8
BLACK
6
CONTINUOUS
10
5.6521018110236216
20
-3.3373357480314958
11
5.6522388582677161
21
-3.3364117322834645
0
LINE
8
BLACK
6
CONTINUOUS
10
5.6522388582677161
20
-3.3364117322834645
11
5.6523024803149609
21
-3.336355275590551
0
LINE
8
BLACK
6
CONTINUOUS
10
5.6523024803149609
20
-3.336355275590551
11
5.6523195275590554
21
-3.3362720866141733
0
LINE
8
BLACK
6
CONTINUOUS
10
5.6523195275590554
20
-3.3362720866141733
11
5.6530507874015745
21
-3.3356917322834643
0
LINE
8
BLACK
6
CONTINUOUS
10
5.6530507874015745
20
-3.3356917322834643
11
5.6537500787401571
21
-3.3350716929133859
0
LINE
8
BLACK
6
CONTINUOUS
10
5.6537500787401571
20
-3.3350716929133859
11
5.6538350393700787
21
-3.3350693700787399
0
LINE
8
BLACK
6
CONTINUOUS
10
5.6538350393700787
20
-3.3350693700787399
11
5.6539016535433069
21
-3.3350165354330708
0
LINE
8
BLACK
6
CONTINUOUS
10
5.6539016535433069
20
-3.3350165354330708
11
5.6932717322834643
21
-3.3218931889763779
0
LINE
8
BLACK
6
CONTINUOUS
10
5.6932717322834643
20
-3.3218931889763779
11
5.6942861023622049
21
-3.3217427559055119
0
LINE
8
BLACK
6
CONTINUOUS
10
5.6942861023622049
20
-3.3217427559055119
11
5.6961645275590547
21
-3.3224851574803149
0
LINE
8
BLACK
6
CONTINUOUS
10
5.66417279527559
20
-3.3378177559055118
11
5.6800040944881891
21
-3.3430948425196849
0
LINE
8
BLACK
6
CONTINUOUS
10
5.6800040944881891
20
-3.3430948425196849
11
5.6800040944881891
21
-3.3325406299212599
0
LINE
8
BLACK
6
CONTINUOUS
10
5.6800040944881891
20
-3.3325406299212599
11
5.66417279527559
21
-3.3378177559055118
0
LINE
8
BLACK
6
CONTINUOUS
10
5.4901497637795273
20
-3.2944356692913384
11
5.4902850000000001
21
-3.2945491338582675
0
LINE
8
BLACK
6
CONTINUOUS
10
5.4902850000000001
20
-3.2945491338582675
11
5.4904603543307084
21
-3.2945693307086614
0
LINE
8
BLACK
6
CONTINUOUS
10
5.4904603543307084
20
-3.2945693307086614
11
5.4942098818897636
21
-3.296444094488189
0
LINE
8
BLACK
6
CONTINUOUS
10
5.4942098818897636
20
-3.296444094488189
11
5.4949189370078741
21
-3.29697
0
LINE
8
BLACK
6
CONTINUOUS
10
5.4949189370078741
20
-3.29697
11
5.4949772834645669
21
-3.2969972047244092
0
LINE
8
BLACK
6
CONTINUOUS
10
5.4949772834645669
20
-3.2969972047244092
11
5.4968520472440945
21
-3.2988719685039367
0
LINE
8
BLACK
6
CONTINUOUS
10
5.4968520472440945
20
-3.2988719685039367
11
5.4973583070866141
21
-3.2995950393700788
0
LINE
8
BLACK
6
CONTINUOUS
10
5.4973583070866141
20
-3.2995950393700788
11
5.4974051574803147
21
-3.2996393700787401
0
LINE
8
BLACK
6
CONTINUOUS
10
5.4974051574803147
20
-3.2996393700787401
11
5.4992799212598422
21
-3.3033888976377952
0
LINE
8
BLACK
6
CONTINUOUS
10
5.4992799212598422
20
-3.3033888976377952
11
5.4995722834645671
21
-3.3043718110236218
0
LINE
8
BLACK
6
CONTINUOUS
10
5.4995722834645671
20
-3.3043718110236218
11
5.4995312598425192
21
-3.3045435039370079
0
LINE
8
BLACK
6
CONTINUOUS
10
5.4995312598425192
20
-3.3045435039370079
11
5.4995780314960632
21
-3.3046720078740157
0
LINE
8
BLACK
6
CONTINUOUS
10
5.4995780314960632
20
-3.3046720078740157
11
5.5136933070866139
21
-3.294791338582677
0
LINE
8
BLACK
6
CONTINUOUS
10
5.5136933070866139
20
-3.294791338582677
11
5.5146227559055117
21
-3.2943580708661417
0
LINE
8
BLACK
6
CONTINUOUS
10
5.5146227559055117
20
-3.2943580708661417
11
5.5166348425196849
21
-3.2945344094488189
0
LINE
8
BLACK
6
CONTINUOUS
10
5.5166348425196849
20
-3.2945344094488189
11
5.5180628740157482
21
-3.2959628346456693
0
LINE
8
BLACK
6
CONTINUOUS
10
5.5180628740157482
20
-3.2959628346456693
11
5.5182386220472441
21
-3.2979749606299213
0
LINE
8
BLACK
6
CONTINUOUS
10
5.5182386220472441
20
-3.2979749606299213
11
5.5170798818897637
21
-3.2996293307086613
0
LINE
8
BLACK
6
CONTINUOUS
10
5.5170798818897637
20
-3.2996293307086613
11
5.4995916535433071
21
-3.3118710629921257
0
LINE
8
BLACK
6
CONTINUOUS
10
5.4995916535433071
20
-3.3118710629921257
11
5.4995916535433071
21
-3.3167547637795276
0
LINE
8
BLACK
6
CONTINUOUS
10
5.4995916535433071
20
-3.3167547637795276
11
5.5153865748031494
21
-3.3167547637795276
0
LINE
8
BLACK
6
CONTINUOUS
10
5.5153865748031494
20
-3.3167547637795276
11
5.5163964960629919
21
-3.316932834645669
0
LINE
8
BLACK
6
CONTINUOUS
10
5.5163964960629919
20
-3.316932834645669
11
5.51794374015748
21
-3.3182311417322832
0
LINE
8
BLACK
6
CONTINUOUS
10
5.51794374015748
20
-3.3182311417322832
11
5.5182944881889764
21
-3.3202202755905512
0
LINE
8
BLACK
6
CONTINUOUS
10
5.5182944881889764
20
-3.3202202755905512
11
5.5172845669291339
21
-3.3219694488188978
0
LINE
8
BLACK
6
CONTINUOUS
10
5.5172845669291339
20
-3.3219694488188978
11
5.5153865748031494
21
-3.3226602755905512
0
LINE
8
BLACK
6
CONTINUOUS
10
5.5153865748031494
20
-3.3226602755905512
11
5.476016496062992
21
-3.3226602755905512
0
LINE
8
BLACK
6
CONTINUOUS
10
5.476016496062992
20
-3.3226602755905512
11
5.4756329527559053
21
-3.3225926377952755
0
LINE
8
BLACK
6
CONTINUOUS
10
5.4756329527559053
20
-3.3225926377952755
11
5.47550374015748
21
-3.3226154330708662
0
LINE
8
BLACK
6
CONTINUOUS
10
5.47550374015748
20
-3.3226154330708662
11
5.4753901181102362
21
-3.3225498031496064
0
LINE
8
BLACK
6
CONTINUOUS
10
5.4753901181102362
20
-3.3225498031496064
11
5.4750065748031496
21
-3.3224822047244094
0
LINE
8
BLACK
6
CONTINUOUS
10
5.4750065748031496
20
-3.3224822047244094
11
5.4744188582677165
21
-3.3219890551181104
0
LINE
8
BLACK
6
CONTINUOUS
10
5.4744188582677165
20
-3.3219890551181104
11
5.4737545669291334
21
-3.3216055118110237
0
LINE
8
BLACK
6
CONTINUOUS
10
5.4737545669291334
20
-3.3216055118110237
11
5.4736634251968503
21
-3.3213551574803151
0
LINE
8
BLACK
6
CONTINUOUS
10
5.4736634251968503
20
-3.3213551574803151
11
5.4734593307086614
21
-3.3211838976377952
0
LINE
8
BLACK
6
CONTINUOUS
10
5.4734593307086614
20
-3.3211838976377952
11
5.4733260629921254
21
-3.3204283070866141
0
LINE
8
BLACK
6
CONTINUOUS
10
5.4733260629921254
20
-3.3204283070866141
11
5.47306374015748
21
-3.3197075196850392
0
LINE
8
BLACK
6
CONTINUOUS
10
5.47306374015748
20
-3.3197075196850392
11
5.47306374015748
21
-3.3047094094488187
0
LINE
8
BLACK
6
CONTINUOUS
10
5.47306374015748
20
-3.3047094094488187
11
5.4732418110236223
21
-3.3036994881889763
0
LINE
8
BLACK
6
CONTINUOUS
10
5.4732418110236223
20
-3.3036994881889763
11
5.473355275590551
21
-3.3035642125984253
0
LINE
8
BLACK
6
CONTINUOUS
10
5.473355275590551
20
-3.3035642125984253
11
5.4733754724409449
21
-3.3033888976377952
0
LINE
8
BLACK
6
CONTINUOUS
10
5.4733754724409449
20
-3.3033888976377952
11
5.4752502362204725
21
-3.2996393700787401
0
LINE
8
BLACK
6
CONTINUOUS
10
5.4752502362204725
20
-3.2996393700787401
11
5.4757761417322834
21
-3.2989302755905512
0
LINE
8
BLACK
6
CONTINUOUS
10
5.4757761417322834
20
-3.2989302755905512
11
5.4758033464566926
21
-3.2988719685039367
0
LINE
8
BLACK
6
CONTINUOUS
10
5.4758033464566926
20
-3.2988719685039367
11
5.4776781102362202
21
-3.2969972047244092
0
LINE
8
BLACK
6
CONTINUOUS
10
5.4776781102362202
20
-3.2969972047244092
11
5.4784011811023623
21
-3.2964909055118108
0
LINE
8
BLACK
6
CONTINUOUS
10
5.4784011811023623
20
-3.2964909055118108
11
5.4784455118110236
21
-3.296444094488189
0
LINE
8
BLACK
6
CONTINUOUS
10
5.4784455118110236
20
-3.296444094488189
11
5.4821950393700787
21
-3.2945693307086614
0
LINE
8
BLACK
6
CONTINUOUS
10
5.4821950393700787
20
-3.2945693307086614
11
5.4831779527559057
21
-3.294276968503937
0
LINE
8
BLACK
6
CONTINUOUS
10
5.4831779527559057
20
-3.294276968503937
11
5.483349645669291
21
-3.2943179527559052
0
LINE
8
BLACK
6
CONTINUOUS
10
5.483349645669291
20
-3.2943179527559052
11
5.4835155511811022
21
-3.2942575984251969
0
LINE
8
BLACK
6
CONTINUOUS
10
5.4835155511811022
20
-3.2942575984251969
11
5.4891398425196849
21
-3.2942575984251969
0
LINE
8
BLACK
6
CONTINUOUS
10
5.4891398425196849
20
-3.2942575984251969
11
5.4901497637795273
21
-3.2944356692913384
0
LINE
8
BLACK
6
CONTINUOUS
10
5.4815151181102362
20
-3.3015118503937009
11
5.4803179921259844
21
-3.3027089763779527
0
LINE
8
BLACK
6
CONTINUOUS
10
5.4803179921259844
20
-3.3027089763779527
11
5.478969251968504
21
-3.3054064566929133
0
LINE
8
BLACK
6
CONTINUOUS
10
5.478969251968504
20
-3.3054064566929133
11
5.478969251968504
21
-3.3167547637795276
0
LINE
8
BLACK
6
CONTINUOUS
10
5.478969251968504
20
-3.3167547637795276
11
5.4936861417322831
21
-3.3167547637795276
0
LINE
8
BLACK
6
CONTINUOUS
10
5.4936861417322831
20
-3.3167547637795276
11
5.4936861417322831
21
-3.3054064566929133
0
LINE
8
BLACK
6
CONTINUOUS
10
5.4936861417322831
20
-3.3054064566929133
11
5.4923374015748028
21
-3.3027089763779527
0
LINE
8
BLACK
6
CONTINUOUS
10
5.4923374015748028
20
-3.3027089763779527
11
5.491140275590551
21
-3.3015118503937009
0
LINE
8
BLACK
6
CONTINUOUS
10
5.491140275590551
20
-3.3015118503937009
11
5.4884427952755903
21
-3.3001631102362206
0
LINE
8
BLACK
6
CONTINUOUS
10
5.4884427952755903
20
-3.3001631102362206
11
5.4842125984251968
21
-3.3001631102362206
0
LINE
8
BLACK
6
CONTINUOUS
10
5.4842125984251968
20
-3.3001631102362206
11
5.4815151181102362
21
-3.3015118503937009
0
LINE
8
BLACK
6
CONTINUOUS
10
5.6964674015748029
20
-3.2909253937007872
11
5.6971582283464564
21
-3.2928233858267717
0
LINE
8
BLACK
6
CONTINUOUS
10
5.6971582283464564
20
-3.2928233858267717
11
5.6971582283464564
21
-3.3115710236220472
0
LINE
8
BLACK
6
CONTINUOUS
10
5.6971582283464564
20
-3.3115710236220472
11
5.6970905905511806
21
-3.3119545275590552
0
LINE
8
BLACK
6
CONTINUOUS
10
5.6970905905511806
20
-3.3119545275590552
11
5.6971133858267713
21
-3.3120837795275588
0
LINE
8
BLACK
6
CONTINUOUS
10
5.6971133858267713
20
-3.3120837795275588
11
5.6970477559055119
21
-3.3121973622047243
0
LINE
8
BLACK
6
CONTINUOUS
10
5.6970477559055119
20
-3.3121973622047243
11
5.6969801574803149
21
-3.3125809448818897
0
LINE
8
BLACK
6
CONTINUOUS
10
5.6969801574803149
20
-3.3125809448818897
11
5.6964870078740155
21
-3.313168622047244
0
LINE
8
BLACK
6
CONTINUOUS
10
5.6964870078740155
20
-3.313168622047244
11
5.6961034645669288
21
-3.3138329527559054
0
LINE
8
BLACK
6
CONTINUOUS
10
5.6961034645669288
20
-3.3138329527559054
11
5.6958531102362207
21
-3.3139240551181102
0
LINE
8
BLACK
6
CONTINUOUS
10
5.6958531102362207
20
-3.3139240551181102
11
5.6956818503937008
21
-3.3141281889763778
0
LINE
8
BLACK
6
CONTINUOUS
10
5.6956818503937008
20
-3.3141281889763778
11
5.6949262598425197
21
-3.3142614173228346
0
LINE
8
BLACK
6
CONTINUOUS
10
5.6949262598425197
20
-3.3142614173228346
11
5.6942054724409443
21
-3.3145237795275588
0
LINE
8
BLACK
6
CONTINUOUS
10
5.6942054724409443
20
-3.3145237795275588
11
5.6548353937007869
21
-3.3145237795275588
0
LINE
8
BLACK
6
CONTINUOUS
10
5.6548353937007869
20
-3.3145237795275588
11
5.6538254724409445
21
-3.3143457086614174
0
LINE
8
BLACK
6
CONTINUOUS
10
5.6538254724409445
20
-3.3143457086614174
11
5.6522782283464563
21
-3.3130474015748033
0
LINE
8
BLACK
6
CONTINUOUS
10
5.6522782283464563
20
-3.3130474015748033
11
5.6519274803149608
21
-3.3110582677165352
0
LINE
8
BLACK
6
CONTINUOUS
10
5.6519274803149608
20
-3.3110582677165352
11
5.6529374015748033
21
-3.3093090944881891
0
LINE
8
BLACK
6
CONTINUOUS
10
5.6529374015748033
20
-3.3093090944881891
11
5.6548353937007869
21
-3.3086182677165352
0
LINE
8
BLACK
6
CONTINUOUS
10
5.6548353937007869
20
-3.3086182677165352
11
5.6912527165354332
21
-3.3086182677165352
0
LINE
8
BLACK
6
CONTINUOUS
10
5.6912527165354332
20
-3.3086182677165352
11
5.6912527165354332
21
-3.2928233858267717
0
LINE
8
BLACK
6
CONTINUOUS
10
5.6912527165354332
20
-3.2928233858267717
11
5.6914307874015746
21
-3.2918134645669292
0
LINE
8
BLACK
6
CONTINUOUS
10
5.6914307874015746
20
-3.2918134645669292
11
5.6927290944881888
21
-3.2902662204724407
0
LINE
8
BLACK
6
CONTINUOUS
10
5.6927290944881888
20
-3.2902662204724407
11
5.6947182283464564
21
-3.2899154724409447
0
LINE
8
BLACK
6
CONTINUOUS
10
5.6947182283464564
20
-3.2899154724409447
11
5.6964674015748029
21
-3.2909253937007872
0
LINE
8
BLACK
6
CONTINUOUS
10
5.4782784251968506
20
-3.2615665748031497
11
5.478969251968504
21
-3.2634645669291338
0
LINE
8
BLACK
6
CONTINUOUS
10
5.478969251968504
20
-3.2634645669291338
11
5.478969251968504
21
-3.2717603937007875
0
LINE
8
BLACK
6
CONTINUOUS
10
5.478969251968504
20
-3.2717603937007875
11
5.5153865748031494
21
-3.2717603937007875
0
LINE
8
BLACK
6
CONTINUOUS
10
5.5153865748031494
20
-3.2717603937007875
11
5.5163964960629919
21
-3.2719384645669289
0
LINE
8
BLACK
6
CONTINUOUS
10
5.5163964960629919
20
-3.2719384645669289
11
5.51794374015748
21
-3.2732367716535431
0
LINE
8
BLACK
6
CONTINUOUS
10
5.51794374015748
20
-3.2732367716535431
11
5.5182944881889764
21
-3.2752259055118111
0
LINE
8
BLACK
6
CONTINUOUS
10
5.5182944881889764
20
-3.2752259055118111
11
5.5172845669291339
21
-3.2769750787401573
0
LINE
8
BLACK
6
CONTINUOUS
10
5.5172845669291339
20
-3.2769750787401573
11
5.5153865748031494
21
-3.2776659055118111
0
LINE
8
BLACK
6
CONTINUOUS
10
5.5153865748031494
20
-3.2776659055118111
11
5.478969251968504
21
-3.2776659055118111
0
LINE
8
BLACK
6
CONTINUOUS
10
5.478969251968504
20
-3.2776659055118111
11
5.478969251968504
21
-3.2859617322834644
0
LINE
8
BLACK
6
CONTINUOUS
10
5.478969251968504
20
-3.2859617322834644
11
5.4787911811023617
21
-3.2869716535433069
0
LINE
8
BLACK
6
CONTINUOUS
10
5.4787911811023617
20
-3.2869716535433069
11
5.4774928740157476
21
-3.288518897637795
0
LINE
8
BLACK
6
CONTINUOUS
10
5.4774928740157476
20
-3.288518897637795
11
5.47550374015748
21
-3.2888696456692914
0
LINE
8
BLACK
6
CONTINUOUS
10
5.47550374015748
20
-3.2888696456692914
11
5.4737545669291334
21
-3.287859724409449
0
LINE
8
BLACK
6
CONTINUOUS
10
5.4737545669291334
20
-3.287859724409449
11
5.47306374015748
21
-3.2859617322834644
0
LINE
8
BLACK
6
CONTINUOUS
10
5.47306374015748
20
-3.2859617322834644
11
5.47306374015748
21
-3.2634645669291338
0
LINE
8
BLACK
6
CONTINUOUS
10
5.47306374015748
20
-3.2634645669291338
11
5.4732418110236223
21
-3.2624546456692913
0
LINE
8
BLACK
6
CONTINUOUS
10
5.4732418110236223
20
-3.2624546456692913
11
5.4745401181102364
21
-3.2609074015748032
0
LINE
8
BLACK
6
CONTINUOUS
10
5.4745401181102364
20
-3.2609074015748032
11
5.476529251968504
21
-3.2605566535433068
0
LINE
8
BLACK
6
CONTINUOUS
10
5.476529251968504
20
-3.2605566535433068
11
5.4782784251968506
21
-3.2615665748031497
0
LINE
8
BLACK
6
CONTINUOUS
10
5.6779129133858266
20
-3.2543524015748031
11
5.6780487007874019
21
-3.2543382283464566
0
LINE
8
BLACK
6
CONTINUOUS
10
5.6780487007874019
20
-3.2543382283464566
11
5.6855477559055121
21
-3.2562129921259841
0
LINE
8
BLACK
6
CONTINUOUS
10
5.6855477559055121
20
-3.2562129921259841
11
5.6860131889763776
21
-3.2564205511811024
0
LINE
8
BLACK
6
CONTINUOUS
10
5.6860131889763776
20
-3.2564205511811024
11
5.6861521259842522
21
-3.2564365748031494
0
LINE
8
BLACK
6
CONTINUOUS
10
5.6861521259842522
20
-3.2564365748031494
11
5.6899016535433073
21
-3.258311338582677
0
LINE
8
BLACK
6
CONTINUOUS
10
5.6899016535433073
20
-3.258311338582677
11
5.690610708661417
21
-3.2588372440944879
0
LINE
8
BLACK
6
CONTINUOUS
10
5.690610708661417
20
-3.2588372440944879
11
5.6906690551181098
21
-3.2588644488188976
0
LINE
8
BLACK
6
CONTINUOUS
10
5.6906690551181098
20
-3.2588644488188976
11
5.6944186220472437
21
-3.2626139763779527
0
LINE
8
BLACK
6
CONTINUOUS
10
5.6944186220472437
20
-3.2626139763779527
11
5.6950068503937006
21
-3.2634540157480316
0
LINE
8
BLACK
6
CONTINUOUS
10
5.6950068503937006
20
-3.2634540157480316
11
5.6950222047244097
21
-3.2636299212598425
0
LINE
8
BLACK
6
CONTINUOUS
10
5.6950222047244097
20
-3.2636299212598425
11
5.6951319291338578
21
-3.2637681496062991
0
LINE
8
BLACK
6
CONTINUOUS
10
5.6951319291338578
20
-3.2637681496062991
11
5.6970066929133854
21
-3.269392401574803
0
LINE
8
BLACK
6
CONTINUOUS
10
5.6970066929133854
20
-3.269392401574803
11
5.697136181102362
21
-3.2702656299212598
0
LINE
8
BLACK
6
CONTINUOUS
10
5.697136181102362
20
-3.2702656299212598
11
5.6971582283464564
21
-3.2703261811023623
0
LINE
8
BLACK
6
CONTINUOUS
10
5.6971582283464564
20
-3.2703261811023623
11
5.6971582283464564
21
-3.2797000000000001
0
LINE
8
BLACK
6
CONTINUOUS
10
5.6971582283464564
20
-3.2797000000000001
11
5.6970905905511806
21
-3.280083503937008
0
LINE
8
BLACK
6
CONTINUOUS
10
5.6970905905511806
20
-3.280083503937008
11
5.6971133858267713
21
-3.2802127559055116
0
LINE
8
BLACK
6
CONTINUOUS
10
5.6971133858267713
20
-3.2802127559055116
11
5.6970477559055119
21
-3.2803263385826771
0
LINE
8
BLACK
6
CONTINUOUS
10
5.6970477559055119
20
-3.2803263385826771
11
5.6969801574803149
21
-3.2807099212598425
0
LINE
8
BLACK
6
CONTINUOUS
10
5.6969801574803149
20
-3.2807099212598425
11
5.6964870078740155
21
-3.2812975984251969
0
LINE
8
BLACK
6
CONTINUOUS
10
5.6964870078740155
20
-3.2812975984251969
11
5.6961034645669288
21
-3.2819619291338582
0
LINE
8
BLACK
6
CONTINUOUS
10
5.6961034645669288
20
-3.2819619291338582
11
5.6958531102362207
21
-3.282053031496063
0
LINE
8
BLACK
6
CONTINUOUS
10
5.6958531102362207
20
-3.282053031496063
11
5.6956818503937008
21
-3.2822571653543307
0
LINE
8
BLACK
6
CONTINUOUS
10
5.6956818503937008
20
-3.2822571653543307
11
5.6949262598425197
21
-3.2823903937007874
0
LINE
8
BLACK
6
CONTINUOUS
10
5.6949262598425197
20
-3.2823903937007874
11
5.6942054724409443
21
-3.2826527559055116
0
LINE
8
BLACK
6
CONTINUOUS
10
5.6942054724409443
20
-3.2826527559055116
11
5.6548353937007869
21
-3.2826527559055116
0
LINE
8
BLACK
6
CONTINUOUS
10
5.6548353937007869
20
-3.2826527559055116
11
5.6544518503937002
21
-3.2825851181102363
0
LINE
8
BLACK
6
CONTINUOUS
10
5.6544518503937002
20
-3.2825851181102363
11
5.6543226377952758
21
-3.2826079133858266
0
LINE
8
BLACK
6
CONTINUOUS
10
5.6543226377952758
20
-3.2826079133858266
11
5.6542090157480311
21
-3.2825422834645668
0
LINE
8
BLACK
6
CONTINUOUS
10
5.6542090157480311
20
-3.2825422834645668
11
5.6538254724409445
21
-3.2824746850393698
0
LINE
8
BLACK
6
CONTINUOUS
10
5.6538254724409445
20
-3.2824746850393698
11
5.6532377559055114
21
-3.2819815354330708
0
LINE
8
BLACK
6
CONTINUOUS
10
5.6532377559055114
20
-3.2819815354330708
11
5.6525734645669292
21
-3.2815979921259841
0
LINE
8
BLACK
6
CONTINUOUS
10
5.6525734645669292
20
-3.2815979921259841
11
5.6524823228346452
21
-3.2813476377952755
0
LINE
8
BLACK
6
CONTINUOUS
10
5.6524823228346452
20
-3.2813476377952755
11
5.6522782283464563
21
-3.2811763779527556
0
LINE
8
BLACK
6
CONTINUOUS
10
5.6522782283464563
20
-3.2811763779527556
11
5.6521449606299212
21
-3.2804207874015749
0
LINE
8
BLACK
6
CONTINUOUS
10
5.6521449606299212
20
-3.2804207874015749
11
5.6518826377952758
21
-3.2797000000000001
0
LINE
8
BLACK
6
CONTINUOUS
10
5.6518826377952758
20
-3.2797000000000001
11
5.6518826377952758
21
-3.2703261811023623
0
LINE
8
BLACK
6
CONTINUOUS
10
5.6518826377952758
20
-3.2703261811023623
11
5.652035905511811
21
-3.2694567716535432
0
LINE
8
BLACK
6
CONTINUOUS
10
5.652035905511811
20
-3.2694567716535432
11
5.6520341732283459
21
-3.2693924409448818
0
LINE
8
BLACK
6
CONTINUOUS
10
5.6520341732283459
20
-3.2693924409448818
11
5.6539089370078734
21
-3.2637681496062991
0
LINE
8
BLACK
6
CONTINUOUS
10
5.6539089370078734
20
-3.2637681496062991
11
5.6543972047244093
21
-3.262866377952756
0
LINE
8
BLACK
6
CONTINUOUS
10
5.6543972047244093
20
-3.262866377952756
11
5.6545476377952753
21
-3.2627739370078741
0
LINE
8
BLACK
6
CONTINUOUS
10
5.6545476377952753
20
-3.2627739370078741
11
5.6546222440944884
21
-3.2626139763779527
0
LINE
8
BLACK
6
CONTINUOUS
10
5.6546222440944884
20
-3.2626139763779527
11
5.6583717716535435
21
-3.2588644488188976
0
LINE
8
BLACK
6
CONTINUOUS
10
5.6583717716535435
20
-3.2588644488188976
11
5.6590949212598423
21
-3.258358031496063
0
LINE
8
BLACK
6
CONTINUOUS
10
5.6590949212598423
20
-3.258358031496063
11
5.659139173228346
21
-3.258311338582677
0
LINE
8
BLACK
6
CONTINUOUS
10
5.659139173228346
20
-3.258311338582677
11
5.6628887007874011
21
-3.2564365748031494
0
LINE
8
BLACK
6
CONTINUOUS
10
5.6628887007874011
20
-3.2564365748031494
11
5.663377125984252
21
-3.2562912598425195
0
LINE
8
BLACK
6
CONTINUOUS
10
5.663377125984252
20
-3.2562912598425195
11
5.6634930708661413
21
-3.2562129921259841
0
LINE
8
BLACK
6
CONTINUOUS
10
5.6634930708661413
20
-3.2562129921259841
11
5.6709921259842515
21
-3.2543382283464566
0
LINE
8
BLACK
6
CONTINUOUS
10
5.6709921259842515
20
-3.2543382283464566
11
5.6715799999999996
21
-3.2542967322834646
0
LINE
8
BLACK
6
CONTINUOUS
10
5.6715799999999996
20
-3.2542967322834646
11
5.6717082677165349
21
-3.2542500787401574
0
LINE
8
BLACK
6
CONTINUOUS
10
5.6717082677165349
20
-3.2542500787401574
11
5.6773325590551176
21
-3.2542500787401574
0
LINE
8
BLACK
6
CONTINUOUS
10
5.6773325590551176
20
-3.2542500787401574
11
5.6779129133858266
21
-3.2543524015748031
0
LINE
8
BLACK
6
CONTINUOUS
10
5.6652397637795273
20
-3.2618635826771651
11
5.6622087795275586
21
-3.2633790944881889
0
LINE
8
BLACK
6
CONTINUOUS
10
5.6622087795275586
20
-3.2633790944881889
11
5.6592909448818896
21
-3.2662968897637796
0
LINE
8
BLACK
6
CONTINUOUS
10
5.6592909448818896
20
-3.2662968897637796
11
5.6577881496062989
21
-3.2708053149606298
0
LINE
8
BLACK
6
CONTINUOUS
10
5.6577881496062989
20
-3.2708053149606298
11
5.6577881496062989
21
-3.276747244094488
0
LINE
8
BLACK
6
CONTINUOUS
10
5.6577881496062989
20
-3.276747244094488
11
5.6912527165354332
21
-3.276747244094488
0
LINE
8
BLACK
6
CONTINUOUS
10
5.6912527165354332
20
-3.276747244094488
11
5.6912527165354332
21
-3.2708053149606298
0
LINE
8
BLACK
6
CONTINUOUS
10
5.6912527165354332
20
-3.2708053149606298
11
5.6897499212598426
21
-3.2662969291338584
0
LINE
8
BLACK
6
CONTINUOUS
10
5.6897499212598426
20
-3.2662969291338584
11
5.6868320472440947
21
-3.2633790944881889
0
LINE
8
BLACK
6
CONTINUOUS
10
5.6868320472440947
20
-3.2633790944881889
11
5.6838010629921261
21
-3.2618635826771651
0
LINE
8
BLACK
6
CONTINUOUS
10
5.6838010629921261
20
-3.2618635826771651
11
5.676969015748031
21
-3.260155590551181
0
LINE
8
BLACK
6
CONTINUOUS
10
5.676969015748031
20
-3.260155590551181
11
5.6720718110236223
21
-3.260155590551181
0
LINE
8
BLACK
6
CONTINUOUS
10
5.6720718110236223
20
-3.260155590551181
11
5.6652397637795273
21
-3.2618635826771651
  0
ENDSEC
  0
EOF
