  0
SECTION
  2
HEADER
  9
$ANGBASE
  50
0.0
  9
$ANGDIR
  70
1
  9
$MEASUREMENT
  70
0
  0
ENDSEC
  0
SECTION
  2
TABLES
  0
TABLE
  2
LTYPE
  70
4
  0
LTYPE
  5
40F
  2
CONTINUOUS
  70
0
  3
Solid line
  72
65
  73
0
  40
0.0
  0
LTYPE
  5
410
  2
DASHDOT
 70
0
  3
Dash Dot ____ _ ____ _
 72
65
 73
4
 40
2.0
 49
1.25
 49
-0.25
 49
0.25
 49
-0.25
  0
LTYPE
  5
411
  2
DASHED
 70
0
  3
Dashed __ __ __ __ __
 72
65
 73
2
 40
0.75
 49
0.5
 49
-0.25
  0
LTYPE
  5
43B
  2
DOTTED
 70
0
  3
Dotted .  .  .  .
 72
65
 73
2
 40
0.2
 49
0.0
 49
-0.2
  0
ENDTAB
  0
TABLE
  2
STYLE
  70
4
  0
STYLE
  2
KICAD
  70
0
  40
0
  41
1
  42
1
  50
0
  71
0
  3
isocp.shx
  0
STYLE
  2
KICADB
  70
0
  40
0
  41
1
  42
1
  50
0
  71
0
  3
isocp.shx
  0
STYLE
  2
KICADI
  70
0
  40
0
  41
1
  42
1
  50
15
  71
0
  3
isocp.shx
  0
STYLE
  2
KICADBI
  70
0
  40
0
  41
1
  42
1
  50
15
  71
0
  3
isocp.shx
  0
ENDTAB
  0
TABLE
  2
LAYER
  70
1
  0
LAYER
  2
BLACK
  70
0
  62
7
  6
CONTINUOUS
  0
ENDTAB
  0
ENDSEC
  0
SECTION
  2
ENTITIES
0
LINE
8
BLACK
6
CONTINUOUS
10
5.479248307086614
20
-3.7401653149606298
11
5.4807955511811022
21
-3.7414636220472439
0
LINE
8
BLACK
6
CONTINUOUS
10
5.4807955511811022
20
-3.7414636220472439
11
5.4811462992125985
21
-3.7434527559055115
0
LINE
8
BLACK
6
CONTINUOUS
10
5.4811462992125985
20
-3.7434527559055115
11
5.4801363779527561
21
-3.7452019291338581
0
LINE
8
BLACK
6
CONTINUOUS
10
5.4801363779527561
20
-3.7452019291338581
11
5.4782383858267716
21
-3.7458927559055115
0
LINE
8
BLACK
6
CONTINUOUS
10
5.4782383858267716
20
-3.7458927559055115
11
5.4249481496062995
21
-3.7458927559055115
0
LINE
8
BLACK
6
CONTINUOUS
10
5.4249481496062995
20
-3.7458927559055115
11
5.4249481496062995
21
-3.8149778740157481
0
LINE
8
BLACK
6
CONTINUOUS
10
5.4249481496062995
20
-3.8149778740157481
11
5.4613654724409448
21
-3.8149778740157481
0
LINE
8
BLACK
6
CONTINUOUS
10
5.4613654724409448
20
-3.8149778740157481
11
5.4623753937007873
21
-3.8151559448818895
0
LINE
8
BLACK
6
CONTINUOUS
10
5.4623753937007873
20
-3.8151559448818895
11
5.4639226377952754
21
-3.8164542519685036
0
LINE
8
BLACK
6
CONTINUOUS
10
5.4639226377952754
20
-3.8164542519685036
11
5.4642733858267718
21
-3.8184433858267717
0
LINE
8
BLACK
6
CONTINUOUS
10
5.4642733858267718
20
-3.8184433858267717
11
5.4632634645669294
21
-3.8201925590551182
0
LINE
8
BLACK
6
CONTINUOUS
10
5.4632634645669294
20
-3.8201925590551182
11
5.4613654724409448
21
-3.8208833858267717
0
LINE
8
BLACK
6
CONTINUOUS
10
5.4613654724409448
20
-3.8208833858267717
11
5.4249481496062995
21
-3.8208833858267717
0
LINE
8
BLACK
6
CONTINUOUS
10
5.4249481496062995
20
-3.8208833858267717
11
5.4249481496062995
21
-3.897467559055118
0
LINE
8
BLACK
6
CONTINUOUS
10
5.4249481496062995
20
-3.897467559055118
11
5.4782383858267716
21
-3.897467559055118
0
LINE
8
BLACK
6
CONTINUOUS
10
5.4782383858267716
20
-3.897467559055118
11
5.479248307086614
21
-3.8976456299212598
0
LINE
8
BLACK
6
CONTINUOUS
10
5.479248307086614
20
-3.8976456299212598
11
5.4807955511811022
21
-3.898943937007874
0
LINE
8
BLACK
6
CONTINUOUS
10
5.4807955511811022
20
-3.898943937007874
11
5.4811462992125985
21
-3.9009330708661416
0
LINE
8
BLACK
6
CONTINUOUS
10
5.4811462992125985
20
-3.9009330708661416
11
5.4801363779527561
21
-3.9026822440944882
0
LINE
8
BLACK
6
CONTINUOUS
10
5.4801363779527561
20
-3.9026822440944882
11
5.4782383858267716
21
-3.9033730708661416
0
LINE
8
BLACK
6
CONTINUOUS
10
5.4782383858267716
20
-3.9033730708661416
11
5.4219953937007874
21
-3.9033730708661416
0
LINE
8
BLACK
6
CONTINUOUS
10
5.4219953937007874
20
-3.9033730708661416
11
5.4216118503937007
21
-3.9033054330708659
0
LINE
8
BLACK
6
CONTINUOUS
10
5.4216118503937007
20
-3.9033054330708659
11
5.4214826377952754
21
-3.9033282283464565
0
LINE
8
BLACK
6
CONTINUOUS
10
5.4214826377952754
20
-3.9033282283464565
11
5.4213690157480317
21
-3.9032625984251967
0
LINE
8
BLACK
6
CONTINUOUS
10
5.4213690157480317
20
-3.9032625984251967
11
5.420985472440945
21
-3.9031949999999997
0
LINE
8
BLACK
6
CONTINUOUS
10
5.420985472440945
20
-3.9031949999999997
11
5.4203977559055119
21
-3.9027018503937008
0
LINE
8
BLACK
6
CONTINUOUS
10
5.4203977559055119
20
-3.9027018503937008
11
5.4197334645669288
21
-3.9023183070866141
0
LINE
8
BLACK
6
CONTINUOUS
10
5.4197334645669288
20
-3.9023183070866141
11
5.4196423228346458
21
-3.9020679527559055
0
LINE
8
BLACK
6
CONTINUOUS
10
5.4196423228346458
20
-3.9020679527559055
11
5.4194382283464568
21
-3.9018966929133856
0
LINE
8
BLACK
6
CONTINUOUS
10
5.4194382283464568
20
-3.9018966929133856
11
5.4193049606299208
21
-3.9011411023622045
0
LINE
8
BLACK
6
CONTINUOUS
10
5.4193049606299208
20
-3.9011411023622045
11
5.4190426377952754
21
-3.90042031496063
0
LINE
8
BLACK
6
CONTINUOUS
10
5.4190426377952754
20
-3.90042031496063
11
5.4190426377952754
21
-3.7429399999999999
0
LINE
8
BLACK
6
CONTINUOUS
10
5.4190426377952754
20
-3.7429399999999999
11
5.4191102362204724
21
-3.7425564566929133
0
LINE
8
BLACK
6
CONTINUOUS
10
5.4191102362204724
20
-3.7425564566929133
11
5.4190874803149605
21
-3.7424272440944879
0
LINE
8
BLACK
6
CONTINUOUS
10
5.4190874803149605
20
-3.7424272440944879
11
5.419153070866142
21
-3.7423136220472442
0
LINE
8
BLACK
6
CONTINUOUS
10
5.419153070866142
20
-3.7423136220472442
11
5.4192207086614168
21
-3.7419300787401575
0
LINE
8
BLACK
6
CONTINUOUS
10
5.4192207086614168
20
-3.7419300787401575
11
5.4197138188976375
21
-3.7413423622047244
0
LINE
8
BLACK
6
CONTINUOUS
10
5.4197138188976375
20
-3.7413423622047244
11
5.4200974015748029
21
-3.7406780708661418
0
LINE
8
BLACK
6
CONTINUOUS
10
5.4200974015748029
20
-3.7406780708661418
11
5.4203477165354332
21
-3.7405869291338583
0
LINE
8
BLACK
6
CONTINUOUS
10
5.4203477165354332
20
-3.7405869291338583
11
5.420519015748031
21
-3.7403828346456693
0
LINE
8
BLACK
6
CONTINUOUS
10
5.420519015748031
20
-3.7403828346456693
11
5.4212745669291333
21
-3.7402495669291338
0
LINE
8
BLACK
6
CONTINUOUS
10
5.4212745669291333
20
-3.7402495669291338
11
5.4219953937007874
21
-3.7399872440944879
0
LINE
8
BLACK
6
CONTINUOUS
10
5.4219953937007874
20
-3.7399872440944879
11
5.4782383858267716
21
-3.7399872440944879
0
LINE
8
BLACK
6
CONTINUOUS
10
5.4782383858267716
20
-3.7399872440944879
11
5.479248307086614
21
-3.7401653149606298
0
LINE
8
BLACK
6
CONTINUOUS
10
5.5748613385826769
20
-3.7401653149606298
11
5.5749435433070866
21
-3.7402342913385827
0
LINE
8
BLACK
6
CONTINUOUS
10
5.5749435433070866
20
-3.7402342913385827
11
5.5750506299212601
21
-3.7402417322834647
0
LINE
8
BLACK
6
CONTINUOUS
10
5.5750506299212601
20
-3.7402417322834647
11
5.5919235826771656
21
-3.7477407874015749
0
LINE
8
BLACK
6
CONTINUOUS
10
5.5919235826771656
20
-3.7477407874015749
11
5.5927741338582679
21
-3.7483137007874014
0
LINE
8
BLACK
6
CONTINUOUS
10
5.5927741338582679
20
-3.7483137007874014
11
5.5936607086614174
21
-3.7501285039370078
0
LINE
8
BLACK
6
CONTINUOUS
10
5.5936607086614174
20
-3.7501285039370078
11
5.5931733858267716
21
-3.752088622047244
0
LINE
8
BLACK
6
CONTINUOUS
10
5.5931733858267716
20
-3.752088622047244
11
5.5915400787401577
21
-3.7532768897637796
0
LINE
8
BLACK
6
CONTINUOUS
10
5.5915400787401577
20
-3.7532768897637796
11
5.5895251181102363
21
-3.7531373228346454
0
LINE
8
BLACK
6
CONTINUOUS
10
5.5895251181102363
20
-3.7531373228346454
11
5.5732248031496061
21
-3.7458927559055115
0
LINE
8
BLACK
6
CONTINUOUS
10
5.5732248031496061
20
-3.7458927559055115
11
5.546623976377953
21
-3.7458927559055115
0
LINE
8
BLACK
6
CONTINUOUS
10
5.546623976377953
20
-3.7458927559055115
11
5.5365400393700783
21
-3.7526153149606301
0
LINE
8
BLACK
6
CONTINUOUS
10
5.5365400393700783
20
-3.7526153149606301
11
5.5314731889763777
21
-3.7593711417322835
0
LINE
8
BLACK
6
CONTINUOUS
10
5.5314731889763777
20
-3.7593711417322835
11
5.5261855118110237
21
-3.7734716535433068
0
LINE
8
BLACK
6
CONTINUOUS
10
5.5261855118110237
20
-3.7734716535433068
11
5.5261855118110237
21
-3.7873988976377952
0
LINE
8
BLACK
6
CONTINUOUS
10
5.5261855118110237
20
-3.7873988976377952
11
5.5314731889763777
21
-3.8014994094488186
0
LINE
8
BLACK
6
CONTINUOUS
10
5.5314731889763777
20
-3.8014994094488186
11
5.5365400393700783
21
-3.8082551968503937
0
LINE
8
BLACK
6
CONTINUOUS
10
5.5365400393700783
20
-3.8082551968503937
11
5.5470389370078736
21
-3.8152544881889763
0
LINE
8
BLACK
6
CONTINUOUS
10
5.5470389370078736
20
-3.8152544881889763
11
5.5691608661417318
21
-3.8226284645669288
0
LINE
8
BLACK
6
CONTINUOUS
10
5.5691608661417318
20
-3.8226284645669288
11
5.5697410629921258
21
-3.8229426377952755
0
LINE
8
BLACK
6
CONTINUOUS
10
5.5697410629921258
20
-3.8229426377952755
11
5.5698650000000001
21
-3.8229728346456691
0
LINE
8
BLACK
6
CONTINUOUS
10
5.5698650000000001
20
-3.8229728346456691
11
5.5811136220472441
21
-3.8304718897637793
0
LINE
8
BLACK
6
CONTINUOUS
10
5.5811136220472441
20
-3.8304718897637793
11
5.581815748031496
21
-3.8311425984251968
0
LINE
8
BLACK
6
CONTINUOUS
10
5.581815748031496
20
-3.8311425984251968
11
5.5818379527559054
21
-3.8311570866141733
0
LINE
8
BLACK
6
CONTINUOUS
10
5.5818379527559054
20
-3.8311570866141733
11
5.5874622440944881
21
-3.8386561417322835
0
LINE
8
BLACK
6
CONTINUOUS
10
5.5874622440944881
20
-3.8386561417322835
11
5.5877907480314963
21
-3.8393044881889762
0
LINE
8
BLACK
6
CONTINUOUS
10
5.5877907480314963
20
-3.8393044881889762
11
5.5878648031496061
21
-3.839391023622047
0
LINE
8
BLACK
6
CONTINUOUS
10
5.5878648031496061
20
-3.839391023622047
11
5.5934890944881888
21
-3.8543891732283462
0
LINE
8
BLACK
6
CONTINUOUS
10
5.5934890944881888
20
-3.8543891732283462
11
5.5936769685039369
21
-3.8553973228346456
0
LINE
8
BLACK
6
CONTINUOUS
10
5.5936769685039369
20
-3.8553973228346456
11
5.5936718897637796
21
-3.8554116535433072
0
LINE
8
BLACK
6
CONTINUOUS
10
5.5936718897637796
20
-3.8554116535433072
11
5.5936770866141732
21
-3.8554259448818895
0
LINE
8
BLACK
6
CONTINUOUS
10
5.5936770866141732
20
-3.8554259448818895
11
5.5936770866141732
21
-3.8704240551181099
0
LINE
8
BLACK
6
CONTINUOUS
10
5.5936770866141732
20
-3.8704240551181099
11
5.5934990157480318
21
-3.8714339763779528
0
LINE
8
BLACK
6
CONTINUOUS
10
5.5934990157480318
20
-3.8714339763779528
11
5.593489212598425
21
-3.8714455905511809
0
LINE
8
BLACK
6
CONTINUOUS
10
5.593489212598425
20
-3.8714455905511809
11
5.5934890944881888
21
-3.8714608267716533
0
LINE
8
BLACK
6
CONTINUOUS
10
5.5934890944881888
20
-3.8714608267716533
11
5.5878648031496061
21
-3.8864589370078741
0
LINE
8
BLACK
6
CONTINUOUS
10
5.5878648031496061
20
-3.8864589370078741
11
5.5874952755905509
21
-3.8870848818897636
0
LINE
8
BLACK
6
CONTINUOUS
10
5.5874952755905509
20
-3.8870848818897636
11
5.5874622440944881
21
-3.8871938188976376
0
LINE
8
BLACK
6
CONTINUOUS
10
5.5874622440944881
20
-3.8871938188976376
11
5.5818379527559054
21
-3.8946929133858266
0
LINE
8
BLACK
6
CONTINUOUS
10
5.5818379527559054
20
-3.8946929133858266
11
5.5811292519685036
21
-3.8953568110236221
0
LINE
8
BLACK
6
CONTINUOUS
10
5.5811292519685036
20
-3.8953568110236221
11
5.5811136220472441
21
-3.8953781102362206
0
LINE
8
BLACK
6
CONTINUOUS
10
5.5811136220472441
20
-3.8953781102362206
11
5.5698650000000001
21
-3.9028771653543308
0
LINE
8
BLACK
6
CONTINUOUS
10
5.5698650000000001
20
-3.9028771653543308
11
5.5689259448818893
21
-3.9032892125984251
0
LINE
8
BLACK
6
CONTINUOUS
10
5.5689259448818893
20
-3.9032892125984251
11
5.5685666535433072
21
-3.9032494488188973
0
LINE
8
BLACK
6
CONTINUOUS
10
5.5685666535433072
20
-3.9032494488188973
11
5.5682271259842517
21
-3.9033730708661416
0
LINE
8
BLACK
6
CONTINUOUS
10
5.5682271259842517
20
-3.9033730708661416
11
5.5401056692913384
21
-3.9033730708661416
0
LINE
8
BLACK
6
CONTINUOUS
10
5.5401056692913384
20
-3.9033730708661416
11
5.539095748031496
21
-3.9031949999999997
0
LINE
8
BLACK
6
CONTINUOUS
10
5.539095748031496
20
-3.9031949999999997
11
5.5390135039370074
21
-3.9031259842519685
0
LINE
8
BLACK
6
CONTINUOUS
10
5.5390135039370074
20
-3.9031259842519685
11
5.5389064566929136
21
-3.9031185826771653
0
LINE
8
BLACK
6
CONTINUOUS
10
5.5389064566929136
20
-3.9031185826771653
11
5.5220335433070868
21
-3.8956195275590551
0
LINE
8
BLACK
6
CONTINUOUS
10
5.5220335433070868
20
-3.8956195275590551
11
5.5211829921259845
21
-3.8950466141732281
0
LINE
8
BLACK
6
CONTINUOUS
10
5.5211829921259845
20
-3.8950466141732281
11
5.5202963779527554
21
-3.8932318110236221
0
LINE
8
BLACK
6
CONTINUOUS
10
5.5202963779527554
20
-3.8932318110236221
11
5.5207837007874012
21
-3.8912716929133859
0
LINE
8
BLACK
6
CONTINUOUS
10
5.5207837007874012
20
-3.8912716929133859
11
5.522417007874016
21
-3.8900834251968504
0
LINE
8
BLACK
6
CONTINUOUS
10
5.522417007874016
20
-3.8900834251968504
11
5.5244319685039365
21
-3.8902229921259841
0
LINE
8
BLACK
6
CONTINUOUS
10
5.5244319685039365
20
-3.8902229921259841
11
5.5407323228346455
21
-3.897467559055118
0
LINE
8
BLACK
6
CONTINUOUS
10
5.5407323228346455
20
-3.897467559055118
11
5.5673331102362207
21
-3.897467559055118
0
LINE
8
BLACK
6
CONTINUOUS
10
5.5673331102362207
20
-3.897467559055118
11
5.5774170078740157
21
-3.8907449212598424
0
LINE
8
BLACK
6
CONTINUOUS
10
5.5774170078740157
20
-3.8907449212598424
11
5.5824838582677163
21
-3.883989094488189
0
LINE
8
BLACK
6
CONTINUOUS
10
5.5824838582677163
20
-3.883989094488189
11
5.5877715748031491
21
-3.8698885826771652
0
LINE
8
BLACK
6
CONTINUOUS
10
5.5877715748031491
20
-3.8698885826771652
11
5.5877715748031491
21
-3.855961377952756
0
LINE
8
BLACK
6
CONTINUOUS
10
5.5877715748031491
20
-3.855961377952756
11
5.5824838582677163
21
-3.8418608267716534
0
LINE
8
BLACK
6
CONTINUOUS
10
5.5824838582677163
20
-3.8418608267716534
11
5.5774170472440945
21
-3.8351050393700787
0
LINE
8
BLACK
6
CONTINUOUS
10
5.5774170472440945
20
-3.8351050393700787
11
5.5669182283464567
21
-3.8281058267716537
0
LINE
8
BLACK
6
CONTINUOUS
10
5.5669182283464567
20
-3.8281058267716537
11
5.544796220472441
21
-3.8207318503937007
0
LINE
8
BLACK
6
CONTINUOUS
10
5.544796220472441
20
-3.8207318503937007
11
5.5442159842519683
21
-3.8204176377952757
0
LINE
8
BLACK
6
CONTINUOUS
10
5.5442159842519683
20
-3.8204176377952757
11
5.5440920866141727
21
-3.8203874803149604
0
LINE
8
BLACK
6
CONTINUOUS
10
5.5440920866141727
20
-3.8203874803149604
11
5.5328434251968499
21
-3.8128883858267715
0
LINE
8
BLACK
6
CONTINUOUS
10
5.5328434251968499
20
-3.8128883858267715
11
5.5321414173228343
21
-3.8122177165354332
0
LINE
8
BLACK
6
CONTINUOUS
10
5.5321414173228343
20
-3.8122177165354332
11
5.5321191338582674
21
-3.8122031889763779
0
LINE
8
BLACK
6
CONTINUOUS
10
5.5321191338582674
20
-3.8122031889763779
11
5.5264948425196847
21
-3.8047041338582677
0
LINE
8
BLACK
6
CONTINUOUS
10
5.5264948425196847
20
-3.8047041338582677
11
5.5261662992125986
21
-3.8040557480314958
0
LINE
8
BLACK
6
CONTINUOUS
10
5.5261662992125986
20
-3.8040557480314958
11
5.5260922834645667
21
-3.8039692519685038
0
LINE
8
BLACK
6
CONTINUOUS
10
5.5260922834645667
20
-3.8039692519685038
11
5.520467992125984
21
-3.7889711417322833
0
LINE
8
BLACK
6
CONTINUOUS
10
5.520467992125984
20
-3.7889711417322833
11
5.5202801181102359
21
-3.7879629921259843
0
LINE
8
BLACK
6
CONTINUOUS
10
5.5202801181102359
20
-3.7879629921259843
11
5.5202851574803145
21
-3.787948622047244
0
LINE
8
BLACK
6
CONTINUOUS
10
5.5202851574803145
20
-3.787948622047244
11
5.5202799999999996
21
-3.78793437007874
0
LINE
8
BLACK
6
CONTINUOUS
10
5.5202799999999996
20
-3.78793437007874
11
5.5202799999999996
21
-3.7729362204724408
0
LINE
8
BLACK
6
CONTINUOUS
10
5.5202799999999996
20
-3.7729362204724408
11
5.5204580708661419
21
-3.7719262992125984
0
LINE
8
BLACK
6
CONTINUOUS
10
5.5204580708661419
20
-3.7719262992125984
11
5.520467834645669
21
-3.7719146456692911
0
LINE
8
BLACK
6
CONTINUOUS
10
5.520467834645669
20
-3.7719146456692911
11
5.520467992125984
21
-3.7718994488188975
0
LINE
8
BLACK
6
CONTINUOUS
10
5.520467992125984
20
-3.7718994488188975
11
5.5260922834645667
21
-3.7569013385826771
0
LINE
8
BLACK
6
CONTINUOUS
10
5.5260922834645667
20
-3.7569013385826771
11
5.5264617716535431
21
-3.7562753543307084
0
LINE
8
BLACK
6
CONTINUOUS
10
5.5264617716535431
20
-3.7562753543307084
11
5.5264948425196847
21
-3.7561664566929132
0
LINE
8
BLACK
6
CONTINUOUS
10
5.5264948425196847
20
-3.7561664566929132
11
5.5321191338582674
21
-3.7486674015748029
0
LINE
8
BLACK
6
CONTINUOUS
10
5.5321191338582674
20
-3.7486674015748029
11
5.5328277165354329
21
-3.7480035826771654
0
LINE
8
BLACK
6
CONTINUOUS
10
5.5328277165354329
20
-3.7480035826771654
11
5.5328434645669287
21
-3.7479822047244093
0
LINE
8
BLACK
6
CONTINUOUS
10
5.5328434645669287
20
-3.7479822047244093
11
5.544092047244094
21
-3.7404831496062991
0
LINE
8
BLACK
6
CONTINUOUS
10
5.544092047244094
20
-3.7404831496062991
11
5.5450311417322835
21
-3.7400711417322832
0
LINE
8
BLACK
6
CONTINUOUS
10
5.5450311417322835
20
-3.7400711417322832
11
5.5453903149606294
21
-3.7401108267716534
0
LINE
8
BLACK
6
CONTINUOUS
10
5.5453903149606294
20
-3.7401108267716534
11
5.5457299606299211
21
-3.7399872440944879
0
LINE
8
BLACK
6
CONTINUOUS
10
5.5457299606299211
20
-3.7399872440944879
11
5.5738514173228344
21
-3.7399872440944879
0
LINE
8
BLACK
6
CONTINUOUS
10
5.5738514173228344
20
-3.7399872440944879
11
5.5748613385826769
21
-3.7401653149606298
0
LINE
8
BLACK
6
CONTINUOUS
10
5.3836352755905512
20
-3.7401653149606298
11
5.3851825196850394
21
-3.7414636220472439
0
LINE
8
BLACK
6
CONTINUOUS
10
5.3851825196850394
20
-3.7414636220472439
11
5.3855332677165357
21
-3.7434527559055115
0
LINE
8
BLACK
6
CONTINUOUS
10
5.3855332677165357
20
-3.7434527559055115
11
5.3845233464566924
21
-3.7452019291338581
0
LINE
8
BLACK
6
CONTINUOUS
10
5.3845233464566924
20
-3.7452019291338581
11
5.3826253543307088
21
-3.7458927559055115
0
LINE
8
BLACK
6
CONTINUOUS
10
5.3826253543307088
20
-3.7458927559055115
11
5.3518323228346452
21
-3.7458927559055115
0
LINE
8
BLACK
6
CONTINUOUS
10
5.3518323228346452
20
-3.7458927559055115
11
5.3518323228346452
21
-3.90042031496063
0
LINE
8
BLACK
6
CONTINUOUS
10
5.3518323228346452
20
-3.90042031496063
11
5.3516542519685038
21
-3.9014302362204725
0
LINE
8
BLACK
6
CONTINUOUS
10
5.3516542519685038
20
-3.9014302362204725
11
5.3503559448818896
21
-3.9029774803149606
0
LINE
8
BLACK
6
CONTINUOUS
10
5.3503559448818896
20
-3.9029774803149606
11
5.348366811023622
21
-3.9033282283464565
0
LINE
8
BLACK
6
CONTINUOUS
10
5.348366811023622
20
-3.9033282283464565
11
5.3466176377952754
21
-3.9023183070866141
0
LINE
8
BLACK
6
CONTINUOUS
10
5.3466176377952754
20
-3.9023183070866141
11
5.345926811023622
21
-3.90042031496063
0
LINE
8
BLACK
6
CONTINUOUS
10
5.345926811023622
20
-3.90042031496063
11
5.345926811023622
21
-3.7458927559055115
0
LINE
8
BLACK
6
CONTINUOUS
10
5.345926811023622
20
-3.7458927559055115
11
5.3151337795275593
21
-3.7458927559055115
0
LINE
8
BLACK
6
CONTINUOUS
10
5.3151337795275593
20
-3.7458927559055115
11
5.3141238582677168
21
-3.7457146850393701
0
LINE
8
BLACK
6
CONTINUOUS
10
5.3141238582677168
20
-3.7457146850393701
11
5.3125766141732278
21
-3.7444163779527559
0
LINE
8
BLACK
6
CONTINUOUS
10
5.3125766141732278
20
-3.7444163779527559
11
5.3122258661417323
21
-3.7424272440944879
0
LINE
8
BLACK
6
CONTINUOUS
10
5.3122258661417323
20
-3.7424272440944879
11
5.3132357874015748
21
-3.7406780708661418
0
LINE
8
BLACK
6
CONTINUOUS
10
5.3132357874015748
20
-3.7406780708661418
11
5.3151337795275593
21
-3.7399872440944879
0
LINE
8
BLACK
6
CONTINUOUS
10
5.3151337795275593
20
-3.7399872440944879
11
5.3826253543307088
21
-3.7399872440944879
0
LINE
8
BLACK
6
CONTINUOUS
10
5.3826253543307088
20
-3.7399872440944879
11
5.3836352755905512
21
-3.7401653149606298
0
LINE
8
BLACK
6
CONTINUOUS
10
5.6929716141732278
20
-3.7401653149606298
11
5.694518858267716
21
-3.7414636220472439
0
LINE
8
BLACK
6
CONTINUOUS
10
5.694518858267716
20
-3.7414636220472439
11
5.6948696062992124
21
-3.7434527559055115
0
LINE
8
BLACK
6
CONTINUOUS
10
5.6948696062992124
20
-3.7434527559055115
11
5.6938596850393699
21
-3.7452019291338581
0
LINE
8
BLACK
6
CONTINUOUS
10
5.6938596850393699
20
-3.7452019291338581
11
5.6919616929133854
21
-3.7458927559055115
0
LINE
8
BLACK
6
CONTINUOUS
10
5.6919616929133854
20
-3.7458927559055115
11
5.6611686614173227
21
-3.7458927559055115
0
LINE
8
BLACK
6
CONTINUOUS
10
5.6611686614173227
20
-3.7458927559055115
11
5.6611686614173227
21
-3.90042031496063
0
LINE
8
BLACK
6
CONTINUOUS
10
5.6611686614173227
20
-3.90042031496063
11
5.6609905905511813
21
-3.9014302362204725
0
LINE
8
BLACK
6
CONTINUOUS
10
5.6609905905511813
20
-3.9014302362204725
11
5.6596922834645671
21
-3.9029774803149606
0
LINE
8
BLACK
6
CONTINUOUS
10
5.6596922834645671
20
-3.9029774803149606
11
5.6577031496062995
21
-3.9033282283464565
0
LINE
8
BLACK
6
CONTINUOUS
10
5.6577031496062995
20
-3.9033282283464565
11
5.6559539763779529
21
-3.9023183070866141
0
LINE
8
BLACK
6
CONTINUOUS
10
5.6559539763779529
20
-3.9023183070866141
11
5.6552631496062995
21
-3.90042031496063
0
LINE
8
BLACK
6
CONTINUOUS
10
5.6552631496062995
20
-3.90042031496063
11
5.6552631496062995
21
-3.7458927559055115
0
LINE
8
BLACK
6
CONTINUOUS
10
5.6552631496062995
20
-3.7458927559055115
11
5.6244701181102359
21
-3.7458927559055115
0
LINE
8
BLACK
6
CONTINUOUS
10
5.6244701181102359
20
-3.7458927559055115
11
5.6234601968503934
21
-3.7457146850393701
0
LINE
8
BLACK
6
CONTINUOUS
10
5.6234601968503934
20
-3.7457146850393701
11
5.6219129527559053
21
-3.7444163779527559
0
LINE
8
BLACK
6
CONTINUOUS
10
5.6219129527559053
20
-3.7444163779527559
11
5.6215622047244089
21
-3.7424272440944879
0
LINE
8
BLACK
6
CONTINUOUS
10
5.6215622047244089
20
-3.7424272440944879
11
5.6225721259842523
21
-3.7406780708661418
0
LINE
8
BLACK
6
CONTINUOUS
10
5.6225721259842523
20
-3.7406780708661418
11
5.6244701181102359
21
-3.7399872440944879
0
LINE
8
BLACK
6
CONTINUOUS
10
5.6244701181102359
20
-3.7399872440944879
11
5.6919616929133854
21
-3.7399872440944879
0
LINE
8
BLACK
6
CONTINUOUS
10
5.6919616929133854
20
-3.7399872440944879
11
5.6929716141732278
21
-3.7401653149606298
0
LINE
8
BLACK
6
CONTINUOUS
10
5.658732440944882
20
-3.6413609842519685
11
5.6588676771653539
21
-3.6414744488188977
0
LINE
8
BLACK
6
CONTINUOUS
10
5.6588676771653539
20
-3.6414744488188977
11
5.6590430314960631
21
-3.6414946456692912
0
LINE
8
BLACK
6
CONTINUOUS
10
5.6590430314960631
20
-3.6414946456692912
11
5.6627925590551182
21
-3.6433694094488187
0
LINE
8
BLACK
6
CONTINUOUS
10
5.6627925590551182
20
-3.6433694094488187
11
5.6635016141732279
21
-3.6438953149606297
0
LINE
8
BLACK
6
CONTINUOUS
10
5.6635016141732279
20
-3.6438953149606297
11
5.6635599606299207
21
-3.6439225196850393
0
LINE
8
BLACK
6
CONTINUOUS
10
5.6635599606299207
20
-3.6439225196850393
11
5.6654347244094483
21
-3.6457972834645669
0
LINE
8
BLACK
6
CONTINUOUS
10
5.6654347244094483
20
-3.6457972834645669
11
5.6659409842519688
21
-3.6465203543307085
0
LINE
8
BLACK
6
CONTINUOUS
10
5.6659409842519688
20
-3.6465203543307085
11
5.6659878346456694
21
-3.6465646850393698
0
LINE
8
BLACK
6
CONTINUOUS
10
5.6659878346456694
20
-3.6465646850393698
11
5.6678625984251969
21
-3.6503142125984249
0
LINE
8
BLACK
6
CONTINUOUS
10
5.6678625984251969
20
-3.6503142125984249
11
5.6681549606299209
21
-3.6512971259842519
0
LINE
8
BLACK
6
CONTINUOUS
10
5.6681549606299209
20
-3.6512971259842519
11
5.6681139370078739
21
-3.6514688188976376
0
LINE
8
BLACK
6
CONTINUOUS
10
5.6681139370078739
20
-3.6514688188976376
11
5.668160708661417
21
-3.6515973228346454
0
LINE
8
BLACK
6
CONTINUOUS
10
5.668160708661417
20
-3.6515973228346454
11
5.6822759842519686
21
-3.6417166535433072
0
LINE
8
BLACK
6
CONTINUOUS
10
5.6822759842519686
20
-3.6417166535433072
11
5.6832054330708663
21
-3.6412833858267715
0
LINE
8
BLACK
6
CONTINUOUS
10
5.6832054330708663
20
-3.6412833858267715
11
5.6852175196850396
21
-3.6414597244094487
0
LINE
8
BLACK
6
CONTINUOUS
10
5.6852175196850396
20
-3.6414597244094487
11
5.686645551181102
21
-3.642888149606299
0
LINE
8
BLACK
6
CONTINUOUS
10
5.686645551181102
20
-3.642888149606299
11
5.6868212992125979
21
-3.6449002755905511
0
LINE
8
BLACK
6
CONTINUOUS
10
5.6868212992125979
20
-3.6449002755905511
11
5.6856625590551184
21
-3.6465546456692914
0
LINE
8
BLACK
6
CONTINUOUS
10
5.6856625590551184
20
-3.6465546456692914
11
5.6681743307086609
21
-3.6587963779527559
0
LINE
8
BLACK
6
CONTINUOUS
10
5.6681743307086609
20
-3.6587963779527559
11
5.6681743307086609
21
-3.6636800787401573
0
LINE
8
BLACK
6
CONTINUOUS
10
5.6681743307086609
20
-3.6636800787401573
11
5.6839692519685041
21
-3.6636800787401573
0
LINE
8
BLACK
6
CONTINUOUS
10
5.6839692519685041
20
-3.6636800787401573
11
5.6849791732283466
21
-3.6638581496062992
0
LINE
8
BLACK
6
CONTINUOUS
10
5.6849791732283466
20
-3.6638581496062992
11
5.6865264173228347
21
-3.6651564566929133
0
LINE
8
BLACK
6
CONTINUOUS
10
5.6865264173228347
20
-3.6651564566929133
11
5.6868771653543302
21
-3.6671455905511809
0
LINE
8
BLACK
6
CONTINUOUS
10
5.6868771653543302
20
-3.6671455905511809
11
5.6858672440944877
21
-3.6688947637795275
0
LINE
8
BLACK
6
CONTINUOUS
10
5.6858672440944877
20
-3.6688947637795275
11
5.6839692519685041
21
-3.6695855905511809
0
LINE
8
BLACK
6
CONTINUOUS
10
5.6839692519685041
20
-3.6695855905511809
11
5.6445991732283467
21
-3.6695855905511809
0
LINE
8
BLACK
6
CONTINUOUS
10
5.6445991732283467
20
-3.6695855905511809
11
5.64421562992126
21
-3.6695179527559056
0
LINE
8
BLACK
6
CONTINUOUS
10
5.64421562992126
20
-3.6695179527559056
11
5.6440864173228347
21
-3.6695407480314959
0
LINE
8
BLACK
6
CONTINUOUS
10
5.6440864173228347
20
-3.6695407480314959
11
5.64397279527559
21
-3.6694751181102361
0
LINE
8
BLACK
6
CONTINUOUS
10
5.64397279527559
20
-3.6694751181102361
11
5.6435892519685043
21
-3.6694075196850391
0
LINE
8
BLACK
6
CONTINUOUS
10
5.6435892519685043
20
-3.6694075196850391
11
5.6430015354330711
21
-3.6689143700787401
0
LINE
8
BLACK
6
CONTINUOUS
10
5.6430015354330711
20
-3.6689143700787401
11
5.6423372440944881
21
-3.6685308267716534
0
LINE
8
BLACK
6
CONTINUOUS
10
5.6423372440944881
20
-3.6685308267716534
11
5.642246102362205
21
-3.6682804724409448
0
LINE
8
BLACK
6
CONTINUOUS
10
5.642246102362205
20
-3.6682804724409448
11
5.6420420078740152
21
-3.6681092125984249
0
LINE
8
BLACK
6
CONTINUOUS
10
5.6420420078740152
20
-3.6681092125984249
11
5.6419087401574801
21
-3.6673536220472438
0
LINE
8
BLACK
6
CONTINUOUS
10
5.6419087401574801
20
-3.6673536220472438
11
5.6416464173228347
21
-3.6666328346456694
0
LINE
8
BLACK
6
CONTINUOUS
10
5.6416464173228347
20
-3.6666328346456694
11
5.6416464173228347
21
-3.6516347244094489
0
LINE
8
BLACK
6
CONTINUOUS
10
5.6416464173228347
20
-3.6516347244094489
11
5.6418244881889761
21
-3.650624803149606
0
LINE
8
BLACK
6
CONTINUOUS
10
5.6418244881889761
20
-3.650624803149606
11
5.6419379527559057
21
-3.650489527559055
0
LINE
8
BLACK
6
CONTINUOUS
10
5.6419379527559057
20
-3.650489527559055
11
5.6419581496062987
21
-3.6503142125984249
0
LINE
8
BLACK
6
CONTINUOUS
10
5.6419581496062987
20
-3.6503142125984249
11
5.6438329133858263
21
-3.6465646850393698
0
LINE
8
BLACK
6
CONTINUOUS
10
5.6438329133858263
20
-3.6465646850393698
11
5.6443588188976372
21
-3.6458555905511809
0
LINE
8
BLACK
6
CONTINUOUS
10
5.6443588188976372
20
-3.6458555905511809
11
5.6443860236220473
21
-3.6457972834645669
0
LINE
8
BLACK
6
CONTINUOUS
10
5.6443860236220473
20
-3.6457972834645669
11
5.6462607874015749
21
-3.6439225196850393
0
LINE
8
BLACK
6
CONTINUOUS
10
5.6462607874015749
20
-3.6439225196850393
11
5.6469838582677161
21
-3.643416220472441
0
LINE
8
BLACK
6
CONTINUOUS
10
5.6469838582677161
20
-3.643416220472441
11
5.6470281889763783
21
-3.6433694094488187
0
LINE
8
BLACK
6
CONTINUOUS
10
5.6470281889763783
20
-3.6433694094488187
11
5.6507777165354334
21
-3.6414946456692912
0
LINE
8
BLACK
6
CONTINUOUS
10
5.6507777165354334
20
-3.6414946456692912
11
5.6517606299212595
21
-3.6412022834645668
0
LINE
8
BLACK
6
CONTINUOUS
10
5.6517606299212595
20
-3.6412022834645668
11
5.6519323228346456
21
-3.6412432677165354
0
LINE
8
BLACK
6
CONTINUOUS
10
5.6519323228346456
20
-3.6412432677165354
11
5.6520982283464569
21
-3.6411829133858267
0
LINE
8
BLACK
6
CONTINUOUS
10
5.6520982283464569
20
-3.6411829133858267
11
5.6577225196850396
21
-3.6411829133858267
0
LINE
8
BLACK
6
CONTINUOUS
10
5.6577225196850396
20
-3.6411829133858267
11
5.658732440944882
21
-3.6413609842519685
0
LINE
8
BLACK
6
CONTINUOUS
10
5.6500977952755909
20
-3.6484371653543306
11
5.6489006692913382
21
-3.6496342913385824
0
LINE
8
BLACK
6
CONTINUOUS
10
5.6489006692913382
20
-3.6496342913385824
11
5.6475519291338578
21
-3.6523317716535431
0
LINE
8
BLACK
6
CONTINUOUS
10
5.6475519291338578
20
-3.6523317716535431
11
5.6475519291338578
21
-3.6636800787401573
0
LINE
8
BLACK
6
CONTINUOUS
10
5.6475519291338578
20
-3.6636800787401573
11
5.6622688188976378
21
-3.6636800787401573
0
LINE
8
BLACK
6
CONTINUOUS
10
5.6622688188976378
20
-3.6636800787401573
11
5.6622688188976378
21
-3.6523317716535431
0
LINE
8
BLACK
6
CONTINUOUS
10
5.6622688188976378
20
-3.6523317716535431
11
5.6609200787401575
21
-3.6496342913385824
0
LINE
8
BLACK
6
CONTINUOUS
10
5.6609200787401575
20
-3.6496342913385824
11
5.6597229527559056
21
-3.6484371653543306
0
LINE
8
BLACK
6
CONTINUOUS
10
5.6597229527559056
20
-3.6484371653543306
11
5.657025472440945
21
-3.6470884251968503
0
LINE
8
BLACK
6
CONTINUOUS
10
5.657025472440945
20
-3.6470884251968503
11
5.6527952755905506
21
-3.6470884251968503
0
LINE
8
BLACK
6
CONTINUOUS
10
5.6527952755905506
20
-3.6470884251968503
11
5.6500977952755909
21
-3.6484371653543306
0
LINE
8
BLACK
6
CONTINUOUS
10
5.6862311811023618
20
-3.6047423622047243
11
5.6869220078740153
21
-3.6066403543307084
0
LINE
8
BLACK
6
CONTINUOUS
10
5.6869220078740153
20
-3.6066403543307084
11
5.6869220078740153
21
-3.6291375196850395
0
LINE
8
BLACK
6
CONTINUOUS
10
5.6869220078740153
20
-3.6291375196850395
11
5.6867439370078738
21
-3.630147440944882
0
LINE
8
BLACK
6
CONTINUOUS
10
5.6867439370078738
20
-3.630147440944882
11
5.6854456299212597
21
-3.6316946850393701
0
LINE
8
BLACK
6
CONTINUOUS
10
5.6854456299212597
20
-3.6316946850393701
11
5.6834564960629921
21
-3.632045433070866
0
LINE
8
BLACK
6
CONTINUOUS
10
5.6834564960629921
20
-3.632045433070866
11
5.6817073228346455
21
-3.6310355118110236
0
LINE
8
BLACK
6
CONTINUOUS
10
5.6817073228346455
20
-3.6310355118110236
11
5.6810164960629921
21
-3.6291375196850395
0
LINE
8
BLACK
6
CONTINUOUS
10
5.6810164960629921
20
-3.6291375196850395
11
5.6810164960629921
21
-3.6208416929133858
0
LINE
8
BLACK
6
CONTINUOUS
10
5.6810164960629921
20
-3.6208416929133858
11
5.6536025196850392
21
-3.6208416929133858
0
LINE
8
BLACK
6
CONTINUOUS
10
5.6536025196850392
20
-3.6208416929133858
11
5.6560609055118105
21
-3.6233000787401575
0
LINE
8
BLACK
6
CONTINUOUS
10
5.6560609055118105
20
-3.6233000787401575
11
5.6565672834645664
21
-3.6240232283464566
0
LINE
8
BLACK
6
CONTINUOUS
10
5.6565672834645664
20
-3.6240232283464566
11
5.6566140157480316
21
-3.6240674803149604
0
LINE
8
BLACK
6
CONTINUOUS
10
5.6566140157480316
20
-3.6240674803149604
11
5.6584887795275591
21
-3.6278170078740155
0
LINE
8
BLACK
6
CONTINUOUS
10
5.6584887795275591
20
-3.6278170078740155
11
5.6587811417322831
21
-3.6287999212598425
0
LINE
8
BLACK
6
CONTINUOUS
10
5.6587811417322831
20
-3.6287999212598425
11
5.6583118503937007
21
-3.6307644488188977
0
LINE
8
BLACK
6
CONTINUOUS
10
5.6583118503937007
20
-3.6307644488188977
11
5.6566895669291339
21
-3.6319677559055119
0
LINE
8
BLACK
6
CONTINUOUS
10
5.6566895669291339
20
-3.6319677559055119
11
5.65467342519685
21
-3.6318466929133857
0
LINE
8
BLACK
6
CONTINUOUS
10
5.65467342519685
20
-3.6318466929133857
11
5.653206732283464
21
-3.6304580314960631
0
LINE
8
BLACK
6
CONTINUOUS
10
5.653206732283464
20
-3.6304580314960631
11
5.6515462598425197
21
-3.627137086614173
0
LINE
8
BLACK
6
CONTINUOUS
10
5.6515462598425197
20
-3.627137086614173
11
5.6483422834645669
21
-3.6239331102362202
0
LINE
8
BLACK
6
CONTINUOUS
10
5.6483422834645669
20
-3.6239331102362202
11
5.6429612598425196
21
-3.6203457874015745
0
LINE
8
BLACK
6
CONTINUOUS
10
5.6429612598425196
20
-3.6203457874015745
11
5.6422197637795275
21
-3.6196374015748032
0
LINE
8
BLACK
6
CONTINUOUS
10
5.6422197637795275
20
-3.6196374015748032
11
5.6421720472440944
21
-3.6194744488188975
0
LINE
8
BLACK
6
CONTINUOUS
10
5.6421720472440944
20
-3.6194744488188975
11
5.6420420078740152
21
-3.6193653149606297
0
LINE
8
BLACK
6
CONTINUOUS
10
5.6420420078740152
20
-3.6193653149606297
11
5.6418931889763781
21
-3.6185213779527556
0
LINE
8
BLACK
6
CONTINUOUS
10
5.6418931889763781
20
-3.6185213779527556
11
5.6416525196850396
21
-3.6176988976377951
0
LINE
8
BLACK
6
CONTINUOUS
10
5.6416525196850396
20
-3.6176988976377951
11
5.6417207086614169
21
-3.6175433858267714
0
LINE
8
BLACK
6
CONTINUOUS
10
5.6417207086614169
20
-3.6175433858267714
11
5.6416912598425197
21
-3.6173761811023621
0
LINE
8
BLACK
6
CONTINUOUS
10
5.6416912598425197
20
-3.6173761811023621
11
5.6421196850393702
21
-3.6166340944881887
0
LINE
8
BLACK
6
CONTINUOUS
10
5.6421196850393702
20
-3.6166340944881887
11
5.6424640551181104
21
-3.6158492913385825
0
LINE
8
BLACK
6
CONTINUOUS
10
5.6424640551181104
20
-3.6158492913385825
11
5.6426162992125981
21
-3.6157740157480314
0
LINE
8
BLACK
6
CONTINUOUS
10
5.6426162992125981
20
-3.6157740157480314
11
5.6427011811023622
21
-3.6156270078740156
0
LINE
8
BLACK
6
CONTINUOUS
10
5.6427011811023622
20
-3.6156270078740156
11
5.6435064173228344
21
-3.6153338976377953
0
LINE
8
BLACK
6
CONTINUOUS
10
5.6435064173228344
20
-3.6153338976377953
11
5.6442746456692916
21
-3.6149540944881888
0
LINE
8
BLACK
6
CONTINUOUS
10
5.6442746456692916
20
-3.6149540944881888
11
5.6444395669291341
21
-3.6149942519685037
0
LINE
8
BLACK
6
CONTINUOUS
10
5.6444395669291341
20
-3.6149942519685037
11
5.6445991732283467
21
-3.6149361811023621
0
LINE
8
BLACK
6
CONTINUOUS
10
5.6445991732283467
20
-3.6149361811023621
11
5.6810164960629921
21
-3.6149361811023621
0
LINE
8
BLACK
6
CONTINUOUS
10
5.6810164960629921
20
-3.6149361811023621
11
5.6810164960629921
21
-3.6066403543307084
0
LINE
8
BLACK
6
CONTINUOUS
10
5.6810164960629921
20
-3.6066403543307084
11
5.6811945669291335
21
-3.6056304330708659
0
LINE
8
BLACK
6
CONTINUOUS
10
5.6811945669291335
20
-3.6056304330708659
11
5.6824928740157477
21
-3.6040831889763778
0
LINE
8
BLACK
6
CONTINUOUS
10
5.6824928740157477
20
-3.6040831889763778
11
5.6844820078740153
21
-3.6037324409448819
0
LINE
8
BLACK
6
CONTINUOUS
10
5.6844820078740153
20
-3.6037324409448819
11
5.6862311811023618
21
-3.6047423622047243
0
LINE
8
BLACK
6
CONTINUOUS
10
5.2585994488188978
20
-3.5614005511811024
11
5.2592913385826767
21
-3.5630708661417323
0
LINE
8
BLACK
6
CONTINUOUS
10
5.2592913385826767
20
-3.5630708661417323
11
5.2592913385826767
21
-3.6099212598425194
0
LINE
8
BLACK
6
CONTINUOUS
10
5.2592913385826767
20
-3.6099212598425194
11
5.3061417322834643
21
-3.6099212598425194
0
LINE
8
BLACK
6
CONTINUOUS
10
5.3061417322834643
20
-3.6099212598425194
11
5.3078120472440942
21
-3.6106131496062992
0
LINE
8
BLACK
6
CONTINUOUS
10
5.3078120472440942
20
-3.6106131496062992
11
5.3085039370078739
21
-3.6122834645669291
0
LINE
8
BLACK
6
CONTINUOUS
10
5.3085039370078739
20
-3.6122834645669291
11
5.3078120472440942
21
-3.6139537795275589
0
LINE
8
BLACK
6
CONTINUOUS
10
5.3078120472440942
20
-3.6139537795275589
11
5.3061417322834643
21
-3.6146456692913387
0
LINE
8
BLACK
6
CONTINUOUS
10
5.3061417322834643
20
-3.6146456692913387
11
5.256929133858268
21
-3.6146456692913387
0
LINE
8
BLACK
6
CONTINUOUS
10
5.256929133858268
20
-3.6146456692913387
11
5.2552588188976372
21
-3.6139537795275589
0
LINE
8
BLACK
6
CONTINUOUS
10
5.2552588188976372
20
-3.6139537795275589
11
5.2545669291338584
21
-3.6122834645669291
0
LINE
8
BLACK
6
CONTINUOUS
10
5.2545669291338584
20
-3.6122834645669291
11
5.2545669291338584
21
-3.5630708661417323
0
LINE
8
BLACK
6
CONTINUOUS
10
5.2545669291338584
20
-3.5630708661417323
11
5.2552588188976372
21
-3.5614005511811024
0
LINE
8
BLACK
6
CONTINUOUS
10
5.2552588188976372
20
-3.5614005511811024
11
5.256929133858268
21
-3.5607086614173227
0
LINE
8
BLACK
6
CONTINUOUS
10
5.256929133858268
20
-3.5607086614173227
11
5.2585994488188978
21
-3.5614005511811024
0
LINE
8
BLACK
6
CONTINUOUS
10
5.6067096850393696
20
-3.5923595275590552
11
5.6074015748031494
21
-3.594029842519685
0
LINE
8
BLACK
6
CONTINUOUS
10
5.6074015748031494
20
-3.594029842519685
11
5.6074015748031494
21
-3.6061275590551181
0
LINE
8
BLACK
6
CONTINUOUS
10
5.6074015748031494
20
-3.6061275590551181
11
5.6067096850393696
21
-3.6077978740157479
0
LINE
8
BLACK
6
CONTINUOUS
10
5.6067096850393696
20
-3.6077978740157479
11
5.6050393700787398
21
-3.6084897637795277
0
LINE
8
BLACK
6
CONTINUOUS
10
5.6050393700787398
20
-3.6084897637795277
11
5.6033690551181099
21
-3.6077978740157479
0
LINE
8
BLACK
6
CONTINUOUS
10
5.6033690551181099
20
-3.6077978740157479
11
5.602677165354331
21
-3.6061275590551181
0
LINE
8
BLACK
6
CONTINUOUS
10
5.602677165354331
20
-3.6061275590551181
11
5.602677165354331
21
-3.594029842519685
0
LINE
8
BLACK
6
CONTINUOUS
10
5.602677165354331
20
-3.594029842519685
11
5.6033690551181099
21
-3.5923595275590552
0
LINE
8
BLACK
6
CONTINUOUS
10
5.6033690551181099
20
-3.5923595275590552
11
5.6050393700787398
21
-3.5916676377952754
0
LINE
8
BLACK
6
CONTINUOUS
10
5.6050393700787398
20
-3.5916676377952754
11
5.6067096850393696
21
-3.5923595275590552
0
LINE
8
BLACK
6
CONTINUOUS
10
5.6366309448818894
20
-3.5923595275590552
11
5.6373228346456692
21
-3.594029842519685
0
LINE
8
BLACK
6
CONTINUOUS
10
5.6373228346456692
20
-3.594029842519685
11
5.6373228346456692
21
-3.6061275590551181
0
LINE
8
BLACK
6
CONTINUOUS
10
5.6373228346456692
20
-3.6061275590551181
11
5.6366309448818894
21
-3.6077978740157479
0
LINE
8
BLACK
6
CONTINUOUS
10
5.6366309448818894
20
-3.6077978740157479
11
5.6349606299212596
21
-3.6084897637795277
0
LINE
8
BLACK
6
CONTINUOUS
10
5.6349606299212596
20
-3.6084897637795277
11
5.6332903149606297
21
-3.6077978740157479
0
LINE
8
BLACK
6
CONTINUOUS
10
5.6332903149606297
20
-3.6077978740157479
11
5.6325984251968499
21
-3.6061275590551181
0
LINE
8
BLACK
6
CONTINUOUS
10
5.6325984251968499
20
-3.6061275590551181
11
5.6325984251968499
21
-3.594029842519685
0
LINE
8
BLACK
6
CONTINUOUS
10
5.6325984251968499
20
-3.594029842519685
11
5.6332903149606297
21
-3.5923595275590552
0
LINE
8
BLACK
6
CONTINUOUS
10
5.6332903149606297
20
-3.5923595275590552
11
5.6349606299212596
21
-3.5916676377952754
0
LINE
8
BLACK
6
CONTINUOUS
10
5.6349606299212596
20
-3.5916676377952754
11
5.6366309448818894
21
-3.5923595275590552
0
LINE
8
BLACK
6
CONTINUOUS
10
5.4545669291338585
20
-3.3571653543307085
11
5.4562372440944884
21
-3.3578572440944883
0
LINE
8
BLACK
6
CONTINUOUS
10
5.4562372440944884
20
-3.3578572440944883
11
5.4569291338582673
21
-3.3595275590551181
0
LINE
8
BLACK
6
CONTINUOUS
10
5.4569291338582673
20
-3.3595275590551181
11
5.4569291338582673
21
-3.6004724409448818
0
LINE
8
BLACK
6
CONTINUOUS
10
5.4569291338582673
20
-3.6004724409448818
11
5.4562372440944884
21
-3.6021427559055117
0
LINE
8
BLACK
6
CONTINUOUS
10
5.4562372440944884
20
-3.6021427559055117
11
5.4545669291338585
21
-3.6028346456692915
0
LINE
8
BLACK
6
CONTINUOUS
10
5.4545669291338585
20
-3.6028346456692915
11
5.3714960629921258
21
-3.6028346456692915
0
LINE
8
BLACK
6
CONTINUOUS
10
5.3714960629921258
20
-3.6028346456692915
11
5.3203149606299212
21
-3.6028346456692915
0
LINE
8
BLACK
6
CONTINUOUS
10
5.3203149606299212
20
-3.6028346456692915
11
5.2687401574803152
21
-3.6028346456692915
0
LINE
8
BLACK
6
CONTINUOUS
10
5.2687401574803152
20
-3.6028346456692915
11
5.2670698425196854
21
-3.6021427559055117
0
LINE
8
BLACK
6
CONTINUOUS
10
5.2670698425196854
20
-3.6021427559055117
11
5.2663779527559056
21
-3.6004724409448818
0
LINE
8
BLACK
6
CONTINUOUS
10
5.2663779527559056
20
-3.6004724409448818
11
5.2663779527559056
21
-3.5453543307086615
0
LINE
8
BLACK
6
CONTINUOUS
10
5.2663779527559056
20
-3.5453543307086615
11
5.2648031496062995
21
-3.5453543307086615
0
LINE
8
BLACK
6
CONTINUOUS
10
5.2648031496062995
20
-3.5453543307086615
11
5.2608661417322837
21
-3.5453543307086615
0
LINE
8
BLACK
6
CONTINUOUS
10
5.2608661417322837
20
-3.5453543307086615
11
5.259195826771653
21
-3.5446624409448817
0
LINE
8
BLACK
6
CONTINUOUS
10
5.259195826771653
20
-3.5446624409448817
11
5.2585039370078741
21
-3.5429921259842518
0
LINE
8
BLACK
6
CONTINUOUS
10
5.2585039370078741
20
-3.5429921259842518
11
5.2585039370078741
21
-3.5311811023622046
0
LINE
8
BLACK
6
CONTINUOUS
10
5.2585039370078741
20
-3.5311811023622046
11
5.259195826771653
21
-3.5295107874015748
0
LINE
8
BLACK
6
CONTINUOUS
10
5.259195826771653
20
-3.5295107874015748
11
5.2608661417322837
21
-3.528818897637795
0
LINE
8
BLACK
6
CONTINUOUS
10
5.2608661417322837
20
-3.528818897637795
11
5.2663779527559056
21
-3.528818897637795
0
LINE
8
BLACK
6
CONTINUOUS
10
5.2663779527559056
20
-3.528818897637795
11
5.2663779527559056
21
-3.3595275590551181
0
LINE
8
BLACK
6
CONTINUOUS
10
5.2663779527559056
20
-3.3595275590551181
11
5.2670698425196854
21
-3.3578572440944883
0
LINE
8
BLACK
6
CONTINUOUS
10
5.2670698425196854
20
-3.3578572440944883
11
5.2687401574803152
21
-3.3571653543307085
0
LINE
8
BLACK
6
CONTINUOUS
10
5.2687401574803152
20
-3.3571653543307085
11
5.4545669291338585
21
-3.3571653543307085
0
LINE
8
BLACK
6
CONTINUOUS
10
5.2711023622047239
20
-3.5020472440944883
11
5.2711023622047239
21
-3.5981102362204722
0
LINE
8
BLACK
6
CONTINUOUS
10
5.2711023622047239
20
-3.5981102362204722
11
5.3179527559055115
21
-3.5981102362204722
0
LINE
8
BLACK
6
CONTINUOUS
10
5.3179527559055115
20
-3.5981102362204722
11
5.3179527559055115
21
-3.5788188976377953
0
LINE
8
BLACK
6
CONTINUOUS
10
5.3179527559055115
20
-3.5788188976377953
11
5.292755905511811
21
-3.5788188976377953
0
LINE
8
BLACK
6
CONTINUOUS
10
5.292755905511811
20
-3.5788188976377953
11
5.2910855905511811
21
-3.5781270078740155
0
LINE
8
BLACK
6
CONTINUOUS
10
5.2910855905511811
20
-3.5781270078740155
11
5.2903937007874013
21
-3.5764566929133856
0
LINE
8
BLACK
6
CONTINUOUS
10
5.2903937007874013
20
-3.5764566929133856
11
5.2903937007874013
21
-3.5020472440944883
0
LINE
8
BLACK
6
CONTINUOUS
10
5.2903937007874013
20
-3.5020472440944883
11
5.2711023622047239
21
-3.5020472440944883
0
LINE
8
BLACK
6
CONTINUOUS
10
5.3226771653543308
20
-3.5788188976377953
11
5.3226771653543308
21
-3.5981102362204722
0
LINE
8
BLACK
6
CONTINUOUS
10
5.3226771653543308
20
-3.5981102362204722
11
5.3691338582677162
21
-3.5981102362204722
0
LINE
8
BLACK
6
CONTINUOUS
10
5.3691338582677162
20
-3.5981102362204722
11
5.3691338582677162
21
-3.5788188976377953
0
LINE
8
BLACK
6
CONTINUOUS
10
5.3691338582677162
20
-3.5788188976377953
11
5.3226771653543308
21
-3.5788188976377953
0
LINE
8
BLACK
6
CONTINUOUS
10
5.3738582677165354
20
-3.3618897637795273
11
5.3738582677165354
21
-3.3811811023622047
0
LINE
8
BLACK
6
CONTINUOUS
10
5.3738582677165354
20
-3.3811811023622047
11
5.4305511811023619
21
-3.3811811023622047
0
LINE
8
BLACK
6
CONTINUOUS
10
5.4305511811023619
20
-3.3811811023622047
11
5.4322214960629918
21
-3.381872992125984
0
LINE
8
BLACK
6
CONTINUOUS
10
5.4322214960629918
20
-3.381872992125984
11
5.4329133858267715
21
-3.3835433070866139
0
LINE
8
BLACK
6
CONTINUOUS
10
5.4329133858267715
20
-3.3835433070866139
11
5.4329133858267715
21
-3.5764566929133856
0
LINE
8
BLACK
6
CONTINUOUS
10
5.4329133858267715
20
-3.5764566929133856
11
5.4322214960629918
21
-3.5781270078740155
0
LINE
8
BLACK
6
CONTINUOUS
10
5.4322214960629918
20
-3.5781270078740155
11
5.4305511811023619
21
-3.5788188976377953
0
LINE
8
BLACK
6
CONTINUOUS
10
5.4305511811023619
20
-3.5788188976377953
11
5.3738582677165354
21
-3.5788188976377953
0
LINE
8
BLACK
6
CONTINUOUS
10
5.3738582677165354
20
-3.5788188976377953
11
5.3738582677165354
21
-3.5981102362204722
0
LINE
8
BLACK
6
CONTINUOUS
10
5.3738582677165354
20
-3.5981102362204722
11
5.4522047244094489
21
-3.5981102362204722
0
LINE
8
BLACK
6
CONTINUOUS
10
5.4522047244094489
20
-3.5981102362204722
11
5.4522047244094489
21
-3.3618897637795273
0
LINE
8
BLACK
6
CONTINUOUS
10
5.4522047244094489
20
-3.3618897637795273
11
5.3738582677165354
21
-3.3618897637795273
0
LINE
8
BLACK
6
CONTINUOUS
10
5.3714960629921258
20
-3.3859055118110235
11
5.3203149606299212
21
-3.3859055118110235
0
LINE
8
BLACK
6
CONTINUOUS
10
5.3203149606299212
20
-3.3859055118110235
11
5.2951181102362206
21
-3.3859055118110235
0
LINE
8
BLACK
6
CONTINUOUS
10
5.2951181102362206
20
-3.3859055118110235
11
5.2951181102362206
21
-3.4603149606299213
0
LINE
8
BLACK
6
CONTINUOUS
10
5.2951181102362206
20
-3.4603149606299213
11
5.2944262204724408
21
-3.4619852755905511
0
LINE
8
BLACK
6
CONTINUOUS
10
5.2944262204724408
20
-3.4619852755905511
11
5.292755905511811
21
-3.4626771653543305
0
LINE
8
BLACK
6
CONTINUOUS
10
5.292755905511811
20
-3.4626771653543305
11
5.2711023622047239
21
-3.4626771653543305
0
LINE
8
BLACK
6
CONTINUOUS
10
5.2711023622047239
20
-3.4626771653543305
11
5.2711023622047239
21
-3.4973228346456691
0
LINE
8
BLACK
6
CONTINUOUS
10
5.2711023622047239
20
-3.4973228346456691
11
5.292755905511811
21
-3.4973228346456691
0
LINE
8
BLACK
6
CONTINUOUS
10
5.292755905511811
20
-3.4973228346456691
11
5.2944262204724408
21
-3.4980147244094488
0
LINE
8
BLACK
6
CONTINUOUS
10
5.2944262204724408
20
-3.4980147244094488
11
5.2951181102362206
21
-3.4996850393700787
0
LINE
8
BLACK
6
CONTINUOUS
10
5.2951181102362206
20
-3.4996850393700787
11
5.2951181102362206
21
-3.5740944881889765
0
LINE
8
BLACK
6
CONTINUOUS
10
5.2951181102362206
20
-3.5740944881889765
11
5.4281889763779523
21
-3.5740944881889765
0
LINE
8
BLACK
6
CONTINUOUS
10
5.4281889763779523
20
-3.5740944881889765
11
5.4281889763779523
21
-3.4862992125984249
0
LINE
8
BLACK
6
CONTINUOUS
10
5.4281889763779523
20
-3.4862992125984249
11
5.4108661417322832
21
-3.4862992125984249
0
LINE
8
BLACK
6
CONTINUOUS
10
5.4108661417322832
20
-3.4862992125984249
11
5.4091958267716533
21
-3.4856073228346456
0
LINE
8
BLACK
6
CONTINUOUS
10
5.4091958267716533
20
-3.4856073228346456
11
5.4085039370078736
21
-3.4839370078740157
0
LINE
8
BLACK
6
CONTINUOUS
10
5.4085039370078736
20
-3.4839370078740157
11
5.4085039370078736
21
-3.4760629921259842
0
LINE
8
BLACK
6
CONTINUOUS
10
5.4085039370078736
20
-3.4760629921259842
11
5.4091958267716533
21
-3.4743926771653544
0
LINE
8
BLACK
6
CONTINUOUS
10
5.4091958267716533
20
-3.4743926771653544
11
5.4108661417322832
21
-3.4737007874015746
0
LINE
8
BLACK
6
CONTINUOUS
10
5.4108661417322832
20
-3.4737007874015746
11
5.4281889763779523
21
-3.4737007874015746
0
LINE
8
BLACK
6
CONTINUOUS
10
5.4281889763779523
20
-3.4737007874015746
11
5.4281889763779523
21
-3.3859055118110235
0
LINE
8
BLACK
6
CONTINUOUS
10
5.4281889763779523
20
-3.3859055118110235
11
5.3714960629921258
21
-3.3859055118110235
0
LINE
8
BLACK
6
CONTINUOUS
10
5.2711023622047239
20
-3.3618897637795273
11
5.2711023622047239
21
-3.4579527559055117
0
LINE
8
BLACK
6
CONTINUOUS
10
5.2711023622047239
20
-3.4579527559055117
11
5.2903937007874013
21
-3.4579527559055117
0
LINE
8
BLACK
6
CONTINUOUS
10
5.2903937007874013
20
-3.4579527559055117
11
5.2903937007874013
21
-3.3835433070866139
0
LINE
8
BLACK
6
CONTINUOUS
10
5.2903937007874013
20
-3.3835433070866139
11
5.2910855905511811
21
-3.381872992125984
0
LINE
8
BLACK
6
CONTINUOUS
10
5.2910855905511811
20
-3.381872992125984
11
5.292755905511811
21
-3.3811811023622047
0
LINE
8
BLACK
6
CONTINUOUS
10
5.292755905511811
20
-3.3811811023622047
11
5.3179527559055115
21
-3.3811811023622047
0
LINE
8
BLACK
6
CONTINUOUS
10
5.3179527559055115
20
-3.3811811023622047
11
5.3179527559055115
21
-3.3618897637795273
0
LINE
8
BLACK
6
CONTINUOUS
10
5.3179527559055115
20
-3.3618897637795273
11
5.2711023622047239
21
-3.3618897637795273
0
LINE
8
BLACK
6
CONTINUOUS
10
5.3226771653543308
20
-3.3618897637795273
11
5.3226771653543308
21
-3.3811811023622047
0
LINE
8
BLACK
6
CONTINUOUS
10
5.3226771653543308
20
-3.3811811023622047
11
5.3691338582677162
21
-3.3811811023622047
0
LINE
8
BLACK
6
CONTINUOUS
10
5.3691338582677162
20
-3.3811811023622047
11
5.3691338582677162
21
-3.3618897637795273
0
LINE
8
BLACK
6
CONTINUOUS
10
5.3691338582677162
20
-3.3618897637795273
11
5.3226771653543308
21
-3.3618897637795273
0
LINE
8
BLACK
6
CONTINUOUS
10
5.669551456692913
20
-3.5662946062992127
11
5.6696872440944883
21
-3.5662804330708662
0
LINE
8
BLACK
6
CONTINUOUS
10
5.6696872440944883
20
-3.5662804330708662
11
5.6771862992125985
21
-3.5681551968503937
0
LINE
8
BLACK
6
CONTINUOUS
10
5.6771862992125985
20
-3.5681551968503937
11
5.6776517322834641
21
-3.5683627559055116
0
LINE
8
BLACK
6
CONTINUOUS
10
5.6776517322834641
20
-3.5683627559055116
11
5.6777906692913387
21
-3.568378779527559
0
LINE
8
BLACK
6
CONTINUOUS
10
5.6777906692913387
20
-3.568378779527559
11
5.6815401968503938
21
-3.5702535433070866
0
LINE
8
BLACK
6
CONTINUOUS
10
5.6815401968503938
20
-3.5702535433070866
11
5.682249173228346
21
-3.57077937007874
0
LINE
8
BLACK
6
CONTINUOUS
10
5.682249173228346
20
-3.57077937007874
11
5.6823075590551184
21
-3.5708066141732284
0
LINE
8
BLACK
6
CONTINUOUS
10
5.6823075590551184
20
-3.5708066141732284
11
5.6841823622047238
21
-3.572681377952756
0
LINE
8
BLACK
6
CONTINUOUS
10
5.6841823622047238
20
-3.572681377952756
11
5.6846887401574806
21
-3.5734045275590551
0
LINE
8
BLACK
6
CONTINUOUS
10
5.6846887401574806
20
-3.5734045275590551
11
5.6847355118110237
21
-3.5734488188976377
0
LINE
8
BLACK
6
CONTINUOUS
10
5.6847355118110237
20
-3.5734488188976377
11
5.6866102755905512
21
-3.5771983464566928
0
LINE
8
BLACK
6
CONTINUOUS
10
5.6866102755905512
20
-3.5771983464566928
11
5.6869026377952752
21
-3.5781812598425198
0
LINE
8
BLACK
6
CONTINUOUS
10
5.6869026377952752
20
-3.5781812598425198
11
5.6868616141732282
21
-3.5783529527559055
0
LINE
8
BLACK
6
CONTINUOUS
10
5.6868616141732282
20
-3.5783529527559055
11
5.6869220078740153
21
-3.5785188582677163
0
LINE
8
BLACK
6
CONTINUOUS
10
5.6869220078740153
20
-3.5785188582677163
11
5.6869220078740153
21
-3.5822683858267714
0
LINE
8
BLACK
6
CONTINUOUS
10
5.6869220078740153
20
-3.5822683858267714
11
5.6867439370078738
21
-3.5832783070866139
0
LINE
8
BLACK
6
CONTINUOUS
10
5.6867439370078738
20
-3.5832783070866139
11
5.6866304330708664
21
-3.5834135433070866
0
LINE
8
BLACK
6
CONTINUOUS
10
5.6866304330708664
20
-3.5834135433070866
11
5.6866102755905512
21
-3.583588897637795
0
LINE
8
BLACK
6
CONTINUOUS
10
5.6866102755905512
20
-3.583588897637795
11
5.6847355118110237
21
-3.5873384251968505
0
LINE
8
BLACK
6
CONTINUOUS
10
5.6847355118110237
20
-3.5873384251968505
11
5.6842095275590552
21
-3.5880475196850394
0
LINE
8
BLACK
6
CONTINUOUS
10
5.6842095275590552
20
-3.5880475196850394
11
5.6841823622047238
21
-3.5881058661417322
0
LINE
8
BLACK
6
CONTINUOUS
10
5.6841823622047238
20
-3.5881058661417322
11
5.6823075590551184
21
-3.5899806299212598
0
LINE
8
BLACK
6
CONTINUOUS
10
5.6823075590551184
20
-3.5899806299212598
11
5.6815844881889763
21
-3.5904868897637794
0
LINE
8
BLACK
6
CONTINUOUS
10
5.6815844881889763
20
-3.5904868897637794
11
5.6815401968503938
21
-3.5905337007874016
0
LINE
8
BLACK
6
CONTINUOUS
10
5.6815401968503938
20
-3.5905337007874016
11
5.6777906692913387
21
-3.5924084645669292
0
LINE
8
BLACK
6
CONTINUOUS
10
5.6777906692913387
20
-3.5924084645669292
11
5.6773022047244091
21
-3.5925537401574803
0
LINE
8
BLACK
6
CONTINUOUS
10
5.6773022047244091
20
-3.5925537401574803
11
5.6771862992125985
21
-3.5926320472440945
0
LINE
8
BLACK
6
CONTINUOUS
10
5.6771862992125985
20
-3.5926320472440945
11
5.6696872440944883
21
-3.594506811023622
0
LINE
8
BLACK
6
CONTINUOUS
10
5.6696872440944883
20
-3.594506811023622
11
5.6690993307086615
21
-3.5945482677165352
0
LINE
8
BLACK
6
CONTINUOUS
10
5.6690993307086615
20
-3.5945482677165352
11
5.6689711023622049
21
-3.5945949606299212
0
LINE
8
BLACK
6
CONTINUOUS
10
5.6689711023622049
20
-3.5945949606299212
11
5.6595972834645671
21
-3.5945949606299212
0
LINE
8
BLACK
6
CONTINUOUS
10
5.6595972834645671
20
-3.5945949606299212
11
5.6590168897637794
21
-3.5944925984251967
0
LINE
8
BLACK
6
CONTINUOUS
10
5.6590168897637794
20
-3.5944925984251967
11
5.6588811417322837
21
-3.594506811023622
0
LINE
8
BLACK
6
CONTINUOUS
10
5.6588811417322837
20
-3.594506811023622
11
5.6513820866141735
21
-3.5926320472440945
0
LINE
8
BLACK
6
CONTINUOUS
10
5.6513820866141735
20
-3.5926320472440945
11
5.6509166141732283
21
-3.5924244488188974
0
LINE
8
BLACK
6
CONTINUOUS
10
5.6509166141732283
20
-3.5924244488188974
11
5.6507777165354334
21
-3.5924084645669292
0
LINE
8
BLACK
6
CONTINUOUS
10
5.6507777165354334
20
-3.5924084645669292
11
5.6470281889763783
21
-3.5905337007874016
0
LINE
8
BLACK
6
CONTINUOUS
10
5.6470281889763783
20
-3.5905337007874016
11
5.6463190944881889
21
-3.5900077952755907
0
LINE
8
BLACK
6
CONTINUOUS
10
5.6463190944881889
20
-3.5900077952755907
11
5.6462607874015749
21
-3.589980590551181
0
LINE
8
BLACK
6
CONTINUOUS
10
5.6462607874015749
20
-3.589980590551181
11
5.6443860236220473
21
-3.5881058267716535
0
LINE
8
BLACK
6
CONTINUOUS
10
5.6443860236220473
20
-3.5881058267716535
11
5.643879724409449
21
-3.5873827165354331
0
LINE
8
BLACK
6
CONTINUOUS
10
5.643879724409449
20
-3.5873827165354331
11
5.6438329133858263
21
-3.5873384251968505
0
LINE
8
BLACK
6
CONTINUOUS
10
5.6438329133858263
20
-3.5873384251968505
11
5.6419581496062987
21
-3.583588897637795
0
LINE
8
BLACK
6
CONTINUOUS
10
5.6419581496062987
20
-3.583588897637795
11
5.6416657874015748
21
-3.5826059448818897
0
LINE
8
BLACK
6
CONTINUOUS
10
5.6416657874015748
20
-3.5826059448818897
11
5.641706771653543
21
-3.582434251968504
0
LINE
8
BLACK
6
CONTINUOUS
10
5.641706771653543
20
-3.582434251968504
11
5.6416464173228347
21
-3.5822683858267714
0
LINE
8
BLACK
6
CONTINUOUS
10
5.6416464173228347
20
-3.5822683858267714
11
5.6416464173228347
21
-3.5785188582677163
0
LINE
8
BLACK
6
CONTINUOUS
10
5.6416464173228347
20
-3.5785188582677163
11
5.6418244881889761
21
-3.5775089370078739
0
LINE
8
BLACK
6
CONTINUOUS
10
5.6418244881889761
20
-3.5775089370078739
11
5.6419379527559057
21
-3.5773736614173228
0
LINE
8
BLACK
6
CONTINUOUS
10
5.6419379527559057
20
-3.5773736614173228
11
5.6419581496062987
21
-3.5771983464566928
0
LINE
8
BLACK
6
CONTINUOUS
10
5.6419581496062987
20
-3.5771983464566928
11
5.6438329133858263
21
-3.5734488188976377
0
LINE
8
BLACK
6
CONTINUOUS
10
5.6438329133858263
20
-3.5734488188976377
11
5.6443588188976372
21
-3.5727397244094488
0
LINE
8
BLACK
6
CONTINUOUS
10
5.6443588188976372
20
-3.5727397244094488
11
5.6443860236220473
21
-3.5726814173228347
0
LINE
8
BLACK
6
CONTINUOUS
10
5.6443860236220473
20
-3.5726814173228347
11
5.6462607874015749
21
-3.5708066535433072
0
LINE
8
BLACK
6
CONTINUOUS
10
5.6462607874015749
20
-3.5708066535433072
11
5.6469838582677161
21
-3.5703003543307084
0
LINE
8
BLACK
6
CONTINUOUS
10
5.6469838582677161
20
-3.5703003543307084
11
5.6470281889763783
21
-3.5702535433070866
0
LINE
8
BLACK
6
CONTINUOUS
10
5.6470281889763783
20
-3.5702535433070866
11
5.6507777165354334
21
-3.568378779527559
0
LINE
8
BLACK
6
CONTINUOUS
10
5.6507777165354334
20
-3.568378779527559
11
5.6512661417322834
21
-3.5682334645669291
0
LINE
8
BLACK
6
CONTINUOUS
10
5.6512661417322834
20
-3.5682334645669291
11
5.6513820866141735
21
-3.5681551968503937
0
LINE
8
BLACK
6
CONTINUOUS
10
5.6513820866141735
20
-3.5681551968503937
11
5.6588811417322837
21
-3.5662804330708662
0
LINE
8
BLACK
6
CONTINUOUS
10
5.6588811417322837
20
-3.5662804330708662
11
5.659469015748031
21
-3.5662389370078738
0
LINE
8
BLACK
6
CONTINUOUS
10
5.659469015748031
20
-3.5662389370078738
11
5.6595972834645671
21
-3.566192283464567
0
LINE
8
BLACK
6
CONTINUOUS
10
5.6595972834645671
20
-3.566192283464567
11
5.6689711023622049
21
-3.566192283464567
0
LINE
8
BLACK
6
CONTINUOUS
10
5.6689711023622049
20
-3.566192283464567
11
5.669551456692913
21
-3.5662946062992127
0
LINE
8
BLACK
6
CONTINUOUS
10
5.6531287795275587
20
-3.5738057874015747
11
5.6500977952755909
21
-3.5753212992125984
0
LINE
8
BLACK
6
CONTINUOUS
10
5.6500977952755909
20
-3.5753212992125984
11
5.6489006692913382
21
-3.5765184251968503
0
LINE
8
BLACK
6
CONTINUOUS
10
5.6489006692913382
20
-3.5765184251968503
11
5.6475519291338578
21
-3.5792159055118109
0
LINE
8
BLACK
6
CONTINUOUS
10
5.6475519291338578
20
-3.5792159055118109
11
5.6475519291338578
21
-3.5815713385826773
0
LINE
8
BLACK
6
CONTINUOUS
10
5.6475519291338578
20
-3.5815713385826773
11
5.6489006692913382
21
-3.5842688188976379
0
LINE
8
BLACK
6
CONTINUOUS
10
5.6489006692913382
20
-3.5842688188976379
11
5.6500977952755909
21
-3.5854659448818897
0
LINE
8
BLACK
6
CONTINUOUS
10
5.6500977952755909
20
-3.5854659448818897
11
5.6531287795275587
21
-3.5869814173228347
0
LINE
8
BLACK
6
CONTINUOUS
10
5.6531287795275587
20
-3.5869814173228347
11
5.6599608267716537
21
-3.5886894488188976
0
LINE
8
BLACK
6
CONTINUOUS
10
5.6599608267716537
20
-3.5886894488188976
11
5.6686075590551184
21
-3.5886894488188976
0
LINE
8
BLACK
6
CONTINUOUS
10
5.6686075590551184
20
-3.5886894488188976
11
5.6754396062992125
21
-3.5869814173228347
0
LINE
8
BLACK
6
CONTINUOUS
10
5.6754396062992125
20
-3.5869814173228347
11
5.6784705905511812
21
-3.585465905511811
0
LINE
8
BLACK
6
CONTINUOUS
10
5.6784705905511812
20
-3.585465905511811
11
5.6796677559055118
21
-3.5842687795275592
0
LINE
8
BLACK
6
CONTINUOUS
10
5.6796677559055118
20
-3.5842687795275592
11
5.6810164960629921
21
-3.5815713385826773
0
LINE
8
BLACK
6
CONTINUOUS
10
5.6810164960629921
20
-3.5815713385826773
11
5.6810164960629921
21
-3.5792159055118109
0
LINE
8
BLACK
6
CONTINUOUS
10
5.6810164960629921
20
-3.5792159055118109
11
5.6796677559055118
21
-3.5765184251968503
0
LINE
8
BLACK
6
CONTINUOUS
10
5.6796677559055118
20
-3.5765184251968503
11
5.6784705905511812
21
-3.5753212992125984
0
LINE
8
BLACK
6
CONTINUOUS
10
5.6784705905511812
20
-3.5753212992125984
11
5.6754396062992125
21
-3.5738057874015747
0
LINE
8
BLACK
6
CONTINUOUS
10
5.6754396062992125
20
-3.5738057874015747
11
5.6686075590551184
21
-3.5720977952755906
0
LINE
8
BLACK
6
CONTINUOUS
10
5.6686075590551184
20
-3.5720977952755906
11
5.6599608267716537
21
-3.5720977952755906
0
LINE
8
BLACK
6
CONTINUOUS
10
5.6599608267716537
20
-3.5720977952755906
11
5.6531287795275587
21
-3.5738057874015747
0
LINE
8
BLACK
6
CONTINUOUS
10
5.6862311811023618
20
-3.5297517322834646
11
5.6869220078740153
21
-3.5316497244094487
0
LINE
8
BLACK
6
CONTINUOUS
10
5.6869220078740153
20
-3.5316497244094487
11
5.6869220078740153
21
-3.5541468897637793
0
LINE
8
BLACK
6
CONTINUOUS
10
5.6869220078740153
20
-3.5541468897637793
11
5.6867439370078738
21
-3.5551568110236218
0
LINE
8
BLACK
6
CONTINUOUS
10
5.6867439370078738
20
-3.5551568110236218
11
5.6854456299212597
21
-3.5567040551181099
0
LINE
8
BLACK
6
CONTINUOUS
10
5.6854456299212597
20
-3.5567040551181099
11
5.6834564960629921
21
-3.5570548031496063
0
LINE
8
BLACK
6
CONTINUOUS
10
5.6834564960629921
20
-3.5570548031496063
11
5.6817073228346455
21
-3.5560448818897639
0
LINE
8
BLACK
6
CONTINUOUS
10
5.6817073228346455
20
-3.5560448818897639
11
5.6810164960629921
21
-3.5541468897637793
0
LINE
8
BLACK
6
CONTINUOUS
10
5.6810164960629921
20
-3.5541468897637793
11
5.6810164960629921
21
-3.545851062992126
0
LINE
8
BLACK
6
CONTINUOUS
10
5.6810164960629921
20
-3.545851062992126
11
5.6536025196850392
21
-3.545851062992126
0
LINE
8
BLACK
6
CONTINUOUS
10
5.6536025196850392
20
-3.545851062992126
11
5.6560609055118105
21
-3.5483094488188978
0
LINE
8
BLACK
6
CONTINUOUS
10
5.6560609055118105
20
-3.5483094488188978
11
5.6565672834645664
21
-3.5490325984251969
0
LINE
8
BLACK
6
CONTINUOUS
10
5.6565672834645664
20
-3.5490325984251969
11
5.6566140157480316
21
-3.5490768503937007
0
LINE
8
BLACK
6
CONTINUOUS
10
5.6566140157480316
20
-3.5490768503937007
11
5.6584887795275591
21
-3.5528263779527558
0
LINE
8
BLACK
6
CONTINUOUS
10
5.6584887795275591
20
-3.5528263779527558
11
5.6587811417322831
21
-3.5538092913385828
0
LINE
8
BLACK
6
CONTINUOUS
10
5.6587811417322831
20
-3.5538092913385828
11
5.6583118503937007
21
-3.5557738188976376
0
LINE
8
BLACK
6
CONTINUOUS
10
5.6583118503937007
20
-3.5557738188976376
11
5.6566895669291339
21
-3.5569771259842518
0
LINE
8
BLACK
6
CONTINUOUS
10
5.6566895669291339
20
-3.5569771259842518
11
5.65467342519685
21
-3.556856062992126
0
LINE
8
BLACK
6
CONTINUOUS
10
5.65467342519685
20
-3.556856062992126
11
5.653206732283464
21
-3.5554674015748029
0
LINE
8
BLACK
6
CONTINUOUS
10
5.653206732283464
20
-3.5554674015748029
11
5.6515462598425197
21
-3.5521464566929133
0
LINE
8
BLACK
6
CONTINUOUS
10
5.6515462598425197
20
-3.5521464566929133
11
5.6483422834645669
21
-3.5489424803149605
0
LINE
8
BLACK
6
CONTINUOUS
10
5.6483422834645669
20
-3.5489424803149605
11
5.6429612598425196
21
-3.5453551574803148
0
LINE
8
BLACK
6
CONTINUOUS
10
5.6429612598425196
20
-3.5453551574803148
11
5.6422197637795275
21
-3.544646771653543
0
LINE
8
BLACK
6
CONTINUOUS
10
5.6422197637795275
20
-3.544646771653543
11
5.6421720472440944
21
-3.5444838188976378
0
LINE
8
BLACK
6
CONTINUOUS
10
5.6421720472440944
20
-3.5444838188976378
11
5.6420420078740152
21
-3.54437468503937
0
LINE
8
BLACK
6
CONTINUOUS
10
5.6420420078740152
20
-3.54437468503937
11
5.6418931889763781
21
-3.5435307480314959
0
LINE
8
BLACK
6
CONTINUOUS
10
5.6418931889763781
20
-3.5435307480314959
11
5.6416525196850396
21
-3.5427082677165354
0
LINE
8
BLACK
6
CONTINUOUS
10
5.6416525196850396
20
-3.5427082677165354
11
5.6417207086614169
21
-3.5425527559055117
0
LINE
8
BLACK
6
CONTINUOUS
10
5.6417207086614169
20
-3.5425527559055117
11
5.6416912598425197
21
-3.5423855511811024
0
LINE
8
BLACK
6
CONTINUOUS
10
5.6416912598425197
20
-3.5423855511811024
11
5.6421196850393702
21
-3.541643464566929
0
LINE
8
BLACK
6
CONTINUOUS
10
5.6421196850393702
20
-3.541643464566929
11
5.6424640551181104
21
-3.5408586614173228
0
LINE
8
BLACK
6
CONTINUOUS
10
5.6424640551181104
20
-3.5408586614173228
11
5.6426162992125981
21
-3.5407833858267717
0
LINE
8
BLACK
6
CONTINUOUS
10
5.6426162992125981
20
-3.5407833858267717
11
5.6427011811023622
21
-3.5406363779527559
0
LINE
8
BLACK
6
CONTINUOUS
10
5.6427011811023622
20
-3.5406363779527559
11
5.6435064173228344
21
-3.5403432677165352
0
LINE
8
BLACK
6
CONTINUOUS
10
5.6435064173228344
20
-3.5403432677165352
11
5.6442746456692916
21
-3.5399634645669291
0
LINE
8
BLACK
6
CONTINUOUS
10
5.6442746456692916
20
-3.5399634645669291
11
5.6444395669291341
21
-3.5400036220472439
0
LINE
8
BLACK
6
CONTINUOUS
10
5.6444395669291341
20
-3.5400036220472439
11
5.6445991732283467
21
-3.5399455511811024
0
LINE
8
BLACK
6
CONTINUOUS
10
5.6445991732283467
20
-3.5399455511811024
11
5.6810164960629921
21
-3.5399455511811024
0
LINE
8
BLACK
6
CONTINUOUS
10
5.6810164960629921
20
-3.5399455511811024
11
5.6810164960629921
21
-3.5316497244094487
0
LINE
8
BLACK
6
CONTINUOUS
10
5.6810164960629921
20
-3.5316497244094487
11
5.6811945669291335
21
-3.5306398031496062
0
LINE
8
BLACK
6
CONTINUOUS
10
5.6811945669291335
20
-3.5306398031496062
11
5.6824928740157477
21
-3.5290925590551181
0
LINE
8
BLACK
6
CONTINUOUS
10
5.6824928740157477
20
-3.5290925590551181
11
5.6844820078740153
21
-3.5287418110236222
0
LINE
8
BLACK
6
CONTINUOUS
10
5.6844820078740153
20
-3.5287418110236222
11
5.6862311811023618
21
-3.5297517322834646
0
LINE
8
BLACK
6
CONTINUOUS
10
5.2333537795275591
20
-3.5278191732283464
11
5.2334181496062993
21
-3.5278174409448817
0
LINE
8
BLACK
6
CONTINUOUS
10
5.2334181496062993
20
-3.5278174409448817
11
5.2390424409448819
21
-3.5296922047244093
0
LINE
8
BLACK
6
CONTINUOUS
10
5.2390424409448819
20
-3.5296922047244093
11
5.2399442125984255
21
-3.5301804724409447
0
LINE
8
BLACK
6
CONTINUOUS
10
5.2399442125984255
20
-3.5301804724409447
11
5.2400366141732286
21
-3.5303309055118111
0
LINE
8
BLACK
6
CONTINUOUS
10
5.2400366141732286
20
-3.5303309055118111
11
5.2401966141732279
21
-3.5304055118110234
0
LINE
8
BLACK
6
CONTINUOUS
10
5.2401966141732279
20
-3.5304055118110234
11
5.2439461811023618
21
-3.5341550393700785
0
LINE
8
BLACK
6
CONTINUOUS
10
5.2439461811023618
20
-3.5341550393700785
11
5.2445344094488187
21
-3.5349950787401574
0
LINE
8
BLACK
6
CONTINUOUS
10
5.2445344094488187
20
-3.5349950787401574
11
5.2445497637795278
21
-3.5351709842519683
0
LINE
8
BLACK
6
CONTINUOUS
10
5.2445497637795278
20
-3.5351709842519683
11
5.2446594881889759
21
-3.5353092125984249
0
LINE
8
BLACK
6
CONTINUOUS
10
5.2446594881889759
20
-3.5353092125984249
11
5.2465342519685034
21
-3.5409334645669293
0
LINE
8
BLACK
6
CONTINUOUS
10
5.2465342519685034
20
-3.5409334645669293
11
5.24666374015748
21
-3.5418066929133856
0
LINE
8
BLACK
6
CONTINUOUS
10
5.24666374015748
20
-3.5418066929133856
11
5.2466857874015744
21
-3.5418672440944881
0
LINE
8
BLACK
6
CONTINUOUS
10
5.2466857874015744
20
-3.5418672440944881
11
5.2466857874015744
21
-3.5456167716535432
0
LINE
8
BLACK
6
CONTINUOUS
10
5.2466857874015744
20
-3.5456167716535432
11
5.246507716535433
21
-3.5466266929133856
0
LINE
8
BLACK
6
CONTINUOUS
10
5.246507716535433
20
-3.5466266929133856
11
5.2452094094488189
21
-3.5481739370078738
0
LINE
8
BLACK
6
CONTINUOUS
10
5.2452094094488189
20
-3.5481739370078738
11
5.2432202755905513
21
-3.5485246850393701
0
LINE
8
BLACK
6
CONTINUOUS
10
5.2432202755905513
20
-3.5485246850393701
11
5.2414711023622047
21
-3.5475147637795277
0
LINE
8
BLACK
6
CONTINUOUS
10
5.2414711023622047
20
-3.5475147637795277
11
5.2407802755905513
21
-3.5456167716535432
0
LINE
8
BLACK
6
CONTINUOUS
10
5.2407802755905513
20
-3.5456167716535432
11
5.2407802755905513
21
-3.542346377952756
0
LINE
8
BLACK
6
CONTINUOUS
10
5.2407802755905513
20
-3.542346377952756
11
5.2392774803149607
21
-3.5378379921259842
0
LINE
8
BLACK
6
CONTINUOUS
10
5.2392774803149607
20
-3.5378379921259842
11
5.2365136614173231
21
-3.5350742125984249
0
LINE
8
BLACK
6
CONTINUOUS
10
5.2365136614173231
20
-3.5350742125984249
11
5.2320052755905513
21
-3.5335714173228348
0
LINE
8
BLACK
6
CONTINUOUS
10
5.2320052755905513
20
-3.5335714173228348
11
5.204362952755905
21
-3.5335714173228348
0
LINE
8
BLACK
6
CONTINUOUS
10
5.204362952755905
20
-3.5335714173228348
11
5.2033530314960625
21
-3.5333933464566929
0
LINE
8
BLACK
6
CONTINUOUS
10
5.2033530314960625
20
-3.5333933464566929
11
5.2018057874015744
21
-3.5320950393700787
0
LINE
8
BLACK
6
CONTINUOUS
10
5.2018057874015744
20
-3.5320950393700787
11
5.2014550393700789
21
-3.5301059055118111
0
LINE
8
BLACK
6
CONTINUOUS
10
5.2014550393700789
20
-3.5301059055118111
11
5.2024649606299214
21
-3.5283567322834646
0
LINE
8
BLACK
6
CONTINUOUS
10
5.2024649606299214
20
-3.5283567322834646
11
5.204362952755905
21
-3.5276659055118111
0
LINE
8
BLACK
6
CONTINUOUS
10
5.204362952755905
20
-3.5276659055118111
11
5.2324844094488192
21
-3.5276659055118111
0
LINE
8
BLACK
6
CONTINUOUS
10
5.2324844094488192
20
-3.5276659055118111
11
5.2333537795275591
21
-3.5278191732283464
0
LINE
8
BLACK
6
CONTINUOUS
10
5.245994960629921
20
-3.4893505905511812
11
5.2466857874015744
21
-3.4912485826771653
0
LINE
8
BLACK
6
CONTINUOUS
10
5.2466857874015744
20
-3.4912485826771653
11
5.2466857874015744
21
-3.513745748031496
0
LINE
8
BLACK
6
CONTINUOUS
10
5.2466857874015744
20
-3.513745748031496
11
5.246507716535433
21
-3.5147556692913384
0
LINE
8
BLACK
6
CONTINUOUS
10
5.246507716535433
20
-3.5147556692913384
11
5.2452094094488189
21
-3.5163029133858266
0
LINE
8
BLACK
6
CONTINUOUS
10
5.2452094094488189
20
-3.5163029133858266
11
5.2432202755905513
21
-3.5166536614173229
0
LINE
8
BLACK
6
CONTINUOUS
10
5.2432202755905513
20
-3.5166536614173229
11
5.2414711023622047
21
-3.51564374015748
0
LINE
8
BLACK
6
CONTINUOUS
10
5.2414711023622047
20
-3.51564374015748
11
5.2407802755905513
21
-3.513745748031496
0
LINE
8
BLACK
6
CONTINUOUS
10
5.2407802755905513
20
-3.513745748031496
11
5.2407802755905513
21
-3.5054499212598422
0
LINE
8
BLACK
6
CONTINUOUS
10
5.2407802755905513
20
-3.5054499212598422
11
5.2133662992125984
21
-3.5054499212598422
0
LINE
8
BLACK
6
CONTINUOUS
10
5.2133662992125984
20
-3.5054499212598422
11
5.2158246850393697
21
-3.5079083070866139
0
LINE
8
BLACK
6
CONTINUOUS
10
5.2158246850393697
20
-3.5079083070866139
11
5.2163310629921256
21
-3.5086314566929131
0
LINE
8
BLACK
6
CONTINUOUS
10
5.2163310629921256
20
-3.5086314566929131
11
5.2163777952755908
21
-3.5086757086614173
0
LINE
8
BLACK
6
CONTINUOUS
10
5.2163777952755908
20
-3.5086757086614173
11
5.2182525590551183
21
-3.5124252362204724
0
LINE
8
BLACK
6
CONTINUOUS
10
5.2182525590551183
20
-3.5124252362204724
11
5.2185449212598423
21
-3.513408149606299
0
LINE
8
BLACK
6
CONTINUOUS
10
5.2185449212598423
20
-3.513408149606299
11
5.2180756299212598
21
-3.5153726771653542
0
LINE
8
BLACK
6
CONTINUOUS
10
5.2180756299212598
20
-3.5153726771653542
11
5.2164533464566931
21
-3.5165759842519684
0
LINE
8
BLACK
6
CONTINUOUS
10
5.2164533464566931
20
-3.5165759842519684
11
5.2144372047244092
21
-3.5164549212598426
0
LINE
8
BLACK
6
CONTINUOUS
10
5.2144372047244092
20
-3.5164549212598426
11
5.2129705118110232
21
-3.5150662598425195
0
LINE
8
BLACK
6
CONTINUOUS
10
5.2129705118110232
20
-3.5150662598425195
11
5.2113100393700789
21
-3.5117453149606299
0
LINE
8
BLACK
6
CONTINUOUS
10
5.2113100393700789
20
-3.5117453149606299
11
5.2081060629921261
21
-3.5085413385826771
0
LINE
8
BLACK
6
CONTINUOUS
10
5.2081060629921261
20
-3.5085413385826771
11
5.2027250393700788
21
-3.5049540157480314
0
LINE
8
BLACK
6
CONTINUOUS
10
5.2027250393700788
20
-3.5049540157480314
11
5.2019835433070867
21
-3.5042456299212597
0
LINE
8
BLACK
6
CONTINUOUS
10
5.2019835433070867
20
-3.5042456299212597
11
5.2019358267716536
21
-3.5040826771653544
0
LINE
8
BLACK
6
CONTINUOUS
10
5.2019358267716536
20
-3.5040826771653544
11
5.2018057874015744
21
-3.5039735433070867
0
LINE
8
BLACK
6
CONTINUOUS
10
5.2018057874015744
20
-3.5039735433070867
11
5.2016569685039373
21
-3.5031296062992126
0
LINE
8
BLACK
6
CONTINUOUS
10
5.2016569685039373
20
-3.5031296062992126
11
5.2014162992125987
21
-3.502307125984252
0
LINE
8
BLACK
6
CONTINUOUS
10
5.2014162992125987
20
-3.502307125984252
11
5.2014844881889761
21
-3.5021516141732283
0
LINE
8
BLACK
6
CONTINUOUS
10
5.2014844881889761
20
-3.5021516141732283
11
5.2014550393700789
21
-3.5019844094488186
0
LINE
8
BLACK
6
CONTINUOUS
10
5.2014550393700789
20
-3.5019844094488186
11
5.2018834645669294
21
-3.5012423228346456
0
LINE
8
BLACK
6
CONTINUOUS
10
5.2018834645669294
20
-3.5012423228346456
11
5.2022278346456687
21
-3.5004575196850394
0
LINE
8
BLACK
6
CONTINUOUS
10
5.2022278346456687
20
-3.5004575196850394
11
5.2023800787401573
21
-3.5003822440944883
0
LINE
8
BLACK
6
CONTINUOUS
10
5.2023800787401573
20
-3.5003822440944883
11
5.2024649606299214
21
-3.5002352362204725
0
LINE
8
BLACK
6
CONTINUOUS
10
5.2024649606299214
20
-3.5002352362204725
11
5.2032701968503936
21
-3.4999421259842518
0
LINE
8
BLACK
6
CONTINUOUS
10
5.2032701968503936
20
-3.4999421259842518
11
5.2040384251968499
21
-3.4995623228346457
0
LINE
8
BLACK
6
CONTINUOUS
10
5.2040384251968499
20
-3.4995623228346457
11
5.2042033464566924
21
-3.4996024803149606
0
LINE
8
BLACK
6
CONTINUOUS
10
5.2042033464566924
20
-3.4996024803149606
11
5.204362952755905
21
-3.4995444094488186
0
LINE
8
BLACK
6
CONTINUOUS
10
5.204362952755905
20
-3.4995444094488186
11
5.2407802755905513
21
-3.4995444094488186
0
LINE
8
BLACK
6
CONTINUOUS
10
5.2407802755905513
20
-3.4995444094488186
11
5.2407802755905513
21
-3.4912485826771653
0
LINE
8
BLACK
6
CONTINUOUS
10
5.2407802755905513
20
-3.4912485826771653
11
5.2409583464566927
21
-3.4902386614173229
0
LINE
8
BLACK
6
CONTINUOUS
10
5.2409583464566927
20
-3.4902386614173229
11
5.2422566535433068
21
-3.4886914173228347
0
LINE
8
BLACK
6
CONTINUOUS
10
5.2422566535433068
20
-3.4886914173228347
11
5.2442457874015744
21
-3.4883406692913383
0
LINE
8
BLACK
6
CONTINUOUS
10
5.2442457874015744
20
-3.4883406692913383
11
5.245994960629921
21
-3.4893505905511812
0
LINE
8
BLACK
6
CONTINUOUS
10
5.2293152362204722
20
-3.4509028346456692
11
5.2294510236220475
21
-3.4508886614173226
0
LINE
8
BLACK
6
CONTINUOUS
10
5.2294510236220475
20
-3.4508886614173226
11
5.2369500787401577
21
-3.4527634251968502
0
LINE
8
BLACK
6
CONTINUOUS
10
5.2369500787401577
20
-3.4527634251968502
11
5.2374155118110233
21
-3.4529709842519685
0
LINE
8
BLACK
6
CONTINUOUS
10
5.2374155118110233
20
-3.4529709842519685
11
5.2375544488188979
21
-3.4529870078740155
0
LINE
8
BLACK
6
CONTINUOUS
10
5.2375544488188979
20
-3.4529870078740155
11
5.241303976377953
21
-3.454861771653543
0
LINE
8
BLACK
6
CONTINUOUS
10
5.241303976377953
20
-3.454861771653543
11
5.2420129527559052
21
-3.4553875984251969
0
LINE
8
BLACK
6
CONTINUOUS
10
5.2420129527559052
20
-3.4553875984251969
11
5.2420713385826767
21
-3.4554148425196849
0
LINE
8
BLACK
6
CONTINUOUS
10
5.2420713385826767
20
-3.4554148425196849
11
5.243946141732283
21
-3.4572896062992124
0
LINE
8
BLACK
6
CONTINUOUS
10
5.243946141732283
20
-3.4572896062992124
11
5.2444525196850389
21
-3.4580127559055116
0
LINE
8
BLACK
6
CONTINUOUS
10
5.2444525196850389
20
-3.4580127559055116
11
5.2444992913385828
21
-3.4580570472440946
0
LINE
8
BLACK
6
CONTINUOUS
10
5.2444992913385828
20
-3.4580570472440946
11
5.2463740551181104
21
-3.4618065748031497
0
LINE
8
BLACK
6
CONTINUOUS
10
5.2463740551181104
20
-3.4618065748031497
11
5.2466664173228343
21
-3.4627894881889763
0
LINE
8
BLACK
6
CONTINUOUS
10
5.2466664173228343
20
-3.4627894881889763
11
5.2466253937007874
21
-3.462961181102362
0
LINE
8
BLACK
6
CONTINUOUS
10
5.2466253937007874
20
-3.462961181102362
11
5.2466857874015744
21
-3.4631270866141732
0
LINE
8
BLACK
6
CONTINUOUS
10
5.2466857874015744
20
-3.4631270866141732
11
5.2466857874015744
21
-3.4668766141732283
0
LINE
8
BLACK
6
CONTINUOUS
10
5.2466857874015744
20
-3.4668766141732283
11
5.246507716535433
21
-3.4678865354330708
0
LINE
8
BLACK
6
CONTINUOUS
10
5.246507716535433
20
-3.4678865354330708
11
5.2463942125984246
21
-3.4680217716535431
0
LINE
8
BLACK
6
CONTINUOUS
10
5.2463942125984246
20
-3.4680217716535431
11
5.2463740551181104
21
-3.4681971259842519
0
LINE
8
BLACK
6
CONTINUOUS
10
5.2463740551181104
20
-3.4681971259842519
11
5.2444992913385828
21
-3.471946653543307
0
LINE
8
BLACK
6
CONTINUOUS
10
5.2444992913385828
20
-3.471946653543307
11
5.2439733070866144
21
-3.4726557480314959
0
LINE
8
BLACK
6
CONTINUOUS
10
5.2439733070866144
20
-3.4726557480314959
11
5.243946141732283
21
-3.4727140944881887
0
LINE
8
BLACK
6
CONTINUOUS
10
5.243946141732283
20
-3.4727140944881887
11
5.2420713385826767
21
-3.4745888582677162
0
LINE
8
BLACK
6
CONTINUOUS
10
5.2420713385826767
20
-3.4745888582677162
11
5.2413482677165355
21
-3.4750951181102363
0
LINE
8
BLACK
6
CONTINUOUS
10
5.2413482677165355
20
-3.4750951181102363
11
5.241303976377953
21
-3.4751419291338581
0
LINE
8
BLACK
6
CONTINUOUS
10
5.241303976377953
20
-3.4751419291338581
11
5.2375544488188979
21
-3.4770166929133857
0
LINE
8
BLACK
6
CONTINUOUS
10
5.2375544488188979
20
-3.4770166929133857
11
5.2370659842519682
21
-3.4771619685039368
0
LINE
8
BLACK
6
CONTINUOUS
10
5.2370659842519682
20
-3.4771619685039368
11
5.2369500787401577
21
-3.4772402755905509
0
LINE
8
BLACK
6
CONTINUOUS
10
5.2369500787401577
20
-3.4772402755905509
11
5.2294510236220475
21
-3.4791150393700785
0
LINE
8
BLACK
6
CONTINUOUS
10
5.2294510236220475
20
-3.4791150393700785
11
5.2288631102362206
21
-3.4791564960629922
0
LINE
8
BLACK
6
CONTINUOUS
10
5.2288631102362206
20
-3.4791564960629922
11
5.2287348818897641
21
-3.4792031889763777
0
LINE
8
BLACK
6
CONTINUOUS
10
5.2287348818897641
20
-3.4792031889763777
11
5.2193610629921254
21
-3.4792031889763777
0
LINE
8
BLACK
6
CONTINUOUS
10
5.2193610629921254
20
-3.4792031889763777
11
5.2187806692913385
21
-3.4791008267716537
0
LINE
8
BLACK
6
CONTINUOUS
10
5.2187806692913385
20
-3.4791008267716537
11
5.218644921259842
21
-3.4791150393700785
0
LINE
8
BLACK
6
CONTINUOUS
10
5.218644921259842
20
-3.4791150393700785
11
5.2111458661417318
21
-3.4772402755905509
0
LINE
8
BLACK
6
CONTINUOUS
10
5.2111458661417318
20
-3.4772402755905509
11
5.2106803937007875
21
-3.4770326771653544
0
LINE
8
BLACK
6
CONTINUOUS
10
5.2106803937007875
20
-3.4770326771653544
11
5.2105414960629917
21
-3.4770166929133857
0
LINE
8
BLACK
6
CONTINUOUS
10
5.2105414960629917
20
-3.4770166929133857
11
5.2067919685039366
21
-3.4751419291338581
0
LINE
8
BLACK
6
CONTINUOUS
10
5.2067919685039366
20
-3.4751419291338581
11
5.2060828740157481
21
-3.4746160236220471
0
LINE
8
BLACK
6
CONTINUOUS
10
5.2060828740157481
20
-3.4746160236220471
11
5.2060245669291341
21
-3.4745888188976379
0
LINE
8
BLACK
6
CONTINUOUS
10
5.2060245669291341
20
-3.4745888188976379
11
5.2041498031496065
21
-3.4727140551181104
0
LINE
8
BLACK
6
CONTINUOUS
10
5.2041498031496065
20
-3.4727140551181104
11
5.2036435039370081
21
-3.4719909448818895
0
LINE
8
BLACK
6
CONTINUOUS
10
5.2036435039370081
20
-3.4719909448818895
11
5.2035966929133854
21
-3.471946653543307
0
LINE
8
BLACK
6
CONTINUOUS
10
5.2035966929133854
20
-3.471946653543307
11
5.2017219291338579
21
-3.4681971259842519
0
LINE
8
BLACK
6
CONTINUOUS
10
5.2017219291338579
20
-3.4681971259842519
11
5.2014295669291339
21
-3.4672141732283466
0
LINE
8
BLACK
6
CONTINUOUS
10
5.2014295669291339
20
-3.4672141732283466
11
5.2014705511811021
21
-3.4670424803149604
0
LINE
8
BLACK
6
CONTINUOUS
10
5.2014705511811021
20
-3.4670424803149604
11
5.2014101968503939
21
-3.4668766141732283
0
LINE
8
BLACK
6
CONTINUOUS
10
5.2014101968503939
20
-3.4668766141732283
11
5.2014101968503939
21
-3.4631270866141732
0
LINE
8
BLACK
6
CONTINUOUS
10
5.2014101968503939
20
-3.4631270866141732
11
5.2015882677165353
21
-3.4621171653543308
0
LINE
8
BLACK
6
CONTINUOUS
10
5.2015882677165353
20
-3.4621171653543308
11
5.2017017322834649
21
-3.4619818897637793
0
LINE
8
BLACK
6
CONTINUOUS
10
5.2017017322834649
20
-3.4619818897637793
11
5.2017219291338579
21
-3.4618065748031497
0
LINE
8
BLACK
6
CONTINUOUS
10
5.2017219291338579
20
-3.4618065748031497
11
5.2035966929133854
21
-3.4580570472440946
0
LINE
8
BLACK
6
CONTINUOUS
10
5.2035966929133854
20
-3.4580570472440946
11
5.2041225984251964
21
-3.4573479527559052
0
LINE
8
BLACK
6
CONTINUOUS
10
5.2041225984251964
20
-3.4573479527559052
11
5.2041498031496065
21
-3.4572896456692912
0
LINE
8
BLACK
6
CONTINUOUS
10
5.2041498031496065
20
-3.4572896456692912
11
5.2060245669291341
21
-3.4554148818897636
0
LINE
8
BLACK
6
CONTINUOUS
10
5.2060245669291341
20
-3.4554148818897636
11
5.2067476377952753
21
-3.4549085826771653
0
LINE
8
BLACK
6
CONTINUOUS
10
5.2067476377952753
20
-3.4549085826771653
11
5.2067919685039366
21
-3.454861771653543
0
LINE
8
BLACK
6
CONTINUOUS
10
5.2067919685039366
20
-3.454861771653543
11
5.2105414960629917
21
-3.4529870078740155
0
LINE
8
BLACK
6
CONTINUOUS
10
5.2105414960629917
20
-3.4529870078740155
11
5.2110299212598425
21
-3.4528416929133856
0
LINE
8
BLACK
6
CONTINUOUS
10
5.2110299212598425
20
-3.4528416929133856
11
5.2111458661417318
21
-3.4527634251968502
0
LINE
8
BLACK
6
CONTINUOUS
10
5.2111458661417318
20
-3.4527634251968502
11
5.218644921259842
21
-3.4508886614173226
0
LINE
8
BLACK
6
CONTINUOUS
10
5.218644921259842
20
-3.4508886614173226
11
5.2192327952755901
21
-3.4508471653543307
0
LINE
8
BLACK
6
CONTINUOUS
10
5.2192327952755901
20
-3.4508471653543307
11
5.2193610629921254
21
-3.4508005118110234
0
LINE
8
BLACK
6
CONTINUOUS
10
5.2193610629921254
20
-3.4508005118110234
11
5.2287348818897641
21
-3.4508005118110234
0
LINE
8
BLACK
6
CONTINUOUS
10
5.2287348818897641
20
-3.4508005118110234
11
5.2293152362204722
21
-3.4509028346456692
0
LINE
8
BLACK
6
CONTINUOUS
10
5.2128925590551178
20
-3.4584140157480312
11
5.2098615748031492
21
-3.4599295275590549
0
LINE
8
BLACK
6
CONTINUOUS
10
5.2098615748031492
20
-3.4599295275590549
11
5.2086644488188973
21
-3.4611266535433072
0
LINE
8
BLACK
6
CONTINUOUS
10
5.2086644488188973
20
-3.4611266535433072
11
5.207315708661417
21
-3.4638241338582678
0
LINE
8
BLACK
6
CONTINUOUS
10
5.207315708661417
20
-3.4638241338582678
11
5.207315708661417
21
-3.4661795669291338
0
LINE
8
BLACK
6
CONTINUOUS
10
5.207315708661417
20
-3.4661795669291338
11
5.2086644488188973
21
-3.4688770472440944
0
LINE
8
BLACK
6
CONTINUOUS
10
5.2086644488188973
20
-3.4688770472440944
11
5.2098615748031492
21
-3.4700741732283462
0
LINE
8
BLACK
6
CONTINUOUS
10
5.2098615748031492
20
-3.4700741732283462
11
5.2128925590551178
21
-3.4715896456692912
0
LINE
8
BLACK
6
CONTINUOUS
10
5.2128925590551178
20
-3.4715896456692912
11
5.2197246062992129
21
-3.4732976771653541
0
LINE
8
BLACK
6
CONTINUOUS
10
5.2197246062992129
20
-3.4732976771653541
11
5.2283713385826767
21
-3.4732976771653541
0
LINE
8
BLACK
6
CONTINUOUS
10
5.2283713385826767
20
-3.4732976771653541
11
5.2352033858267717
21
-3.4715896456692912
0
LINE
8
BLACK
6
CONTINUOUS
10
5.2352033858267717
20
-3.4715896456692912
11
5.2382343700787404
21
-3.4700741338582675
0
LINE
8
BLACK
6
CONTINUOUS
10
5.2382343700787404
20
-3.4700741338582675
11
5.2394315354330709
21
-3.4688770078740156
0
LINE
8
BLACK
6
CONTINUOUS
10
5.2394315354330709
20
-3.4688770078740156
11
5.2407802755905513
21
-3.4661795669291338
0
LINE
8
BLACK
6
CONTINUOUS
10
5.2407802755905513
20
-3.4661795669291338
11
5.2407802755905513
21
-3.4638241338582678
0
LINE
8
BLACK
6
CONTINUOUS
10
5.2407802755905513
20
-3.4638241338582678
11
5.2394315354330709
21
-3.4611266535433072
0
LINE
8
BLACK
6
CONTINUOUS
10
5.2394315354330709
20
-3.4611266535433072
11
5.2382343700787404
21
-3.4599295275590549
0
LINE
8
BLACK
6
CONTINUOUS
10
5.2382343700787404
20
-3.4599295275590549
11
5.2352033858267717
21
-3.4584140157480312
0
LINE
8
BLACK
6
CONTINUOUS
10
5.2352033858267717
20
-3.4584140157480312
11
5.2283713385826767
21
-3.456706023622047
0
LINE
8
BLACK
6
CONTINUOUS
10
5.2283713385826767
20
-3.456706023622047
11
5.2197246062992129
21
-3.456706023622047
0
LINE
8
BLACK
6
CONTINUOUS
10
5.2197246062992129
20
-3.456706023622047
11
5.2128925590551178
21
-3.4584140157480312
0
LINE
8
BLACK
6
CONTINUOUS
10
5.5653144881889762
20
-3.421206535433071
11
5.5654502755905506
21
-3.4211923622047244
0
LINE
8
BLACK
6
CONTINUOUS
10
5.5654502755905506
20
-3.4211923622047244
11
5.5729493307086617
21
-3.423067125984252
0
LINE
8
BLACK
6
CONTINUOUS
10
5.5729493307086617
20
-3.423067125984252
11
5.5734147637795273
21
-3.4232746850393698
0
LINE
8
BLACK
6
CONTINUOUS
10
5.5734147637795273
20
-3.4232746850393698
11
5.5735537007874019
21
-3.4232907086614173
0
LINE
8
BLACK
6
CONTINUOUS
10
5.5735537007874019
20
-3.4232907086614173
11
5.577303228346457
21
-3.4251654724409448
0
LINE
8
BLACK
6
CONTINUOUS
10
5.577303228346457
20
-3.4251654724409448
11
5.5780122834645667
21
-3.4256913779527558
0
LINE
8
BLACK
6
CONTINUOUS
10
5.5780122834645667
20
-3.4256913779527558
11
5.5780706299212595
21
-3.4257185826771654
0
LINE
8
BLACK
6
CONTINUOUS
10
5.5780706299212595
20
-3.4257185826771654
11
5.5818201968503933
21
-3.4294681102362206
0
LINE
8
BLACK
6
CONTINUOUS
10
5.5818201968503933
20
-3.4294681102362206
11
5.5824084251968502
21
-3.430308149606299
0
LINE
8
BLACK
6
CONTINUOUS
10
5.5824084251968502
20
-3.430308149606299
11
5.5824237795275593
21
-3.4304840551181099
0
LINE
8
BLACK
6
CONTINUOUS
10
5.5824237795275593
20
-3.4304840551181099
11
5.5825335039370074
21
-3.430622283464567
0
LINE
8
BLACK
6
CONTINUOUS
10
5.5825335039370074
20
-3.430622283464567
11
5.584408267716535
21
-3.4362465354330709
0
LINE
8
BLACK
6
CONTINUOUS
10
5.584408267716535
20
-3.4362465354330709
11
5.5845377559055116
21
-3.4371197637795277
0
LINE
8
BLACK
6
CONTINUOUS
10
5.5845377559055116
20
-3.4371197637795277
11
5.584559803149606
21
-3.4371803149606297
0
LINE
8
BLACK
6
CONTINUOUS
10
5.584559803149606
20
-3.4371803149606297
11
5.584559803149606
21
-3.4465541338582675
0
LINE
8
BLACK
6
CONTINUOUS
10
5.584559803149606
20
-3.4465541338582675
11
5.5844921653543302
21
-3.4469376377952754
0
LINE
8
BLACK
6
CONTINUOUS
10
5.5844921653543302
20
-3.4469376377952754
11
5.5845149606299209
21
-3.4470668897637795
0
LINE
8
BLACK
6
CONTINUOUS
10
5.5845149606299209
20
-3.4470668897637795
11
5.5844493307086616
21
-3.4471804724409449
0
LINE
8
BLACK
6
CONTINUOUS
10
5.5844493307086616
20
-3.4471804724409449
11
5.5843817322834646
21
-3.4475640551181104
0
LINE
8
BLACK
6
CONTINUOUS
10
5.5843817322834646
20
-3.4475640551181104
11
5.5838885826771651
21
-3.4481517322834643
0
LINE
8
BLACK
6
CONTINUOUS
10
5.5838885826771651
20
-3.4481517322834643
11
5.5835050393700785
21
-3.4488160629921261
0
LINE
8
BLACK
6
CONTINUOUS
10
5.5835050393700785
20
-3.4488160629921261
11
5.5832546850393703
21
-3.4489071653543308
0
LINE
8
BLACK
6
CONTINUOUS
10
5.5832546850393703
20
-3.4489071653543308
11
5.5830834251968504
21
-3.4491112992125985
0
LINE
8
BLACK
6
CONTINUOUS
10
5.5830834251968504
20
-3.4491112992125985
11
5.5823278346456693
21
-3.4492445275590549
0
LINE
8
BLACK
6
CONTINUOUS
10
5.5823278346456693
20
-3.4492445275590549
11
5.581607047244094
21
-3.4495068897637795
0
LINE
8
BLACK
6
CONTINUOUS
10
5.581607047244094
20
-3.4495068897637795
11
5.5422369685039365
21
-3.4495068897637795
0
LINE
8
BLACK
6
CONTINUOUS
10
5.5422369685039365
20
-3.4495068897637795
11
5.5418534251968499
21
-3.4494392519685038
0
LINE
8
BLACK
6
CONTINUOUS
10
5.5418534251968499
20
-3.4494392519685038
11
5.5417242125984254
21
-3.4494620472440944
0
LINE
8
BLACK
6
CONTINUOUS
10
5.5417242125984254
20
-3.4494620472440944
11
5.5416105905511808
21
-3.4493964173228346
0
LINE
8
BLACK
6
CONTINUOUS
10
5.5416105905511808
20
-3.4493964173228346
11
5.5412270472440941
21
-3.4493288188976376
0
LINE
8
BLACK
6
CONTINUOUS
10
5.5412270472440941
20
-3.4493288188976376
11
5.540639330708661
21
-3.4488356692913387
0
LINE
8
BLACK
6
CONTINUOUS
10
5.540639330708661
20
-3.4488356692913387
11
5.5399750393700788
21
-3.448452125984252
0
LINE
8
BLACK
6
CONTINUOUS
10
5.5399750393700788
20
-3.448452125984252
11
5.5398838976377949
21
-3.4482017716535434
0
LINE
8
BLACK
6
CONTINUOUS
10
5.5398838976377949
20
-3.4482017716535434
11
5.539679803149606
21
-3.4480305118110235
0
LINE
8
BLACK
6
CONTINUOUS
10
5.539679803149606
20
-3.4480305118110235
11
5.5395465354330709
21
-3.4472749212598424
0
LINE
8
BLACK
6
CONTINUOUS
10
5.5395465354330709
20
-3.4472749212598424
11
5.5392842125984254
21
-3.4465541338582675
0
LINE
8
BLACK
6
CONTINUOUS
10
5.5392842125984254
20
-3.4465541338582675
11
5.5392842125984254
21
-3.4371803149606297
0
LINE
8
BLACK
6
CONTINUOUS
10
5.5392842125984254
20
-3.4371803149606297
11
5.5394374803149606
21
-3.4363109055118111
0
LINE
8
BLACK
6
CONTINUOUS
10
5.5394374803149606
20
-3.4363109055118111
11
5.5394357480314955
21
-3.4362465748031497
0
LINE
8
BLACK
6
CONTINUOUS
10
5.5394357480314955
20
-3.4362465748031497
11
5.5413105118110231
21
-3.430622283464567
0
LINE
8
BLACK
6
CONTINUOUS
10
5.5413105118110231
20
-3.430622283464567
11
5.5417987795275589
21
-3.4297205118110234
0
LINE
8
BLACK
6
CONTINUOUS
10
5.5417987795275589
20
-3.4297205118110234
11
5.5419492125984249
21
-3.4296280708661415
0
LINE
8
BLACK
6
CONTINUOUS
10
5.5419492125984249
20
-3.4296280708661415
11
5.5420238188976381
21
-3.4294681102362206
0
LINE
8
BLACK
6
CONTINUOUS
10
5.5420238188976381
20
-3.4294681102362206
11
5.5457733464566932
21
-3.4257185826771654
0
LINE
8
BLACK
6
CONTINUOUS
10
5.5457733464566932
20
-3.4257185826771654
11
5.5464964960629919
21
-3.4252121653543308
0
LINE
8
BLACK
6
CONTINUOUS
10
5.5464964960629919
20
-3.4252121653543308
11
5.5465407480314957
21
-3.4251654724409448
0
LINE
8
BLACK
6
CONTINUOUS
10
5.5465407480314957
20
-3.4251654724409448
11
5.5502902755905508
21
-3.4232907086614173
0
LINE
8
BLACK
6
CONTINUOUS
10
5.5502902755905508
20
-3.4232907086614173
11
5.5507787007874017
21
-3.4231453937007874
0
LINE
8
BLACK
6
CONTINUOUS
10
5.5507787007874017
20
-3.4231453937007874
11
5.5508946456692909
21
-3.423067125984252
0
LINE
8
BLACK
6
CONTINUOUS
10
5.5508946456692909
20
-3.423067125984252
11
5.5583937007874011
21
-3.4211923622047244
0
LINE
8
BLACK
6
CONTINUOUS
10
5.5583937007874011
20
-3.4211923622047244
11
5.5589815748031493
21
-3.421150866141732
0
LINE
8
BLACK
6
CONTINUOUS
10
5.5589815748031493
20
-3.421150866141732
11
5.5591098425196845
21
-3.4211042125984252
0
LINE
8
BLACK
6
CONTINUOUS
10
5.5591098425196845
20
-3.4211042125984252
11
5.5647341338582672
21
-3.4211042125984252
0
LINE
8
BLACK
6
CONTINUOUS
10
5.5647341338582672
20
-3.4211042125984252
11
5.5653144881889762
21
-3.421206535433071
0
LINE
8
BLACK
6
CONTINUOUS
10
5.5526413385826769
20
-3.428717716535433
11
5.5496103543307083
21
-3.4302332283464567
0
LINE
8
BLACK
6
CONTINUOUS
10
5.5496103543307083
20
-3.4302332283464567
11
5.5466925196850392
21
-3.433151023622047
0
LINE
8
BLACK
6
CONTINUOUS
10
5.5466925196850392
20
-3.433151023622047
11
5.5451897244094486
21
-3.4376594488188976
0
LINE
8
BLACK
6
CONTINUOUS
10
5.5451897244094486
20
-3.4376594488188976
11
5.5451897244094486
21
-3.4436013779527559
0
LINE
8
BLACK
6
CONTINUOUS
10
5.5451897244094486
20
-3.4436013779527559
11
5.5786542913385828
21
-3.4436013779527559
0
LINE
8
BLACK
6
CONTINUOUS
10
5.5786542913385828
20
-3.4436013779527559
11
5.5786542913385828
21
-3.4376594488188976
0
LINE
8
BLACK
6
CONTINUOUS
10
5.5786542913385828
20
-3.4376594488188976
11
5.5771514960629922
21
-3.4331510629921258
0
LINE
8
BLACK
6
CONTINUOUS
10
5.5771514960629922
20
-3.4331510629921258
11
5.5742336220472444
21
-3.4302332283464567
0
LINE
8
BLACK
6
CONTINUOUS
10
5.5742336220472444
20
-3.4302332283464567
11
5.5712026377952757
21
-3.428717716535433
0
LINE
8
BLACK
6
CONTINUOUS
10
5.5712026377952757
20
-3.428717716535433
11
5.5643705905511807
21
-3.4270097244094488
0
LINE
8
BLACK
6
CONTINUOUS
10
5.5643705905511807
20
-3.4270097244094488
11
5.5594733858267711
21
-3.4270097244094488
0
LINE
8
BLACK
6
CONTINUOUS
10
5.5594733858267711
20
-3.4270097244094488
11
5.5526413385826769
21
-3.428717716535433
0
LINE
8
BLACK
6
CONTINUOUS
10
5.245994960629921
20
-3.4143599606299211
11
5.2466857874015744
21
-3.4162579527559056
0
LINE
8
BLACK
6
CONTINUOUS
10
5.2466857874015744
20
-3.4162579527559056
11
5.2466857874015744
21
-3.4387551181102363
0
LINE
8
BLACK
6
CONTINUOUS
10
5.2466857874015744
20
-3.4387551181102363
11
5.246507716535433
21
-3.4397650393700787
0
LINE
8
BLACK
6
CONTINUOUS
10
5.246507716535433
20
-3.4397650393700787
11
5.2452094094488189
21
-3.4413122834645669
0
LINE
8
BLACK
6
CONTINUOUS
10
5.2452094094488189
20
-3.4413122834645669
11
5.2432202755905513
21
-3.4416630314960628
0
LINE
8
BLACK
6
CONTINUOUS
10
5.2432202755905513
20
-3.4416630314960628
11
5.2414711023622047
21
-3.4406531102362203
0
LINE
8
BLACK
6
CONTINUOUS
10
5.2414711023622047
20
-3.4406531102362203
11
5.2407802755905513
21
-3.4387551181102363
0
LINE
8
BLACK
6
CONTINUOUS
10
5.2407802755905513
20
-3.4387551181102363
11
5.2407802755905513
21
-3.4304592913385825
0
LINE
8
BLACK
6
CONTINUOUS
10
5.2407802755905513
20
-3.4304592913385825
11
5.2133662992125984
21
-3.4304592913385825
0
LINE
8
BLACK
6
CONTINUOUS
10
5.2133662992125984
20
-3.4304592913385825
11
5.2158246850393697
21
-3.4329176771653542
0
LINE
8
BLACK
6
CONTINUOUS
10
5.2158246850393697
20
-3.4329176771653542
11
5.2163310629921256
21
-3.4336408267716534
0
LINE
8
BLACK
6
CONTINUOUS
10
5.2163310629921256
20
-3.4336408267716534
11
5.2163777952755908
21
-3.4336850787401576
0
LINE
8
BLACK
6
CONTINUOUS
10
5.2163777952755908
20
-3.4336850787401576
11
5.2182525590551183
21
-3.4374346062992127
0
LINE
8
BLACK
6
CONTINUOUS
10
5.2182525590551183
20
-3.4374346062992127
11
5.2185449212598423
21
-3.4384175196850393
0
LINE
8
BLACK
6
CONTINUOUS
10
5.2185449212598423
20
-3.4384175196850393
11
5.2180756299212598
21
-3.4403820472440945
0
LINE
8
BLACK
6
CONTINUOUS
10
5.2180756299212598
20
-3.4403820472440945
11
5.2164533464566931
21
-3.4415853543307087
0
LINE
8
BLACK
6
CONTINUOUS
10
5.2164533464566931
20
-3.4415853543307087
11
5.2144372047244092
21
-3.4414642913385824
0
LINE
8
BLACK
6
CONTINUOUS
10
5.2144372047244092
20
-3.4414642913385824
11
5.2129705118110232
21
-3.4400756299212598
0
LINE
8
BLACK
6
CONTINUOUS
10
5.2129705118110232
20
-3.4400756299212598
11
5.2113100393700789
21
-3.4367546850393702
0
LINE
8
BLACK
6
CONTINUOUS
10
5.2113100393700789
20
-3.4367546850393702
11
5.2081060629921261
21
-3.4335507086614174
0
LINE
8
BLACK
6
CONTINUOUS
10
5.2081060629921261
20
-3.4335507086614174
11
5.2027250393700788
21
-3.4299633858267717
0
LINE
8
BLACK
6
CONTINUOUS
10
5.2027250393700788
20
-3.4299633858267717
11
5.2019835433070867
21
-3.4292549999999999
0
LINE
8
BLACK
6
CONTINUOUS
10
5.2019835433070867
20
-3.4292549999999999
11
5.2019358267716536
21
-3.4290920472440942
0
LINE
8
BLACK
6
CONTINUOUS
10
5.2019358267716536
20
-3.4290920472440942
11
5.2018057874015744
21
-3.4289829133858265
0
LINE
8
BLACK
6
CONTINUOUS
10
5.2018057874015744
20
-3.4289829133858265
11
5.2016569685039373
21
-3.4281389763779528
0
LINE
8
BLACK
6
CONTINUOUS
10
5.2016569685039373
20
-3.4281389763779528
11
5.2014162992125987
21
-3.4273164960629923
0
LINE
8
BLACK
6
CONTINUOUS
10
5.2014162992125987
20
-3.4273164960629923
11
5.2014844881889761
21
-3.4271609842519686
0
LINE
8
BLACK
6
CONTINUOUS
10
5.2014844881889761
20
-3.4271609842519686
11
5.2014550393700789
21
-3.4269937795275589
0
LINE
8
BLACK
6
CONTINUOUS
10
5.2014550393700789
20
-3.4269937795275589
11
5.2018834645669294
21
-3.4262516929133859
0
LINE
8
BLACK
6
CONTINUOUS
10
5.2018834645669294
20
-3.4262516929133859
11
5.2022278346456687
21
-3.4254668897637797
0
LINE
8
BLACK
6
CONTINUOUS
10
5.2022278346456687
20
-3.4254668897637797
11
5.2023800787401573
21
-3.4253916141732281
0
LINE
8
BLACK
6
CONTINUOUS
10
5.2023800787401573
20
-3.4253916141732281
11
5.2024649606299214
21
-3.4252446062992123
0
LINE
8
BLACK
6
CONTINUOUS
10
5.2024649606299214
20
-3.4252446062992123
11
5.2032701968503936
21
-3.4249514960629921
0
LINE
8
BLACK
6
CONTINUOUS
10
5.2032701968503936
20
-3.4249514960629921
11
5.2040384251968499
21
-3.4245716929133856
0
LINE
8
BLACK
6
CONTINUOUS
10
5.2040384251968499
20
-3.4245716929133856
11
5.2042033464566924
21
-3.4246118503937009
0
LINE
8
BLACK
6
CONTINUOUS
10
5.2042033464566924
20
-3.4246118503937009
11
5.204362952755905
21
-3.4245537795275589
0
LINE
8
BLACK
6
CONTINUOUS
10
5.204362952755905
20
-3.4245537795275589
11
5.2407802755905513
21
-3.4245537795275589
0
LINE
8
BLACK
6
CONTINUOUS
10
5.2407802755905513
20
-3.4245537795275589
11
5.2407802755905513
21
-3.4162579527559056
0
LINE
8
BLACK
6
CONTINUOUS
10
5.2407802755905513
20
-3.4162579527559056
11
5.2409583464566927
21
-3.4152480314960627
0
LINE
8
BLACK
6
CONTINUOUS
10
5.2409583464566927
20
-3.4152480314960627
11
5.2422566535433068
21
-3.4137007874015746
0
LINE
8
BLACK
6
CONTINUOUS
10
5.2422566535433068
20
-3.4137007874015746
11
5.2442457874015744
21
-3.4133500393700786
0
LINE
8
BLACK
6
CONTINUOUS
10
5.2442457874015744
20
-3.4133500393700786
11
5.245994960629921
21
-3.4143599606299211
0
LINE
8
BLACK
6
CONTINUOUS
10
5.6506073228346452
20
-3.3468336220472441
11
5.6512992125984249
21
-3.348503937007874
0
LINE
8
BLACK
6
CONTINUOUS
10
5.6512992125984249
20
-3.348503937007874
11
5.6512992125984249
21
-3.4384645669291336
0
LINE
8
BLACK
6
CONTINUOUS
10
5.6512992125984249
20
-3.4384645669291336
11
5.6506073228346452
21
-3.4401348818897639
0
LINE
8
BLACK
6
CONTINUOUS
10
5.6506073228346452
20
-3.4401348818897639
11
5.6489370078740153
21
-3.4408267716535432
0
LINE
8
BLACK
6
CONTINUOUS
10
5.6489370078740153
20
-3.4408267716535432
11
5.591062992125984
21
-3.4408267716535432
0
LINE
8
BLACK
6
CONTINUOUS
10
5.591062992125984
20
-3.4408267716535432
11
5.5893926771653542
21
-3.4401348818897639
0
LINE
8
BLACK
6
CONTINUOUS
10
5.5893926771653542
20
-3.4401348818897639
11
5.5887007874015744
21
-3.4384645669291336
0
LINE
8
BLACK
6
CONTINUOUS
10
5.5887007874015744
20
-3.4384645669291336
11
5.5887007874015744
21
-3.348503937007874
0
LINE
8
BLACK
6
CONTINUOUS
10
5.5887007874015744
20
-3.348503937007874
11
5.5893926771653542
21
-3.3468336220472441
0
LINE
8
BLACK
6
CONTINUOUS
10
5.5893926771653542
20
-3.3468336220472441
11
5.591062992125984
21
-3.3461417322834643
0
LINE
8
BLACK
6
CONTINUOUS
10
5.591062992125984
20
-3.3461417322834643
11
5.5927333070866139
21
-3.3468336220472441
0
LINE
8
BLACK
6
CONTINUOUS
10
5.5927333070866139
20
-3.3468336220472441
11
5.5934251968503936
21
-3.348503937007874
0
LINE
8
BLACK
6
CONTINUOUS
10
5.5934251968503936
20
-3.348503937007874
11
5.5934251968503936
21
-3.4361023622047244
0
LINE
8
BLACK
6
CONTINUOUS
10
5.5934251968503936
20
-3.4361023622047244
11
5.6465748031496066
21
-3.4361023622047244
0
LINE
8
BLACK
6
CONTINUOUS
10
5.6465748031496066
20
-3.4361023622047244
11
5.6465748031496066
21
-3.348503937007874
0
LINE
8
BLACK
6
CONTINUOUS
10
5.6465748031496066
20
-3.348503937007874
11
5.6472666929133855
21
-3.3468336220472441
0
LINE
8
BLACK
6
CONTINUOUS
10
5.6472666929133855
20
-3.3468336220472441
11
5.6489370078740153
21
-3.3461417322834643
0
LINE
8
BLACK
6
CONTINUOUS
10
5.6489370078740153
20
-3.3461417322834643
11
5.6506073228346452
21
-3.3468336220472441
0
LINE
8
BLACK
6
CONTINUOUS
10
5.5838689763779525
20
-3.3846636614173229
11
5.584559803149606
21
-3.386561653543307
0
LINE
8
BLACK
6
CONTINUOUS
10
5.584559803149606
20
-3.386561653543307
11
5.584559803149606
21
-3.4090588188976376
0
LINE
8
BLACK
6
CONTINUOUS
10
5.584559803149606
20
-3.4090588188976376
11
5.5843817322834646
21
-3.4100687401574801
0
LINE
8
BLACK
6
CONTINUOUS
10
5.5843817322834646
20
-3.4100687401574801
11
5.5830834251968504
21
-3.4116159842519682
0
LINE
8
BLACK
6
CONTINUOUS
10
5.5830834251968504
20
-3.4116159842519682
11
5.5810942913385828
21
-3.4119667322834646
0
LINE
8
BLACK
6
CONTINUOUS
10
5.5810942913385828
20
-3.4119667322834646
11
5.5793451181102363
21
-3.4109568110236221
0
LINE
8
BLACK
6
CONTINUOUS
10
5.5793451181102363
20
-3.4109568110236221
11
5.5786542913385828
21
-3.4090588188976376
0
LINE
8
BLACK
6
CONTINUOUS
10
5.5786542913385828
20
-3.4090588188976376
11
5.5786542913385828
21
-3.4007629921259843
0
LINE
8
BLACK
6
CONTINUOUS
10
5.5786542913385828
20
-3.4007629921259843
11
5.55124031496063
21
-3.4007629921259843
0
LINE
8
BLACK
6
CONTINUOUS
10
5.55124031496063
20
-3.4007629921259843
11
5.5536987007874012
21
-3.403221377952756
0
LINE
8
BLACK
6
CONTINUOUS
10
5.5536987007874012
20
-3.403221377952756
11
5.5542050787401571
21
-3.4039445275590552
0
LINE
8
BLACK
6
CONTINUOUS
10
5.5542050787401571
20
-3.4039445275590552
11
5.5542518110236223
21
-3.403988779527559
0
LINE
8
BLACK
6
CONTINUOUS
10
5.5542518110236223
20
-3.403988779527559
11
5.5561265748031499
21
-3.4077383070866141
0
LINE
8
BLACK
6
CONTINUOUS
10
5.5561265748031499
20
-3.4077383070866141
11
5.5564189370078738
21
-3.4087212204724411
0
LINE
8
BLACK
6
CONTINUOUS
10
5.5564189370078738
20
-3.4087212204724411
11
5.5559496456692914
21
-3.4106857480314958
0
LINE
8
BLACK
6
CONTINUOUS
10
5.5559496456692914
20
-3.4106857480314958
11
5.5543273622047247
21
-3.41188905511811
0
LINE
8
BLACK
6
CONTINUOUS
10
5.5543273622047247
20
-3.41188905511811
11
5.5523112204724407
21
-3.4117679921259843
0
LINE
8
BLACK
6
CONTINUOUS
10
5.5523112204724407
20
-3.4117679921259843
11
5.5508445275590548
21
-3.4103793307086612
0
LINE
8
BLACK
6
CONTINUOUS
10
5.5508445275590548
20
-3.4103793307086612
11
5.5491840551181104
21
-3.4070583858267716
0
LINE
8
BLACK
6
CONTINUOUS
10
5.5491840551181104
20
-3.4070583858267716
11
5.5459800787401576
21
-3.4038544094488188
0
LINE
8
BLACK
6
CONTINUOUS
10
5.5459800787401576
20
-3.4038544094488188
11
5.5405990551181103
21
-3.4002670866141731
0
LINE
8
BLACK
6
CONTINUOUS
10
5.5405990551181103
20
-3.4002670866141731
11
5.5398575590551182
21
-3.3995587007874013
0
LINE
8
BLACK
6
CONTINUOUS
10
5.5398575590551182
20
-3.3995587007874013
11
5.5398098425196851
21
-3.399395748031496
0
LINE
8
BLACK
6
CONTINUOUS
10
5.5398098425196851
20
-3.399395748031496
11
5.539679803149606
21
-3.3992866141732283
0
LINE
8
BLACK
6
CONTINUOUS
10
5.539679803149606
20
-3.3992866141732283
11
5.539530984251968
21
-3.3984426771653542
0
LINE
8
BLACK
6
CONTINUOUS
10
5.539530984251968
20
-3.3984426771653542
11
5.5392903149606294
21
-3.3976201968503936
0
LINE
8
BLACK
6
CONTINUOUS
10
5.5392903149606294
20
-3.3976201968503936
11
5.5393585039370077
21
-3.3974646850393699
0
LINE
8
BLACK
6
CONTINUOUS
10
5.5393585039370077
20
-3.3974646850393699
11
5.5393290551181105
21
-3.3972974803149607
0
LINE
8
BLACK
6
CONTINUOUS
10
5.5393290551181105
20
-3.3972974803149607
11
5.5397574803149601
21
-3.3965553937007873
0
LINE
8
BLACK
6
CONTINUOUS
10
5.5397574803149601
20
-3.3965553937007873
11
5.5401018503937003
21
-3.395770590551181
0
LINE
8
BLACK
6
CONTINUOUS
10
5.5401018503937003
20
-3.395770590551181
11
5.5402540944881888
21
-3.3956953149606299
0
LINE
8
BLACK
6
CONTINUOUS
10
5.5402540944881888
20
-3.3956953149606299
11
5.5403389763779529
21
-3.3955483070866141
0
LINE
8
BLACK
6
CONTINUOUS
10
5.5403389763779529
20
-3.3955483070866141
11
5.5411442125984252
21
-3.3952551968503935
0
LINE
8
BLACK
6
CONTINUOUS
10
5.5411442125984252
20
-3.3952551968503935
11
5.5419124409448814
21
-3.3948753937007874
0
LINE
8
BLACK
6
CONTINUOUS
10
5.5419124409448814
20
-3.3948753937007874
11
5.5420773622047239
21
-3.3949155511811022
0
LINE
8
BLACK
6
CONTINUOUS
10
5.5420773622047239
20
-3.3949155511811022
11
5.5422369685039365
21
-3.3948574803149607
0
LINE
8
BLACK
6
CONTINUOUS
10
5.5422369685039365
20
-3.3948574803149607
11
5.5786542913385828
21
-3.3948574803149607
0
LINE
8
BLACK
6
CONTINUOUS
10
5.5786542913385828
20
-3.3948574803149607
11
5.5786542913385828
21
-3.386561653543307
0
LINE
8
BLACK
6
CONTINUOUS
10
5.5786542913385828
20
-3.386561653543307
11
5.5788323622047242
21
-3.3855517322834645
0
LINE
8
BLACK
6
CONTINUOUS
10
5.5788323622047242
20
-3.3855517322834645
11
5.5801306692913384
21
-3.3840044881889764
0
LINE
8
BLACK
6
CONTINUOUS
10
5.5801306692913384
20
-3.3840044881889764
11
5.582119803149606
21
-3.3836537401574804
0
LINE
8
BLACK
6
CONTINUOUS
10
5.582119803149606
20
-3.3836537401574804
11
5.5838689763779525
21
-3.3846636614173229
0
LINE
8
BLACK
6
CONTINUOUS
10
5.5671892519685038
20
-3.3462159055118108
11
5.5673250393700791
21
-3.3462017322834643
0
LINE
8
BLACK
6
CONTINUOUS
10
5.5673250393700791
20
-3.3462017322834643
11
5.5748240944881893
21
-3.3480764960629918
0
LINE
8
BLACK
6
CONTINUOUS
10
5.5748240944881893
20
-3.3480764960629918
11
5.5752895275590548
21
-3.3482840551181101
0
LINE
8
BLACK
6
CONTINUOUS
10
5.5752895275590548
20
-3.3482840551181101
11
5.5754284645669294
21
-3.3483000787401576
0
LINE
8
BLACK
6
CONTINUOUS
10
5.5754284645669294
20
-3.3483000787401576
11
5.5791779921259845
21
-3.3501748425196851
0
LINE
8
BLACK
6
CONTINUOUS
10
5.5791779921259845
20
-3.3501748425196851
11
5.5798869685039367
21
-3.3507006692913386
0
LINE
8
BLACK
6
CONTINUOUS
10
5.5798869685039367
20
-3.3507006692913386
11
5.5799453543307083
21
-3.3507279133858265
0
LINE
8
BLACK
6
CONTINUOUS
10
5.5799453543307083
20
-3.3507279133858265
11
5.5818201574803146
21
-3.3526026771653541
0
LINE
8
BLACK
6
CONTINUOUS
10
5.5818201574803146
20
-3.3526026771653541
11
5.5823265354330704
21
-3.3533258267716533
0
LINE
8
BLACK
6
CONTINUOUS
10
5.5823265354330704
20
-3.3533258267716533
11
5.5823733070866144
21
-3.3533701181102362
0
LINE
8
BLACK
6
CONTINUOUS
10
5.5823733070866144
20
-3.3533701181102362
11
5.5842480708661419
21
-3.3571196456692913
0
LINE
8
BLACK
6
CONTINUOUS
10
5.5842480708661419
20
-3.3571196456692913
11
5.5845404330708659
21
-3.3581025590551179
0
LINE
8
BLACK
6
CONTINUOUS
10
5.5845404330708659
20
-3.3581025590551179
11
5.584499409448819
21
-3.358274251968504
0
LINE
8
BLACK
6
CONTINUOUS
10
5.584499409448819
20
-3.358274251968504
11
5.584559803149606
21
-3.3584401574803149
0
LINE
8
BLACK
6
CONTINUOUS
10
5.584559803149606
20
-3.3584401574803149
11
5.584559803149606
21
-3.36218968503937
0
LINE
8
BLACK
6
CONTINUOUS
10
5.584559803149606
20
-3.36218968503937
11
5.5843817322834646
21
-3.3631996062992124
0
LINE
8
BLACK
6
CONTINUOUS
10
5.5843817322834646
20
-3.3631996062992124
11
5.5842682283464562
21
-3.3633348425196852
0
LINE
8
BLACK
6
CONTINUOUS
10
5.5842682283464562
20
-3.3633348425196852
11
5.5842480708661419
21
-3.3635101968503935
0
LINE
8
BLACK
6
CONTINUOUS
10
5.5842480708661419
20
-3.3635101968503935
11
5.5823733070866144
21
-3.3672597244094487
0
LINE
8
BLACK
6
CONTINUOUS
10
5.5823733070866144
20
-3.3672597244094487
11
5.5818473228346459
21
-3.3679688188976376
0
LINE
8
BLACK
6
CONTINUOUS
10
5.5818473228346459
20
-3.3679688188976376
11
5.5818201574803146
21
-3.3680271653543308
0
LINE
8
BLACK
6
CONTINUOUS
10
5.5818201574803146
20
-3.3680271653543308
11
5.5799453543307083
21
-3.3699019291338583
0
LINE
8
BLACK
6
CONTINUOUS
10
5.5799453543307083
20
-3.3699019291338583
11
5.5792222834645671
21
-3.370408188976378
0
LINE
8
BLACK
6
CONTINUOUS
10
5.5792222834645671
20
-3.370408188976378
11
5.5791779921259845
21
-3.3704549999999998
0
LINE
8
BLACK
6
CONTINUOUS
10
5.5791779921259845
20
-3.3704549999999998
11
5.5754284645669294
21
-3.3723297637795273
0
LINE
8
BLACK
6
CONTINUOUS
10
5.5754284645669294
20
-3.3723297637795273
11
5.5749399999999998
21
-3.3724750393700789
0
LINE
8
BLACK
6
CONTINUOUS
10
5.5749399999999998
20
-3.3724750393700789
11
5.5748240944881893
21
-3.372553346456693
0
LINE
8
BLACK
6
CONTINUOUS
10
5.5748240944881893
20
-3.372553346456693
11
5.5673250393700791
21
-3.3744281102362206
0
LINE
8
BLACK
6
CONTINUOUS
10
5.5673250393700791
20
-3.3744281102362206
11
5.5667371259842522
21
-3.3744695669291338
0
LINE
8
BLACK
6
CONTINUOUS
10
5.5667371259842522
20
-3.3744695669291338
11
5.5666088976377948
21
-3.3745162598425198
0
LINE
8
BLACK
6
CONTINUOUS
10
5.5666088976377948
20
-3.3745162598425198
11
5.557235078740157
21
-3.3745162598425198
0
LINE
8
BLACK
6
CONTINUOUS
10
5.557235078740157
20
-3.3745162598425198
11
5.5566546850393701
21
-3.3744138976377953
0
LINE
8
BLACK
6
CONTINUOUS
10
5.5566546850393701
20
-3.3744138976377953
11
5.5565189370078736
21
-3.3744281102362206
0
LINE
8
BLACK
6
CONTINUOUS
10
5.5565189370078736
20
-3.3744281102362206
11
5.5490198818897634
21
-3.372553346456693
0
LINE
8
BLACK
6
CONTINUOUS
10
5.5490198818897634
20
-3.372553346456693
11
5.5485544094488191
21
-3.372345748031496
0
LINE
8
BLACK
6
CONTINUOUS
10
5.5485544094488191
20
-3.372345748031496
11
5.5484155118110232
21
-3.3723297637795273
0
LINE
8
BLACK
6
CONTINUOUS
10
5.5484155118110232
20
-3.3723297637795273
11
5.5446659842519681
21
-3.3704549999999998
0
LINE
8
BLACK
6
CONTINUOUS
10
5.5446659842519681
20
-3.3704549999999998
11
5.5439568897637796
21
-3.3699290944881888
0
LINE
8
BLACK
6
CONTINUOUS
10
5.5439568897637796
20
-3.3699290944881888
11
5.5438985826771656
21
-3.3699018897637796
0
LINE
8
BLACK
6
CONTINUOUS
10
5.5438985826771656
20
-3.3699018897637796
11
5.5420238188976381
21
-3.368027125984252
0
LINE
8
BLACK
6
CONTINUOUS
10
5.5420238188976381
20
-3.368027125984252
11
5.5415175196850388
21
-3.3673040157480316
0
LINE
8
BLACK
6
CONTINUOUS
10
5.5415175196850388
20
-3.3673040157480316
11
5.541470708661417
21
-3.3672597244094487
0
LINE
8
BLACK
6
CONTINUOUS
10
5.541470708661417
20
-3.3672597244094487
11
5.5395959448818894
21
-3.3635101968503935
0
LINE
8
BLACK
6
CONTINUOUS
10
5.5395959448818894
20
-3.3635101968503935
11
5.5393035826771655
21
-3.3625272440944882
0
LINE
8
BLACK
6
CONTINUOUS
10
5.5393035826771655
20
-3.3625272440944882
11
5.5393445669291337
21
-3.3623555511811021
0
LINE
8
BLACK
6
CONTINUOUS
10
5.5393445669291337
20
-3.3623555511811021
11
5.5392842125984254
21
-3.36218968503937
0
LINE
8
BLACK
6
CONTINUOUS
10
5.5392842125984254
20
-3.36218968503937
11
5.5392842125984254
21
-3.3584401574803149
0
LINE
8
BLACK
6
CONTINUOUS
10
5.5392842125984254
20
-3.3584401574803149
11
5.5394622834645668
21
-3.3574302362204724
0
LINE
8
BLACK
6
CONTINUOUS
10
5.5394622834645668
20
-3.3574302362204724
11
5.5395757480314956
21
-3.3572949606299214
0
LINE
8
BLACK
6
CONTINUOUS
10
5.5395757480314956
20
-3.3572949606299214
11
5.5395959448818894
21
-3.3571196456692913
0
LINE
8
BLACK
6
CONTINUOUS
10
5.5395959448818894
20
-3.3571196456692913
11
5.541470708661417
21
-3.3533701181102362
0
LINE
8
BLACK
6
CONTINUOUS
10
5.541470708661417
20
-3.3533701181102362
11
5.541996614173228
21
-3.3526610236220473
0
LINE
8
BLACK
6
CONTINUOUS
10
5.541996614173228
20
-3.3526610236220473
11
5.5420238188976381
21
-3.3526027165354328
0
LINE
8
BLACK
6
CONTINUOUS
10
5.5420238188976381
20
-3.3526027165354328
11
5.5438985826771656
21
-3.3507279527559053
0
LINE
8
BLACK
6
CONTINUOUS
10
5.5438985826771656
20
-3.3507279527559053
11
5.5446216535433068
21
-3.3502216535433069
0
LINE
8
BLACK
6
CONTINUOUS
10
5.5446216535433068
20
-3.3502216535433069
11
5.5446659842519681
21
-3.3501748425196851
0
LINE
8
BLACK
6
CONTINUOUS
10
5.5446659842519681
20
-3.3501748425196851
11
5.5484155118110232
21
-3.3483000787401576
0
LINE
8
BLACK
6
CONTINUOUS
10
5.5484155118110232
20
-3.3483000787401576
11
5.5489039370078741
21
-3.3481547637795277
0
LINE
8
BLACK
6
CONTINUOUS
10
5.5489039370078741
20
-3.3481547637795277
11
5.5490198818897634
21
-3.3480764960629918
0
LINE
8
BLACK
6
CONTINUOUS
10
5.5490198818897634
20
-3.3480764960629918
11
5.5565189370078736
21
-3.3462017322834643
0
LINE
8
BLACK
6
CONTINUOUS
10
5.5565189370078736
20
-3.3462017322834643
11
5.5571068110236217
21
-3.3461602362204723
0
LINE
8
BLACK
6
CONTINUOUS
10
5.5571068110236217
20
-3.3461602362204723
11
5.557235078740157
21
-3.3461135826771651
0
LINE
8
BLACK
6
CONTINUOUS
10
5.557235078740157
20
-3.3461135826771651
11
5.5666088976377948
21
-3.3461135826771651
0
LINE
8
BLACK
6
CONTINUOUS
10
5.5666088976377948
20
-3.3461135826771651
11
5.5671892519685038
21
-3.3462159055118108
0
LINE
8
BLACK
6
CONTINUOUS
10
5.5507665748031494
20
-3.3537270866141733
11
5.5477355905511807
21
-3.3552425984251966
0
LINE
8
BLACK
6
CONTINUOUS
10
5.5477355905511807
20
-3.3552425984251966
11
5.5465384645669289
21
-3.3564397244094488
0
LINE
8
BLACK
6
CONTINUOUS
10
5.5465384645669289
20
-3.3564397244094488
11
5.5451897244094486
21
-3.3591372047244095
0
LINE
8
BLACK
6
CONTINUOUS
10
5.5451897244094486
20
-3.3591372047244095
11
5.5451897244094486
21
-3.3614926377952754
0
LINE
8
BLACK
6
CONTINUOUS
10
5.5451897244094486
20
-3.3614926377952754
11
5.5465384645669289
21
-3.364190118110236
0
LINE
8
BLACK
6
CONTINUOUS
10
5.5465384645669289
20
-3.364190118110236
11
5.5477355905511807
21
-3.3653872440944883
0
LINE
8
BLACK
6
CONTINUOUS
10
5.5477355905511807
20
-3.3653872440944883
11
5.5507665748031494
21
-3.3669027165354328
0
LINE
8
BLACK
6
CONTINUOUS
10
5.5507665748031494
20
-3.3669027165354328
11
5.5575986220472435
21
-3.3686107480314962
0
LINE
8
BLACK
6
CONTINUOUS
10
5.5575986220472435
20
-3.3686107480314962
11
5.5662453543307082
21
-3.3686107480314962
0
LINE
8
BLACK
6
CONTINUOUS
10
5.5662453543307082
20
-3.3686107480314962
11
5.5730774015748032
21
-3.3669027165354328
0
LINE
8
BLACK
6
CONTINUOUS
10
5.5730774015748032
20
-3.3669027165354328
11
5.5761083858267719
21
-3.3653872047244096
0
LINE
8
BLACK
6
CONTINUOUS
10
5.5761083858267719
20
-3.3653872047244096
11
5.5773055511811025
21
-3.3641900787401573
0
LINE
8
BLACK
6
CONTINUOUS
10
5.5773055511811025
20
-3.3641900787401573
11
5.5786542913385828
21
-3.3614926377952754
0
LINE
8
BLACK
6
CONTINUOUS
10
5.5786542913385828
20
-3.3614926377952754
11
5.5786542913385828
21
-3.3591372047244095
0
LINE
8
BLACK
6
CONTINUOUS
10
5.5786542913385828
20
-3.3591372047244095
11
5.5773055511811025
21
-3.3564397244094488
0
LINE
8
BLACK
6
CONTINUOUS
10
5.5773055511811025
20
-3.3564397244094488
11
5.5761083858267719
21
-3.3552425984251966
0
LINE
8
BLACK
6
CONTINUOUS
10
5.5761083858267719
20
-3.3552425984251966
11
5.5730774015748032
21
-3.3537270866141733
0
LINE
8
BLACK
6
CONTINUOUS
10
5.5730774015748032
20
-3.3537270866141733
11
5.5662453543307082
21
-3.3520190944881887
0
LINE
8
BLACK
6
CONTINUOUS
10
5.5662453543307082
20
-3.3520190944881887
11
5.5575986220472435
21
-3.3520190944881887
0
LINE
8
BLACK
6
CONTINUOUS
10
5.5575986220472435
20
-3.3520190944881887
11
5.5507665748031494
21
-3.3537270866141733
0
LINE
8
BLACK
6
CONTINUOUS
10
5.5838689763779525
20
-3.3096730314960627
11
5.584559803149606
21
-3.3115710236220472
0
LINE
8
BLACK
6
CONTINUOUS
10
5.584559803149606
20
-3.3115710236220472
11
5.584559803149606
21
-3.3340681889763779
0
LINE
8
BLACK
6
CONTINUOUS
10
5.584559803149606
20
-3.3340681889763779
11
5.5843817322834646
21
-3.3350781102362204
0
LINE
8
BLACK
6
CONTINUOUS
10
5.5843817322834646
20
-3.3350781102362204
11
5.5830834251968504
21
-3.3366253543307085
0
LINE
8
BLACK
6
CONTINUOUS
10
5.5830834251968504
20
-3.3366253543307085
11
5.5810942913385828
21
-3.3369761023622044
0
LINE
8
BLACK
6
CONTINUOUS
10
5.5810942913385828
20
-3.3369761023622044
11
5.5793451181102363
21
-3.335966181102362
0
LINE
8
BLACK
6
CONTINUOUS
10
5.5793451181102363
20
-3.335966181102362
11
5.5786542913385828
21
-3.3340681889763779
0
LINE
8
BLACK
6
CONTINUOUS
10
5.5786542913385828
20
-3.3340681889763779
11
5.5786542913385828
21
-3.3257723622047242
0
LINE
8
BLACK
6
CONTINUOUS
10
5.5786542913385828
20
-3.3257723622047242
11
5.55124031496063
21
-3.3257723622047242
0
LINE
8
BLACK
6
CONTINUOUS
10
5.55124031496063
20
-3.3257723622047242
11
5.5536987007874012
21
-3.3282307480314959
0
LINE
8
BLACK
6
CONTINUOUS
10
5.5536987007874012
20
-3.3282307480314959
11
5.5542050787401571
21
-3.328953897637795
0
LINE
8
BLACK
6
CONTINUOUS
10
5.5542050787401571
20
-3.328953897637795
11
5.5542518110236223
21
-3.3289981496062993
0
LINE
8
BLACK
6
CONTINUOUS
10
5.5542518110236223
20
-3.3289981496062993
11
5.5561265748031499
21
-3.3327476771653544
0
LINE
8
BLACK
6
CONTINUOUS
10
5.5561265748031499
20
-3.3327476771653544
11
5.5564189370078738
21
-3.3337305905511809
0
LINE
8
BLACK
6
CONTINUOUS
10
5.5564189370078738
20
-3.3337305905511809
11
5.5559496456692914
21
-3.3356951181102361
0
LINE
8
BLACK
6
CONTINUOUS
10
5.5559496456692914
20
-3.3356951181102361
11
5.5543273622047247
21
-3.3368984251968503
0
LINE
8
BLACK
6
CONTINUOUS
10
5.5543273622047247
20
-3.3368984251968503
11
5.5523112204724407
21
-3.3367773622047245
0
LINE
8
BLACK
6
CONTINUOUS
10
5.5523112204724407
20
-3.3367773622047245
11
5.5508445275590548
21
-3.3353887007874015
0
LINE
8
BLACK
6
CONTINUOUS
10
5.5508445275590548
20
-3.3353887007874015
11
5.5491840551181104
21
-3.3320677559055119
0
LINE
8
BLACK
6
CONTINUOUS
10
5.5491840551181104
20
-3.3320677559055119
11
5.5459800787401576
21
-3.3288637795275591
0
LINE
8
BLACK
6
CONTINUOUS
10
5.5459800787401576
20
-3.3288637795275591
11
5.5405990551181103
21
-3.3252764566929134
0
LINE
8
BLACK
6
CONTINUOUS
10
5.5405990551181103
20
-3.3252764566929134
11
5.5398575590551182
21
-3.3245680708661416
0
LINE
8
BLACK
6
CONTINUOUS
10
5.5398575590551182
20
-3.3245680708661416
11
5.5398098425196851
21
-3.3244051181102363
0
LINE
8
BLACK
6
CONTINUOUS
10
5.5398098425196851
20
-3.3244051181102363
11
5.539679803149606
21
-3.3242959842519686
0
LINE
8
BLACK
6
CONTINUOUS
10
5.539679803149606
20
-3.3242959842519686
11
5.539530984251968
21
-3.3234520472440945
0
LINE
8
BLACK
6
CONTINUOUS
10
5.539530984251968
20
-3.3234520472440945
11
5.5392903149606294
21
-3.3226295669291339
0
LINE
8
BLACK
6
CONTINUOUS
10
5.5392903149606294
20
-3.3226295669291339
11
5.5393585039370077
21
-3.3224740551181102
0
LINE
8
BLACK
6
CONTINUOUS
10
5.5393585039370077
20
-3.3224740551181102
11
5.5393290551181105
21
-3.3223068503937006
0
LINE
8
BLACK
6
CONTINUOUS
10
5.5393290551181105
20
-3.3223068503937006
11
5.5397574803149601
21
-3.3215647637795276
0
LINE
8
BLACK
6
CONTINUOUS
10
5.5397574803149601
20
-3.3215647637795276
11
5.5401018503937003
21
-3.3207799606299213
0
LINE
8
BLACK
6
CONTINUOUS
10
5.5401018503937003
20
-3.3207799606299213
11
5.5402540944881888
21
-3.3207046850393702
0
LINE
8
BLACK
6
CONTINUOUS
10
5.5402540944881888
20
-3.3207046850393702
11
5.5403389763779529
21
-3.3205576771653544
0
LINE
8
BLACK
6
CONTINUOUS
10
5.5403389763779529
20
-3.3205576771653544
11
5.5411442125984252
21
-3.3202645669291337
0
LINE
8
BLACK
6
CONTINUOUS
10
5.5411442125984252
20
-3.3202645669291337
11
5.5419124409448814
21
-3.3198847637795277
0
LINE
8
BLACK
6
CONTINUOUS
10
5.5419124409448814
20
-3.3198847637795277
11
5.5420773622047239
21
-3.3199249212598425
0
LINE
8
BLACK
6
CONTINUOUS
10
5.5420773622047239
20
-3.3199249212598425
11
5.5422369685039365
21
-3.3198668503937006
0
LINE
8
BLACK
6
CONTINUOUS
10
5.5422369685039365
20
-3.3198668503937006
11
5.5786542913385828
21
-3.3198668503937006
0
LINE
8
BLACK
6
CONTINUOUS
10
5.5786542913385828
20
-3.3198668503937006
11
5.5786542913385828
21
-3.3115710236220472
0
LINE
8
BLACK
6
CONTINUOUS
10
5.5786542913385828
20
-3.3115710236220472
11
5.5788323622047242
21
-3.3105611023622048
0
LINE
8
BLACK
6
CONTINUOUS
10
5.5788323622047242
20
-3.3105611023622048
11
5.5801306692913384
21
-3.3090138582677167
0
LINE
8
BLACK
6
CONTINUOUS
10
5.5801306692913384
20
-3.3090138582677167
11
5.582119803149606
21
-3.3086631102362203
0
LINE
8
BLACK
6
CONTINUOUS
10
5.582119803149606
20
-3.3086631102362203
11
5.5838689763779525
21
-3.3096730314960627
0
CIRCLE
8
BLACK
10
5.3399999999999999
20
-3.5193700787401574
40
0.0147637795275591
0
CIRCLE
8
BLACK
10
5.3399999999999999
20
-3.4406299212598426
40
0.0147637795275591
  0
ENDSEC
  0
EOF
