  0
SECTION
  2
HEADER
  9
$ANGBASE
  50
0.0
  9
$ANGDIR
  70
1
  9
$MEASUREMENT
  70
0
  0
ENDSEC
  0
SECTION
  2
TABLES
  0
TABLE
  2
LTYPE
  70
4
  0
LTYPE
  5
40F
  2
CONTINUOUS
  70
0
  3
Solid line
  72
65
  73
0
  40
0.0
  0
LTYPE
  5
410
  2
DASHDOT
 70
0
  3
Dash Dot ____ _ ____ _
 72
65
 73
4
 40
2.0
 49
1.25
 49
-0.25
 49
0.25
 49
-0.25
  0
LTYPE
  5
411
  2
DASHED
 70
0
  3
Dashed __ __ __ __ __
 72
65
 73
2
 40
0.75
 49
0.5
 49
-0.25
  0
LTYPE
  5
43B
  2
DOTTED
 70
0
  3
Dotted .  .  .  .
 72
65
 73
2
 40
0.2
 49
0.0
 49
-0.2
  0
ENDTAB
  0
TABLE
  2
STYLE
  70
4
  0
STYLE
  2
KICAD
  70
0
  40
0
  41
1
  42
1
  50
0
  71
0
  3
isocp.shx
  0
STYLE
  2
KICADB
  70
0
  40
0
  41
1
  42
1
  50
0
  71
0
  3
isocp.shx
  0
STYLE
  2
KICADI
  70
0
  40
0
  41
1
  42
1
  50
15
  71
0
  3
isocp.shx
  0
STYLE
  2
KICADBI
  70
0
  40
0
  41
1
  42
1
  50
15
  71
0
  3
isocp.shx
  0
ENDTAB
  0
TABLE
  2
LAYER
  70
1
  0
LAYER
  2
BLACK
  70
0
  62
7
  6
CONTINUOUS
  0
ENDTAB
  0
ENDSEC
  0
SECTION
  2
ENTITIES
0
LINE
8
BLACK
6
CONTINUOUS
10
5.3683728740157477
20
-3.4964972440944879
11
5.371566023622047
21
-3.4986308267716533
0
LINE
8
BLACK
6
CONTINUOUS
10
5.371566023622047
20
-3.4986308267716533
11
5.3736996062992128
21
-3.5018239763779526
0
LINE
8
BLACK
6
CONTINUOUS
10
5.3736996062992128
20
-3.5018239763779526
11
5.3744488188976378
21
-3.5055905511811023
0
LINE
8
BLACK
6
CONTINUOUS
10
5.3744488188976378
20
-3.5055905511811023
11
5.3744488188976378
21
-3.5331496062992125
0
LINE
8
BLACK
6
CONTINUOUS
10
5.3744488188976378
20
-3.5331496062992125
11
5.3736996062992128
21
-3.5369161811023622
0
LINE
8
BLACK
6
CONTINUOUS
10
5.3736996062992128
20
-3.5369161811023622
11
5.371566023622047
21
-3.5401093307086615
0
LINE
8
BLACK
6
CONTINUOUS
10
5.371566023622047
20
-3.5401093307086615
11
5.3683728740157477
21
-3.5422429133858269
0
LINE
8
BLACK
6
CONTINUOUS
10
5.3683728740157477
20
-3.5422429133858269
11
5.364606299212598
21
-3.5429921259842518
0
LINE
8
BLACK
6
CONTINUOUS
10
5.364606299212598
20
-3.5429921259842518
11
5.3153937007874017
21
-3.5429921259842518
0
LINE
8
BLACK
6
CONTINUOUS
10
5.3153937007874017
20
-3.5429921259842518
11
5.311627125984252
21
-3.5422429133858269
0
LINE
8
BLACK
6
CONTINUOUS
10
5.311627125984252
20
-3.5422429133858269
11
5.3084339763779527
21
-3.5401093307086615
0
LINE
8
BLACK
6
CONTINUOUS
10
5.3084339763779527
20
-3.5401093307086615
11
5.3063003937007869
21
-3.5369161811023622
0
LINE
8
BLACK
6
CONTINUOUS
10
5.3063003937007869
20
-3.5369161811023622
11
5.3055511811023619
21
-3.5331496062992125
0
LINE
8
BLACK
6
CONTINUOUS
10
5.3055511811023619
20
-3.5331496062992125
11
5.3055511811023619
21
-3.5055905511811023
0
LINE
8
BLACK
6
CONTINUOUS
10
5.3055511811023619
20
-3.5055905511811023
11
5.3063003937007869
21
-3.5018239763779526
0
LINE
8
BLACK
6
CONTINUOUS
10
5.3063003937007869
20
-3.5018239763779526
11
5.3084339763779527
21
-3.4986308267716533
0
LINE
8
BLACK
6
CONTINUOUS
10
5.3084339763779527
20
-3.4986308267716533
11
5.311627125984252
21
-3.4964972440944879
0
LINE
8
BLACK
6
CONTINUOUS
10
5.311627125984252
20
-3.4964972440944879
11
5.3153937007874017
21
-3.4957480314960629
0
LINE
8
BLACK
6
CONTINUOUS
10
5.3153937007874017
20
-3.4957480314960629
11
5.364606299212598
21
-3.4957480314960629
0
LINE
8
BLACK
6
CONTINUOUS
10
5.364606299212598
20
-3.4957480314960629
11
5.3683728740157477
21
-3.4964972440944879
0
LINE
8
BLACK
6
CONTINUOUS
10
5.3569405905511811
20
-3.4178127952755903
11
5.3626377952755906
21
-3.4201726377952757
0
LINE
8
BLACK
6
CONTINUOUS
10
5.3626377952755906
20
-3.4201726377952757
11
5.367530078740157
21
-3.4239266141732281
0
LINE
8
BLACK
6
CONTINUOUS
10
5.367530078740157
20
-3.4239266141732281
11
5.3712840551181102
21
-3.4288188976377953
0
LINE
8
BLACK
6
CONTINUOUS
10
5.3712840551181102
20
-3.4288188976377953
11
5.3736438976377956
21
-3.4345161023622048
0
LINE
8
BLACK
6
CONTINUOUS
10
5.3736438976377956
20
-3.4345161023622048
11
5.3744488188976378
21
-3.4406299212598426
0
LINE
8
BLACK
6
CONTINUOUS
10
5.3744488188976378
20
-3.4406299212598426
11
5.3736438976377956
21
-3.4467437401574803
0
LINE
8
BLACK
6
CONTINUOUS
10
5.3736438976377956
20
-3.4467437401574803
11
5.3712840551181102
21
-3.4524409448818898
0
LINE
8
BLACK
6
CONTINUOUS
10
5.3712840551181102
20
-3.4524409448818898
11
5.367530078740157
21
-3.4573332283464566
0
LINE
8
BLACK
6
CONTINUOUS
10
5.367530078740157
20
-3.4573332283464566
11
5.3626377952755906
21
-3.4610872047244094
0
LINE
8
BLACK
6
CONTINUOUS
10
5.3626377952755906
20
-3.4610872047244094
11
5.3569405905511811
21
-3.4634470472440944
0
LINE
8
BLACK
6
CONTINUOUS
10
5.3569405905511811
20
-3.4634470472440944
11
5.3508267716535434
21
-3.464251968503937
0
LINE
8
BLACK
6
CONTINUOUS
10
5.3508267716535434
20
-3.464251968503937
11
5.3291732283464563
21
-3.464251968503937
0
LINE
8
BLACK
6
CONTINUOUS
10
5.3291732283464563
20
-3.464251968503937
11
5.3230594094488186
21
-3.4634470472440944
0
LINE
8
BLACK
6
CONTINUOUS
10
5.3230594094488186
20
-3.4634470472440944
11
5.3173622047244091
21
-3.4610872047244094
0
LINE
8
BLACK
6
CONTINUOUS
10
5.3173622047244091
20
-3.4610872047244094
11
5.3124699212598427
21
-3.4573332283464566
0
LINE
8
BLACK
6
CONTINUOUS
10
5.3124699212598427
20
-3.4573332283464566
11
5.3087159448818895
21
-3.4524409448818898
0
LINE
8
BLACK
6
CONTINUOUS
10
5.3087159448818895
20
-3.4524409448818898
11
5.306356102362205
21
-3.4467437401574803
0
LINE
8
BLACK
6
CONTINUOUS
10
5.306356102362205
20
-3.4467437401574803
11
5.3055511811023619
21
-3.4406299212598426
0
LINE
8
BLACK
6
CONTINUOUS
10
5.3055511811023619
20
-3.4406299212598426
11
5.306356102362205
21
-3.4345161023622048
0
LINE
8
BLACK
6
CONTINUOUS
10
5.306356102362205
20
-3.4345161023622048
11
5.3087159448818895
21
-3.4288188976377953
0
LINE
8
BLACK
6
CONTINUOUS
10
5.3087159448818895
20
-3.4288188976377953
11
5.3124699212598427
21
-3.4239266141732281
0
LINE
8
BLACK
6
CONTINUOUS
10
5.3124699212598427
20
-3.4239266141732281
11
5.3173622047244091
21
-3.4201726377952757
0
LINE
8
BLACK
6
CONTINUOUS
10
5.3173622047244091
20
-3.4201726377952757
11
5.3230594094488186
21
-3.4178127952755903
0
LINE
8
BLACK
6
CONTINUOUS
10
5.3230594094488186
20
-3.4178127952755903
11
5.3291732283464563
21
-3.4170078740157481
0
LINE
8
BLACK
6
CONTINUOUS
10
5.3291732283464563
20
-3.4170078740157481
11
5.3508267716535434
21
-3.4170078740157481
0
LINE
8
BLACK
6
CONTINUOUS
10
5.3508267716535434
20
-3.4170078740157481
11
5.3569405905511811
21
-3.4178127952755903
  0
ENDSEC
  0
EOF
