  0
SECTION
  2
HEADER
  9
$ANGBASE
  50
0.0
  9
$ANGDIR
  70
1
  9
$MEASUREMENT
  70
0
  0
ENDSEC
  0
SECTION
  2
TABLES
  0
TABLE
  2
LTYPE
  70
4
  0
LTYPE
  5
40F
  2
CONTINUOUS
  70
0
  3
Solid line
  72
65
  73
0
  40
0.0
  0
LTYPE
  5
410
  2
DASHDOT
 70
0
  3
Dash Dot ____ _ ____ _
 72
65
 73
4
 40
2.0
 49
1.25
 49
-0.25
 49
0.25
 49
-0.25
  0
LTYPE
  5
411
  2
DASHED
 70
0
  3
Dashed __ __ __ __ __
 72
65
 73
2
 40
0.75
 49
0.5
 49
-0.25
  0
LTYPE
  5
43B
  2
DOTTED
 70
0
  3
Dotted .  .  .  .
 72
65
 73
2
 40
0.2
 49
0.0
 49
-0.2
  0
ENDTAB
  0
TABLE
  2
STYLE
  70
4
  0
STYLE
  2
KICAD
  70
0
  40
0
  41
1
  42
1
  50
0
  71
0
  3
isocp.shx
  0
STYLE
  2
KICADB
  70
0
  40
0
  41
1
  42
1
  50
0
  71
0
  3
isocp.shx
  0
STYLE
  2
KICADI
  70
0
  40
0
  41
1
  42
1
  50
15
  71
0
  3
isocp.shx
  0
STYLE
  2
KICADBI
  70
0
  40
0
  41
1
  42
1
  50
15
  71
0
  3
isocp.shx
  0
ENDTAB
  0
TABLE
  2
LAYER
  70
1
  0
LAYER
  2
BLACK
  70
0
  62
7
  6
CONTINUOUS
  0
ENDTAB
  0
ENDSEC
  0
SECTION
  2
ENTITIES
0
LINE
8
BLACK
6
CONTINUOUS
10
5.638503937007874
20
-3.5624802755905511
11
5.6391999212598423
21
-3.5627685433070866
0
LINE
8
BLACK
6
CONTINUOUS
10
5.6391999212598423
20
-3.5627685433070866
11
5.6394881889763777
21
-3.5634645275590549
0
LINE
8
BLACK
6
CONTINUOUS
10
5.6394881889763777
20
-3.5634645275590549
11
5.6394881889763777
21
-3.6366928740157478
0
LINE
8
BLACK
6
CONTINUOUS
10
5.6394881889763777
20
-3.6366928740157478
11
5.6391999212598423
21
-3.6373888582677165
0
LINE
8
BLACK
6
CONTINUOUS
10
5.6391999212598423
20
-3.6373888582677165
11
5.638503937007874
21
-3.637677125984252
0
LINE
8
BLACK
6
CONTINUOUS
10
5.638503937007874
20
-3.637677125984252
11
5.6014960629921262
21
-3.637677125984252
0
LINE
8
BLACK
6
CONTINUOUS
10
5.6014960629921262
20
-3.637677125984252
11
5.6008000787401571
21
-3.6373888582677165
0
LINE
8
BLACK
6
CONTINUOUS
10
5.6008000787401571
20
-3.6373888582677165
11
5.6005118110236216
21
-3.6366928740157478
0
LINE
8
BLACK
6
CONTINUOUS
10
5.6005118110236216
20
-3.6366928740157478
11
5.6005118110236216
21
-3.5634645275590549
0
LINE
8
BLACK
6
CONTINUOUS
10
5.6005118110236216
20
-3.5634645275590549
11
5.6008000787401571
21
-3.5627685433070866
0
LINE
8
BLACK
6
CONTINUOUS
10
5.6008000787401571
20
-3.5627685433070866
11
5.6014960629921262
21
-3.5624802755905511
0
LINE
8
BLACK
6
CONTINUOUS
10
5.6014960629921262
20
-3.5624802755905511
11
5.638503937007874
21
-3.5624802755905511
0
LINE
8
BLACK
6
CONTINUOUS
10
5.6024803149606299
20
-3.564448779527559
11
5.6024803149606299
21
-3.6357086220472441
0
LINE
8
BLACK
6
CONTINUOUS
10
5.6024803149606299
20
-3.6357086220472441
11
5.6375196850393703
21
-3.6357086220472441
0
LINE
8
BLACK
6
CONTINUOUS
10
5.6375196850393703
20
-3.6357086220472441
11
5.6375196850393703
21
-3.564448779527559
0
LINE
8
BLACK
6
CONTINUOUS
10
5.6375196850393703
20
-3.564448779527559
11
5.6024803149606299
21
-3.564448779527559
0
LINE
8
BLACK
6
CONTINUOUS
10
5.4699212598425193
20
-3.3431889763779528
11
5.4706172440944885
21
-3.3434772440944882
0
LINE
8
BLACK
6
CONTINUOUS
10
5.4706172440944885
20
-3.3434772440944882
11
5.4709055118110239
21
-3.3441732283464565
0
LINE
8
BLACK
6
CONTINUOUS
10
5.4709055118110239
20
-3.3441732283464565
11
5.4709055118110239
21
-3.615826771653543
0
LINE
8
BLACK
6
CONTINUOUS
10
5.4709055118110239
20
-3.615826771653543
11
5.4706172440944885
21
-3.6165227559055118
0
LINE
8
BLACK
6
CONTINUOUS
10
5.4706172440944885
20
-3.6165227559055118
11
5.4699212598425193
21
-3.6168110236220472
0
LINE
8
BLACK
6
CONTINUOUS
10
5.4699212598425193
20
-3.6168110236220472
11
5.2533858267716536
21
-3.6168110236220472
0
LINE
8
BLACK
6
CONTINUOUS
10
5.2533858267716536
20
-3.6168110236220472
11
5.2526898425196853
21
-3.6165227559055118
0
LINE
8
BLACK
6
CONTINUOUS
10
5.2526898425196853
20
-3.6165227559055118
11
5.2524015748031498
21
-3.615826771653543
0
LINE
8
BLACK
6
CONTINUOUS
10
5.2524015748031498
20
-3.615826771653543
11
5.2524015748031498
21
-3.3441732283464565
0
LINE
8
BLACK
6
CONTINUOUS
10
5.2524015748031498
20
-3.3441732283464565
11
5.2526898425196853
21
-3.3434772440944882
0
LINE
8
BLACK
6
CONTINUOUS
10
5.2526898425196853
20
-3.3434772440944882
11
5.2533858267716536
21
-3.3431889763779528
0
LINE
8
BLACK
6
CONTINUOUS
10
5.2533858267716536
20
-3.3431889763779528
11
5.4699212598425193
21
-3.3431889763779528
0
LINE
8
BLACK
6
CONTINUOUS
10
5.2543700787401573
20
-3.3451574803149606
11
5.2543700787401573
21
-3.6148425196850393
0
LINE
8
BLACK
6
CONTINUOUS
10
5.2543700787401573
20
-3.6148425196850393
11
5.4689370078740156
21
-3.6148425196850393
0
LINE
8
BLACK
6
CONTINUOUS
10
5.4689370078740156
20
-3.6148425196850393
11
5.4689370078740156
21
-3.3451574803149606
0
LINE
8
BLACK
6
CONTINUOUS
10
5.4689370078740156
20
-3.3451574803149606
11
5.2543700787401573
21
-3.3451574803149606
0
LINE
8
BLACK
6
CONTINUOUS
10
5.6487401574803151
20
-3.3207480314960631
11
5.6494361417322834
21
-3.3210362992125981
0
LINE
8
BLACK
6
CONTINUOUS
10
5.6494361417322834
20
-3.3210362992125981
11
5.6497244094488188
21
-3.3217322834645668
0
LINE
8
BLACK
6
CONTINUOUS
10
5.6497244094488188
20
-3.3217322834645668
11
5.6497244094488188
21
-3.4382677165354329
0
LINE
8
BLACK
6
CONTINUOUS
10
5.6497244094488188
20
-3.4382677165354329
11
5.6494361417322834
21
-3.4389637007874017
0
LINE
8
BLACK
6
CONTINUOUS
10
5.6494361417322834
20
-3.4389637007874017
11
5.6487401574803151
21
-3.4392519685039371
0
LINE
8
BLACK
6
CONTINUOUS
10
5.6487401574803151
20
-3.4392519685039371
11
5.5912598425196851
21
-3.4392519685039371
0
LINE
8
BLACK
6
CONTINUOUS
10
5.5912598425196851
20
-3.4392519685039371
11
5.5905638582677168
21
-3.4389637007874017
0
LINE
8
BLACK
6
CONTINUOUS
10
5.5905638582677168
20
-3.4389637007874017
11
5.5902755905511814
21
-3.4382677165354329
0
LINE
8
BLACK
6
CONTINUOUS
10
5.5902755905511814
20
-3.4382677165354329
11
5.5902755905511814
21
-3.3217322834645668
0
LINE
8
BLACK
6
CONTINUOUS
10
5.5902755905511814
20
-3.3217322834645668
11
5.5905638582677168
21
-3.3210362992125981
0
LINE
8
BLACK
6
CONTINUOUS
10
5.5905638582677168
20
-3.3210362992125981
11
5.5912598425196851
21
-3.3207480314960631
0
LINE
8
BLACK
6
CONTINUOUS
10
5.5912598425196851
20
-3.3207480314960631
11
5.6487401574803151
21
-3.3207480314960631
0
LINE
8
BLACK
6
CONTINUOUS
10
5.5922440944881888
20
-3.322716535433071
11
5.5922440944881888
21
-3.4372834645669292
0
LINE
8
BLACK
6
CONTINUOUS
10
5.5922440944881888
20
-3.4372834645669292
11
5.6477559055118105
21
-3.4372834645669292
0
LINE
8
BLACK
6
CONTINUOUS
10
5.6477559055118105
20
-3.4372834645669292
11
5.6477559055118105
21
-3.322716535433071
0
LINE
8
BLACK
6
CONTINUOUS
10
5.6477559055118105
20
-3.322716535433071
11
5.5922440944881888
21
-3.322716535433071
  0
ENDSEC
  0
EOF
