  0
SECTION
  2
HEADER
  9
$ANGBASE
  50
0.0
  9
$ANGDIR
  70
1
  9
$MEASUREMENT
  70
0
  0
ENDSEC
  0
SECTION
  2
TABLES
  0
TABLE
  2
LTYPE
  70
4
  0
LTYPE
  5
40F
  2
CONTINUOUS
  70
0
  3
Solid line
  72
65
  73
0
  40
0.0
  0
LTYPE
  5
410
  2
DASHDOT
 70
0
  3
Dash Dot ____ _ ____ _
 72
65
 73
4
 40
2.0
 49
1.25
 49
-0.25
 49
0.25
 49
-0.25
  0
LTYPE
  5
411
  2
DASHED
 70
0
  3
Dashed __ __ __ __ __
 72
65
 73
2
 40
0.75
 49
0.5
 49
-0.25
  0
LTYPE
  5
43B
  2
DOTTED
 70
0
  3
Dotted .  .  .  .
 72
65
 73
2
 40
0.2
 49
0.0
 49
-0.2
  0
ENDTAB
  0
TABLE
  2
STYLE
  70
4
  0
STYLE
  2
KICAD
  70
0
  40
0
  41
1
  42
1
  50
0
  71
0
  3
isocp.shx
  0
STYLE
  2
KICADB
  70
0
  40
0
  41
1
  42
1
  50
0
  71
0
  3
isocp.shx
  0
STYLE
  2
KICADI
  70
0
  40
0
  41
1
  42
1
  50
15
  71
0
  3
isocp.shx
  0
STYLE
  2
KICADBI
  70
0
  40
0
  41
1
  42
1
  50
15
  71
0
  3
isocp.shx
  0
ENDTAB
  0
TABLE
  2
LAYER
  70
1
  0
LAYER
  2
BLACK
  70
0
  62
7
  6
CONTINUOUS
  0
ENDTAB
  0
ENDSEC
  0
SECTION
  2
ENTITIES
0
LINE
8
BLACK
6
CONTINUOUS
10
5.6333843307086608
20
-3.3944350787401576
11
5.6361783464566928
21
-3.3963019685039368
0
LINE
8
BLACK
6
CONTINUOUS
10
5.6361783464566928
20
-3.3963019685039368
11
5.6380452362204725
21
-3.3990959842519683
0
LINE
8
BLACK
6
CONTINUOUS
10
5.6380452362204725
20
-3.3990959842519683
11
5.6387007874015751
21
-3.4023917322834647
0
LINE
8
BLACK
6
CONTINUOUS
10
5.6387007874015751
20
-3.4023917322834647
11
5.6387007874015751
21
-3.4196161417322832
0
LINE
8
BLACK
6
CONTINUOUS
10
5.6387007874015751
20
-3.4196161417322832
11
5.6380452362204725
21
-3.4229118897637796
0
LINE
8
BLACK
6
CONTINUOUS
10
5.6380452362204725
20
-3.4229118897637796
11
5.6361783464566928
21
-3.4257059055118111
0
LINE
8
BLACK
6
CONTINUOUS
10
5.6361783464566928
20
-3.4257059055118111
11
5.6333843307086608
21
-3.4275727952755903
0
LINE
8
BLACK
6
CONTINUOUS
10
5.6333843307086608
20
-3.4275727952755903
11
5.6300885826771649
21
-3.4282283464566929
0
LINE
8
BLACK
6
CONTINUOUS
10
5.6300885826771649
20
-3.4282283464566929
11
5.6249212598425196
21
-3.4282283464566929
0
LINE
8
BLACK
6
CONTINUOUS
10
5.6249212598425196
20
-3.4282283464566929
11
5.6249212598425196
21
-3.5693700393700785
0
LINE
8
BLACK
6
CONTINUOUS
10
5.6249212598425196
20
-3.5693700393700785
11
5.6272834645669292
21
-3.5693700393700785
0
LINE
8
BLACK
6
CONTINUOUS
10
5.6272834645669292
20
-3.5693700393700785
11
5.6293174015748031
21
-3.5697746062992124
0
LINE
8
BLACK
6
CONTINUOUS
10
5.6293174015748031
20
-3.5697746062992124
11
5.631041692913386
21
-3.5709267716535433
0
LINE
8
BLACK
6
CONTINUOUS
10
5.631041692913386
20
-3.5709267716535433
11
5.6321938582677165
21
-3.5726510629921258
0
LINE
8
BLACK
6
CONTINUOUS
10
5.6321938582677165
20
-3.5726510629921258
11
5.6325984251968499
21
-3.5746850000000001
0
LINE
8
BLACK
6
CONTINUOUS
10
5.6325984251968499
20
-3.5746850000000001
11
5.6325984251968499
21
-3.5853149212598425
0
LINE
8
BLACK
6
CONTINUOUS
10
5.6325984251968499
20
-3.5853149212598425
11
5.6321938582677165
21
-3.5873488582677164
0
LINE
8
BLACK
6
CONTINUOUS
10
5.6321938582677165
20
-3.5873488582677164
11
5.631041692913386
21
-3.5890731496062993
0
LINE
8
BLACK
6
CONTINUOUS
10
5.631041692913386
20
-3.5890731496062993
11
5.6293174015748031
21
-3.5902253149606298
0
LINE
8
BLACK
6
CONTINUOUS
10
5.6293174015748031
20
-3.5902253149606298
11
5.6272834645669292
21
-3.5906298818897637
0
LINE
8
BLACK
6
CONTINUOUS
10
5.6272834645669292
20
-3.5906298818897637
11
5.612716535433071
21
-3.5906298818897637
0
LINE
8
BLACK
6
CONTINUOUS
10
5.612716535433071
20
-3.5906298818897637
11
5.6106825984251971
21
-3.5902253149606298
0
LINE
8
BLACK
6
CONTINUOUS
10
5.6106825984251971
20
-3.5902253149606298
11
5.6089583070866142
21
-3.5890731496062993
0
LINE
8
BLACK
6
CONTINUOUS
10
5.6089583070866142
20
-3.5890731496062993
11
5.6078061417322838
21
-3.5873488582677164
0
LINE
8
BLACK
6
CONTINUOUS
10
5.6078061417322838
20
-3.5873488582677164
11
5.6074015748031494
21
-3.5853149212598425
0
LINE
8
BLACK
6
CONTINUOUS
10
5.6074015748031494
20
-3.5853149212598425
11
5.6074015748031494
21
-3.5746850000000001
0
LINE
8
BLACK
6
CONTINUOUS
10
5.6074015748031494
20
-3.5746850000000001
11
5.6078061417322838
21
-3.5726510629921258
0
LINE
8
BLACK
6
CONTINUOUS
10
5.6078061417322838
20
-3.5726510629921258
11
5.6089583070866142
21
-3.5709267716535433
0
LINE
8
BLACK
6
CONTINUOUS
10
5.6089583070866142
20
-3.5709267716535433
11
5.6106825984251971
21
-3.5697746062992124
0
LINE
8
BLACK
6
CONTINUOUS
10
5.6106825984251971
20
-3.5697746062992124
11
5.612716535433071
21
-3.5693700393700785
0
LINE
8
BLACK
6
CONTINUOUS
10
5.612716535433071
20
-3.5693700393700785
11
5.6150787401574798
21
-3.5693700393700785
0
LINE
8
BLACK
6
CONTINUOUS
10
5.6150787401574798
20
-3.5693700393700785
11
5.6150787401574798
21
-3.4282283464566929
0
LINE
8
BLACK
6
CONTINUOUS
10
5.6150787401574798
20
-3.4282283464566929
11
5.6099114173228344
21
-3.4282283464566929
0
LINE
8
BLACK
6
CONTINUOUS
10
5.6099114173228344
20
-3.4282283464566929
11
5.6066156692913385
21
-3.4275727952755903
0
LINE
8
BLACK
6
CONTINUOUS
10
5.6066156692913385
20
-3.4275727952755903
11
5.6038216535433065
21
-3.4257059055118111
0
LINE
8
BLACK
6
CONTINUOUS
10
5.6038216535433065
20
-3.4257059055118111
11
5.6019547637795277
21
-3.4229118897637796
0
LINE
8
BLACK
6
CONTINUOUS
10
5.6019547637795277
20
-3.4229118897637796
11
5.6012992125984251
21
-3.4196161417322832
0
LINE
8
BLACK
6
CONTINUOUS
10
5.6012992125984251
20
-3.4196161417322832
11
5.6012992125984251
21
-3.4023917322834647
0
LINE
8
BLACK
6
CONTINUOUS
10
5.6012992125984251
20
-3.4023917322834647
11
5.6019547637795277
21
-3.3990959842519683
0
LINE
8
BLACK
6
CONTINUOUS
10
5.6019547637795277
20
-3.3990959842519683
11
5.6038216535433065
21
-3.3963019685039368
0
LINE
8
BLACK
6
CONTINUOUS
10
5.6038216535433065
20
-3.3963019685039368
11
5.6066156692913385
21
-3.3944350787401576
0
LINE
8
BLACK
6
CONTINUOUS
10
5.6066156692913385
20
-3.3944350787401576
11
5.6099114173228344
21
-3.393779527559055
0
LINE
8
BLACK
6
CONTINUOUS
10
5.6099114173228344
20
-3.393779527559055
11
5.6300885826771649
21
-3.393779527559055
0
LINE
8
BLACK
6
CONTINUOUS
10
5.6300885826771649
20
-3.393779527559055
11
5.6333843307086608
21
-3.3944350787401576
0
LINE
8
BLACK
6
CONTINUOUS
10
5.6333843307086608
20
-3.3324272047244095
11
5.6361783464566928
21
-3.3342940944881887
0
LINE
8
BLACK
6
CONTINUOUS
10
5.6361783464566928
20
-3.3342940944881887
11
5.6380452362204725
21
-3.3370881102362202
0
LINE
8
BLACK
6
CONTINUOUS
10
5.6380452362204725
20
-3.3370881102362202
11
5.6387007874015751
21
-3.3403838582677166
0
LINE
8
BLACK
6
CONTINUOUS
10
5.6387007874015751
20
-3.3403838582677166
11
5.6387007874015751
21
-3.3576082677165355
0
LINE
8
BLACK
6
CONTINUOUS
10
5.6387007874015751
20
-3.3576082677165355
11
5.6380452362204725
21
-3.3609040157480314
0
LINE
8
BLACK
6
CONTINUOUS
10
5.6380452362204725
20
-3.3609040157480314
11
5.6361783464566928
21
-3.3636980314960629
0
LINE
8
BLACK
6
CONTINUOUS
10
5.6361783464566928
20
-3.3636980314960629
11
5.6333843307086608
21
-3.3655649212598426
0
LINE
8
BLACK
6
CONTINUOUS
10
5.6333843307086608
20
-3.3655649212598426
11
5.6300885826771649
21
-3.3662204724409448
0
LINE
8
BLACK
6
CONTINUOUS
10
5.6300885826771649
20
-3.3662204724409448
11
5.6099114173228344
21
-3.3662204724409448
0
LINE
8
BLACK
6
CONTINUOUS
10
5.6099114173228344
20
-3.3662204724409448
11
5.6066156692913385
21
-3.3655649212598426
0
LINE
8
BLACK
6
CONTINUOUS
10
5.6066156692913385
20
-3.3655649212598426
11
5.6038216535433065
21
-3.3636980314960629
0
LINE
8
BLACK
6
CONTINUOUS
10
5.6038216535433065
20
-3.3636980314960629
11
5.6019547637795277
21
-3.3609040157480314
0
LINE
8
BLACK
6
CONTINUOUS
10
5.6019547637795277
20
-3.3609040157480314
11
5.6012992125984251
21
-3.3576082677165355
0
LINE
8
BLACK
6
CONTINUOUS
10
5.6012992125984251
20
-3.3576082677165355
11
5.6012992125984251
21
-3.3539173228346457
0
LINE
8
BLACK
6
CONTINUOUS
10
5.6012992125984251
20
-3.3539173228346457
11
5.433672283464567
21
-3.3539173228346457
0
LINE
8
BLACK
6
CONTINUOUS
10
5.433672283464567
20
-3.3539173228346457
11
5.3653419685039365
21
-3.422247598425197
0
LINE
8
BLACK
6
CONTINUOUS
10
5.3653419685039365
20
-3.422247598425197
11
5.367530078740157
21
-3.4239266141732281
0
LINE
8
BLACK
6
CONTINUOUS
10
5.367530078740157
20
-3.4239266141732281
11
5.3712840551181102
21
-3.4288188976377953
0
LINE
8
BLACK
6
CONTINUOUS
10
5.3712840551181102
20
-3.4288188976377953
11
5.3736438976377956
21
-3.4345161023622048
0
LINE
8
BLACK
6
CONTINUOUS
10
5.3736438976377956
20
-3.4345161023622048
11
5.3744488188976378
21
-3.4406299212598426
0
LINE
8
BLACK
6
CONTINUOUS
10
5.3744488188976378
20
-3.4406299212598426
11
5.3736438976377956
21
-3.4467437401574803
0
LINE
8
BLACK
6
CONTINUOUS
10
5.3736438976377956
20
-3.4467437401574803
11
5.3712840551181102
21
-3.4524409448818898
0
LINE
8
BLACK
6
CONTINUOUS
10
5.3712840551181102
20
-3.4524409448818898
11
5.367530078740157
21
-3.4573332283464566
0
LINE
8
BLACK
6
CONTINUOUS
10
5.367530078740157
20
-3.4573332283464566
11
5.3626377952755906
21
-3.4610872047244094
0
LINE
8
BLACK
6
CONTINUOUS
10
5.3626377952755906
20
-3.4610872047244094
11
5.3569405905511811
21
-3.4634470472440944
0
LINE
8
BLACK
6
CONTINUOUS
10
5.3569405905511811
20
-3.4634470472440944
11
5.3508267716535434
21
-3.464251968503937
0
LINE
8
BLACK
6
CONTINUOUS
10
5.3508267716535434
20
-3.464251968503937
11
5.3291732283464563
21
-3.464251968503937
0
LINE
8
BLACK
6
CONTINUOUS
10
5.3291732283464563
20
-3.464251968503937
11
5.3230594094488186
21
-3.4634470472440944
0
LINE
8
BLACK
6
CONTINUOUS
10
5.3230594094488186
20
-3.4634470472440944
11
5.3173622047244091
21
-3.4610872047244094
0
LINE
8
BLACK
6
CONTINUOUS
10
5.3173622047244091
20
-3.4610872047244094
11
5.3124699212598427
21
-3.4573332283464566
0
LINE
8
BLACK
6
CONTINUOUS
10
5.3124699212598427
20
-3.4573332283464566
11
5.3087159448818895
21
-3.4524409448818898
0
LINE
8
BLACK
6
CONTINUOUS
10
5.3087159448818895
20
-3.4524409448818898
11
5.306356102362205
21
-3.4467437401574803
0
LINE
8
BLACK
6
CONTINUOUS
10
5.306356102362205
20
-3.4467437401574803
11
5.3055511811023619
21
-3.4406299212598426
0
LINE
8
BLACK
6
CONTINUOUS
10
5.3055511811023619
20
-3.4406299212598426
11
5.306356102362205
21
-3.4345161023622048
0
LINE
8
BLACK
6
CONTINUOUS
10
5.306356102362205
20
-3.4345161023622048
11
5.3087159448818895
21
-3.4288188976377953
0
LINE
8
BLACK
6
CONTINUOUS
10
5.3087159448818895
20
-3.4288188976377953
11
5.3124699212598427
21
-3.4239266141732281
0
LINE
8
BLACK
6
CONTINUOUS
10
5.3124699212598427
20
-3.4239266141732281
11
5.3173622047244091
21
-3.4201726377952757
0
LINE
8
BLACK
6
CONTINUOUS
10
5.3173622047244091
20
-3.4201726377952757
11
5.3230594094488186
21
-3.4178127952755903
0
LINE
8
BLACK
6
CONTINUOUS
10
5.3230594094488186
20
-3.4178127952755903
11
5.3291732283464563
21
-3.4170078740157481
0
LINE
8
BLACK
6
CONTINUOUS
10
5.3291732283464563
20
-3.4170078740157481
11
5.3508267716535434
21
-3.4170078740157481
0
LINE
8
BLACK
6
CONTINUOUS
10
5.3508267716535434
20
-3.4170078740157481
11
5.3559834251968503
21
-3.4176867716535431
0
LINE
8
BLACK
6
CONTINUOUS
10
5.3559834251968503
20
-3.4176867716535431
11
5.4281540157480315
21
-3.3455162204724407
0
LINE
8
BLACK
6
CONTINUOUS
10
5.4281540157480315
20
-3.3455162204724407
11
5.4288574803149601
21
-3.3449895669291339
0
LINE
8
BLACK
6
CONTINUOUS
10
5.4288574803149601
20
-3.3449895669291339
11
5.4289732283464565
21
-3.344856023622047
0
LINE
8
BLACK
6
CONTINUOUS
10
5.4289732283464565
20
-3.344856023622047
11
5.4290763385826768
21
-3.3448257086614173
0
LINE
8
BLACK
6
CONTINUOUS
10
5.4290763385826768
20
-3.3448257086614173
11
5.4292753543307084
21
-3.344676771653543
0
LINE
8
BLACK
6
CONTINUOUS
10
5.4292753543307084
20
-3.344676771653543
11
5.4304654330708662
21
-3.3444178740157477
0
LINE
8
BLACK
6
CONTINUOUS
10
5.4304654330708662
20
-3.3444178740157477
11
5.4316338582677162
21
-3.3440748031496064
0
LINE
8
BLACK
6
CONTINUOUS
10
5.4316338582677162
20
-3.3440748031496064
11
5.6012992125984251
21
-3.3440748031496064
0
LINE
8
BLACK
6
CONTINUOUS
10
5.6012992125984251
20
-3.3440748031496064
11
5.6012992125984251
21
-3.3403838582677166
0
LINE
8
BLACK
6
CONTINUOUS
10
5.6012992125984251
20
-3.3403838582677166
11
5.6019547637795277
21
-3.3370881102362202
0
LINE
8
BLACK
6
CONTINUOUS
10
5.6019547637795277
20
-3.3370881102362202
11
5.6038216535433065
21
-3.3342940944881887
0
LINE
8
BLACK
6
CONTINUOUS
10
5.6038216535433065
20
-3.3342940944881887
11
5.6066156692913385
21
-3.3324272047244095
0
LINE
8
BLACK
6
CONTINUOUS
10
5.6066156692913385
20
-3.3324272047244095
11
5.6099114173228344
21
-3.3317716535433068
0
LINE
8
BLACK
6
CONTINUOUS
10
5.6099114173228344
20
-3.3317716535433068
11
5.6300885826771649
21
-3.3317716535433068
0
LINE
8
BLACK
6
CONTINUOUS
10
5.6300885826771649
20
-3.3317716535433068
11
5.6333843307086608
21
-3.3324272047244095
0
LINE
8
BLACK
6
CONTINUOUS
10
5.9819897244094484
20
-3.016542716535433
11
5.983791102362205
21
-3.0186216141732283
0
LINE
8
BLACK
6
CONTINUOUS
10
5.983791102362205
20
-3.0186216141732283
11
5.9842322834645669
21
-3.0206496062992123
0
LINE
8
BLACK
6
CONTINUOUS
10
5.9842322834645669
20
-3.0206496062992123
11
5.9842322834645669
21
-3.9793503937007872
0
LINE
8
BLACK
6
CONTINUOUS
10
5.9842322834645669
20
-3.9793503937007872
11
5.983457283464567
21
-3.9819897244094489
0
LINE
8
BLACK
6
CONTINUOUS
10
5.983457283464567
20
-3.9819897244094489
11
5.9813783858267717
21
-3.9837911023622046
0
LINE
8
BLACK
6
CONTINUOUS
10
5.9813783858267717
20
-3.9837911023622046
11
5.9793503937007877
21
-3.9842322834645669
0
LINE
8
BLACK
6
CONTINUOUS
10
5.9793503937007877
20
-3.9842322834645669
11
5.0206496062992123
21
-3.9842322834645669
0
LINE
8
BLACK
6
CONTINUOUS
10
5.0206496062992123
20
-3.9842322834645669
11
5.0180102755905507
21
-3.983457283464567
0
LINE
8
BLACK
6
CONTINUOUS
10
5.0180102755905507
20
-3.983457283464567
11
5.016208897637795
21
-3.9813783858267717
0
LINE
8
BLACK
6
CONTINUOUS
10
5.016208897637795
20
-3.9813783858267717
11
5.0157677165354331
21
-3.9793503937007872
0
LINE
8
BLACK
6
CONTINUOUS
10
5.0157677165354331
20
-3.9793503937007872
11
5.0157677165354331
21
-3.6299999606299211
0
LINE
8
BLACK
6
CONTINUOUS
10
5.0157677165354331
20
-3.6299999606299211
11
5.0157677165354331
21
-3.438559094488189
0
LINE
8
BLACK
6
CONTINUOUS
10
5.0157677165354331
20
-3.438559094488189
11
5.0157677165354331
21
-3.0206496062992123
0
LINE
8
BLACK
6
CONTINUOUS
10
5.0157677165354331
20
-3.0206496062992123
11
5.016542716535433
21
-3.0180102755905511
0
LINE
8
BLACK
6
CONTINUOUS
10
5.016542716535433
20
-3.0180102755905511
11
5.0186216141732283
21
-3.0162088976377954
0
LINE
8
BLACK
6
CONTINUOUS
10
5.0186216141732283
20
-3.0162088976377954
11
5.0206496062992123
21
-3.0157677165354331
0
LINE
8
BLACK
6
CONTINUOUS
10
5.0206496062992123
20
-3.0157677165354331
11
5.9793503937007877
21
-3.0157677165354331
0
LINE
8
BLACK
6
CONTINUOUS
10
5.9793503937007877
20
-3.0157677165354331
11
5.9819897244094484
21
-3.016542716535433
0
LINE
8
BLACK
6
CONTINUOUS
10
5.5895903543307082
20
-3.6354800393700786
11
5.5928055511811019
21
-3.6409166929133856
0
LINE
8
BLACK
6
CONTINUOUS
10
5.5928055511811019
20
-3.6409166929133856
11
5.5928058267716532
21
-3.6409170472440944
0
LINE
8
BLACK
6
CONTINUOUS
10
5.5928058267716532
20
-3.6409170472440944
11
5.5972718503937005
21
-3.6453830708661417
0
LINE
8
BLACK
6
CONTINUOUS
10
5.5972718503937005
20
-3.6453830708661417
11
5.5972722047244092
21
-3.6453833464566929
0
LINE
8
BLACK
6
CONTINUOUS
10
5.5972722047244092
20
-3.6453833464566929
11
5.6027089763779525
21
-3.6485986220472442
0
LINE
8
BLACK
6
CONTINUOUS
10
5.6027089763779525
20
-3.6485986220472442
11
5.6027090944881888
21
-3.6485986614173229
0
LINE
8
BLACK
6
CONTINUOUS
10
5.6027090944881888
20
-3.6485986614173229
11
5.6087744488188971
21
-3.6503608267716534
0
LINE
8
BLACK
6
CONTINUOUS
10
5.6087744488188971
20
-3.6503608267716534
11
5.6087746850393696
21
-3.6503608661417322
0
LINE
8
BLACK
6
CONTINUOUS
10
5.6087746850393696
20
-3.6503608661417322
11
5.6101574803149603
21
-3.6504696850393699
0
LINE
8
BLACK
6
CONTINUOUS
10
5.6101574803149603
20
-3.6504696850393699
11
5.6101574803149603
21
-3.6300318897637793
0
LINE
8
BLACK
6
CONTINUOUS
10
5.6101574803149603
20
-3.6300318897637793
11
5.6101096456692909
21
-3.6299999606299211
0
LINE
8
BLACK
6
CONTINUOUS
10
5.6101096456692909
20
-3.6299999606299211
11
5.587998267716535
21
-3.6299999606299211
0
LINE
8
BLACK
6
CONTINUOUS
10
5.587998267716535
20
-3.6299999606299211
11
5.5895903543307082
21
-3.6354800393700786
0
LINE
8
BLACK
6
CONTINUOUS
10
5.629842519685039
20
-3.6300318897637793
11
5.629842519685039
21
-3.6504696456692911
0
LINE
8
BLACK
6
CONTINUOUS
10
5.629842519685039
20
-3.6504696456692911
11
5.631225275590551
21
-3.6503608661417322
0
LINE
8
BLACK
6
CONTINUOUS
10
5.631225275590551
20
-3.6503608661417322
11
5.6312255118110235
21
-3.6503608267716534
0
LINE
8
BLACK
6
CONTINUOUS
10
5.6312255118110235
20
-3.6503608267716534
11
5.6372908661417318
21
-3.6485986614173229
0
LINE
8
BLACK
6
CONTINUOUS
10
5.6372908661417318
20
-3.6485986614173229
11
5.6372909842519681
21
-3.6485986220472442
0
LINE
8
BLACK
6
CONTINUOUS
10
5.6372909842519681
20
-3.6485986220472442
11
5.6427277559055113
21
-3.6453833464566929
0
LINE
8
BLACK
6
CONTINUOUS
10
5.6427277559055113
20
-3.6453833464566929
11
5.6427281102362201
21
-3.6453830708661417
0
LINE
8
BLACK
6
CONTINUOUS
10
5.6427281102362201
20
-3.6453830708661417
11
5.6471941338582674
21
-3.6409170472440944
0
LINE
8
BLACK
6
CONTINUOUS
10
5.6471941338582674
20
-3.6409170472440944
11
5.6471944094488187
21
-3.6409166929133856
0
LINE
8
BLACK
6
CONTINUOUS
10
5.6471944094488187
20
-3.6409166929133856
11
5.6504096062992124
21
-3.6354800393700786
0
LINE
8
BLACK
6
CONTINUOUS
10
5.6504096062992124
20
-3.6354800393700786
11
5.6520017322834644
21
-3.6299999606299211
0
LINE
8
BLACK
6
CONTINUOUS
10
5.6520017322834644
20
-3.6299999606299211
11
5.6298903543307084
21
-3.6299999606299211
0
LINE
8
BLACK
6
CONTINUOUS
10
5.6298903543307084
20
-3.6299999606299211
11
5.629842519685039
21
-3.6300318897637793
0
LINE
8
BLACK
6
CONTINUOUS
10
5.2860923228346453
20
-3.4468238976377954
11
5.288043149606299
21
-3.4548652755905511
0
LINE
8
BLACK
6
CONTINUOUS
10
5.288043149606299
20
-3.4548652755905511
11
5.2880432283464565
21
-3.4548654330708661
0
LINE
8
BLACK
6
CONTINUOUS
10
5.2880432283464565
20
-3.4548654330708661
11
5.2914802362204725
21
-3.4623914566929135
0
LINE
8
BLACK
6
CONTINUOUS
10
5.2914802362204725
20
-3.4623914566929135
11
5.2914803543307087
21
-3.4623916535433068
0
LINE
8
BLACK
6
CONTINUOUS
10
5.2914803543307087
20
-3.4623916535433068
11
5.2914803937007875
21
-3.4623917322834643
0
LINE
8
BLACK
6
CONTINUOUS
10
5.2914803937007875
20
-3.4623917322834643
11
5.291480472440945
21
-3.4623918503937006
0
LINE
8
BLACK
6
CONTINUOUS
10
5.291480472440945
20
-3.4623918503937006
11
5.2939616929133857
21
-3.4658762204724409
0
LINE
8
BLACK
6
CONTINUOUS
10
5.2939616929133857
20
-3.4658762204724409
11
5.2962801181102357
21
-3.4691320078740158
0
LINE
8
BLACK
6
CONTINUOUS
10
5.2962801181102357
20
-3.4691320078740158
11
5.3003329133858266
21
-3.4729963385826772
0
LINE
8
BLACK
6
CONTINUOUS
10
5.3003329133858266
20
-3.4729963385826772
11
5.3017083070866144
21
-3.4753785826771653
0
LINE
8
BLACK
6
CONTINUOUS
10
5.3017083070866144
20
-3.4753785826771653
11
5.3015774015748027
21
-3.4781262204724408
0
LINE
8
BLACK
6
CONTINUOUS
10
5.3015774015748027
20
-3.4781262204724408
11
5.2999818110236223
21
-3.4803669685039371
0
LINE
8
BLACK
6
CONTINUOUS
10
5.2999818110236223
20
-3.4803669685039371
11
5.2995268897637793
21
-3.480684566929134
0
LINE
8
BLACK
6
CONTINUOUS
10
5.2995268897637793
20
-3.480684566929134
11
5.2969550787401571
21
-3.4822708661417323
0
LINE
8
BLACK
6
CONTINUOUS
10
5.2969550787401571
20
-3.4822708661417323
11
5.2969549212598421
21
-3.4822709842519686
0
LINE
8
BLACK
6
CONTINUOUS
10
5.2969549212598421
20
-3.4822709842519686
11
5.2920741732283467
21
-3.4871517322834644
0
LINE
8
BLACK
6
CONTINUOUS
10
5.2920741732283467
20
-3.4871517322834644
11
5.2884505118110239
21
-3.4930265748031495
0
LINE
8
BLACK
6
CONTINUOUS
10
5.2884505118110239
20
-3.4930265748031495
11
5.2884504330708664
21
-3.4930267716535432
0
LINE
8
BLACK
6
CONTINUOUS
10
5.2884504330708664
20
-3.4930267716535432
11
5.286279291338583
21
-3.4995788188976378
0
LINE
8
BLACK
6
CONTINUOUS
10
5.286279291338583
20
-3.4995788188976378
11
5.2862792519685042
21
-3.499579094488189
0
LINE
8
BLACK
6
CONTINUOUS
10
5.2862792519685042
20
-3.499579094488189
11
5.2858661417322832
21
-3.5036225590551182
0
LINE
8
BLACK
6
CONTINUOUS
10
5.2858661417322832
20
-3.5036225590551182
11
5.2858661417322832
21
-3.509527559055118
0
LINE
8
BLACK
6
CONTINUOUS
10
5.2858661417322832
20
-3.509527559055118
11
5.3055511811023619
21
-3.509527559055118
0
LINE
8
BLACK
6
CONTINUOUS
10
5.3055511811023619
20
-3.509527559055118
11
5.3055511811023619
21
-3.5055905511811023
0
LINE
8
BLACK
6
CONTINUOUS
10
5.3055511811023619
20
-3.5055905511811023
11
5.3063003937007869
21
-3.5018239763779526
0
LINE
8
BLACK
6
CONTINUOUS
10
5.3063003937007869
20
-3.5018239763779526
11
5.3084339763779527
21
-3.4986308267716533
0
LINE
8
BLACK
6
CONTINUOUS
10
5.3084339763779527
20
-3.4986308267716533
11
5.311627125984252
21
-3.4964972440944879
0
LINE
8
BLACK
6
CONTINUOUS
10
5.311627125984252
20
-3.4964972440944879
11
5.3153937007874017
21
-3.4957480314960629
0
LINE
8
BLACK
6
CONTINUOUS
10
5.3153937007874017
20
-3.4957480314960629
11
5.364606299212598
21
-3.4957480314960629
0
LINE
8
BLACK
6
CONTINUOUS
10
5.364606299212598
20
-3.4957480314960629
11
5.3683728740157477
21
-3.4964972440944879
0
LINE
8
BLACK
6
CONTINUOUS
10
5.3683728740157477
20
-3.4964972440944879
11
5.371566023622047
21
-3.4986308267716533
0
LINE
8
BLACK
6
CONTINUOUS
10
5.371566023622047
20
-3.4986308267716533
11
5.3736996062992128
21
-3.5018239763779526
0
LINE
8
BLACK
6
CONTINUOUS
10
5.3736996062992128
20
-3.5018239763779526
11
5.3744488188976378
21
-3.5055905511811023
0
LINE
8
BLACK
6
CONTINUOUS
10
5.3744488188976378
20
-3.5055905511811023
11
5.3744488188976378
21
-3.509527559055118
0
LINE
8
BLACK
6
CONTINUOUS
10
5.3744488188976378
20
-3.509527559055118
11
5.3941338188976378
21
-3.509527559055118
0
LINE
8
BLACK
6
CONTINUOUS
10
5.3941338188976378
20
-3.509527559055118
11
5.3941338188976378
21
-3.5036231496062991
0
LINE
8
BLACK
6
CONTINUOUS
10
5.3941338188976378
20
-3.5036231496062991
11
5.394133779527559
21
-3.5036225590551182
0
LINE
8
BLACK
6
CONTINUOUS
10
5.394133779527559
20
-3.5036225590551182
11
5.3937206692913389
21
-3.4995788188976378
0
LINE
8
BLACK
6
CONTINUOUS
10
5.3937206692913389
20
-3.4995788188976378
11
5.3915495275590546
21
-3.4930267716535432
0
LINE
8
BLACK
6
CONTINUOUS
10
5.3915495275590546
20
-3.4930267716535432
11
5.3915494488188971
21
-3.4930265748031495
0
LINE
8
BLACK
6
CONTINUOUS
10
5.3915494488188971
20
-3.4930265748031495
11
5.3879257874015742
21
-3.4871517322834644
0
LINE
8
BLACK
6
CONTINUOUS
10
5.3879257874015742
20
-3.4871517322834644
11
5.3830450393700788
21
-3.4822709842519686
0
LINE
8
BLACK
6
CONTINUOUS
10
5.3830450393700788
20
-3.4822709842519686
11
5.3830448818897638
21
-3.4822708661417323
0
LINE
8
BLACK
6
CONTINUOUS
10
5.3830448818897638
20
-3.4822708661417323
11
5.3805449212598422
21
-3.4807288582677165
0
LINE
8
BLACK
6
CONTINUOUS
10
5.3805449212598422
20
-3.4807288582677165
11
5.3787053543307088
21
-3.4786836614173229
0
LINE
8
BLACK
6
CONTINUOUS
10
5.3787053543307088
20
-3.4786836614173229
11
5.3782635826771656
21
-3.4759686220472439
0
LINE
8
BLACK
6
CONTINUOUS
10
5.3782635826771656
20
-3.4759686220472439
11
5.3793597637795276
21
-3.4734457086614174
0
LINE
8
BLACK
6
CONTINUOUS
10
5.3793597637795276
20
-3.4734457086614174
11
5.3800901181102363
21
-3.4727363385826773
0
LINE
8
BLACK
6
CONTINUOUS
10
5.3800901181102363
20
-3.4727363385826773
11
5.3808614960629919
21
-3.4721297244094487
0
LINE
8
BLACK
6
CONTINUOUS
10
5.3808614960629919
20
-3.4721297244094487
11
5.3808614566929132
21
-3.4721297244094487
0
LINE
8
BLACK
6
CONTINUOUS
10
5.3808614566929132
20
-3.4721297244094487
11
5.3808616535433069
21
-3.4721296062992124
0
LINE
8
BLACK
6
CONTINUOUS
10
5.3808616535433069
20
-3.4721296062992124
11
5.3862802755905514
21
-3.4658762204724409
0
LINE
8
BLACK
6
CONTINUOUS
10
5.3862802755905514
20
-3.4658762204724409
11
5.3904174803149605
21
-3.4587103937007875
0
LINE
8
BLACK
6
CONTINUOUS
10
5.3904174803149605
20
-3.4587103937007875
11
5.3931237795275591
21
-3.4508910629921261
0
LINE
8
BLACK
6
CONTINUOUS
10
5.3931237795275591
20
-3.4508910629921261
11
5.394301338582677
21
-3.442700866141732
0
LINE
8
BLACK
6
CONTINUOUS
10
5.394301338582677
20
-3.442700866141732
11
5.3939076377952757
21
-3.4344358267716535
0
LINE
8
BLACK
6
CONTINUOUS
10
5.3939076377952757
20
-3.4344358267716535
11
5.3920379527559055
21
-3.4267289370078737
0
LINE
8
BLACK
6
CONTINUOUS
10
5.3920379527559055
20
-3.4267289370078737
11
5.3921688582677163
21
-3.4239813385826769
0
LINE
8
BLACK
6
CONTINUOUS
10
5.3921688582677163
20
-3.4239813385826769
11
5.3933301574803147
21
-3.4221261023622045
0
LINE
8
BLACK
6
CONTINUOUS
10
5.3933301574803147
20
-3.4221261023622045
11
5.4404044094488189
21
-3.3750519291338583
0
LINE
8
BLACK
6
CONTINUOUS
10
5.4404044094488189
20
-3.3750519291338583
11
5.4428187007874014
21
-3.373733622047244
0
LINE
8
BLACK
6
CONTINUOUS
10
5.4428187007874014
20
-3.373733622047244
11
5.4438564173228343
21
-3.3736220472440945
0
LINE
8
BLACK
6
CONTINUOUS
10
5.4438564173228343
20
-3.3736220472440945
11
5.583864881889764
21
-3.3736220472440945
0
LINE
8
BLACK
6
CONTINUOUS
10
5.583864881889764
20
-3.3736220472440945
11
5.5865042125984248
21
-3.3743970472440945
0
LINE
8
BLACK
6
CONTINUOUS
10
5.5865042125984248
20
-3.3743970472440945
11
5.587309606299212
21
-3.3751272047244094
0
LINE
8
BLACK
6
CONTINUOUS
10
5.587309606299212
20
-3.3751272047244094
11
5.587346929133858
21
-3.3750899212598426
0
LINE
8
BLACK
6
CONTINUOUS
10
5.587346929133858
20
-3.3750899212598426
11
5.5888049999999998
21
-3.376547992125984
0
LINE
8
BLACK
6
CONTINUOUS
10
5.5888049999999998
20
-3.376547992125984
11
5.5901233070866141
21
-3.378962283464567
0
LINE
8
BLACK
6
CONTINUOUS
10
5.5901233070866141
20
-3.378962283464567
11
5.589927086614173
21
-3.3817060629921261
0
LINE
8
BLACK
6
CONTINUOUS
10
5.589927086614173
20
-3.3817060629921261
11
5.5888049999999998
21
-3.3834520078740158
0
LINE
8
BLACK
6
CONTINUOUS
10
5.5888049999999998
20
-3.3834520078740158
11
5.5875479921259839
21
-3.3847089763779525
0
LINE
8
BLACK
6
CONTINUOUS
10
5.5875479921259839
20
-3.3847089763779525
11
5.5875478740157476
21
-3.3847091338582675
0
LINE
8
BLACK
6
CONTINUOUS
10
5.5875478740157476
20
-3.3847091338582675
11
5.5840730314960627
21
-3.3903426771653544
0
LINE
8
BLACK
6
CONTINUOUS
10
5.5840730314960627
20
-3.3903426771653544
11
5.5840728740157477
21
-3.3903430314960628
0
LINE
8
BLACK
6
CONTINUOUS
10
5.5840728740157477
20
-3.3903430314960628
11
5.5819907086614169
21
-3.3966265748031494
0
LINE
8
BLACK
6
CONTINUOUS
10
5.5819907086614169
20
-3.3966265748031494
11
5.5819907086614169
21
-3.3966266141732282
0
LINE
8
BLACK
6
CONTINUOUS
10
5.5819907086614169
20
-3.3966266141732282
11
5.5819906692913381
21
-3.3966266141732282
0
LINE
8
BLACK
6
CONTINUOUS
10
5.5819906692913381
20
-3.3966266141732282
11
5.5815944881889763
21
-3.4005046456692911
0
LINE
8
BLACK
6
CONTINUOUS
10
5.5815944881889763
20
-3.4005046456692911
11
5.5815944881889763
21
-3.4215031889763781
0
LINE
8
BLACK
6
CONTINUOUS
10
5.5815944881889763
20
-3.4215031889763781
11
5.5819906692913381
21
-3.425381220472441
0
LINE
8
BLACK
6
CONTINUOUS
10
5.5819906692913381
20
-3.425381220472441
11
5.5840728346456689
21
-3.4316647244094489
0
LINE
8
BLACK
6
CONTINUOUS
10
5.5840728346456689
20
-3.4316647244094489
11
5.5840730314960627
21
-3.4316651574803148
0
LINE
8
BLACK
6
CONTINUOUS
10
5.5840730314960627
20
-3.4316651574803148
11
5.5875478740157476
21
-3.4372987007874016
0
LINE
8
BLACK
6
CONTINUOUS
10
5.5875478740157476
20
-3.4372987007874016
11
5.5875479921259839
21
-3.4372988582677166
0
LINE
8
BLACK
6
CONTINUOUS
10
5.5875479921259839
20
-3.4372988582677166
11
5.5922287007874019
21
-3.4419795669291338
0
LINE
8
BLACK
6
CONTINUOUS
10
5.5922287007874019
20
-3.4419795669291338
11
5.5930549999999997
21
-3.442489251968504
0
LINE
8
BLACK
6
CONTINUOUS
10
5.5930549999999997
20
-3.442489251968504
11
5.5948945275590551
21
-3.4445344094488188
0
LINE
8
BLACK
6
CONTINUOUS
10
5.5948945275590551
20
-3.4445344094488188
11
5.5953740157480309
21
-3.4466442913385826
0
LINE
8
BLACK
6
CONTINUOUS
10
5.5953740157480309
20
-3.4466442913385826
11
5.5953740157480309
21
-3.5546221653543308
0
LINE
8
BLACK
6
CONTINUOUS
10
5.5953740157480309
20
-3.5546221653543308
11
5.594599015748031
21
-3.557261496062992
0
LINE
8
BLACK
6
CONTINUOUS
10
5.594599015748031
20
-3.557261496062992
11
5.5939441338582672
21
-3.5580741732283463
0
LINE
8
BLACK
6
CONTINUOUS
10
5.5939441338582672
20
-3.5580741732283463
11
5.5927901181102362
21
-3.559228149606299
0
LINE
8
BLACK
6
CONTINUOUS
10
5.5927901181102362
20
-3.559228149606299
11
5.5927898818897637
21
-3.559228464566929
0
LINE
8
BLACK
6
CONTINUOUS
10
5.5927898818897637
20
-3.559228464566929
11
5.5895720866141732
21
-3.5646694881889762
0
LINE
8
BLACK
6
CONTINUOUS
10
5.5895720866141732
20
-3.5646694881889762
11
5.5895720078740156
21
-3.56466968503937
0
LINE
8
BLACK
6
CONTINUOUS
10
5.5895720078740156
20
-3.56466968503937
11
5.5878084645669288
21
-3.5707397637795273
0
LINE
8
BLACK
6
CONTINUOUS
10
5.5878084645669288
20
-3.5707397637795273
11
5.5878084251968501
21
-3.5707399999999998
0
LINE
8
BLACK
6
CONTINUOUS
10
5.5878084251968501
20
-3.5707399999999998
11
5.5876968503937006
21
-3.5721581102362205
0
LINE
8
BLACK
6
CONTINUOUS
10
5.5876968503937006
20
-3.5721581102362205
11
5.5876968897637793
21
-3.5878417322834646
0
LINE
8
BLACK
6
CONTINUOUS
10
5.5876968897637793
20
-3.5878417322834646
11
5.5878084645669288
21
-3.5892599999999999
0
LINE
8
BLACK
6
CONTINUOUS
10
5.5878084645669288
20
-3.5892599999999999
11
5.5895720078740156
21
-3.5953301968503935
0
LINE
8
BLACK
6
CONTINUOUS
10
5.5895720078740156
20
-3.5953301968503935
11
5.5895720472440944
21
-3.5953303149606297
0
LINE
8
BLACK
6
CONTINUOUS
10
5.5895720472440944
20
-3.5953303149606297
11
5.5909220078740161
21
-3.5976129921259843
0
LINE
8
BLACK
6
CONTINUOUS
10
5.5909220078740161
20
-3.5976129921259843
11
5.5915984645669292
21
-3.6002792913385826
0
LINE
8
BLACK
6
CONTINUOUS
10
5.5915984645669292
20
-3.6002792913385826
11
5.5909220078740161
21
-3.6025830708661415
0
LINE
8
BLACK
6
CONTINUOUS
10
5.5909220078740161
20
-3.6025830708661415
11
5.5895903149606294
21
-3.604834842519685
0
LINE
8
BLACK
6
CONTINUOUS
10
5.5895903149606294
20
-3.604834842519685
11
5.587998267716535
21
-3.6103149212598424
0
LINE
8
BLACK
6
CONTINUOUS
10
5.587998267716535
20
-3.6103149212598424
11
5.6098435433070861
21
-3.6103149212598424
0
LINE
8
BLACK
6
CONTINUOUS
10
5.6098435433070861
20
-3.6103149212598424
11
5.6100350787401574
21
-3.610322440944882
0
LINE
8
BLACK
6
CONTINUOUS
10
5.6100350787401574
20
-3.610322440944882
11
5.6100917322834647
21
-3.6103268897637792
0
LINE
8
BLACK
6
CONTINUOUS
10
5.6100917322834647
20
-3.6103268897637792
11
5.6106825984251971
21
-3.6099320866141733
0
LINE
8
BLACK
6
CONTINUOUS
10
5.6106825984251971
20
-3.6099320866141733
11
5.612716535433071
21
-3.6095275196850394
0
LINE
8
BLACK
6
CONTINUOUS
10
5.612716535433071
20
-3.6095275196850394
11
5.6272834645669292
21
-3.6095275196850394
0
LINE
8
BLACK
6
CONTINUOUS
10
5.6272834645669292
20
-3.6095275196850394
11
5.6293174015748031
21
-3.6099320866141733
0
LINE
8
BLACK
6
CONTINUOUS
10
5.6293174015748031
20
-3.6099320866141733
11
5.6299081496062993
21
-3.6103268110236222
0
LINE
8
BLACK
6
CONTINUOUS
10
5.6299081496062993
20
-3.6103268110236222
11
5.629964409448819
21
-3.6103224015748032
0
LINE
8
BLACK
6
CONTINUOUS
10
5.629964409448819
20
-3.6103224015748032
11
5.6301558661417319
21
-3.6103149212598424
0
LINE
8
BLACK
6
CONTINUOUS
10
5.6301558661417319
20
-3.6103149212598424
11
5.6520017322834644
21
-3.6103149212598424
0
LINE
8
BLACK
6
CONTINUOUS
10
5.6520017322834644
20
-3.6103149212598424
11
5.6504096062992124
21
-3.6048348031496062
0
LINE
8
BLACK
6
CONTINUOUS
10
5.6504096062992124
20
-3.6048348031496062
11
5.6490779921259842
21
-3.6025831102362202
0
LINE
8
BLACK
6
CONTINUOUS
10
5.6490779921259842
20
-3.6025831102362202
11
5.6484014960629922
21
-3.5999168110236219
0
LINE
8
BLACK
6
CONTINUOUS
10
5.6484014960629922
20
-3.5999168110236219
11
5.6490780314960629
21
-3.5976129133858268
0
LINE
8
BLACK
6
CONTINUOUS
10
5.6490780314960629
20
-3.5976129133858268
11
5.6504278346456696
21
-3.5953305118110235
0
LINE
8
BLACK
6
CONTINUOUS
10
5.6504278346456696
20
-3.5953305118110235
11
5.6504279133858271
21
-3.5953303937007872
0
LINE
8
BLACK
6
CONTINUOUS
10
5.6504279133858271
20
-3.5953303937007872
11
5.6521915354330705
21
-3.5892599606299211
0
LINE
8
BLACK
6
CONTINUOUS
10
5.6521915354330705
20
-3.5892599606299211
11
5.6523031496062988
21
-3.5878417322834646
0
LINE
8
BLACK
6
CONTINUOUS
10
5.6523031496062988
20
-3.5878417322834646
11
5.65230311023622
21
-3.5721582283464568
0
LINE
8
BLACK
6
CONTINUOUS
10
5.65230311023622
20
-3.5721582283464568
11
5.6521915354330705
21
-3.5707399606299211
0
LINE
8
BLACK
6
CONTINUOUS
10
5.6521915354330705
20
-3.5707399606299211
11
5.6504279133858271
21
-3.564669527559055
0
LINE
8
BLACK
6
CONTINUOUS
10
5.6504279133858271
20
-3.564669527559055
11
5.647210039370079
21
-3.5592283858267715
0
LINE
8
BLACK
6
CONTINUOUS
10
5.647210039370079
20
-3.5592283858267715
11
5.6472099606299215
21
-3.559228307086614
0
LINE
8
BLACK
6
CONTINUOUS
10
5.6472099606299215
20
-3.559228307086614
11
5.6472098425196853
21
-3.559228149606299
0
LINE
8
BLACK
6
CONTINUOUS
10
5.6472098425196853
20
-3.559228149606299
11
5.6460558661417322
21
-3.5580741732283463
0
LINE
8
BLACK
6
CONTINUOUS
10
5.6460558661417322
20
-3.5580741732283463
11
5.6447375590551179
21
-3.5556598818897638
0
LINE
8
BLACK
6
CONTINUOUS
10
5.6447375590551179
20
-3.5556598818897638
11
5.6446259842519684
21
-3.5546221653543308
0
LINE
8
BLACK
6
CONTINUOUS
10
5.6446259842519684
20
-3.5546221653543308
11
5.6446259842519684
21
-3.4466442913385826
0
LINE
8
BLACK
6
CONTINUOUS
10
5.6446259842519684
20
-3.4466442913385826
11
5.6454009842519683
21
-3.444004960629921
0
LINE
8
BLACK
6
CONTINUOUS
10
5.6454009842519683
20
-3.444004960629921
11
5.6469449212598422
21
-3.442489251968504
0
LINE
8
BLACK
6
CONTINUOUS
10
5.6469449212598422
20
-3.442489251968504
11
5.6477712992125984
21
-3.4419795669291338
0
LINE
8
BLACK
6
CONTINUOUS
10
5.6477712992125984
20
-3.4419795669291338
11
5.6524520078740155
21
-3.4372988582677166
0
LINE
8
BLACK
6
CONTINUOUS
10
5.6524520078740155
20
-3.4372988582677166
11
5.6559271259842516
21
-3.4316648425196852
0
LINE
8
BLACK
6
CONTINUOUS
10
5.6559271259842516
20
-3.4316648425196852
11
5.6580092913385824
21
-3.4253812992125985
0
LINE
8
BLACK
6
CONTINUOUS
10
5.6580092913385824
20
-3.4253812992125985
11
5.6584055118110239
21
-3.4215029133858268
0
LINE
8
BLACK
6
CONTINUOUS
10
5.6584055118110239
20
-3.4215029133858268
11
5.6584055118110239
21
-3.4005049606299211
0
LINE
8
BLACK
6
CONTINUOUS
10
5.6584055118110239
20
-3.4005049606299211
11
5.6580092913385824
21
-3.3966265748031494
0
LINE
8
BLACK
6
CONTINUOUS
10
5.6580092913385824
20
-3.3966265748031494
11
5.6559271259842516
21
-3.3903430314960628
0
LINE
8
BLACK
6
CONTINUOUS
10
5.6559271259842516
20
-3.3903430314960628
11
5.6559269685039366
21
-3.3903427952755907
0
LINE
8
BLACK
6
CONTINUOUS
10
5.6559269685039366
20
-3.3903427952755907
11
5.6559269291338579
21
-3.3903426771653544
0
LINE
8
BLACK
6
CONTINUOUS
10
5.6559269291338579
20
-3.3903426771653544
11
5.652452086614173
21
-3.3847091338582675
0
LINE
8
BLACK
6
CONTINUOUS
10
5.652452086614173
20
-3.3847091338582675
11
5.6524519685039367
21
-3.3847089763779525
0
LINE
8
BLACK
6
CONTINUOUS
10
5.6524519685039367
20
-3.3847089763779525
11
5.6511949999999995
21
-3.3834520078740158
0
LINE
8
BLACK
6
CONTINUOUS
10
5.6511949999999995
20
-3.3834520078740158
11
5.6498766929133861
21
-3.3810377165354328
0
LINE
8
BLACK
6
CONTINUOUS
10
5.6498766929133861
20
-3.3810377165354328
11
5.6500729133858263
21
-3.3782939370078737
0
LINE
8
BLACK
6
CONTINUOUS
10
5.6500729133858263
20
-3.3782939370078737
11
5.6511949999999995
21
-3.376547992125984
0
LINE
8
BLACK
6
CONTINUOUS
10
5.6511949999999995
20
-3.376547992125984
11
5.6524520078740155
21
-3.3752909842519685
0
LINE
8
BLACK
6
CONTINUOUS
10
5.6524520078740155
20
-3.3752909842519685
11
5.6559271259842516
21
-3.369656968503937
0
LINE
8
BLACK
6
CONTINUOUS
10
5.6559271259842516
20
-3.369656968503937
11
5.6580092913385824
21
-3.3633734251968503
0
LINE
8
BLACK
6
CONTINUOUS
10
5.6580092913385824
20
-3.3633734251968503
11
5.6584055118110239
21
-3.3594950393700787
0
LINE
8
BLACK
6
CONTINUOUS
10
5.6584055118110239
20
-3.3594950393700787
11
5.6584055118110239
21
-3.338497086614173
0
LINE
8
BLACK
6
CONTINUOUS
10
5.6584055118110239
20
-3.338497086614173
11
5.6580092913385824
21
-3.3346187007874013
0
LINE
8
BLACK
6
CONTINUOUS
10
5.6580092913385824
20
-3.3346187007874013
11
5.6559271259842516
21
-3.3283351574803151
0
LINE
8
BLACK
6
CONTINUOUS
10
5.6559271259842516
20
-3.3283351574803151
11
5.6559269685039366
21
-3.3283349212598425
0
LINE
8
BLACK
6
CONTINUOUS
10
5.6559269685039366
20
-3.3283349212598425
11
5.6559269291338579
21
-3.3283348031496063
0
LINE
8
BLACK
6
CONTINUOUS
10
5.6559269291338579
20
-3.3283348031496063
11
5.652452086614173
21
-3.3227012598425194
0
LINE
8
BLACK
6
CONTINUOUS
10
5.652452086614173
20
-3.3227012598425194
11
5.6524519685039367
21
-3.3227011023622048
0
LINE
8
BLACK
6
CONTINUOUS
10
5.6524519685039367
20
-3.3227011023622048
11
5.6477712992125984
21
-3.318020433070866
0
LINE
8
BLACK
6
CONTINUOUS
10
5.6477712992125984
20
-3.318020433070866
11
5.6477711417322833
21
-3.3180203149606298
0
LINE
8
BLACK
6
CONTINUOUS
10
5.6477711417322833
20
-3.3180203149606298
11
5.6421375984251965
21
-3.3145454724409449
0
LINE
8
BLACK
6
CONTINUOUS
10
5.6421375984251965
20
-3.3145454724409449
11
5.6421373622047239
21
-3.3145453543307086
0
LINE
8
BLACK
6
CONTINUOUS
10
5.6421373622047239
20
-3.3145453543307086
11
5.6421372834645664
21
-3.3145453149606299
0
LINE
8
BLACK
6
CONTINUOUS
10
5.6421372834645664
20
-3.3145453149606299
11
5.6358537401574802
21
-3.3124631496062991
0
LINE
8
BLACK
6
CONTINUOUS
10
5.6358537401574802
20
-3.3124631496062991
11
5.6358536614173227
21
-3.3124631102362203
0
LINE
8
BLACK
6
CONTINUOUS
10
5.6358536614173227
20
-3.3124631102362203
11
5.6319756299212598
21
-3.312066929133858
0
LINE
8
BLACK
6
CONTINUOUS
10
5.6319756299212598
20
-3.312066929133858
11
5.6319753543307085
21
-3.312066929133858
0
LINE
8
BLACK
6
CONTINUOUS
10
5.6319753543307085
20
-3.312066929133858
11
5.6080246456692908
21
-3.312066929133858
0
LINE
8
BLACK
6
CONTINUOUS
10
5.6080246456692908
20
-3.312066929133858
11
5.6080243307086617
21
-3.312066929133858
0
LINE
8
BLACK
6
CONTINUOUS
10
5.6080243307086617
20
-3.312066929133858
11
5.6041462992125979
21
-3.3124631102362203
0
LINE
8
BLACK
6
CONTINUOUS
10
5.6041462992125979
20
-3.3124631102362203
11
5.6041462598425191
21
-3.3124631496062991
0
LINE
8
BLACK
6
CONTINUOUS
10
5.6041462598425191
20
-3.3124631496062991
11
5.6010322440944877
21
-3.3134950000000001
0
LINE
8
BLACK
6
CONTINUOUS
10
5.6010322440944877
20
-3.3134950000000001
11
5.5978627952755904
21
-3.3145452755905511
0
LINE
8
BLACK
6
CONTINUOUS
10
5.5978627952755904
20
-3.3145452755905511
11
5.5978623622047241
21
-3.3145454724409449
0
LINE
8
BLACK
6
CONTINUOUS
10
5.5978623622047241
20
-3.3145454724409449
11
5.5922288188976372
21
-3.3180203149606298
0
LINE
8
BLACK
6
CONTINUOUS
10
5.5922288188976372
20
-3.3180203149606298
11
5.5922286614173231
21
-3.318020433070866
0
LINE
8
BLACK
6
CONTINUOUS
10
5.5922286614173231
20
-3.318020433070866
11
5.587346929133858
21
-3.3229022047244094
0
LINE
8
BLACK
6
CONTINUOUS
10
5.587346929133858
20
-3.3229022047244094
11
5.5872648818897632
21
-3.3228201574803147
0
LINE
8
BLACK
6
CONTINUOUS
10
5.5872648818897632
20
-3.3228201574803147
11
5.5854494488188973
21
-3.3241057480314962
0
LINE
8
BLACK
6
CONTINUOUS
10
5.5854494488188973
20
-3.3241057480314962
11
5.583864881889764
21
-3.3243700787401576
0
LINE
8
BLACK
6
CONTINUOUS
10
5.583864881889764
20
-3.3243700787401576
11
5.4348912598425194
21
-3.3243700787401576
0
LINE
8
BLACK
6
CONTINUOUS
10
5.4348912598425194
20
-3.3243700787401576
11
5.4342764173228346
21
-3.3243022047244093
0
LINE
8
BLACK
6
CONTINUOUS
10
5.4342764173228346
20
-3.3243022047244093
11
5.4342753543307083
21
-3.324313464566929
0
LINE
8
BLACK
6
CONTINUOUS
10
5.4342753543307083
20
-3.324313464566929
11
5.433969763779527
21
-3.3242845275590551
0
LINE
8
BLACK
6
CONTINUOUS
10
5.433969763779527
20
-3.3242845275590551
11
5.4312481889763777
21
-3.3243700787401576
0
LINE
8
BLACK
6
CONTINUOUS
10
5.4312481889763777
20
-3.3243700787401576
11
5.4300846456692913
21
-3.3243700787401576
0
LINE
8
BLACK
6
CONTINUOUS
10
5.4300846456692913
20
-3.3243700787401576
11
5.4300562598425195
21
-3.324373622047244
0
LINE
8
BLACK
6
CONTINUOUS
10
5.4300562598425195
20
-3.324373622047244
11
5.4298132677165354
21
-3.3244042913385825
0
LINE
8
BLACK
6
CONTINUOUS
10
5.4298132677165354
20
-3.3244042913385825
11
5.4295844488188978
21
-3.3244222834645667
0
LINE
8
BLACK
6
CONTINUOUS
10
5.4295844488188978
20
-3.3244222834645667
11
5.4277509055118109
21
-3.3244799212598424
0
LINE
8
BLACK
6
CONTINUOUS
10
5.4277509055118109
20
-3.3244799212598424
11
5.4277508661417322
21
-3.3244799212598424
0
LINE
8
BLACK
6
CONTINUOUS
10
5.4277508661417322
20
-3.3244799212598424
11
5.4269932677165356
21
-3.3247000393700787
0
LINE
8
BLACK
6
CONTINUOUS
10
5.4269932677165356
20
-3.3247000393700787
11
5.4262432677165355
21
-3.3248553149606299
0
LINE
8
BLACK
6
CONTINUOUS
10
5.4262432677165355
20
-3.3248553149606299
11
5.4254610629921256
21
-3.3249540944881888
0
LINE
8
BLACK
6
CONTINUOUS
10
5.4254610629921256
20
-3.3249540944881888
11
5.4237552755905512
21
-3.3256294488188978
0
LINE
8
BLACK
6
CONTINUOUS
10
5.4237552755905512
20
-3.3256294488188978
11
5.4235377165354333
21
-3.3257038976377951
0
LINE
8
BLACK
6
CONTINUOUS
10
5.4235377165354333
20
-3.3257038976377951
11
5.4217761417322832
21
-3.326215708661417
0
LINE
8
BLACK
6
CONTINUOUS
10
5.4217761417322832
20
-3.326215708661417
11
5.4217759842519682
21
-3.3262157874015745
0
LINE
8
BLACK
6
CONTINUOUS
10
5.4217759842519682
20
-3.3262157874015745
11
5.4210970866141732
21
-3.3266172834645666
0
LINE
8
BLACK
6
CONTINUOUS
10
5.4210970866141732
20
-3.3266172834645666
11
5.4204096456692916
21
-3.3269540551181103
0
LINE
8
BLACK
6
CONTINUOUS
10
5.4204096456692916
20
-3.3269540551181103
11
5.4196761417322836
21
-3.3272444881889762
0
LINE
8
BLACK
6
CONTINUOUS
10
5.4196761417322836
20
-3.3272444881889762
11
5.4196756692913386
21
-3.3272447637795275
0
LINE
8
BLACK
6
CONTINUOUS
10
5.4196756692913386
20
-3.3272447637795275
11
5.4181917322834643
21
-3.3283229133858265
0
LINE
8
BLACK
6
CONTINUOUS
10
5.4181917322834643
20
-3.3283229133858265
11
5.4179994881889764
21
-3.3284491732283463
0
LINE
8
BLACK
6
CONTINUOUS
10
5.4179994881889764
20
-3.3284491732283463
11
5.4164204724409446
21
-3.3293830314960631
0
LINE
8
BLACK
6
CONTINUOUS
10
5.4164204724409446
20
-3.3293830314960631
11
5.4158627559055112
21
-3.329940748031496
0
LINE
8
BLACK
6
CONTINUOUS
10
5.4158627559055112
20
-3.329940748031496
11
5.4152804724409451
21
-3.3304380708661419
0
LINE
8
BLACK
6
CONTINUOUS
10
5.4152804724409451
20
-3.3304380708661419
11
5.4146422834645671
21
-3.3309017322834644
0
LINE
8
BLACK
6
CONTINUOUS
10
5.4146422834645671
20
-3.3309017322834644
11
5.4146421653543308
21
-3.3309018503937007
0
LINE
8
BLACK
6
CONTINUOUS
10
5.4146421653543308
20
-3.3309018503937007
11
5.4134728346456695
21
-3.3323153149606299
0
LINE
8
BLACK
6
CONTINUOUS
10
5.4134728346456695
20
-3.3323153149606299
11
5.4133179921259842
21
-3.3324854724409447
0
LINE
8
BLACK
6
CONTINUOUS
10
5.4133179921259842
20
-3.3324854724409447
11
5.3499302362204721
21
-3.3958732677165355
0
LINE
8
BLACK
6
CONTINUOUS
10
5.3499302362204721
20
-3.3958732677165355
11
5.3475159448818896
21
-3.3971915748031494
0
LINE
8
BLACK
6
CONTINUOUS
10
5.3475159448818896
20
-3.3971915748031494
11
5.3464782283464567
21
-3.3973031496062993
0
LINE
8
BLACK
6
CONTINUOUS
10
5.3464782283464567
20
-3.3973031496062993
11
5.3271092519685039
21
-3.3973031496062993
0
LINE
8
BLACK
6
CONTINUOUS
10
5.3271092519685039
20
-3.3973031496062993
11
5.3209362992125984
21
-3.3978925984251966
0
LINE
8
BLACK
6
CONTINUOUS
10
5.3209362992125984
20
-3.3978925984251966
11
5.3209361417322834
21
-3.3978926377952754
0
LINE
8
BLACK
6
CONTINUOUS
10
5.3209361417322834
20
-3.3978926377952754
11
5.3129971259842517
21
-3.4002237401574802
0
LINE
8
BLACK
6
CONTINUOUS
10
5.3129971259842517
20
-3.4002237401574802
11
5.3056422440944884
21
-3.4040153937007873
0
LINE
8
BLACK
6
CONTINUOUS
10
5.3056422440944884
20
-3.4040153937007873
11
5.2991384251968503
21
-3.409130118110236
0
LINE
8
BLACK
6
CONTINUOUS
10
5.2991384251968503
20
-3.409130118110236
11
5.2991382677165353
21
-3.409130275590551
0
LINE
8
BLACK
6
CONTINUOUS
10
5.2991382677165353
20
-3.409130275590551
11
5.2937196062992129
21
-3.4153837007874013
0
LINE
8
BLACK
6
CONTINUOUS
10
5.2937196062992129
20
-3.4153837007874013
11
5.2895825984251967
21
-3.4225492125984252
0
LINE
8
BLACK
6
CONTINUOUS
10
5.2895825984251967
20
-3.4225492125984252
11
5.2868762204724407
21
-3.4303687007874015
0
LINE
8
BLACK
6
CONTINUOUS
10
5.2868762204724407
20
-3.4303687007874015
11
5.2868762204724407
21
-3.430368779527559
0
LINE
8
BLACK
6
CONTINUOUS
10
5.2868762204724407
20
-3.430368779527559
11
5.2858798818897634
21
-3.4372987007874016
0
LINE
8
BLACK
6
CONTINUOUS
10
5.2858798818897634
20
-3.4372987007874016
11
5.2856986614173227
21
-3.438559094488189
0
LINE
8
BLACK
6
CONTINUOUS
10
5.2856986614173227
20
-3.438559094488189
11
5.2860923228346453
21
-3.4468238976377954
0
LINE
8
BLACK
6
CONTINUOUS
10
5.2858661811023619
20
-3.5292125984251967
11
5.2858661811023619
21
-3.5351175590551178
0
LINE
8
BLACK
6
CONTINUOUS
10
5.2858661811023619
20
-3.5351175590551178
11
5.286279291338583
21
-3.5391612992125983
0
LINE
8
BLACK
6
CONTINUOUS
10
5.286279291338583
20
-3.5391612992125983
11
5.2884504330708664
21
-3.5457133464566928
0
LINE
8
BLACK
6
CONTINUOUS
10
5.2884504330708664
20
-3.5457133464566928
11
5.2884505118110239
21
-3.5457135433070865
0
LINE
8
BLACK
6
CONTINUOUS
10
5.2884505118110239
20
-3.5457135433070865
11
5.2920741732283467
21
-3.5515883858267716
0
LINE
8
BLACK
6
CONTINUOUS
10
5.2920741732283467
20
-3.5515883858267716
11
5.2969548818897634
21
-3.5564690944881887
0
LINE
8
BLACK
6
CONTINUOUS
10
5.2969548818897634
20
-3.5564690944881887
11
5.3028297244094489
21
-3.5600927559055116
0
LINE
8
BLACK
6
CONTINUOUS
10
5.3028297244094489
20
-3.5600927559055116
11
5.3028299212598426
21
-3.5600928346456691
0
LINE
8
BLACK
6
CONTINUOUS
10
5.3028299212598426
20
-3.5600928346456691
11
5.3093819685039367
21
-3.5622639763779529
0
LINE
8
BLACK
6
CONTINUOUS
10
5.3093819685039367
20
-3.5622639763779529
11
5.309382244094488
21
-3.5622640157480312
0
LINE
8
BLACK
6
CONTINUOUS
10
5.309382244094488
20
-3.5622640157480312
11
5.3134259448818897
21
-3.5626771259842518
0
LINE
8
BLACK
6
CONTINUOUS
10
5.3134259448818897
20
-3.5626771259842518
11
5.3301574409448822
21
-3.5626771259842518
0
LINE
8
BLACK
6
CONTINUOUS
10
5.3301574409448822
20
-3.5626771259842518
11
5.3301574803149609
21
-3.562677086614173
0
LINE
8
BLACK
6
CONTINUOUS
10
5.3301574803149609
20
-3.562677086614173
11
5.3301574803149609
21
-3.5429921259842518
0
LINE
8
BLACK
6
CONTINUOUS
10
5.3301574803149609
20
-3.5429921259842518
11
5.3153937007874017
21
-3.5429921259842518
0
LINE
8
BLACK
6
CONTINUOUS
10
5.3153937007874017
20
-3.5429921259842518
11
5.311627125984252
21
-3.5422429133858269
0
LINE
8
BLACK
6
CONTINUOUS
10
5.311627125984252
20
-3.5422429133858269
11
5.3084339763779527
21
-3.5401093307086615
0
LINE
8
BLACK
6
CONTINUOUS
10
5.3084339763779527
20
-3.5401093307086615
11
5.3063003937007869
21
-3.5369161811023622
0
LINE
8
BLACK
6
CONTINUOUS
10
5.3063003937007869
20
-3.5369161811023622
11
5.3055511811023619
21
-3.5331496062992125
0
LINE
8
BLACK
6
CONTINUOUS
10
5.3055511811023619
20
-3.5331496062992125
11
5.3055511811023619
21
-3.5292125984251967
0
LINE
8
BLACK
6
CONTINUOUS
10
5.3055511811023619
20
-3.5292125984251967
11
5.2858661811023619
21
-3.5292125984251967
0
LINE
8
BLACK
6
CONTINUOUS
10
5.3744488188976378
20
-3.5331496062992125
11
5.3736996062992128
21
-3.5369161811023622
0
LINE
8
BLACK
6
CONTINUOUS
10
5.3736996062992128
20
-3.5369161811023622
11
5.371566023622047
21
-3.5401093307086615
0
LINE
8
BLACK
6
CONTINUOUS
10
5.371566023622047
20
-3.5401093307086615
11
5.3683728740157477
21
-3.5422429133858269
0
LINE
8
BLACK
6
CONTINUOUS
10
5.3683728740157477
20
-3.5422429133858269
11
5.364606299212598
21
-3.5429921259842518
0
LINE
8
BLACK
6
CONTINUOUS
10
5.364606299212598
20
-3.5429921259842518
11
5.3498425196850397
21
-3.5429921259842518
0
LINE
8
BLACK
6
CONTINUOUS
10
5.3498425196850397
20
-3.5429921259842518
11
5.3498425196850397
21
-3.5626771259842518
0
LINE
8
BLACK
6
CONTINUOUS
10
5.3498425196850397
20
-3.5626771259842518
11
5.3665737007874013
21
-3.5626771259842518
0
LINE
8
BLACK
6
CONTINUOUS
10
5.3665737007874013
20
-3.5626771259842518
11
5.3665742519685038
21
-3.562677086614173
0
LINE
8
BLACK
6
CONTINUOUS
10
5.3665742519685038
20
-3.562677086614173
11
5.3706179921259842
21
-3.5622639763779529
0
LINE
8
BLACK
6
CONTINUOUS
10
5.3706179921259842
20
-3.5622639763779529
11
5.3771700393700783
21
-3.5600928346456691
0
LINE
8
BLACK
6
CONTINUOUS
10
5.3771700393700783
20
-3.5600928346456691
11
5.3771702362204721
21
-3.5600927559055116
0
LINE
8
BLACK
6
CONTINUOUS
10
5.3771702362204721
20
-3.5600927559055116
11
5.3830450787401576
21
-3.5564690944881887
0
LINE
8
BLACK
6
CONTINUOUS
10
5.3830450787401576
20
-3.5564690944881887
11
5.3879257874015742
21
-3.5515883858267716
0
LINE
8
BLACK
6
CONTINUOUS
10
5.3879257874015742
20
-3.5515883858267716
11
5.3915494488188971
21
-3.5457135433070865
0
LINE
8
BLACK
6
CONTINUOUS
10
5.3915494488188971
20
-3.5457135433070865
11
5.3915495275590546
21
-3.5457133464566928
0
LINE
8
BLACK
6
CONTINUOUS
10
5.3915495275590546
20
-3.5457133464566928
11
5.3937206692913389
21
-3.5391612992125983
0
LINE
8
BLACK
6
CONTINUOUS
10
5.3937206692913389
20
-3.5391612992125983
11
5.3937207086614176
21
-3.539161023622047
0
LINE
8
BLACK
6
CONTINUOUS
10
5.3937207086614176
20
-3.539161023622047
11
5.3941338188976378
21
-3.5351175590551178
0
LINE
8
BLACK
6
CONTINUOUS
10
5.3941338188976378
20
-3.5351175590551178
11
5.3941338582677165
21
-3.5351170472440945
0
LINE
8
BLACK
6
CONTINUOUS
10
5.3941338582677165
20
-3.5351170472440945
11
5.3941338582677165
21
-3.5292125984251967
0
LINE
8
BLACK
6
CONTINUOUS
10
5.3941338582677165
20
-3.5292125984251967
11
5.3744488188976378
21
-3.5292125984251967
0
LINE
8
BLACK
6
CONTINUOUS
10
5.3744488188976378
20
-3.5292125984251967
11
5.3744488188976378
21
-3.5331496062992125
0
CIRCLE
8
BLACK
10
5.3399999999999999
20
-3.5193700787401574
40
0.0147637795275591
0
CIRCLE
8
BLACK
10
5.3399999999999999
20
-3.4406299212598426
40
0.0147637795275591
  0
ENDSEC
  0
EOF
