  0
SECTION
  2
HEADER
  9
$ANGBASE
  50
0.0
  9
$ANGDIR
  70
1
  9
$MEASUREMENT
  70
0
  0
ENDSEC
  0
SECTION
  2
TABLES
  0
TABLE
  2
LTYPE
  70
4
  0
LTYPE
  5
40F
  2
CONTINUOUS
  70
0
  3
Solid line
  72
65
  73
0
  40
0.0
  0
LTYPE
  5
410
  2
DASHDOT
 70
0
  3
Dash Dot ____ _ ____ _
 72
65
 73
4
 40
2.0
 49
1.25
 49
-0.25
 49
0.25
 49
-0.25
  0
LTYPE
  5
411
  2
DASHED
 70
0
  3
Dashed __ __ __ __ __
 72
65
 73
2
 40
0.75
 49
0.5
 49
-0.25
  0
LTYPE
  5
43B
  2
DOTTED
 70
0
  3
Dotted .  .  .  .
 72
65
 73
2
 40
0.2
 49
0.0
 49
-0.2
  0
ENDTAB
  0
TABLE
  2
STYLE
  70
4
  0
STYLE
  2
KICAD
  70
0
  40
0
  41
1
  42
1
  50
0
  71
0
  3
isocp.shx
  0
STYLE
  2
KICADB
  70
0
  40
0
  41
1
  42
1
  50
0
  71
0
  3
isocp.shx
  0
STYLE
  2
KICADI
  70
0
  40
0
  41
1
  42
1
  50
15
  71
0
  3
isocp.shx
  0
STYLE
  2
KICADBI
  70
0
  40
0
  41
1
  42
1
  50
15
  71
0
  3
isocp.shx
  0
ENDTAB
  0
TABLE
  2
LAYER
  70
1
  0
LAYER
  2
BLACK
  70
0
  62
7
  6
CONTINUOUS
  0
ENDTAB
  0
ENDSEC
  0
SECTION
  2
ENTITIES
0
LINE
8
BLACK
6
CONTINUOUS
10
5.3569405905511811
20
-3.4178127952755903
11
5.3626377952755906
21
-3.4201726377952757
0
LINE
8
BLACK
6
CONTINUOUS
10
5.3626377952755906
20
-3.4201726377952757
11
5.367530078740157
21
-3.4239266141732281
0
LINE
8
BLACK
6
CONTINUOUS
10
5.367530078740157
20
-3.4239266141732281
11
5.3712840551181102
21
-3.4288188976377953
0
LINE
8
BLACK
6
CONTINUOUS
10
5.3712840551181102
20
-3.4288188976377953
11
5.3736438976377956
21
-3.4345161023622048
0
LINE
8
BLACK
6
CONTINUOUS
10
5.3736438976377956
20
-3.4345161023622048
11
5.3744488188976378
21
-3.4406299212598426
0
LINE
8
BLACK
6
CONTINUOUS
10
5.3744488188976378
20
-3.4406299212598426
11
5.3736438976377956
21
-3.4467437401574803
0
LINE
8
BLACK
6
CONTINUOUS
10
5.3736438976377956
20
-3.4467437401574803
11
5.3712840551181102
21
-3.4524409448818898
0
LINE
8
BLACK
6
CONTINUOUS
10
5.3712840551181102
20
-3.4524409448818898
11
5.367530078740157
21
-3.4573332283464566
0
LINE
8
BLACK
6
CONTINUOUS
10
5.367530078740157
20
-3.4573332283464566
11
5.3626377952755906
21
-3.4610872047244094
0
LINE
8
BLACK
6
CONTINUOUS
10
5.3626377952755906
20
-3.4610872047244094
11
5.3569405905511811
21
-3.4634470472440944
0
LINE
8
BLACK
6
CONTINUOUS
10
5.3569405905511811
20
-3.4634470472440944
11
5.3508267716535434
21
-3.464251968503937
0
LINE
8
BLACK
6
CONTINUOUS
10
5.3508267716535434
20
-3.464251968503937
11
5.3291732283464563
21
-3.464251968503937
0
LINE
8
BLACK
6
CONTINUOUS
10
5.3291732283464563
20
-3.464251968503937
11
5.3230594094488186
21
-3.4634470472440944
0
LINE
8
BLACK
6
CONTINUOUS
10
5.3230594094488186
20
-3.4634470472440944
11
5.3173622047244091
21
-3.4610872047244094
0
LINE
8
BLACK
6
CONTINUOUS
10
5.3173622047244091
20
-3.4610872047244094
11
5.3124699212598427
21
-3.4573332283464566
0
LINE
8
BLACK
6
CONTINUOUS
10
5.3124699212598427
20
-3.4573332283464566
11
5.3087159448818895
21
-3.4524409448818898
0
LINE
8
BLACK
6
CONTINUOUS
10
5.3087159448818895
20
-3.4524409448818898
11
5.306356102362205
21
-3.4467437401574803
0
LINE
8
BLACK
6
CONTINUOUS
10
5.306356102362205
20
-3.4467437401574803
11
5.3055511811023619
21
-3.4406299212598426
0
LINE
8
BLACK
6
CONTINUOUS
10
5.3055511811023619
20
-3.4406299212598426
11
5.306356102362205
21
-3.4345161023622048
0
LINE
8
BLACK
6
CONTINUOUS
10
5.306356102362205
20
-3.4345161023622048
11
5.3087159448818895
21
-3.4288188976377953
0
LINE
8
BLACK
6
CONTINUOUS
10
5.3087159448818895
20
-3.4288188976377953
11
5.3124699212598427
21
-3.4239266141732281
0
LINE
8
BLACK
6
CONTINUOUS
10
5.3124699212598427
20
-3.4239266141732281
11
5.3173622047244091
21
-3.4201726377952757
0
LINE
8
BLACK
6
CONTINUOUS
10
5.3173622047244091
20
-3.4201726377952757
11
5.3230594094488186
21
-3.4178127952755903
0
LINE
8
BLACK
6
CONTINUOUS
10
5.3230594094488186
20
-3.4178127952755903
11
5.3291732283464563
21
-3.4170078740157481
0
LINE
8
BLACK
6
CONTINUOUS
10
5.3291732283464563
20
-3.4170078740157481
11
5.3508267716535434
21
-3.4170078740157481
0
LINE
8
BLACK
6
CONTINUOUS
10
5.3508267716535434
20
-3.4170078740157481
11
5.3569405905511811
21
-3.4178127952755903
0
LINE
8
BLACK
6
CONTINUOUS
10
5.9819897244094484
20
-3.016542716535433
11
5.983791102362205
21
-3.0186216141732283
0
LINE
8
BLACK
6
CONTINUOUS
10
5.983791102362205
20
-3.0186216141732283
11
5.9842322834645669
21
-3.0206496062992123
0
LINE
8
BLACK
6
CONTINUOUS
10
5.9842322834645669
20
-3.0206496062992123
11
5.9842322834645669
21
-3.9793503937007872
0
LINE
8
BLACK
6
CONTINUOUS
10
5.9842322834645669
20
-3.9793503937007872
11
5.983457283464567
21
-3.9819897244094489
0
LINE
8
BLACK
6
CONTINUOUS
10
5.983457283464567
20
-3.9819897244094489
11
5.9813783858267717
21
-3.9837911023622046
0
LINE
8
BLACK
6
CONTINUOUS
10
5.9813783858267717
20
-3.9837911023622046
11
5.9793503937007877
21
-3.9842322834645669
0
LINE
8
BLACK
6
CONTINUOUS
10
5.9793503937007877
20
-3.9842322834645669
11
5.0206496062992123
21
-3.9842322834645669
0
LINE
8
BLACK
6
CONTINUOUS
10
5.0206496062992123
20
-3.9842322834645669
11
5.0180102755905507
21
-3.983457283464567
0
LINE
8
BLACK
6
CONTINUOUS
10
5.0180102755905507
20
-3.983457283464567
11
5.016208897637795
21
-3.9813783858267717
0
LINE
8
BLACK
6
CONTINUOUS
10
5.016208897637795
20
-3.9813783858267717
11
5.0157677165354331
21
-3.9793503937007872
0
LINE
8
BLACK
6
CONTINUOUS
10
5.0157677165354331
20
-3.9793503937007872
11
5.0157677165354331
21
-3.438559094488189
0
LINE
8
BLACK
6
CONTINUOUS
10
5.0157677165354331
20
-3.438559094488189
11
5.0157677165354331
21
-3.0206496062992123
0
LINE
8
BLACK
6
CONTINUOUS
10
5.0157677165354331
20
-3.0206496062992123
11
5.016542716535433
21
-3.0180102755905511
0
LINE
8
BLACK
6
CONTINUOUS
10
5.016542716535433
20
-3.0180102755905511
11
5.0186216141732283
21
-3.0162088976377954
0
LINE
8
BLACK
6
CONTINUOUS
10
5.0186216141732283
20
-3.0162088976377954
11
5.0206496062992123
21
-3.0157677165354331
0
LINE
8
BLACK
6
CONTINUOUS
10
5.0206496062992123
20
-3.0157677165354331
11
5.9793503937007877
21
-3.0157677165354331
0
LINE
8
BLACK
6
CONTINUOUS
10
5.9793503937007877
20
-3.0157677165354331
11
5.9819897244094484
21
-3.016542716535433
0
LINE
8
BLACK
6
CONTINUOUS
10
5.2858661811023619
20
-3.5292125984251967
11
5.2858661811023619
21
-3.5351175590551178
0
LINE
8
BLACK
6
CONTINUOUS
10
5.2858661811023619
20
-3.5351175590551178
11
5.286279291338583
21
-3.5391612992125983
0
LINE
8
BLACK
6
CONTINUOUS
10
5.286279291338583
20
-3.5391612992125983
11
5.2884504330708664
21
-3.5457133464566928
0
LINE
8
BLACK
6
CONTINUOUS
10
5.2884504330708664
20
-3.5457133464566928
11
5.2884505118110239
21
-3.5457135433070865
0
LINE
8
BLACK
6
CONTINUOUS
10
5.2884505118110239
20
-3.5457135433070865
11
5.2920741732283467
21
-3.5515883858267716
0
LINE
8
BLACK
6
CONTINUOUS
10
5.2920741732283467
20
-3.5515883858267716
11
5.2969548818897634
21
-3.5564690944881887
0
LINE
8
BLACK
6
CONTINUOUS
10
5.2969548818897634
20
-3.5564690944881887
11
5.3028297244094489
21
-3.5600927559055116
0
LINE
8
BLACK
6
CONTINUOUS
10
5.3028297244094489
20
-3.5600927559055116
11
5.3028299212598426
21
-3.5600928346456691
0
LINE
8
BLACK
6
CONTINUOUS
10
5.3028299212598426
20
-3.5600928346456691
11
5.3093819685039367
21
-3.5622639763779529
0
LINE
8
BLACK
6
CONTINUOUS
10
5.3093819685039367
20
-3.5622639763779529
11
5.309382244094488
21
-3.5622640157480312
0
LINE
8
BLACK
6
CONTINUOUS
10
5.309382244094488
20
-3.5622640157480312
11
5.3134259448818897
21
-3.5626771259842518
0
LINE
8
BLACK
6
CONTINUOUS
10
5.3134259448818897
20
-3.5626771259842518
11
5.3301574409448822
21
-3.5626771259842518
0
LINE
8
BLACK
6
CONTINUOUS
10
5.3301574409448822
20
-3.5626771259842518
11
5.3301574803149609
21
-3.562677086614173
0
LINE
8
BLACK
6
CONTINUOUS
10
5.3301574803149609
20
-3.562677086614173
11
5.3301574803149609
21
-3.5429921259842518
0
LINE
8
BLACK
6
CONTINUOUS
10
5.3301574803149609
20
-3.5429921259842518
11
5.3153937007874017
21
-3.5429921259842518
0
LINE
8
BLACK
6
CONTINUOUS
10
5.3153937007874017
20
-3.5429921259842518
11
5.311627125984252
21
-3.5422429133858269
0
LINE
8
BLACK
6
CONTINUOUS
10
5.311627125984252
20
-3.5422429133858269
11
5.3084339763779527
21
-3.5401093307086615
0
LINE
8
BLACK
6
CONTINUOUS
10
5.3084339763779527
20
-3.5401093307086615
11
5.3063003937007869
21
-3.5369161811023622
0
LINE
8
BLACK
6
CONTINUOUS
10
5.3063003937007869
20
-3.5369161811023622
11
5.3055511811023619
21
-3.5331496062992125
0
LINE
8
BLACK
6
CONTINUOUS
10
5.3055511811023619
20
-3.5331496062992125
11
5.3055511811023619
21
-3.5292125984251967
0
LINE
8
BLACK
6
CONTINUOUS
10
5.3055511811023619
20
-3.5292125984251967
11
5.2858661811023619
21
-3.5292125984251967
0
LINE
8
BLACK
6
CONTINUOUS
10
5.3744488188976378
20
-3.5331496062992125
11
5.3736996062992128
21
-3.5369161811023622
0
LINE
8
BLACK
6
CONTINUOUS
10
5.3736996062992128
20
-3.5369161811023622
11
5.371566023622047
21
-3.5401093307086615
0
LINE
8
BLACK
6
CONTINUOUS
10
5.371566023622047
20
-3.5401093307086615
11
5.3683728740157477
21
-3.5422429133858269
0
LINE
8
BLACK
6
CONTINUOUS
10
5.3683728740157477
20
-3.5422429133858269
11
5.364606299212598
21
-3.5429921259842518
0
LINE
8
BLACK
6
CONTINUOUS
10
5.364606299212598
20
-3.5429921259842518
11
5.3498425196850397
21
-3.5429921259842518
0
LINE
8
BLACK
6
CONTINUOUS
10
5.3498425196850397
20
-3.5429921259842518
11
5.3498425196850397
21
-3.5626771259842518
0
LINE
8
BLACK
6
CONTINUOUS
10
5.3498425196850397
20
-3.5626771259842518
11
5.3665737007874013
21
-3.5626771259842518
0
LINE
8
BLACK
6
CONTINUOUS
10
5.3665737007874013
20
-3.5626771259842518
11
5.3665742519685038
21
-3.562677086614173
0
LINE
8
BLACK
6
CONTINUOUS
10
5.3665742519685038
20
-3.562677086614173
11
5.3706179921259842
21
-3.5622639763779529
0
LINE
8
BLACK
6
CONTINUOUS
10
5.3706179921259842
20
-3.5622639763779529
11
5.3771700393700783
21
-3.5600928346456691
0
LINE
8
BLACK
6
CONTINUOUS
10
5.3771700393700783
20
-3.5600928346456691
11
5.3771702362204721
21
-3.5600927559055116
0
LINE
8
BLACK
6
CONTINUOUS
10
5.3771702362204721
20
-3.5600927559055116
11
5.3830450787401576
21
-3.5564690944881887
0
LINE
8
BLACK
6
CONTINUOUS
10
5.3830450787401576
20
-3.5564690944881887
11
5.3879257874015742
21
-3.5515883858267716
0
LINE
8
BLACK
6
CONTINUOUS
10
5.3879257874015742
20
-3.5515883858267716
11
5.3915494488188971
21
-3.5457135433070865
0
LINE
8
BLACK
6
CONTINUOUS
10
5.3915494488188971
20
-3.5457135433070865
11
5.3915495275590546
21
-3.5457133464566928
0
LINE
8
BLACK
6
CONTINUOUS
10
5.3915495275590546
20
-3.5457133464566928
11
5.3937206692913389
21
-3.5391612992125983
0
LINE
8
BLACK
6
CONTINUOUS
10
5.3937206692913389
20
-3.5391612992125983
11
5.3937207086614176
21
-3.539161023622047
0
LINE
8
BLACK
6
CONTINUOUS
10
5.3937207086614176
20
-3.539161023622047
11
5.3941338188976378
21
-3.5351175590551178
0
LINE
8
BLACK
6
CONTINUOUS
10
5.3941338188976378
20
-3.5351175590551178
11
5.3941338582677165
21
-3.5351170472440945
0
LINE
8
BLACK
6
CONTINUOUS
10
5.3941338582677165
20
-3.5351170472440945
11
5.3941338582677165
21
-3.5292125984251967
0
LINE
8
BLACK
6
CONTINUOUS
10
5.3941338582677165
20
-3.5292125984251967
11
5.3744488188976378
21
-3.5292125984251967
0
LINE
8
BLACK
6
CONTINUOUS
10
5.3744488188976378
20
-3.5292125984251967
11
5.3744488188976378
21
-3.5331496062992125
0
LINE
8
BLACK
6
CONTINUOUS
10
5.2860923228346453
20
-3.4468238976377954
11
5.288043149606299
21
-3.4548652755905511
0
LINE
8
BLACK
6
CONTINUOUS
10
5.288043149606299
20
-3.4548652755905511
11
5.2880432283464565
21
-3.4548654330708661
0
LINE
8
BLACK
6
CONTINUOUS
10
5.2880432283464565
20
-3.4548654330708661
11
5.2914802362204725
21
-3.4623914566929135
0
LINE
8
BLACK
6
CONTINUOUS
10
5.2914802362204725
20
-3.4623914566929135
11
5.2914803543307087
21
-3.4623916535433068
0
LINE
8
BLACK
6
CONTINUOUS
10
5.2914803543307087
20
-3.4623916535433068
11
5.2914803937007875
21
-3.4623917322834643
0
LINE
8
BLACK
6
CONTINUOUS
10
5.2914803937007875
20
-3.4623917322834643
11
5.291480472440945
21
-3.4623918503937006
0
LINE
8
BLACK
6
CONTINUOUS
10
5.291480472440945
20
-3.4623918503937006
11
5.2939616929133857
21
-3.4658762204724409
0
LINE
8
BLACK
6
CONTINUOUS
10
5.2939616929133857
20
-3.4658762204724409
11
5.2962801181102357
21
-3.4691320078740158
0
LINE
8
BLACK
6
CONTINUOUS
10
5.2962801181102357
20
-3.4691320078740158
11
5.3003329133858266
21
-3.4729963385826772
0
LINE
8
BLACK
6
CONTINUOUS
10
5.3003329133858266
20
-3.4729963385826772
11
5.3017083070866144
21
-3.4753785826771653
0
LINE
8
BLACK
6
CONTINUOUS
10
5.3017083070866144
20
-3.4753785826771653
11
5.3015774015748027
21
-3.4781262204724408
0
LINE
8
BLACK
6
CONTINUOUS
10
5.3015774015748027
20
-3.4781262204724408
11
5.2999818110236223
21
-3.4803669685039371
0
LINE
8
BLACK
6
CONTINUOUS
10
5.2999818110236223
20
-3.4803669685039371
11
5.2995268897637793
21
-3.480684566929134
0
LINE
8
BLACK
6
CONTINUOUS
10
5.2995268897637793
20
-3.480684566929134
11
5.2969550787401571
21
-3.4822708661417323
0
LINE
8
BLACK
6
CONTINUOUS
10
5.2969550787401571
20
-3.4822708661417323
11
5.2969549212598421
21
-3.4822709842519686
0
LINE
8
BLACK
6
CONTINUOUS
10
5.2969549212598421
20
-3.4822709842519686
11
5.2920741732283467
21
-3.4871517322834644
0
LINE
8
BLACK
6
CONTINUOUS
10
5.2920741732283467
20
-3.4871517322834644
11
5.2884505118110239
21
-3.4930265748031495
0
LINE
8
BLACK
6
CONTINUOUS
10
5.2884505118110239
20
-3.4930265748031495
11
5.2884504330708664
21
-3.4930267716535432
0
LINE
8
BLACK
6
CONTINUOUS
10
5.2884504330708664
20
-3.4930267716535432
11
5.286279291338583
21
-3.4995788188976378
0
LINE
8
BLACK
6
CONTINUOUS
10
5.286279291338583
20
-3.4995788188976378
11
5.2862792519685042
21
-3.499579094488189
0
LINE
8
BLACK
6
CONTINUOUS
10
5.2862792519685042
20
-3.499579094488189
11
5.2858661417322832
21
-3.5036225590551182
0
LINE
8
BLACK
6
CONTINUOUS
10
5.2858661417322832
20
-3.5036225590551182
11
5.2858661417322832
21
-3.509527559055118
0
LINE
8
BLACK
6
CONTINUOUS
10
5.2858661417322832
20
-3.509527559055118
11
5.3055511811023619
21
-3.509527559055118
0
LINE
8
BLACK
6
CONTINUOUS
10
5.3055511811023619
20
-3.509527559055118
11
5.3055511811023619
21
-3.5055905511811023
0
LINE
8
BLACK
6
CONTINUOUS
10
5.3055511811023619
20
-3.5055905511811023
11
5.3063003937007869
21
-3.5018239763779526
0
LINE
8
BLACK
6
CONTINUOUS
10
5.3063003937007869
20
-3.5018239763779526
11
5.3084339763779527
21
-3.4986308267716533
0
LINE
8
BLACK
6
CONTINUOUS
10
5.3084339763779527
20
-3.4986308267716533
11
5.311627125984252
21
-3.4964972440944879
0
LINE
8
BLACK
6
CONTINUOUS
10
5.311627125984252
20
-3.4964972440944879
11
5.3153937007874017
21
-3.4957480314960629
0
LINE
8
BLACK
6
CONTINUOUS
10
5.3153937007874017
20
-3.4957480314960629
11
5.364606299212598
21
-3.4957480314960629
0
LINE
8
BLACK
6
CONTINUOUS
10
5.364606299212598
20
-3.4957480314960629
11
5.3683728740157477
21
-3.4964972440944879
0
LINE
8
BLACK
6
CONTINUOUS
10
5.3683728740157477
20
-3.4964972440944879
11
5.371566023622047
21
-3.4986308267716533
0
LINE
8
BLACK
6
CONTINUOUS
10
5.371566023622047
20
-3.4986308267716533
11
5.3736996062992128
21
-3.5018239763779526
0
LINE
8
BLACK
6
CONTINUOUS
10
5.3736996062992128
20
-3.5018239763779526
11
5.3744488188976378
21
-3.5055905511811023
0
LINE
8
BLACK
6
CONTINUOUS
10
5.3744488188976378
20
-3.5055905511811023
11
5.3744488188976378
21
-3.509527559055118
0
LINE
8
BLACK
6
CONTINUOUS
10
5.3744488188976378
20
-3.509527559055118
11
5.3941338188976378
21
-3.509527559055118
0
LINE
8
BLACK
6
CONTINUOUS
10
5.3941338188976378
20
-3.509527559055118
11
5.3941338188976378
21
-3.5036231496062991
0
LINE
8
BLACK
6
CONTINUOUS
10
5.3941338188976378
20
-3.5036231496062991
11
5.394133779527559
21
-3.5036225590551182
0
LINE
8
BLACK
6
CONTINUOUS
10
5.394133779527559
20
-3.5036225590551182
11
5.3937206692913389
21
-3.4995788188976378
0
LINE
8
BLACK
6
CONTINUOUS
10
5.3937206692913389
20
-3.4995788188976378
11
5.3915495275590546
21
-3.4930267716535432
0
LINE
8
BLACK
6
CONTINUOUS
10
5.3915495275590546
20
-3.4930267716535432
11
5.3915494488188971
21
-3.4930265748031495
0
LINE
8
BLACK
6
CONTINUOUS
10
5.3915494488188971
20
-3.4930265748031495
11
5.3879257874015742
21
-3.4871517322834644
0
LINE
8
BLACK
6
CONTINUOUS
10
5.3879257874015742
20
-3.4871517322834644
11
5.3830450393700788
21
-3.4822709842519686
0
LINE
8
BLACK
6
CONTINUOUS
10
5.3830450393700788
20
-3.4822709842519686
11
5.3830448818897638
21
-3.4822708661417323
0
LINE
8
BLACK
6
CONTINUOUS
10
5.3830448818897638
20
-3.4822708661417323
11
5.3805449212598422
21
-3.4807288582677165
0
LINE
8
BLACK
6
CONTINUOUS
10
5.3805449212598422
20
-3.4807288582677165
11
5.3787053543307088
21
-3.4786836614173229
0
LINE
8
BLACK
6
CONTINUOUS
10
5.3787053543307088
20
-3.4786836614173229
11
5.3782635826771656
21
-3.4759686220472439
0
LINE
8
BLACK
6
CONTINUOUS
10
5.3782635826771656
20
-3.4759686220472439
11
5.3793597637795276
21
-3.4734457086614174
0
LINE
8
BLACK
6
CONTINUOUS
10
5.3793597637795276
20
-3.4734457086614174
11
5.3800901181102363
21
-3.4727363385826773
0
LINE
8
BLACK
6
CONTINUOUS
10
5.3800901181102363
20
-3.4727363385826773
11
5.3808614960629919
21
-3.4721297244094487
0
LINE
8
BLACK
6
CONTINUOUS
10
5.3808614960629919
20
-3.4721297244094487
11
5.3808614566929132
21
-3.4721297244094487
0
LINE
8
BLACK
6
CONTINUOUS
10
5.3808614566929132
20
-3.4721297244094487
11
5.3808616535433069
21
-3.4721296062992124
0
LINE
8
BLACK
6
CONTINUOUS
10
5.3808616535433069
20
-3.4721296062992124
11
5.3862802755905514
21
-3.4658762204724409
0
LINE
8
BLACK
6
CONTINUOUS
10
5.3862802755905514
20
-3.4658762204724409
11
5.3904174803149605
21
-3.4587103937007875
0
LINE
8
BLACK
6
CONTINUOUS
10
5.3904174803149605
20
-3.4587103937007875
11
5.3931237795275591
21
-3.4508910629921261
0
LINE
8
BLACK
6
CONTINUOUS
10
5.3931237795275591
20
-3.4508910629921261
11
5.394301338582677
21
-3.442700866141732
0
LINE
8
BLACK
6
CONTINUOUS
10
5.394301338582677
20
-3.442700866141732
11
5.3939076377952757
21
-3.4344358267716535
0
LINE
8
BLACK
6
CONTINUOUS
10
5.3939076377952757
20
-3.4344358267716535
11
5.3919568503937008
21
-3.4263946456692911
0
LINE
8
BLACK
6
CONTINUOUS
10
5.3919568503937008
20
-3.4263946456692911
11
5.3919567322834645
21
-3.4263943700787403
0
LINE
8
BLACK
6
CONTINUOUS
10
5.3919567322834645
20
-3.4263943700787403
11
5.3885197244094485
21
-3.4188683464566929
0
LINE
8
BLACK
6
CONTINUOUS
10
5.3885197244094485
20
-3.4188683464566929
11
5.3885196062992122
21
-3.4188681496062991
0
LINE
8
BLACK
6
CONTINUOUS
10
5.3885196062992122
20
-3.4188681496062991
11
5.3885195669291335
21
-3.4188681102362204
0
LINE
8
BLACK
6
CONTINUOUS
10
5.3885195669291335
20
-3.4188681102362204
11
5.3885195275590547
21
-3.4188679921259841
0
LINE
8
BLACK
6
CONTINUOUS
10
5.3885195275590547
20
-3.4188679921259841
11
5.3837199212598428
21
-3.4121278740157481
0
LINE
8
BLACK
6
CONTINUOUS
10
5.3837199212598428
20
-3.4121278740157481
11
5.3837198425196853
21
-3.4121277952755906
0
LINE
8
BLACK
6
CONTINUOUS
10
5.3837198425196853
20
-3.4121277952755906
11
5.3837196456692915
21
-3.4121275590551181
0
LINE
8
BLACK
6
CONTINUOUS
10
5.3837196456692915
20
-3.4121275590551181
11
5.3777314566929135
21
-3.406417874015748
0
LINE
8
BLACK
6
CONTINUOUS
10
5.3777314566929135
20
-3.406417874015748
11
5.3707706299212594
21
-3.4019444094488187
0
LINE
8
BLACK
6
CONTINUOUS
10
5.3707706299212594
20
-3.4019444094488187
11
5.3630887795275592
21
-3.39886905511811
0
LINE
8
BLACK
6
CONTINUOUS
10
5.3630887795275592
20
-3.39886905511811
11
5.3549640157480312
21
-3.3973031496062993
0
LINE
8
BLACK
6
CONTINUOUS
10
5.3549640157480312
20
-3.3973031496062993
11
5.3549639763779524
21
-3.3973031496062993
0
LINE
8
BLACK
6
CONTINUOUS
10
5.3549639763779524
20
-3.3973031496062993
11
5.3271092519685039
21
-3.3973031496062993
0
LINE
8
BLACK
6
CONTINUOUS
10
5.3271092519685039
20
-3.3973031496062993
11
5.3209362992125984
21
-3.3978925984251966
0
LINE
8
BLACK
6
CONTINUOUS
10
5.3209362992125984
20
-3.3978925984251966
11
5.3209361417322834
21
-3.3978926377952754
0
LINE
8
BLACK
6
CONTINUOUS
10
5.3209361417322834
20
-3.3978926377952754
11
5.3129971259842517
21
-3.4002237401574802
0
LINE
8
BLACK
6
CONTINUOUS
10
5.3129971259842517
20
-3.4002237401574802
11
5.3056422440944884
21
-3.4040153937007873
0
LINE
8
BLACK
6
CONTINUOUS
10
5.3056422440944884
20
-3.4040153937007873
11
5.2991384251968503
21
-3.409130118110236
0
LINE
8
BLACK
6
CONTINUOUS
10
5.2991384251968503
20
-3.409130118110236
11
5.2991382677165353
21
-3.409130275590551
0
LINE
8
BLACK
6
CONTINUOUS
10
5.2991382677165353
20
-3.409130275590551
11
5.2937196062992129
21
-3.4153837007874013
0
LINE
8
BLACK
6
CONTINUOUS
10
5.2937196062992129
20
-3.4153837007874013
11
5.2895825984251967
21
-3.4225492125984252
0
LINE
8
BLACK
6
CONTINUOUS
10
5.2895825984251967
20
-3.4225492125984252
11
5.2868762204724407
21
-3.4303687007874015
0
LINE
8
BLACK
6
CONTINUOUS
10
5.2868762204724407
20
-3.4303687007874015
11
5.2868762204724407
21
-3.430368779527559
0
LINE
8
BLACK
6
CONTINUOUS
10
5.2868762204724407
20
-3.430368779527559
11
5.2862914960629919
21
-3.4344358267716535
0
LINE
8
BLACK
6
CONTINUOUS
10
5.2862914960629919
20
-3.4344358267716535
11
5.2856986614173227
21
-3.438559094488189
0
LINE
8
BLACK
6
CONTINUOUS
10
5.2856986614173227
20
-3.438559094488189
11
5.2860923228346453
21
-3.4468238976377954
0
CIRCLE
8
BLACK
10
5.3399999999999999
20
-3.5193700787401574
40
0.0147637795275591
0
CIRCLE
8
BLACK
10
5.3399999999999999
20
-3.4406299212598426
40
0.0147637795275591
  0
ENDSEC
  0
EOF
