%TF.GenerationSoftware,KiCad,Pcbnew,7.0.9-7.0.9~ubuntu23.04.1*%
%TF.CreationDate,2024-01-10T16:35:43+00:00*%
%TF.ProjectId,test_project,74657374-5f70-4726-9f6a-6563742e6b69,rev?*%
%TF.SameCoordinates,Original*%
%TF.FileFunction,Drillmap*%
%TF.FilePolarity,Positive*%
%FSLAX45Y45*%
G04 Gerber Fmt 4.5, Leading zero omitted, Abs format (unit mm)*
G04 Created by KiCad (PCBNEW 7.0.9-7.0.9~ubuntu23.04.1) date 2024-01-10 16:35:43*
%MOMM*%
%LPD*%
G01*
G04 APERTURE LIST*
%ADD10C,0.100000*%
%ADD11C,0.200000*%
G04 APERTURE END LIST*
D10*
X12700000Y-7620000D02*
X15240000Y-7620000D01*
X15240000Y-10160000D01*
X12700000Y-10160000D01*
X12700000Y-7620000D01*
D11*
D10*
X13526100Y-8701700D02*
X13601100Y-8776700D01*
X13601100Y-8701700D02*
X13526100Y-8776700D01*
X13526100Y-8901700D02*
X13601100Y-8976700D01*
X13601100Y-8901700D02*
X13526100Y-8976700D01*
D11*
X12955777Y-10476484D02*
X12955777Y-10276484D01*
X12955777Y-10276484D02*
X13003396Y-10276484D01*
X13003396Y-10276484D02*
X13031967Y-10286008D01*
X13031967Y-10286008D02*
X13051015Y-10305055D01*
X13051015Y-10305055D02*
X13060539Y-10324103D01*
X13060539Y-10324103D02*
X13070062Y-10362198D01*
X13070062Y-10362198D02*
X13070062Y-10390770D01*
X13070062Y-10390770D02*
X13060539Y-10428865D01*
X13060539Y-10428865D02*
X13051015Y-10447912D01*
X13051015Y-10447912D02*
X13031967Y-10466960D01*
X13031967Y-10466960D02*
X13003396Y-10476484D01*
X13003396Y-10476484D02*
X12955777Y-10476484D01*
X13155777Y-10476484D02*
X13155777Y-10343150D01*
X13155777Y-10381246D02*
X13165301Y-10362198D01*
X13165301Y-10362198D02*
X13174824Y-10352674D01*
X13174824Y-10352674D02*
X13193872Y-10343150D01*
X13193872Y-10343150D02*
X13212920Y-10343150D01*
X13279586Y-10476484D02*
X13279586Y-10343150D01*
X13279586Y-10276484D02*
X13270062Y-10286008D01*
X13270062Y-10286008D02*
X13279586Y-10295531D01*
X13279586Y-10295531D02*
X13289110Y-10286008D01*
X13289110Y-10286008D02*
X13279586Y-10276484D01*
X13279586Y-10276484D02*
X13279586Y-10295531D01*
X13403396Y-10476484D02*
X13384348Y-10466960D01*
X13384348Y-10466960D02*
X13374824Y-10447912D01*
X13374824Y-10447912D02*
X13374824Y-10276484D01*
X13508158Y-10476484D02*
X13489110Y-10466960D01*
X13489110Y-10466960D02*
X13479586Y-10447912D01*
X13479586Y-10447912D02*
X13479586Y-10276484D01*
X13736729Y-10476484D02*
X13736729Y-10276484D01*
X13736729Y-10276484D02*
X13803396Y-10419341D01*
X13803396Y-10419341D02*
X13870062Y-10276484D01*
X13870062Y-10276484D02*
X13870062Y-10476484D01*
X14051015Y-10476484D02*
X14051015Y-10371722D01*
X14051015Y-10371722D02*
X14041491Y-10352674D01*
X14041491Y-10352674D02*
X14022443Y-10343150D01*
X14022443Y-10343150D02*
X13984348Y-10343150D01*
X13984348Y-10343150D02*
X13965301Y-10352674D01*
X14051015Y-10466960D02*
X14031967Y-10476484D01*
X14031967Y-10476484D02*
X13984348Y-10476484D01*
X13984348Y-10476484D02*
X13965301Y-10466960D01*
X13965301Y-10466960D02*
X13955777Y-10447912D01*
X13955777Y-10447912D02*
X13955777Y-10428865D01*
X13955777Y-10428865D02*
X13965301Y-10409817D01*
X13965301Y-10409817D02*
X13984348Y-10400293D01*
X13984348Y-10400293D02*
X14031967Y-10400293D01*
X14031967Y-10400293D02*
X14051015Y-10390770D01*
X14146253Y-10343150D02*
X14146253Y-10543150D01*
X14146253Y-10352674D02*
X14165301Y-10343150D01*
X14165301Y-10343150D02*
X14203396Y-10343150D01*
X14203396Y-10343150D02*
X14222443Y-10352674D01*
X14222443Y-10352674D02*
X14231967Y-10362198D01*
X14231967Y-10362198D02*
X14241491Y-10381246D01*
X14241491Y-10381246D02*
X14241491Y-10438389D01*
X14241491Y-10438389D02*
X14231967Y-10457436D01*
X14231967Y-10457436D02*
X14222443Y-10466960D01*
X14222443Y-10466960D02*
X14203396Y-10476484D01*
X14203396Y-10476484D02*
X14165301Y-10476484D01*
X14165301Y-10476484D02*
X14146253Y-10466960D01*
X14327205Y-10457436D02*
X14336729Y-10466960D01*
X14336729Y-10466960D02*
X14327205Y-10476484D01*
X14327205Y-10476484D02*
X14317682Y-10466960D01*
X14317682Y-10466960D02*
X14327205Y-10457436D01*
X14327205Y-10457436D02*
X14327205Y-10476484D01*
X14327205Y-10352674D02*
X14336729Y-10362198D01*
X14336729Y-10362198D02*
X14327205Y-10371722D01*
X14327205Y-10371722D02*
X14317682Y-10362198D01*
X14317682Y-10362198D02*
X14327205Y-10352674D01*
X14327205Y-10352674D02*
X14327205Y-10371722D01*
D10*
X12620000Y-10767500D02*
X12695000Y-10842500D01*
X12695000Y-10767500D02*
X12620000Y-10842500D01*
D11*
X12993872Y-10696484D02*
X13012920Y-10696484D01*
X13012920Y-10696484D02*
X13031967Y-10706008D01*
X13031967Y-10706008D02*
X13041491Y-10715531D01*
X13041491Y-10715531D02*
X13051015Y-10734579D01*
X13051015Y-10734579D02*
X13060539Y-10772674D01*
X13060539Y-10772674D02*
X13060539Y-10820293D01*
X13060539Y-10820293D02*
X13051015Y-10858389D01*
X13051015Y-10858389D02*
X13041491Y-10877436D01*
X13041491Y-10877436D02*
X13031967Y-10886960D01*
X13031967Y-10886960D02*
X13012920Y-10896484D01*
X13012920Y-10896484D02*
X12993872Y-10896484D01*
X12993872Y-10896484D02*
X12974824Y-10886960D01*
X12974824Y-10886960D02*
X12965301Y-10877436D01*
X12965301Y-10877436D02*
X12955777Y-10858389D01*
X12955777Y-10858389D02*
X12946253Y-10820293D01*
X12946253Y-10820293D02*
X12946253Y-10772674D01*
X12946253Y-10772674D02*
X12955777Y-10734579D01*
X12955777Y-10734579D02*
X12965301Y-10715531D01*
X12965301Y-10715531D02*
X12974824Y-10706008D01*
X12974824Y-10706008D02*
X12993872Y-10696484D01*
X13146253Y-10877436D02*
X13155777Y-10886960D01*
X13155777Y-10886960D02*
X13146253Y-10896484D01*
X13146253Y-10896484D02*
X13136729Y-10886960D01*
X13136729Y-10886960D02*
X13146253Y-10877436D01*
X13146253Y-10877436D02*
X13146253Y-10896484D01*
X13222443Y-10696484D02*
X13355777Y-10696484D01*
X13355777Y-10696484D02*
X13270062Y-10896484D01*
X13527205Y-10696484D02*
X13431967Y-10696484D01*
X13431967Y-10696484D02*
X13422443Y-10791722D01*
X13422443Y-10791722D02*
X13431967Y-10782198D01*
X13431967Y-10782198D02*
X13451015Y-10772674D01*
X13451015Y-10772674D02*
X13498634Y-10772674D01*
X13498634Y-10772674D02*
X13517682Y-10782198D01*
X13517682Y-10782198D02*
X13527205Y-10791722D01*
X13527205Y-10791722D02*
X13536729Y-10810770D01*
X13536729Y-10810770D02*
X13536729Y-10858389D01*
X13536729Y-10858389D02*
X13527205Y-10877436D01*
X13527205Y-10877436D02*
X13517682Y-10886960D01*
X13517682Y-10886960D02*
X13498634Y-10896484D01*
X13498634Y-10896484D02*
X13451015Y-10896484D01*
X13451015Y-10896484D02*
X13431967Y-10886960D01*
X13431967Y-10886960D02*
X13422443Y-10877436D01*
X13660539Y-10696484D02*
X13679586Y-10696484D01*
X13679586Y-10696484D02*
X13698634Y-10706008D01*
X13698634Y-10706008D02*
X13708158Y-10715531D01*
X13708158Y-10715531D02*
X13717682Y-10734579D01*
X13717682Y-10734579D02*
X13727205Y-10772674D01*
X13727205Y-10772674D02*
X13727205Y-10820293D01*
X13727205Y-10820293D02*
X13717682Y-10858389D01*
X13717682Y-10858389D02*
X13708158Y-10877436D01*
X13708158Y-10877436D02*
X13698634Y-10886960D01*
X13698634Y-10886960D02*
X13679586Y-10896484D01*
X13679586Y-10896484D02*
X13660539Y-10896484D01*
X13660539Y-10896484D02*
X13641491Y-10886960D01*
X13641491Y-10886960D02*
X13631967Y-10877436D01*
X13631967Y-10877436D02*
X13622443Y-10858389D01*
X13622443Y-10858389D02*
X13612920Y-10820293D01*
X13612920Y-10820293D02*
X13612920Y-10772674D01*
X13612920Y-10772674D02*
X13622443Y-10734579D01*
X13622443Y-10734579D02*
X13631967Y-10715531D01*
X13631967Y-10715531D02*
X13641491Y-10706008D01*
X13641491Y-10706008D02*
X13660539Y-10696484D01*
X13812920Y-10896484D02*
X13812920Y-10763150D01*
X13812920Y-10782198D02*
X13822443Y-10772674D01*
X13822443Y-10772674D02*
X13841491Y-10763150D01*
X13841491Y-10763150D02*
X13870063Y-10763150D01*
X13870063Y-10763150D02*
X13889110Y-10772674D01*
X13889110Y-10772674D02*
X13898634Y-10791722D01*
X13898634Y-10791722D02*
X13898634Y-10896484D01*
X13898634Y-10791722D02*
X13908158Y-10772674D01*
X13908158Y-10772674D02*
X13927205Y-10763150D01*
X13927205Y-10763150D02*
X13955777Y-10763150D01*
X13955777Y-10763150D02*
X13974824Y-10772674D01*
X13974824Y-10772674D02*
X13984348Y-10791722D01*
X13984348Y-10791722D02*
X13984348Y-10896484D01*
X14079586Y-10896484D02*
X14079586Y-10763150D01*
X14079586Y-10782198D02*
X14089110Y-10772674D01*
X14089110Y-10772674D02*
X14108158Y-10763150D01*
X14108158Y-10763150D02*
X14136729Y-10763150D01*
X14136729Y-10763150D02*
X14155777Y-10772674D01*
X14155777Y-10772674D02*
X14165301Y-10791722D01*
X14165301Y-10791722D02*
X14165301Y-10896484D01*
X14165301Y-10791722D02*
X14174824Y-10772674D01*
X14174824Y-10772674D02*
X14193872Y-10763150D01*
X14193872Y-10763150D02*
X14222443Y-10763150D01*
X14222443Y-10763150D02*
X14241491Y-10772674D01*
X14241491Y-10772674D02*
X14251015Y-10791722D01*
X14251015Y-10791722D02*
X14251015Y-10896484D01*
X14641491Y-10686960D02*
X14470063Y-10944103D01*
X14898634Y-10696484D02*
X14917682Y-10696484D01*
X14917682Y-10696484D02*
X14936729Y-10706008D01*
X14936729Y-10706008D02*
X14946253Y-10715531D01*
X14946253Y-10715531D02*
X14955777Y-10734579D01*
X14955777Y-10734579D02*
X14965301Y-10772674D01*
X14965301Y-10772674D02*
X14965301Y-10820293D01*
X14965301Y-10820293D02*
X14955777Y-10858389D01*
X14955777Y-10858389D02*
X14946253Y-10877436D01*
X14946253Y-10877436D02*
X14936729Y-10886960D01*
X14936729Y-10886960D02*
X14917682Y-10896484D01*
X14917682Y-10896484D02*
X14898634Y-10896484D01*
X14898634Y-10896484D02*
X14879586Y-10886960D01*
X14879586Y-10886960D02*
X14870063Y-10877436D01*
X14870063Y-10877436D02*
X14860539Y-10858389D01*
X14860539Y-10858389D02*
X14851015Y-10820293D01*
X14851015Y-10820293D02*
X14851015Y-10772674D01*
X14851015Y-10772674D02*
X14860539Y-10734579D01*
X14860539Y-10734579D02*
X14870063Y-10715531D01*
X14870063Y-10715531D02*
X14879586Y-10706008D01*
X14879586Y-10706008D02*
X14898634Y-10696484D01*
X15051015Y-10877436D02*
X15060539Y-10886960D01*
X15060539Y-10886960D02*
X15051015Y-10896484D01*
X15051015Y-10896484D02*
X15041491Y-10886960D01*
X15041491Y-10886960D02*
X15051015Y-10877436D01*
X15051015Y-10877436D02*
X15051015Y-10896484D01*
X15184348Y-10696484D02*
X15203396Y-10696484D01*
X15203396Y-10696484D02*
X15222444Y-10706008D01*
X15222444Y-10706008D02*
X15231967Y-10715531D01*
X15231967Y-10715531D02*
X15241491Y-10734579D01*
X15241491Y-10734579D02*
X15251015Y-10772674D01*
X15251015Y-10772674D02*
X15251015Y-10820293D01*
X15251015Y-10820293D02*
X15241491Y-10858389D01*
X15241491Y-10858389D02*
X15231967Y-10877436D01*
X15231967Y-10877436D02*
X15222444Y-10886960D01*
X15222444Y-10886960D02*
X15203396Y-10896484D01*
X15203396Y-10896484D02*
X15184348Y-10896484D01*
X15184348Y-10896484D02*
X15165301Y-10886960D01*
X15165301Y-10886960D02*
X15155777Y-10877436D01*
X15155777Y-10877436D02*
X15146253Y-10858389D01*
X15146253Y-10858389D02*
X15136729Y-10820293D01*
X15136729Y-10820293D02*
X15136729Y-10772674D01*
X15136729Y-10772674D02*
X15146253Y-10734579D01*
X15146253Y-10734579D02*
X15155777Y-10715531D01*
X15155777Y-10715531D02*
X15165301Y-10706008D01*
X15165301Y-10706008D02*
X15184348Y-10696484D01*
X15327206Y-10715531D02*
X15336729Y-10706008D01*
X15336729Y-10706008D02*
X15355777Y-10696484D01*
X15355777Y-10696484D02*
X15403396Y-10696484D01*
X15403396Y-10696484D02*
X15422444Y-10706008D01*
X15422444Y-10706008D02*
X15431967Y-10715531D01*
X15431967Y-10715531D02*
X15441491Y-10734579D01*
X15441491Y-10734579D02*
X15441491Y-10753627D01*
X15441491Y-10753627D02*
X15431967Y-10782198D01*
X15431967Y-10782198D02*
X15317682Y-10896484D01*
X15317682Y-10896484D02*
X15441491Y-10896484D01*
X15536729Y-10896484D02*
X15574825Y-10896484D01*
X15574825Y-10896484D02*
X15593872Y-10886960D01*
X15593872Y-10886960D02*
X15603396Y-10877436D01*
X15603396Y-10877436D02*
X15622444Y-10848865D01*
X15622444Y-10848865D02*
X15631967Y-10810770D01*
X15631967Y-10810770D02*
X15631967Y-10734579D01*
X15631967Y-10734579D02*
X15622444Y-10715531D01*
X15622444Y-10715531D02*
X15612920Y-10706008D01*
X15612920Y-10706008D02*
X15593872Y-10696484D01*
X15593872Y-10696484D02*
X15555777Y-10696484D01*
X15555777Y-10696484D02*
X15536729Y-10706008D01*
X15536729Y-10706008D02*
X15527206Y-10715531D01*
X15527206Y-10715531D02*
X15517682Y-10734579D01*
X15517682Y-10734579D02*
X15517682Y-10782198D01*
X15517682Y-10782198D02*
X15527206Y-10801246D01*
X15527206Y-10801246D02*
X15536729Y-10810770D01*
X15536729Y-10810770D02*
X15555777Y-10820293D01*
X15555777Y-10820293D02*
X15593872Y-10820293D01*
X15593872Y-10820293D02*
X15612920Y-10810770D01*
X15612920Y-10810770D02*
X15622444Y-10801246D01*
X15622444Y-10801246D02*
X15631967Y-10782198D01*
X15812920Y-10696484D02*
X15717682Y-10696484D01*
X15717682Y-10696484D02*
X15708158Y-10791722D01*
X15708158Y-10791722D02*
X15717682Y-10782198D01*
X15717682Y-10782198D02*
X15736729Y-10772674D01*
X15736729Y-10772674D02*
X15784348Y-10772674D01*
X15784348Y-10772674D02*
X15803396Y-10782198D01*
X15803396Y-10782198D02*
X15812920Y-10791722D01*
X15812920Y-10791722D02*
X15822444Y-10810770D01*
X15822444Y-10810770D02*
X15822444Y-10858389D01*
X15822444Y-10858389D02*
X15812920Y-10877436D01*
X15812920Y-10877436D02*
X15803396Y-10886960D01*
X15803396Y-10886960D02*
X15784348Y-10896484D01*
X15784348Y-10896484D02*
X15736729Y-10896484D01*
X15736729Y-10896484D02*
X15717682Y-10886960D01*
X15717682Y-10886960D02*
X15708158Y-10877436D01*
X15898634Y-10696484D02*
X15898634Y-10734579D01*
X15974825Y-10696484D02*
X15974825Y-10734579D01*
X16270063Y-10972674D02*
X16260539Y-10963150D01*
X16260539Y-10963150D02*
X16241491Y-10934579D01*
X16241491Y-10934579D02*
X16231968Y-10915531D01*
X16231968Y-10915531D02*
X16222444Y-10886960D01*
X16222444Y-10886960D02*
X16212920Y-10839341D01*
X16212920Y-10839341D02*
X16212920Y-10801246D01*
X16212920Y-10801246D02*
X16222444Y-10753627D01*
X16222444Y-10753627D02*
X16231968Y-10725055D01*
X16231968Y-10725055D02*
X16241491Y-10706008D01*
X16241491Y-10706008D02*
X16260539Y-10677436D01*
X16260539Y-10677436D02*
X16270063Y-10667912D01*
X16336729Y-10715531D02*
X16346253Y-10706008D01*
X16346253Y-10706008D02*
X16365301Y-10696484D01*
X16365301Y-10696484D02*
X16412920Y-10696484D01*
X16412920Y-10696484D02*
X16431968Y-10706008D01*
X16431968Y-10706008D02*
X16441491Y-10715531D01*
X16441491Y-10715531D02*
X16451015Y-10734579D01*
X16451015Y-10734579D02*
X16451015Y-10753627D01*
X16451015Y-10753627D02*
X16441491Y-10782198D01*
X16441491Y-10782198D02*
X16327206Y-10896484D01*
X16327206Y-10896484D02*
X16451015Y-10896484D01*
X16689110Y-10896484D02*
X16689110Y-10696484D01*
X16774825Y-10896484D02*
X16774825Y-10791722D01*
X16774825Y-10791722D02*
X16765301Y-10772674D01*
X16765301Y-10772674D02*
X16746253Y-10763150D01*
X16746253Y-10763150D02*
X16717682Y-10763150D01*
X16717682Y-10763150D02*
X16698634Y-10772674D01*
X16698634Y-10772674D02*
X16689110Y-10782198D01*
X16898634Y-10896484D02*
X16879587Y-10886960D01*
X16879587Y-10886960D02*
X16870063Y-10877436D01*
X16870063Y-10877436D02*
X16860539Y-10858389D01*
X16860539Y-10858389D02*
X16860539Y-10801246D01*
X16860539Y-10801246D02*
X16870063Y-10782198D01*
X16870063Y-10782198D02*
X16879587Y-10772674D01*
X16879587Y-10772674D02*
X16898634Y-10763150D01*
X16898634Y-10763150D02*
X16927206Y-10763150D01*
X16927206Y-10763150D02*
X16946253Y-10772674D01*
X16946253Y-10772674D02*
X16955777Y-10782198D01*
X16955777Y-10782198D02*
X16965301Y-10801246D01*
X16965301Y-10801246D02*
X16965301Y-10858389D01*
X16965301Y-10858389D02*
X16955777Y-10877436D01*
X16955777Y-10877436D02*
X16946253Y-10886960D01*
X16946253Y-10886960D02*
X16927206Y-10896484D01*
X16927206Y-10896484D02*
X16898634Y-10896484D01*
X17079587Y-10896484D02*
X17060539Y-10886960D01*
X17060539Y-10886960D02*
X17051015Y-10867912D01*
X17051015Y-10867912D02*
X17051015Y-10696484D01*
X17231968Y-10886960D02*
X17212920Y-10896484D01*
X17212920Y-10896484D02*
X17174825Y-10896484D01*
X17174825Y-10896484D02*
X17155777Y-10886960D01*
X17155777Y-10886960D02*
X17146253Y-10867912D01*
X17146253Y-10867912D02*
X17146253Y-10791722D01*
X17146253Y-10791722D02*
X17155777Y-10772674D01*
X17155777Y-10772674D02*
X17174825Y-10763150D01*
X17174825Y-10763150D02*
X17212920Y-10763150D01*
X17212920Y-10763150D02*
X17231968Y-10772674D01*
X17231968Y-10772674D02*
X17241492Y-10791722D01*
X17241492Y-10791722D02*
X17241492Y-10810770D01*
X17241492Y-10810770D02*
X17146253Y-10829817D01*
X17317682Y-10886960D02*
X17336730Y-10896484D01*
X17336730Y-10896484D02*
X17374825Y-10896484D01*
X17374825Y-10896484D02*
X17393873Y-10886960D01*
X17393873Y-10886960D02*
X17403396Y-10867912D01*
X17403396Y-10867912D02*
X17403396Y-10858389D01*
X17403396Y-10858389D02*
X17393873Y-10839341D01*
X17393873Y-10839341D02*
X17374825Y-10829817D01*
X17374825Y-10829817D02*
X17346253Y-10829817D01*
X17346253Y-10829817D02*
X17327206Y-10820293D01*
X17327206Y-10820293D02*
X17317682Y-10801246D01*
X17317682Y-10801246D02*
X17317682Y-10791722D01*
X17317682Y-10791722D02*
X17327206Y-10772674D01*
X17327206Y-10772674D02*
X17346253Y-10763150D01*
X17346253Y-10763150D02*
X17374825Y-10763150D01*
X17374825Y-10763150D02*
X17393873Y-10772674D01*
X17470063Y-10972674D02*
X17479587Y-10963150D01*
X17479587Y-10963150D02*
X17498634Y-10934579D01*
X17498634Y-10934579D02*
X17508158Y-10915531D01*
X17508158Y-10915531D02*
X17517682Y-10886960D01*
X17517682Y-10886960D02*
X17527206Y-10839341D01*
X17527206Y-10839341D02*
X17527206Y-10801246D01*
X17527206Y-10801246D02*
X17517682Y-10753627D01*
X17517682Y-10753627D02*
X17508158Y-10725055D01*
X17508158Y-10725055D02*
X17498634Y-10706008D01*
X17498634Y-10706008D02*
X17479587Y-10677436D01*
X17479587Y-10677436D02*
X17470063Y-10667912D01*
M02*
