%TF.GenerationSoftware,KiCad,Pcbnew,7.0.9-7.0.9~ubuntu23.04.1*%
%TF.CreationDate,2024-01-10T16:36:44+00:00*%
%TF.ProjectId,test_project,74657374-5f70-4726-9f6a-6563742e6b69,rev?*%
%TF.SameCoordinates,Original*%
%TF.FileFunction,Legend,Top*%
%TF.FilePolarity,Positive*%
%FSLAX46Y46*%
G04 Gerber Fmt 4.6, Leading zero omitted, Abs format (unit mm)*
G04 Created by KiCad (PCBNEW 7.0.9-7.0.9~ubuntu23.04.1) date 2024-01-10 16:36:44*
%MOMM*%
%LPD*%
G01*
G04 APERTURE LIST*
%ADD10C,0.150000*%
%ADD11C,0.120000*%
G04 APERTURE END LIST*
D10*
X135004398Y-95070676D02*
X136718684Y-95070676D01*
X135861541Y-99070676D02*
X135861541Y-95070676D01*
X137718683Y-96975438D02*
X138718683Y-96975438D01*
X139147255Y-99070676D02*
X137718683Y-99070676D01*
X137718683Y-99070676D02*
X137718683Y-95070676D01*
X137718683Y-95070676D02*
X139147255Y-95070676D01*
X140290112Y-98880200D02*
X140718684Y-99070676D01*
X140718684Y-99070676D02*
X141432969Y-99070676D01*
X141432969Y-99070676D02*
X141718684Y-98880200D01*
X141718684Y-98880200D02*
X141861541Y-98689723D01*
X141861541Y-98689723D02*
X142004398Y-98308771D01*
X142004398Y-98308771D02*
X142004398Y-97927819D01*
X142004398Y-97927819D02*
X141861541Y-97546866D01*
X141861541Y-97546866D02*
X141718684Y-97356390D01*
X141718684Y-97356390D02*
X141432969Y-97165914D01*
X141432969Y-97165914D02*
X140861541Y-96975438D01*
X140861541Y-96975438D02*
X140575826Y-96784961D01*
X140575826Y-96784961D02*
X140432969Y-96594485D01*
X140432969Y-96594485D02*
X140290112Y-96213533D01*
X140290112Y-96213533D02*
X140290112Y-95832580D01*
X140290112Y-95832580D02*
X140432969Y-95451628D01*
X140432969Y-95451628D02*
X140575826Y-95261152D01*
X140575826Y-95261152D02*
X140861541Y-95070676D01*
X140861541Y-95070676D02*
X141575826Y-95070676D01*
X141575826Y-95070676D02*
X142004398Y-95261152D01*
X142861541Y-95070676D02*
X144575827Y-95070676D01*
X143718684Y-99070676D02*
X143718684Y-95070676D01*
X141772819Y-87542475D02*
X140772819Y-87542475D01*
X140772819Y-87542475D02*
X140772819Y-87304380D01*
X140772819Y-87304380D02*
X140820438Y-87161523D01*
X140820438Y-87161523D02*
X140915676Y-87066285D01*
X140915676Y-87066285D02*
X141010914Y-87018666D01*
X141010914Y-87018666D02*
X141201390Y-86971047D01*
X141201390Y-86971047D02*
X141344247Y-86971047D01*
X141344247Y-86971047D02*
X141534723Y-87018666D01*
X141534723Y-87018666D02*
X141629961Y-87066285D01*
X141629961Y-87066285D02*
X141725200Y-87161523D01*
X141725200Y-87161523D02*
X141772819Y-87304380D01*
X141772819Y-87304380D02*
X141772819Y-87542475D01*
X141772819Y-86018666D02*
X141772819Y-86590094D01*
X141772819Y-86304380D02*
X140772819Y-86304380D01*
X140772819Y-86304380D02*
X140915676Y-86399618D01*
X140915676Y-86399618D02*
X141010914Y-86494856D01*
X141010914Y-86494856D02*
X141058533Y-86590094D01*
X140772819Y-85399618D02*
X140772819Y-85304380D01*
X140772819Y-85304380D02*
X140820438Y-85209142D01*
X140820438Y-85209142D02*
X140868057Y-85161523D01*
X140868057Y-85161523D02*
X140963295Y-85113904D01*
X140963295Y-85113904D02*
X141153771Y-85066285D01*
X141153771Y-85066285D02*
X141391866Y-85066285D01*
X141391866Y-85066285D02*
X141582342Y-85113904D01*
X141582342Y-85113904D02*
X141677580Y-85161523D01*
X141677580Y-85161523D02*
X141725200Y-85209142D01*
X141725200Y-85209142D02*
X141772819Y-85304380D01*
X141772819Y-85304380D02*
X141772819Y-85399618D01*
X141772819Y-85399618D02*
X141725200Y-85494856D01*
X141725200Y-85494856D02*
X141677580Y-85542475D01*
X141677580Y-85542475D02*
X141582342Y-85590094D01*
X141582342Y-85590094D02*
X141391866Y-85637713D01*
X141391866Y-85637713D02*
X141153771Y-85637713D01*
X141153771Y-85637713D02*
X140963295Y-85590094D01*
X140963295Y-85590094D02*
X140868057Y-85542475D01*
X140868057Y-85542475D02*
X140820438Y-85494856D01*
X140820438Y-85494856D02*
X140772819Y-85399618D01*
X141772819Y-84113904D02*
X141772819Y-84685332D01*
X141772819Y-84399618D02*
X140772819Y-84399618D01*
X140772819Y-84399618D02*
X140915676Y-84494856D01*
X140915676Y-84494856D02*
X141010914Y-84590094D01*
X141010914Y-84590094D02*
X141058533Y-84685332D01*
X144372819Y-92561046D02*
X143896628Y-92894379D01*
X144372819Y-93132474D02*
X143372819Y-93132474D01*
X143372819Y-93132474D02*
X143372819Y-92751522D01*
X143372819Y-92751522D02*
X143420438Y-92656284D01*
X143420438Y-92656284D02*
X143468057Y-92608665D01*
X143468057Y-92608665D02*
X143563295Y-92561046D01*
X143563295Y-92561046D02*
X143706152Y-92561046D01*
X143706152Y-92561046D02*
X143801390Y-92608665D01*
X143801390Y-92608665D02*
X143849009Y-92656284D01*
X143849009Y-92656284D02*
X143896628Y-92751522D01*
X143896628Y-92751522D02*
X143896628Y-93132474D01*
X144372819Y-91608665D02*
X144372819Y-92180093D01*
X144372819Y-91894379D02*
X143372819Y-91894379D01*
X143372819Y-91894379D02*
X143515676Y-91989617D01*
X143515676Y-91989617D02*
X143610914Y-92084855D01*
X143610914Y-92084855D02*
X143658533Y-92180093D01*
X143372819Y-90989617D02*
X143372819Y-90894379D01*
X143372819Y-90894379D02*
X143420438Y-90799141D01*
X143420438Y-90799141D02*
X143468057Y-90751522D01*
X143468057Y-90751522D02*
X143563295Y-90703903D01*
X143563295Y-90703903D02*
X143753771Y-90656284D01*
X143753771Y-90656284D02*
X143991866Y-90656284D01*
X143991866Y-90656284D02*
X144182342Y-90703903D01*
X144182342Y-90703903D02*
X144277580Y-90751522D01*
X144277580Y-90751522D02*
X144325200Y-90799141D01*
X144325200Y-90799141D02*
X144372819Y-90894379D01*
X144372819Y-90894379D02*
X144372819Y-90989617D01*
X144372819Y-90989617D02*
X144325200Y-91084855D01*
X144325200Y-91084855D02*
X144277580Y-91132474D01*
X144277580Y-91132474D02*
X144182342Y-91180093D01*
X144182342Y-91180093D02*
X143991866Y-91227712D01*
X143991866Y-91227712D02*
X143753771Y-91227712D01*
X143753771Y-91227712D02*
X143563295Y-91180093D01*
X143563295Y-91180093D02*
X143468057Y-91132474D01*
X143468057Y-91132474D02*
X143420438Y-91084855D01*
X143420438Y-91084855D02*
X143372819Y-90989617D01*
X144372819Y-89703903D02*
X144372819Y-90275331D01*
X144372819Y-89989617D02*
X143372819Y-89989617D01*
X143372819Y-89989617D02*
X143515676Y-90084855D01*
X143515676Y-90084855D02*
X143610914Y-90180093D01*
X143610914Y-90180093D02*
X143658533Y-90275331D01*
X132190819Y-89677714D02*
X132905104Y-89677714D01*
X132905104Y-89677714D02*
X133047961Y-89725333D01*
X133047961Y-89725333D02*
X133143200Y-89820571D01*
X133143200Y-89820571D02*
X133190819Y-89963428D01*
X133190819Y-89963428D02*
X133190819Y-90058666D01*
X133190819Y-88677714D02*
X133190819Y-89249142D01*
X133190819Y-88963428D02*
X132190819Y-88963428D01*
X132190819Y-88963428D02*
X132333676Y-89058666D01*
X132333676Y-89058666D02*
X132428914Y-89153904D01*
X132428914Y-89153904D02*
X132476533Y-89249142D01*
X132190819Y-88058666D02*
X132190819Y-87963428D01*
X132190819Y-87963428D02*
X132238438Y-87868190D01*
X132238438Y-87868190D02*
X132286057Y-87820571D01*
X132286057Y-87820571D02*
X132381295Y-87772952D01*
X132381295Y-87772952D02*
X132571771Y-87725333D01*
X132571771Y-87725333D02*
X132809866Y-87725333D01*
X132809866Y-87725333D02*
X133000342Y-87772952D01*
X133000342Y-87772952D02*
X133095580Y-87820571D01*
X133095580Y-87820571D02*
X133143200Y-87868190D01*
X133143200Y-87868190D02*
X133190819Y-87963428D01*
X133190819Y-87963428D02*
X133190819Y-88058666D01*
X133190819Y-88058666D02*
X133143200Y-88153904D01*
X133143200Y-88153904D02*
X133095580Y-88201523D01*
X133095580Y-88201523D02*
X133000342Y-88249142D01*
X133000342Y-88249142D02*
X132809866Y-88296761D01*
X132809866Y-88296761D02*
X132571771Y-88296761D01*
X132571771Y-88296761D02*
X132381295Y-88249142D01*
X132381295Y-88249142D02*
X132286057Y-88201523D01*
X132286057Y-88201523D02*
X132238438Y-88153904D01*
X132238438Y-88153904D02*
X132190819Y-88058666D01*
X133190819Y-86772952D02*
X133190819Y-87344380D01*
X133190819Y-87058666D02*
X132190819Y-87058666D01*
X132190819Y-87058666D02*
X132333676Y-87153904D01*
X132333676Y-87153904D02*
X132428914Y-87249142D01*
X132428914Y-87249142D02*
X132476533Y-87344380D01*
D11*
%TO.C,D101*%
X142013000Y-87337000D02*
X143483000Y-87337000D01*
X143483000Y-87337000D02*
X143483000Y-85052000D01*
X142013000Y-85052000D02*
X142013000Y-87337000D01*
%TO.C,R101*%
X143128000Y-91288358D02*
X143128000Y-91595640D01*
X142368000Y-91288358D02*
X142368000Y-91595640D01*
%TO.C,J101*%
X133526000Y-91752000D02*
X134776000Y-91752000D01*
X133826000Y-91452000D02*
X138546000Y-91452000D01*
X135136000Y-91452000D02*
X135136000Y-90842000D01*
X136436000Y-91452000D02*
X136436000Y-90842000D01*
X138546000Y-91452000D02*
X138546000Y-85332000D01*
X134436000Y-90842000D02*
X137936000Y-90842000D01*
X137936000Y-90842000D02*
X137936000Y-85942000D01*
X133526000Y-90502000D02*
X133526000Y-91752000D01*
X133626000Y-89992000D02*
X133826000Y-89992000D01*
X133626000Y-89692000D02*
X133626000Y-89992000D01*
X133726000Y-89692000D02*
X133726000Y-89992000D01*
X133826000Y-89692000D02*
X133626000Y-89692000D01*
X133826000Y-88892000D02*
X134436000Y-88892000D01*
X134436000Y-88892000D02*
X134436000Y-90842000D01*
X137436000Y-88492000D02*
X137436000Y-88292000D01*
X137936000Y-88492000D02*
X137436000Y-88492000D01*
X137936000Y-88392000D02*
X137436000Y-88392000D01*
X137436000Y-88292000D02*
X137936000Y-88292000D01*
X134436000Y-87892000D02*
X133826000Y-87892000D01*
X134436000Y-85942000D02*
X134436000Y-87892000D01*
X137936000Y-85942000D02*
X134436000Y-85942000D01*
X133826000Y-85332000D02*
X133826000Y-91452000D01*
X135136000Y-85332000D02*
X135136000Y-85942000D01*
X136436000Y-85332000D02*
X136436000Y-85942000D01*
X138546000Y-85332000D02*
X133826000Y-85332000D01*
%TD*%
M02*
