%TF.GenerationSoftware,KiCad,Pcbnew,7.0.9-7.0.9~ubuntu23.04.1*%
%TF.CreationDate,2024-01-10T16:36:44+00:00*%
%TF.ProjectId,test_project,74657374-5f70-4726-9f6a-6563742e6b69,rev?*%
%TF.SameCoordinates,Original*%
%TF.FileFunction,Drillmap*%
%TF.FilePolarity,Positive*%
%FSLAX45Y45*%
G04 Gerber Fmt 4.5, Leading zero omitted, Abs format (unit mm)*
G04 Created by KiCad (PCBNEW 7.0.9-7.0.9~ubuntu23.04.1) date 2024-01-10 16:36:44*
%MOMM*%
%LPD*%
G01*
G04 APERTURE LIST*
%ADD10C,0.100000*%
%ADD11C,0.200000*%
G04 APERTURE END LIST*
D10*
X12700000Y-7620000D02*
X15240000Y-7620000D01*
X15240000Y-10160000D01*
X12700000Y-10160000D01*
X12700000Y-7620000D01*
D11*
X12955777Y-10476484D02*
X12955777Y-10276484D01*
X12955777Y-10276484D02*
X13003396Y-10276484D01*
X13003396Y-10276484D02*
X13031967Y-10286008D01*
X13031967Y-10286008D02*
X13051015Y-10305055D01*
X13051015Y-10305055D02*
X13060539Y-10324103D01*
X13060539Y-10324103D02*
X13070062Y-10362198D01*
X13070062Y-10362198D02*
X13070062Y-10390770D01*
X13070062Y-10390770D02*
X13060539Y-10428865D01*
X13060539Y-10428865D02*
X13051015Y-10447912D01*
X13051015Y-10447912D02*
X13031967Y-10466960D01*
X13031967Y-10466960D02*
X13003396Y-10476484D01*
X13003396Y-10476484D02*
X12955777Y-10476484D01*
X13155777Y-10476484D02*
X13155777Y-10343150D01*
X13155777Y-10381246D02*
X13165301Y-10362198D01*
X13165301Y-10362198D02*
X13174824Y-10352674D01*
X13174824Y-10352674D02*
X13193872Y-10343150D01*
X13193872Y-10343150D02*
X13212920Y-10343150D01*
X13279586Y-10476484D02*
X13279586Y-10343150D01*
X13279586Y-10276484D02*
X13270062Y-10286008D01*
X13270062Y-10286008D02*
X13279586Y-10295531D01*
X13279586Y-10295531D02*
X13289110Y-10286008D01*
X13289110Y-10286008D02*
X13279586Y-10276484D01*
X13279586Y-10276484D02*
X13279586Y-10295531D01*
X13403396Y-10476484D02*
X13384348Y-10466960D01*
X13384348Y-10466960D02*
X13374824Y-10447912D01*
X13374824Y-10447912D02*
X13374824Y-10276484D01*
X13508158Y-10476484D02*
X13489110Y-10466960D01*
X13489110Y-10466960D02*
X13479586Y-10447912D01*
X13479586Y-10447912D02*
X13479586Y-10276484D01*
X13736729Y-10476484D02*
X13736729Y-10276484D01*
X13736729Y-10276484D02*
X13803396Y-10419341D01*
X13803396Y-10419341D02*
X13870062Y-10276484D01*
X13870062Y-10276484D02*
X13870062Y-10476484D01*
X14051015Y-10476484D02*
X14051015Y-10371722D01*
X14051015Y-10371722D02*
X14041491Y-10352674D01*
X14041491Y-10352674D02*
X14022443Y-10343150D01*
X14022443Y-10343150D02*
X13984348Y-10343150D01*
X13984348Y-10343150D02*
X13965301Y-10352674D01*
X14051015Y-10466960D02*
X14031967Y-10476484D01*
X14031967Y-10476484D02*
X13984348Y-10476484D01*
X13984348Y-10476484D02*
X13965301Y-10466960D01*
X13965301Y-10466960D02*
X13955777Y-10447912D01*
X13955777Y-10447912D02*
X13955777Y-10428865D01*
X13955777Y-10428865D02*
X13965301Y-10409817D01*
X13965301Y-10409817D02*
X13984348Y-10400293D01*
X13984348Y-10400293D02*
X14031967Y-10400293D01*
X14031967Y-10400293D02*
X14051015Y-10390770D01*
X14146253Y-10343150D02*
X14146253Y-10543150D01*
X14146253Y-10352674D02*
X14165301Y-10343150D01*
X14165301Y-10343150D02*
X14203396Y-10343150D01*
X14203396Y-10343150D02*
X14222443Y-10352674D01*
X14222443Y-10352674D02*
X14231967Y-10362198D01*
X14231967Y-10362198D02*
X14241491Y-10381246D01*
X14241491Y-10381246D02*
X14241491Y-10438389D01*
X14241491Y-10438389D02*
X14231967Y-10457436D01*
X14231967Y-10457436D02*
X14222443Y-10466960D01*
X14222443Y-10466960D02*
X14203396Y-10476484D01*
X14203396Y-10476484D02*
X14165301Y-10476484D01*
X14165301Y-10476484D02*
X14146253Y-10466960D01*
X14327205Y-10457436D02*
X14336729Y-10466960D01*
X14336729Y-10466960D02*
X14327205Y-10476484D01*
X14327205Y-10476484D02*
X14317682Y-10466960D01*
X14317682Y-10466960D02*
X14327205Y-10457436D01*
X14327205Y-10457436D02*
X14327205Y-10476484D01*
X14327205Y-10352674D02*
X14336729Y-10362198D01*
X14336729Y-10362198D02*
X14327205Y-10371722D01*
X14327205Y-10371722D02*
X14317682Y-10362198D01*
X14317682Y-10362198D02*
X14327205Y-10352674D01*
X14327205Y-10352674D02*
X14327205Y-10371722D01*
M02*
