G04 #@! TF.GenerationSoftware,KiCad,Pcbnew,7.0.9-7.0.9~ubuntu23.04.1*
G04 #@! TF.CreationDate,2024-01-10T16:35:43+00:00*
G04 #@! TF.ProjectId,test_project,74657374-5f70-4726-9f6a-6563742e6b69,rev?*
G04 #@! TF.SameCoordinates,Original*
G04 #@! TF.FileFunction,Copper,L4,Bot*
G04 #@! TF.FilePolarity,Positive*
%FSLAX46Y46*%
G04 Gerber Fmt 4.6, Leading zero omitted, Abs format (unit mm)*
G04 Created by KiCad (PCBNEW 7.0.9-7.0.9~ubuntu23.04.1) date 2024-01-10 16:35:43*
%MOMM*%
%LPD*%
G01*
G04 APERTURE LIST*
G04 #@! TA.AperFunction,ComponentPad*
%ADD10O,1.750000X1.200000*%
G04 #@! TD*
G04 APERTURE END LIST*
G04 #@! TA.AperFunction,ComponentPad*
G36*
G01*
X136261000Y-89992000D02*
X135011000Y-89992000D01*
G75*
G02*
X134761000Y-89742000I0J250000D01*
G01*
X134761000Y-89042000D01*
G75*
G02*
X135011000Y-88792000I250000J0D01*
G01*
X136261000Y-88792000D01*
G75*
G02*
X136511000Y-89042000I0J-250000D01*
G01*
X136511000Y-89742000D01*
G75*
G02*
X136261000Y-89992000I-250000J0D01*
G01*
G37*
G04 #@! TD.AperFunction*
D10*
X135636000Y-87392000D03*
G04 #@! TA.AperFunction,Conductor*
G36*
X151942539Y-76620185D02*
G01*
X151988294Y-76672989D01*
X151999500Y-76724500D01*
X151999500Y-101075500D01*
X151979815Y-101142539D01*
X151927011Y-101188294D01*
X151875500Y-101199500D01*
X127524500Y-101199500D01*
X127457461Y-101179815D01*
X127411706Y-101127011D01*
X127400500Y-101075500D01*
X127400500Y-87339401D01*
X134256746Y-87339401D01*
X134266745Y-87549327D01*
X134316296Y-87753578D01*
X134316298Y-87753582D01*
X134403598Y-87944743D01*
X134403601Y-87944748D01*
X134403602Y-87944750D01*
X134403604Y-87944753D01*
X134466627Y-88033256D01*
X134525515Y-88115953D01*
X134628456Y-88214107D01*
X134663391Y-88274616D01*
X134660066Y-88344406D01*
X134619538Y-88401321D01*
X134607983Y-88409388D01*
X134542659Y-88449680D01*
X134542655Y-88449683D01*
X134418684Y-88573654D01*
X134326643Y-88722875D01*
X134326641Y-88722880D01*
X134271494Y-88889302D01*
X134271493Y-88889309D01*
X134261000Y-88992013D01*
X134261000Y-89142000D01*
X135356440Y-89142000D01*
X135317722Y-89184059D01*
X135267449Y-89298670D01*
X135257114Y-89423395D01*
X135287837Y-89544719D01*
X135351394Y-89642000D01*
X134261001Y-89642000D01*
X134261001Y-89791986D01*
X134271494Y-89894697D01*
X134326641Y-90061119D01*
X134326643Y-90061124D01*
X134418684Y-90210345D01*
X134542654Y-90334315D01*
X134691875Y-90426356D01*
X134691880Y-90426358D01*
X134858302Y-90481505D01*
X134858309Y-90481506D01*
X134961019Y-90491999D01*
X135385999Y-90491999D01*
X135386000Y-90491998D01*
X135386000Y-89672617D01*
X135455052Y-89726363D01*
X135573424Y-89767000D01*
X135667073Y-89767000D01*
X135759446Y-89751586D01*
X135869514Y-89692019D01*
X135886000Y-89674110D01*
X135886000Y-90491999D01*
X136310972Y-90491999D01*
X136310986Y-90491998D01*
X136413697Y-90481505D01*
X136580119Y-90426358D01*
X136580124Y-90426356D01*
X136729345Y-90334315D01*
X136853315Y-90210345D01*
X136945356Y-90061124D01*
X136945358Y-90061119D01*
X137000505Y-89894697D01*
X137000506Y-89894690D01*
X137010999Y-89791986D01*
X137011000Y-89791973D01*
X137011000Y-89642000D01*
X135915560Y-89642000D01*
X135954278Y-89599941D01*
X136004551Y-89485330D01*
X136014886Y-89360605D01*
X135984163Y-89239281D01*
X135920606Y-89142000D01*
X137010999Y-89142000D01*
X137010999Y-88992028D01*
X137010998Y-88992013D01*
X137000505Y-88889302D01*
X136945358Y-88722880D01*
X136945356Y-88722875D01*
X136853315Y-88573654D01*
X136729344Y-88449683D01*
X136729340Y-88449680D01*
X136665841Y-88410513D01*
X136619116Y-88358565D01*
X136607895Y-88289603D01*
X136635738Y-88225521D01*
X136654289Y-88207503D01*
X136673882Y-88192095D01*
X136673881Y-88192095D01*
X136673886Y-88192092D01*
X136811519Y-88033256D01*
X136916604Y-87851244D01*
X136985344Y-87652633D01*
X137015254Y-87444602D01*
X137005254Y-87234670D01*
X136955704Y-87030424D01*
X136955701Y-87030417D01*
X136868401Y-86839256D01*
X136868398Y-86839251D01*
X136868397Y-86839250D01*
X136868396Y-86839247D01*
X136746486Y-86668048D01*
X136746484Y-86668046D01*
X136746479Y-86668040D01*
X136594379Y-86523014D01*
X136417574Y-86409388D01*
X136222455Y-86331274D01*
X136016086Y-86291500D01*
X136016085Y-86291500D01*
X135308575Y-86291500D01*
X135151782Y-86306472D01*
X135151778Y-86306473D01*
X134950127Y-86365683D01*
X134763313Y-86461991D01*
X134598116Y-86591905D01*
X134598112Y-86591909D01*
X134460478Y-86750746D01*
X134355398Y-86932750D01*
X134286656Y-87131365D01*
X134286656Y-87131367D01*
X134271804Y-87234670D01*
X134256746Y-87339401D01*
X127400500Y-87339401D01*
X127400500Y-76724500D01*
X127420185Y-76657461D01*
X127472989Y-76611706D01*
X127524500Y-76600500D01*
X151875500Y-76600500D01*
X151942539Y-76620185D01*
G37*
G04 #@! TD.AperFunction*
M02*
